M48
; DRILL file KiCad 10.0.6 date 2026-10-04T15:24:34
; FORMAT={-:-/ absolute / metric / decimal}
; #@! TF.CreationDate,2026-10-04T15:24:34+02:00
; #@! TF.GenerationSoftware,Kicad,Pcbnew,10.0.6
; #@! TF.FileFunction,Plated,1,2,PTH
FMAT,2
METRIC
; #@! TA.AperFunction,Plated,PTH,ComponentDrill
T1C0.200
; #@! TA.AperFunction,Plated,PTH,ViaDrill
T2C0.300
; #@! TA.AperFunction,Plated,PTH,ComponentDrill
T3C0.800
; #@! TA.AperFunction,Plated,PTH,ComponentDrill
T4C1.000
; #@! TA.AperFunction,Plated,PTH,ComponentDrill
T5C1.500
; #@! TA.AperFunction,Plated,PTH,ComponentDrill
T6C2.200
%
G90
G05
T1
X252.315Y-50.58
X252.315Y-51.98
X253.015Y-49.88
X253.015Y-51.28
X253.015Y-52.68
X253.715Y-50.58
X253.715Y-51.98
X254.415Y-49.88
X254.415Y-51.28
X254.415Y-52.68
X255.115Y-50.58
X255.115Y-51.98
T2
X33.285Y-100.62
X34.72Y-64.43
X35.763Y-64.023
X39.71Y-102.93
X47.32Y-139.62
X62.698Y-103.555
X63.098Y-103.832
X63.28Y-83.125
X65.309Y-84.375
X66.07Y-139.57
X69.14Y-103.555
X81.8Y-104.48
X82.28Y-58.45
X82.29Y-83.4
X85.475Y-97.635
X86.79Y-97.53
X87.0Y-139.0
X87.0Y-139.0
X87.92Y-138.97
X88.43Y-58.47
X88.81Y-138.95
X88.82Y-103.555
X90.77Y-87.38
X93.16Y-85.495
X96.905Y-96.431
X98.155Y-96.0
X101.29Y-83.755
X101.708Y-104.652
X104.37Y-95.855
X104.525Y-97.555
X115.01Y-103.555
X115.865Y-95.48
X115.865Y-96.38
X117.57Y-96.475
X118.651Y-96.025
X120.37Y-83.685
X120.973Y-105.237
X122.215Y-106.53
X126.76Y-103.555
X130.88Y-103.64
X131.63Y-58.46
X131.681Y-59.258
X132.625Y-59.24
X133.25Y-56.58
X134.49Y-58.49
X134.915Y-95.76
X134.915Y-96.56
X134.915Y-96.71
X135.8Y-59.115
X137.32Y-96.555
X137.79Y-103.555
X139.275Y-83.638
X139.638Y-104.832
X141.56Y-96.035
X141.9Y-104.17
X143.035Y-97.805
X143.035Y-99.24
X145.97Y-136.235
X146.41Y-103.555
X151.69Y-132.315
X152.42Y-90.075
X153.915Y-96.513
X156.38Y-96.475
X159.003Y-104.677
X162.035Y-97.725
X163.42Y-101.76
X165.02Y-90.525
X167.78Y-136.235
X167.97Y-86.565
X168.55Y-82.255
X169.32Y-79.445
X172.87Y-131.65
X172.925Y-93.068
X172.925Y-96.47
X175.1Y-96.555
X176.695Y-104.79
X176.705Y-66.22
X177.8Y-81.25
X177.992Y-66.205
X179.03Y-41.625
X179.81Y-101.71
X179.84Y-41.175
X180.46Y-107.7
X180.56Y-105.625
X181.99Y-39.025
X182.137Y-90.525
X182.73Y-58.51
X183.04Y-101.54
X183.125Y-59.206
X184.38Y-136.235
X184.56Y-58.57
X184.58Y-103.555
X185.03Y-38.4
X185.383Y-60.277
X185.49Y-97.185
X185.8Y-97.185
X186.24Y-102.205
X187.27Y-90.525
X187.95Y-86.565
X188.44Y-103.63
X188.515Y-61.53
X189.17Y-82.255
X189.3Y-78.2
X189.34Y-86.565
X189.92Y-61.765
X190.013Y-82.977
X190.11Y-79.4
X190.33Y-103.565
X190.76Y-103.565
X191.2Y-62.39
X191.82Y-103.955
X192.025Y-96.32
X193.33Y-59.535
X194.72Y-131.2
X194.85Y-96.385
X196.01Y-138.77
X196.54Y-81.21
X197.21Y-101.58
X198.375Y-106.27
X200.93Y-89.625
X200.995Y-90.422
X201.75Y-89.625
X202.03Y-101.8
X202.13Y-86.565
X203.068Y-40.742
X203.744Y-41.418
X204.02Y-82.255
X205.192Y-41.098
X205.223Y-61.765
X205.503Y-43.177
X205.609Y-86.565
X205.78Y-82.255
X205.978Y-61.238
X206.409Y-86.565
X206.479Y-41.501
X206.62Y-79.445
X206.655Y-58.605
X206.79Y-103.555
X206.91Y-61.235
X206.962Y-87.142
X206.98Y-82.255
X207.02Y-89.625
X207.245Y-77.28
X207.82Y-89.625
X208.14Y-59.535
X208.16Y-74.14
X208.34Y-82.255
X208.37Y-86.565
X208.495Y-78.85
X208.99Y-61.235
X209.016Y-43.154
X209.19Y-103.555
X209.229Y-62.485
X209.23Y-82.255
X209.725Y-76.96
X209.731Y-62.261
X210.42Y-61.235
X210.56Y-59.085
X212.52Y-104.24
X214.405Y-56.655
X214.586Y-53.533
X215.152Y-54.098
X215.812Y-54.758
X216.447Y-55.393
X216.75Y-55.727
X217.105Y-58.635
X217.331Y-56.278
X217.65Y-67.215
X217.897Y-56.843
X218.462Y-57.409
X219.15Y-65.27
X219.317Y-57.627
X219.875Y-58.2
X219.875Y-60.27
X219.875Y-61.07
X222.62Y-104.21
X222.89Y-138.42
X223.86Y-54.768
X225.094Y-57.0
X225.18Y-61.405
X225.218Y-56.21
X225.777Y-54.483
X226.515Y-106.74
X226.741Y-54.564
X226.79Y-69.775
X227.28Y-60.955
X227.65Y-67.645
X227.65Y-86.115
X228.69Y-67.645
X229.65Y-85.98
X229.95Y-69.15
X230.49Y-103.65
X230.535Y-67.83
X230.535Y-70.5
X230.535Y-70.84
X230.535Y-81.61
X230.535Y-83.32
X230.58Y-86.79
X231.041Y-85.475
X231.33Y-60.505
X231.49Y-65.93
X232.12Y-67.03
X232.383Y-89.757
X232.383Y-89.757
X232.515Y-113.57
X232.85Y-66.08
X232.928Y-117.03
X232.965Y-99.19
X233.39Y-118.22
X233.415Y-96.15
X233.66Y-68.49
X233.68Y-79.95
X233.96Y-64.94
X234.015Y-119.321
X234.138Y-67.128
X234.665Y-92.52
X234.665Y-119.91
X234.68Y-68.66
X235.078Y-58.763
X235.115Y-90.63
X235.115Y-120.87
X235.22Y-89.63
X235.25Y-86.52
X235.86Y-84.4
X236.24Y-83.68
X236.365Y-116.14
X236.46Y-65.58
X236.623Y-60.393
X236.943Y-65.483
X237.0Y-85.025
X237.337Y-80.583
X237.622Y-66.572
X237.98Y-83.07
X238.133Y-64.905
X238.221Y-63.205
X238.41Y-67.197
X238.43Y-57.793
X238.766Y-67.913
X239.01Y-85.14
X239.28Y-80.495
X239.327Y-88.67
X239.71Y-103.32
X239.73Y-118.445
X239.848Y-104.342
X240.37Y-105.25
X240.402Y-102.919
X240.743Y-56.543
X240.76Y-88.055
X240.9Y-60.605
X241.04Y-79.915
X241.303Y-88.642
X241.61Y-61.055
X241.765Y-57.079
X241.765Y-57.343
X242.215Y-56.33
X242.31Y-118.895
X242.45Y-61.505
X242.665Y-51.15
X243.115Y-50.31
X243.116Y-83.844
X243.565Y-49.22
X243.59Y-119.345
X244.015Y-47.57
X244.015Y-61.955
X244.015Y-62.755
X244.147Y-68.797
X244.88Y-119.795
X245.816Y-86.544
X245.9Y-64.905
X246.17Y-120.245
X246.22Y-73.25
X246.29Y-87.22
X246.465Y-47.37
X246.465Y-48.64
X246.465Y-49.91
X246.465Y-51.18
X246.465Y-53.72
X246.465Y-56.26
X246.465Y-57.53
X246.67Y-72.19
X247.295Y-84.51
X247.295Y-87.14
X247.44Y-119.8
X247.605Y-70.64
X247.78Y-131.65
X247.92Y-52.68
X248.31Y-58.75
X248.47Y-63.205
X248.545Y-87.19
X248.545Y-87.51
X248.56Y-65.705
X248.69Y-42.935
X248.8Y-44.185
X248.855Y-74.75
X249.01Y-74.38
X249.305Y-66.34
X249.425Y-53.31
X249.425Y-54.61
X249.5Y-61.32
X249.51Y-134.985
X249.9Y-106.85
X249.96Y-105.515
X250.509Y-71.941
X250.62Y-74.593
X250.74Y-66.155
X250.77Y-61.32
X251.11Y-134.985
X251.21Y-105.07
X251.25Y-106.86
X251.556Y-48.876
X251.742Y-58.868
X251.76Y-115.13
X251.785Y-87.15
X251.82Y-114.332
X251.82Y-115.57
X251.82Y-124.98
X251.82Y-127.48
X251.82Y-129.18
X252.185Y-90.137
X252.28Y-139.52
X252.32Y-131.3
X252.47Y-105.46
X252.48Y-106.765
X252.83Y-89.425
X252.85Y-66.78
X252.96Y-76.487
X253.035Y-87.11
X253.08Y-72.04
X253.13Y-75.237
X253.31Y-61.32
X253.32Y-76.487
X253.435Y-90.79
X253.435Y-90.92
X253.435Y-102.39
X253.56Y-120.12
X253.59Y-42.935
X253.688Y-82.408
X253.845Y-77.091
X254.51Y-121.95
X254.569Y-75.117
X254.58Y-61.32
X254.58Y-67.405
X254.91Y-126.855
X254.98Y-132.9
X255.01Y-136.02
X255.135Y-105.7
X255.135Y-134.485
X255.135Y-138.95
X255.135Y-133.685
X255.334Y-103.552
X255.382Y-76.072
X255.85Y-61.32
X255.925Y-93.968
X256.08Y-103.84
X256.085Y-69.32
X256.374Y-71.238
X256.375Y-93.17
X256.375Y-100.75
X256.385Y-131.31
X256.76Y-138.97
X257.16Y-136.06
X257.18Y-62.47
X257.181Y-131.386
X257.275Y-92.11
X257.3Y-87.725
X257.375Y-122.92
X257.69Y-68.03
X257.712Y-91.439
X257.97Y-73.947
X258.15Y-90.769
X258.303Y-68.857
X258.38Y-85.45
X258.39Y-61.32
X258.47Y-64.455
X258.625Y-90.126
X258.625Y-129.52
X258.941Y-70.379
X259.075Y-89.38
X259.075Y-125.57
X259.66Y-61.32
X259.83Y-64.905
X259.92Y-73.322
X259.92Y-75.862
X259.92Y-80.942
X259.92Y-82.212
X259.92Y-83.483
X260.238Y-88.452
X260.775Y-99.24
X260.775Y-121.95
X261.2Y-88.18
X261.4Y-114.55
X261.418Y-71.972
X261.515Y-58.905
X261.565Y-91.715
X261.85Y-113.15
X261.886Y-70.672
X261.895Y-87.395
X261.9Y-65.805
X261.965Y-50.47
X262.2Y-61.32
X262.339Y-91.915
X262.452Y-71.238
X262.52Y-86.85
X262.67Y-44.185
X262.925Y-96.308
X263.264Y-85.791
X263.889Y-81.59
X263.889Y-82.6
X263.889Y-83.4
X263.965Y-46.1
X263.965Y-51.18
X263.965Y-52.45
X264.74Y-74.41
X264.775Y-72.365
X264.775Y-73.45
X266.025Y-72.99
X266.025Y-74.45
X266.205Y-54.98
X266.489Y-75.56
X266.65Y-67.02
X266.931Y-73.052
X267.556Y-74.48
X267.905Y-51.16
X267.905Y-52.76
X268.18Y-42.37
X270.07Y-45.86
X271.32Y-47.76
X271.77Y-55.71
T3
X40.65Y-125.58
X40.84Y-104.58
X48.27Y-125.58
X48.46Y-104.58
X59.43Y-104.58
X59.65Y-125.58
X67.05Y-104.58
X67.27Y-125.58
X78.48Y-104.58
X78.65Y-125.58
X86.1Y-104.58
X86.27Y-125.58
X97.53Y-104.58
X97.65Y-125.58
X105.15Y-104.58
X105.27Y-125.58
X116.65Y-125.58
X116.99Y-104.58
X124.27Y-125.58
X124.61Y-104.58
X135.65Y-125.58
X136.04Y-104.58
X143.27Y-125.58
X143.66Y-104.58
X154.65Y-125.58
X155.04Y-104.58
X162.27Y-125.58
X162.66Y-104.58
X173.65Y-125.58
X174.05Y-104.58
X181.27Y-125.58
X181.67Y-104.58
X193.15Y-104.58
X193.65Y-125.58
X200.77Y-104.58
X201.27Y-125.58
X219.65Y-104.08
X219.65Y-126.08
X227.27Y-104.08
X227.27Y-126.08
T4
X41.15Y-139.58
X41.65Y-81.63
X43.69Y-139.58
X44.15Y-81.63
X46.23Y-139.58
X46.65Y-81.63
X60.24Y-139.58
X60.74Y-81.63
X62.78Y-139.58
X63.24Y-81.63
X65.32Y-139.58
X65.74Y-81.63
X79.29Y-139.58
X79.79Y-81.63
X81.83Y-139.58
X82.25Y-42.08
X82.25Y-56.58
X82.29Y-81.63
X84.37Y-139.58
X84.75Y-56.58
X84.79Y-81.63
X87.25Y-42.08
X87.25Y-56.58
X98.34Y-139.58
X98.84Y-81.63
X100.88Y-139.58
X101.34Y-81.63
X103.42Y-139.58
X103.84Y-81.63
X117.3Y-139.58
X117.8Y-81.63
X119.84Y-139.58
X120.3Y-81.63
X122.38Y-139.58
X122.8Y-81.63
X130.75Y-42.08
X130.75Y-56.58
X133.25Y-56.58
X135.75Y-42.08
X135.75Y-56.58
X136.35Y-139.58
X136.85Y-81.63
X138.89Y-139.58
X139.35Y-81.63
X141.43Y-139.58
X141.85Y-81.63
X155.35Y-139.58
X155.85Y-81.63
X157.89Y-139.58
X158.35Y-81.63
X160.43Y-139.58
X160.85Y-81.63
X174.36Y-139.58
X174.86Y-81.63
X176.9Y-139.58
X177.36Y-81.63
X179.44Y-139.58
X179.86Y-81.63
X181.25Y-42.08
X181.25Y-56.58
X183.75Y-56.58
X186.25Y-42.08
X186.25Y-56.58
X193.46Y-139.58
X193.96Y-81.63
X196.0Y-139.58
X196.46Y-81.63
X198.54Y-139.58
X198.96Y-81.63
X220.35Y-139.58
X220.85Y-81.63
X222.89Y-139.58
X223.35Y-81.63
X225.43Y-139.58
X225.85Y-81.63
T5
X40.34Y-91.54
X40.34Y-112.04
X46.69Y-89.0
X46.69Y-109.5
X59.43Y-91.54
X59.43Y-112.04
X65.78Y-89.0
X65.78Y-109.5
X78.48Y-91.54
X78.48Y-112.04
X84.83Y-89.0
X84.83Y-109.5
X97.53Y-91.54
X97.53Y-112.04
X103.88Y-89.0
X103.88Y-109.5
X116.49Y-91.54
X116.49Y-112.04
X122.84Y-89.0
X122.84Y-109.5
X135.54Y-91.54
X135.54Y-112.04
X141.89Y-89.0
X141.89Y-109.5
X154.54Y-91.54
X154.54Y-112.04
X160.89Y-89.0
X160.89Y-109.5
X173.55Y-91.54
X173.55Y-112.04
X179.9Y-89.0
X179.9Y-109.5
X192.65Y-91.54
X192.65Y-112.04
X199.0Y-89.0
X199.0Y-109.5
X219.54Y-91.54
X219.54Y-112.04
X225.89Y-89.0
X225.89Y-109.5
T6
X39.75Y-74.63
X48.55Y-74.63
X58.84Y-74.63
X67.64Y-74.63
X77.89Y-74.63
X86.69Y-74.63
X96.94Y-74.63
X105.74Y-74.63
X115.9Y-74.63
X124.7Y-74.63
X134.95Y-74.63
X143.75Y-74.63
X153.95Y-74.63
X162.75Y-74.63
X172.96Y-74.63
X181.76Y-74.63
X192.06Y-74.63
X200.86Y-74.63
X218.95Y-74.63
X227.75Y-74.63
T5
G00X79.15Y-49.73
M15
G01X79.15Y-48.43
M16
G05
G00X90.35Y-49.73
M15
G01X90.35Y-48.43
M16
G05
G00X127.65Y-49.73
M15
G01X127.65Y-48.43
M16
G05
G00X138.85Y-49.73
M15
G01X138.85Y-48.43
M16
G05
G00X178.15Y-49.73
M15
G01X178.15Y-48.43
M16
G05
G00X189.35Y-49.73
M15
G01X189.35Y-48.43
M16
G05
M30
