%TF.GenerationSoftware,KiCad,Pcbnew,10.0.6*%
%TF.CreationDate,2026-10-06T15:00:39+02:00*%
%TF.ProjectId,KiCad - MIDI-controller,4b694361-6420-42d2-904d-4944492d636f,rev?*%
%TF.SameCoordinates,Original*%
%TF.FileFunction,Drillmap*%
%TF.FilePolarity,Positive*%
%FSLAX45Y45*%
G04 Gerber Fmt 4.5, Leading zero omitted, Abs format (unit mm)*
G04 Created by KiCad (PCBNEW 10.0.6) date 2026-10-06 15:00:39*
%MOMM*%
%LPD*%
G01*
G04 APERTURE LIST*
%ADD10C,0.050000*%
%ADD11C,0.200000*%
%ADD12C,0.100000*%
%ADD13C,0.120000*%
%ADD14C,0.150000*%
%ADD15C,0.220000*%
G04 APERTURE END LIST*
D10*
X3164000Y-3540000D02*
X27264000Y-3540000D01*
X27264000Y-14318000D01*
X3164000Y-14318000D01*
X3164000Y-3540000D01*
D11*
D12*
X3313500Y-10047000D02*
X3343500Y-10077000D01*
X3343500Y-10047000D02*
X3313500Y-10077000D01*
X3456986Y-6427986D02*
X3486986Y-6457986D01*
X3486986Y-6427986D02*
X3456986Y-6457986D01*
X3561306Y-6387306D02*
X3591306Y-6417306D01*
X3591306Y-6387306D02*
X3561306Y-6417306D01*
X3956000Y-10278000D02*
X3986000Y-10308000D01*
X3986000Y-10278000D02*
X3956000Y-10308000D01*
X4717000Y-13947000D02*
X4747000Y-13977000D01*
X4747000Y-13947000D02*
X4717000Y-13977000D01*
X6254806Y-10340500D02*
X6284806Y-10370500D01*
X6284806Y-10340500D02*
X6254806Y-10370500D01*
X6313000Y-8297500D02*
X6343000Y-8327500D01*
X6343000Y-8297500D02*
X6313000Y-8327500D01*
X6515883Y-8422500D02*
X6545883Y-8452500D01*
X6545883Y-8422500D02*
X6515883Y-8452500D01*
X6516200Y-10564200D02*
X6546200Y-10594200D01*
X6546200Y-10564200D02*
X6516200Y-10594200D01*
X6899000Y-10340500D02*
X6929000Y-10370500D01*
X6929000Y-10340500D02*
X6899000Y-10370500D01*
X8165000Y-10433000D02*
X8195000Y-10463000D01*
X8195000Y-10433000D02*
X8165000Y-10463000D01*
X8213000Y-5830000D02*
X8243000Y-5860000D01*
X8243000Y-5830000D02*
X8213000Y-5860000D01*
X8214000Y-8325000D02*
X8244000Y-8355000D01*
X8244000Y-8325000D02*
X8214000Y-8355000D01*
X8522800Y-10094300D02*
X8552800Y-10124300D01*
X8552800Y-10094300D02*
X8522800Y-10124300D01*
X8532500Y-9748500D02*
X8562500Y-9778500D01*
X8562500Y-9748500D02*
X8532500Y-9778500D01*
X8649800Y-9611700D02*
X8679800Y-9641700D01*
X8679800Y-9611700D02*
X8649800Y-9641700D01*
X8664000Y-9738000D02*
X8694000Y-9768000D01*
X8694000Y-9738000D02*
X8664000Y-9768000D01*
X8685000Y-13885000D02*
X8715000Y-13915000D01*
X8715000Y-13885000D02*
X8685000Y-13915000D01*
X8777000Y-13882000D02*
X8807000Y-13912000D01*
X8807000Y-13882000D02*
X8777000Y-13912000D01*
X8828000Y-5832000D02*
X8858000Y-5862000D01*
X8858000Y-5832000D02*
X8828000Y-5862000D01*
X8866000Y-13880000D02*
X8896000Y-13910000D01*
X8896000Y-13880000D02*
X8866000Y-13910000D01*
X8867000Y-10340500D02*
X8897000Y-10370500D01*
X8897000Y-10340500D02*
X8867000Y-10370500D01*
X9062000Y-8723000D02*
X9092000Y-8753000D01*
X9092000Y-8723000D02*
X9062000Y-8753000D01*
X9195900Y-8544900D02*
X9225900Y-8574900D01*
X9225900Y-8544900D02*
X9195900Y-8574900D01*
X9297500Y-8646500D02*
X9327500Y-8676500D01*
X9327500Y-8646500D02*
X9297500Y-8676500D01*
X9301000Y-8534500D02*
X9331000Y-8564500D01*
X9331000Y-8534500D02*
X9301000Y-8564500D01*
X9675500Y-9628051D02*
X9705500Y-9658051D01*
X9705500Y-9628051D02*
X9675500Y-9658051D01*
X9800500Y-9585000D02*
X9830500Y-9615000D01*
X9830500Y-9585000D02*
X9800500Y-9615000D01*
X10114000Y-8360500D02*
X10144000Y-8390500D01*
X10144000Y-8360500D02*
X10114000Y-8390500D01*
X10155806Y-10450194D02*
X10185806Y-10480194D01*
X10185806Y-10450194D02*
X10155806Y-10480194D01*
X10209700Y-9629700D02*
X10239700Y-9659700D01*
X10239700Y-9629700D02*
X10209700Y-9659700D01*
X10387500Y-9490000D02*
X10417500Y-9520000D01*
X10417500Y-9490000D02*
X10387500Y-9520000D01*
X10389700Y-9408500D02*
X10419700Y-9438500D01*
X10419700Y-9408500D02*
X10389700Y-9438500D01*
X10437500Y-9740500D02*
X10467500Y-9770500D01*
X10467500Y-9740500D02*
X10437500Y-9770500D01*
X10542100Y-9560900D02*
X10572100Y-9590900D01*
X10572100Y-9560900D02*
X10542100Y-9590900D01*
X10578000Y-9731300D02*
X10608000Y-9761300D01*
X10608000Y-9731300D02*
X10578000Y-9761300D01*
X11486000Y-10340500D02*
X11516000Y-10370500D01*
X11516000Y-10340500D02*
X11486000Y-10370500D01*
X11571500Y-9533000D02*
X11601500Y-9563000D01*
X11601500Y-9533000D02*
X11571500Y-9563000D01*
X11571500Y-9623000D02*
X11601500Y-9653000D01*
X11601500Y-9623000D02*
X11571500Y-9653000D01*
X11742000Y-9632500D02*
X11772000Y-9662500D01*
X11772000Y-9632500D02*
X11742000Y-9662500D01*
X11850092Y-9587500D02*
X11880092Y-9617500D01*
X11880092Y-9587500D02*
X11850092Y-9617500D01*
X12013100Y-10633000D02*
X12043100Y-10663000D01*
X12043100Y-10633000D02*
X12013100Y-10663000D01*
X12022000Y-8353500D02*
X12052000Y-8383500D01*
X12052000Y-8353500D02*
X12022000Y-8383500D01*
X12082306Y-10508694D02*
X12112306Y-10538694D01*
X12112306Y-10508694D02*
X12082306Y-10538694D01*
X12267100Y-9591600D02*
X12297100Y-9621600D01*
X12297100Y-9591600D02*
X12267100Y-9621600D01*
X12495700Y-9591600D02*
X12525700Y-9621600D01*
X12525700Y-9591600D02*
X12495700Y-9621600D01*
X12661000Y-10340500D02*
X12691000Y-10370500D01*
X12691000Y-10340500D02*
X12661000Y-10370500D01*
X12864000Y-9680500D02*
X12894000Y-9710500D01*
X12894000Y-9680500D02*
X12864000Y-9710500D01*
X13073000Y-10349000D02*
X13103000Y-10379000D01*
X13103000Y-10349000D02*
X13073000Y-10379000D01*
X13148000Y-5831000D02*
X13178000Y-5861000D01*
X13178000Y-5831000D02*
X13148000Y-5861000D01*
X13247500Y-5909000D02*
X13277500Y-5939000D01*
X13277500Y-5909000D02*
X13247500Y-5939000D01*
X13434000Y-5834000D02*
X13464000Y-5864000D01*
X13464000Y-5834000D02*
X13434000Y-5864000D01*
X13476500Y-9641000D02*
X13506500Y-9671000D01*
X13506500Y-9641000D02*
X13476500Y-9671000D01*
X13565000Y-5896500D02*
X13595000Y-5926500D01*
X13595000Y-5896500D02*
X13565000Y-5926500D01*
X13717000Y-9640500D02*
X13747000Y-9670500D01*
X13747000Y-9640500D02*
X13717000Y-9670500D01*
X13764000Y-10340500D02*
X13794000Y-10370500D01*
X13794000Y-10340500D02*
X13764000Y-10370500D01*
X13803800Y-9172500D02*
X13833800Y-9202500D01*
X13833800Y-9172500D02*
X13803800Y-9202500D01*
X13912500Y-8348762D02*
X13942500Y-8378762D01*
X13942500Y-8348762D02*
X13912500Y-8378762D01*
X13948806Y-10468194D02*
X13978806Y-10498194D01*
X13978806Y-10468194D02*
X13948806Y-10498194D01*
X14175000Y-10402000D02*
X14205000Y-10432000D01*
X14205000Y-10402000D02*
X14175000Y-10432000D01*
X14288500Y-9765500D02*
X14318500Y-9795500D01*
X14318500Y-9765500D02*
X14288500Y-9795500D01*
X14288500Y-9909000D02*
X14318500Y-9939000D01*
X14318500Y-9909000D02*
X14288500Y-9939000D01*
X14324500Y-8651800D02*
X14354500Y-8681800D01*
X14354500Y-8651800D02*
X14324500Y-8681800D01*
X14388000Y-9617000D02*
X14418000Y-9647000D01*
X14418000Y-9617000D02*
X14388000Y-9647000D01*
X14502300Y-9172500D02*
X14532300Y-9202500D01*
X14532300Y-9172500D02*
X14502300Y-9202500D01*
X14582000Y-13608500D02*
X14612000Y-13638500D01*
X14612000Y-13608500D02*
X14582000Y-13638500D01*
X14626000Y-10340500D02*
X14656000Y-10370500D01*
X14656000Y-10340500D02*
X14626000Y-10370500D01*
X14644200Y-9218000D02*
X14674200Y-9248000D01*
X14674200Y-9218000D02*
X14644200Y-9248000D01*
X15154000Y-13216500D02*
X15184000Y-13246500D01*
X15184000Y-13216500D02*
X15154000Y-13246500D01*
X15376500Y-9636276D02*
X15406500Y-9666276D01*
X15406500Y-9636276D02*
X15376500Y-9666276D01*
X15623000Y-9632500D02*
X15653000Y-9662500D01*
X15653000Y-9632500D02*
X15623000Y-9662500D01*
X15810400Y-10455200D02*
X15840400Y-10485200D01*
X15840400Y-10455200D02*
X15810400Y-10485200D01*
X16089800Y-9566200D02*
X16119800Y-9596200D01*
X16119800Y-9566200D02*
X16089800Y-9596200D01*
X16188500Y-9757500D02*
X16218500Y-9787500D01*
X16218500Y-9757500D02*
X16188500Y-9787500D01*
X16280300Y-9566200D02*
X16310300Y-9596200D01*
X16310300Y-9566200D02*
X16280300Y-9596200D01*
X16327000Y-10161000D02*
X16357000Y-10191000D01*
X16357000Y-10161000D02*
X16327000Y-10191000D01*
X16676200Y-8278200D02*
X16706200Y-8308200D01*
X16706200Y-8278200D02*
X16676200Y-8308200D01*
X16714300Y-8354400D02*
X16744300Y-8384400D01*
X16744300Y-8354400D02*
X16714300Y-8384400D01*
X16763000Y-13608500D02*
X16793000Y-13638500D01*
X16793000Y-13608500D02*
X16763000Y-13638500D01*
X16782000Y-8641500D02*
X16812000Y-8671500D01*
X16812000Y-8641500D02*
X16782000Y-8671500D01*
X16840000Y-8210500D02*
X16870000Y-8240500D01*
X16870000Y-8210500D02*
X16840000Y-8240500D01*
X16917000Y-7929500D02*
X16947000Y-7959500D01*
X16947000Y-7929500D02*
X16917000Y-7959500D01*
X17272000Y-13150000D02*
X17302000Y-13180000D01*
X17302000Y-13150000D02*
X17272000Y-13180000D01*
X17277500Y-9632000D02*
X17307500Y-9662000D01*
X17307500Y-9632000D02*
X17277500Y-9662000D01*
X17495000Y-9640500D02*
X17525000Y-9670500D01*
X17525000Y-9640500D02*
X17495000Y-9670500D01*
X17628700Y-7948000D02*
X17658700Y-7978000D01*
X17658700Y-7948000D02*
X17628700Y-7978000D01*
X17654500Y-10464000D02*
X17684500Y-10494000D01*
X17684500Y-10464000D02*
X17654500Y-10494000D01*
X17655500Y-6607000D02*
X17685500Y-6637000D01*
X17685500Y-6607000D02*
X17655500Y-6637000D01*
X17784206Y-6605524D02*
X17814206Y-6635524D01*
X17814206Y-6605524D02*
X17784206Y-6635524D01*
X17888000Y-4147500D02*
X17918000Y-4177500D01*
X17918000Y-4147500D02*
X17888000Y-4177500D01*
X17931300Y-9642400D02*
X17961300Y-9672400D01*
X17961300Y-9642400D02*
X17931300Y-9672400D01*
X17966000Y-10156000D02*
X17996000Y-10186000D01*
X17996000Y-10156000D02*
X17966000Y-10186000D01*
X17969000Y-4102500D02*
X17999000Y-4132500D01*
X17999000Y-4102500D02*
X17969000Y-4132500D01*
X18032900Y-10734600D02*
X18062900Y-10764600D01*
X18062900Y-10734600D02*
X18032900Y-10764600D01*
X18041000Y-10547500D02*
X18071000Y-10577500D01*
X18071000Y-10547500D02*
X18041000Y-10577500D01*
X18184000Y-3887500D02*
X18214000Y-3917500D01*
X18214000Y-3887500D02*
X18184000Y-3917500D01*
X18223400Y-9832900D02*
X18253400Y-9862900D01*
X18253400Y-9832900D02*
X18223400Y-9862900D01*
X18236100Y-9985300D02*
X18266100Y-10015300D01*
X18266100Y-9985300D02*
X18236100Y-10015300D01*
X18248800Y-9642400D02*
X18278800Y-9672400D01*
X18278800Y-9642400D02*
X18248800Y-9672400D01*
X18258000Y-5836000D02*
X18288000Y-5866000D01*
X18288000Y-5836000D02*
X18258000Y-5866000D01*
X18289000Y-10139000D02*
X18319000Y-10169000D01*
X18319000Y-10139000D02*
X18289000Y-10169000D01*
X18297500Y-5905568D02*
X18327500Y-5935568D01*
X18327500Y-5905568D02*
X18297500Y-5935568D01*
X18423000Y-13608500D02*
X18453000Y-13638500D01*
X18453000Y-13608500D02*
X18423000Y-13638500D01*
X18441000Y-5842000D02*
X18471000Y-5872000D01*
X18471000Y-5842000D02*
X18441000Y-5872000D01*
X18443000Y-10340500D02*
X18473000Y-10370500D01*
X18473000Y-10340500D02*
X18443000Y-10370500D01*
X18488000Y-3825000D02*
X18518000Y-3855000D01*
X18518000Y-3825000D02*
X18488000Y-3855000D01*
X18523306Y-6012694D02*
X18553306Y-6042694D01*
X18553306Y-6012694D02*
X18523306Y-6042694D01*
X18609000Y-10205500D02*
X18639000Y-10235500D01*
X18639000Y-10205500D02*
X18609000Y-10235500D01*
X18712000Y-9037500D02*
X18742000Y-9067500D01*
X18742000Y-9037500D02*
X18712000Y-9067500D01*
X18718700Y-9985300D02*
X18748700Y-10015300D01*
X18748700Y-9985300D02*
X18718700Y-10015300D01*
X18780000Y-8641500D02*
X18810000Y-8671500D01*
X18810000Y-8641500D02*
X18780000Y-8671500D01*
X18822500Y-7948000D02*
X18852500Y-7978000D01*
X18852500Y-7948000D02*
X18822500Y-7978000D01*
X18829000Y-10348000D02*
X18859000Y-10378000D01*
X18859000Y-10348000D02*
X18829000Y-10378000D01*
X18836500Y-6138000D02*
X18866500Y-6168000D01*
X18866500Y-6138000D02*
X18836500Y-6168000D01*
X18902000Y-8210500D02*
X18932000Y-8240500D01*
X18932000Y-8210500D02*
X18902000Y-8240500D01*
X18915000Y-7805000D02*
X18945000Y-7835000D01*
X18945000Y-7805000D02*
X18915000Y-7835000D01*
X18919000Y-8641500D02*
X18949000Y-8671500D01*
X18949000Y-8641500D02*
X18919000Y-8671500D01*
X18977000Y-6161500D02*
X19007000Y-6191500D01*
X19007000Y-6161500D02*
X18977000Y-6191500D01*
X18986306Y-8282694D02*
X19016306Y-8312694D01*
X19016306Y-8282694D02*
X18986306Y-8312694D01*
X18996000Y-7925000D02*
X19026000Y-7955000D01*
X19026000Y-7925000D02*
X18996000Y-7955000D01*
X19063800Y-7770200D02*
X19093800Y-7800200D01*
X19093800Y-7770200D02*
X19063800Y-7800200D01*
X19105000Y-6224000D02*
X19135000Y-6254000D01*
X19135000Y-6224000D02*
X19105000Y-6254000D01*
X19167000Y-10380500D02*
X19197000Y-10410500D01*
X19197000Y-10380500D02*
X19167000Y-10410500D01*
X19187500Y-9617000D02*
X19217500Y-9647000D01*
X19217500Y-9617000D02*
X19187500Y-9647000D01*
X19318000Y-5938500D02*
X19348000Y-5968500D01*
X19348000Y-5938500D02*
X19318000Y-5968500D01*
X19457000Y-13105000D02*
X19487000Y-13135000D01*
X19487000Y-13105000D02*
X19457000Y-13135000D01*
X19470000Y-9623500D02*
X19500000Y-9653500D01*
X19500000Y-9623500D02*
X19470000Y-9653500D01*
X19480700Y-8715300D02*
X19510700Y-8745300D01*
X19510700Y-8715300D02*
X19480700Y-8745300D01*
X19480700Y-9096300D02*
X19510700Y-9126300D01*
X19510700Y-9096300D02*
X19480700Y-9126300D01*
X19658500Y-10480600D02*
X19688500Y-10510600D01*
X19688500Y-10480600D02*
X19658500Y-10510600D01*
X19706000Y-10143000D02*
X19736000Y-10173000D01*
X19736000Y-10143000D02*
X19706000Y-10173000D01*
X19709300Y-9096300D02*
X19739300Y-9126300D01*
X19739300Y-9096300D02*
X19709300Y-9126300D01*
X19810900Y-8994700D02*
X19840900Y-9024700D01*
X19840900Y-8994700D02*
X19810900Y-9024700D01*
X19887100Y-9477300D02*
X19917100Y-9507300D01*
X19917100Y-9477300D02*
X19887100Y-9507300D01*
X19950600Y-9832900D02*
X19980600Y-9862900D01*
X19980600Y-9832900D02*
X19950600Y-9862900D01*
X20188000Y-10165000D02*
X20218000Y-10195000D01*
X20218000Y-10165000D02*
X20188000Y-10195000D01*
X20198000Y-8641500D02*
X20228000Y-8671500D01*
X20228000Y-8641500D02*
X20198000Y-8671500D01*
X20291806Y-4059194D02*
X20321806Y-4089194D01*
X20321806Y-4059194D02*
X20291806Y-4089194D01*
X20308400Y-7770200D02*
X20338400Y-7800200D01*
X20338400Y-7770200D02*
X20308400Y-7800200D01*
X20359378Y-4126767D02*
X20389378Y-4156767D01*
X20389378Y-4126767D02*
X20359378Y-4156767D01*
X20387000Y-8210500D02*
X20417000Y-8240500D01*
X20417000Y-8210500D02*
X20387000Y-8240500D01*
X20504194Y-4094806D02*
X20534194Y-4124806D01*
X20534194Y-4094806D02*
X20504194Y-4124806D01*
X20507332Y-6161500D02*
X20537332Y-6191500D01*
X20537332Y-6161500D02*
X20507332Y-6191500D01*
X20535306Y-4302694D02*
X20565306Y-4332694D01*
X20565306Y-4302694D02*
X20535306Y-4332694D01*
X20545873Y-8641500D02*
X20575873Y-8671500D01*
X20575873Y-8641500D02*
X20545873Y-8671500D01*
X20563000Y-8210500D02*
X20593000Y-8240500D01*
X20593000Y-8210500D02*
X20563000Y-8240500D01*
X20582835Y-6108850D02*
X20612835Y-6138850D01*
X20612835Y-6108850D02*
X20582835Y-6138850D01*
X20625873Y-8641500D02*
X20655873Y-8671500D01*
X20655873Y-8641500D02*
X20625873Y-8671500D01*
X20632888Y-4135112D02*
X20662888Y-4165112D01*
X20662888Y-4135112D02*
X20632888Y-4165112D01*
X20647000Y-7929500D02*
X20677000Y-7959500D01*
X20677000Y-7929500D02*
X20647000Y-7959500D01*
X20650486Y-5845486D02*
X20680486Y-5875486D01*
X20680486Y-5845486D02*
X20650486Y-5875486D01*
X20664000Y-10340500D02*
X20694000Y-10370500D01*
X20694000Y-10340500D02*
X20664000Y-10370500D01*
X20676000Y-6108500D02*
X20706000Y-6138500D01*
X20706000Y-6108500D02*
X20676000Y-6138500D01*
X20681238Y-8699248D02*
X20711238Y-8729248D01*
X20711238Y-8699248D02*
X20681238Y-8729248D01*
X20683000Y-8210500D02*
X20713000Y-8240500D01*
X20713000Y-8210500D02*
X20683000Y-8240500D01*
X20687000Y-8947500D02*
X20717000Y-8977500D01*
X20717000Y-8947500D02*
X20687000Y-8977500D01*
X20709500Y-7713000D02*
X20739500Y-7743000D01*
X20739500Y-7713000D02*
X20709500Y-7743000D01*
X20767000Y-8947500D02*
X20797000Y-8977500D01*
X20797000Y-8947500D02*
X20767000Y-8977500D01*
X20799000Y-5938500D02*
X20829000Y-5968500D01*
X20829000Y-5938500D02*
X20799000Y-5968500D01*
X20801000Y-7399000D02*
X20831000Y-7429000D01*
X20831000Y-7399000D02*
X20801000Y-7429000D01*
X20819000Y-8210500D02*
X20849000Y-8240500D01*
X20849000Y-8210500D02*
X20819000Y-8240500D01*
X20822000Y-8641500D02*
X20852000Y-8671500D01*
X20852000Y-8641500D02*
X20822000Y-8671500D01*
X20834500Y-7870000D02*
X20864500Y-7900000D01*
X20864500Y-7870000D02*
X20834500Y-7900000D01*
X20884000Y-6108500D02*
X20914000Y-6138500D01*
X20914000Y-6108500D02*
X20884000Y-6138500D01*
X20886583Y-4300417D02*
X20916583Y-4330417D01*
X20916583Y-4300417D02*
X20886583Y-4330417D01*
X20904000Y-10340500D02*
X20934000Y-10370500D01*
X20934000Y-10340500D02*
X20904000Y-10370500D01*
X20908000Y-8210500D02*
X20938000Y-8240500D01*
X20938000Y-8210500D02*
X20908000Y-8240500D01*
X20957500Y-7681000D02*
X20987500Y-7711000D01*
X20987500Y-7681000D02*
X20957500Y-7711000D01*
X20958138Y-6211138D02*
X20988138Y-6241138D01*
X20988138Y-6211138D02*
X20958138Y-6241138D01*
X20968800Y-8278200D02*
X20998800Y-8308200D01*
X20998800Y-8278200D02*
X20968800Y-8308200D01*
X21027000Y-6108500D02*
X21057000Y-6138500D01*
X21057000Y-6108500D02*
X21027000Y-6138500D01*
X21041000Y-5893500D02*
X21071000Y-5923500D01*
X21071000Y-5893500D02*
X21041000Y-5923500D01*
X21237000Y-10409000D02*
X21267000Y-10439000D01*
X21267000Y-10409000D02*
X21237000Y-10439000D01*
X21425500Y-5650500D02*
X21455500Y-5680500D01*
X21455500Y-5650500D02*
X21425500Y-5680500D01*
X21443597Y-5338265D02*
X21473597Y-5368265D01*
X21473597Y-5338265D02*
X21443597Y-5368265D01*
X21500166Y-5394834D02*
X21530166Y-5424834D01*
X21530166Y-5394834D02*
X21500166Y-5424834D01*
X21566166Y-5460834D02*
X21596166Y-5490834D01*
X21596166Y-5460834D02*
X21566166Y-5490834D01*
X21695500Y-5848500D02*
X21725500Y-5878500D01*
X21725500Y-5848500D02*
X21695500Y-5878500D01*
X21718083Y-5612751D02*
X21748083Y-5642751D01*
X21748083Y-5612751D02*
X21718083Y-5642751D01*
X21730800Y-4887300D02*
X21760800Y-4917300D01*
X21760800Y-4887300D02*
X21730800Y-4917300D01*
X21774652Y-5669319D02*
X21804652Y-5699319D01*
X21804652Y-5669319D02*
X21774652Y-5699319D01*
X21831220Y-5725888D02*
X21861220Y-5755888D01*
X21861220Y-5725888D02*
X21831220Y-5755888D01*
X21916672Y-5747700D02*
X21946672Y-5777700D01*
X21946672Y-5747700D02*
X21916672Y-5777700D01*
X21972500Y-5805000D02*
X22002500Y-5835000D01*
X22002500Y-5805000D02*
X21972500Y-5835000D01*
X21972500Y-6012000D02*
X22002500Y-6042000D01*
X22002500Y-6012000D02*
X21972500Y-6042000D01*
X21972500Y-6092000D02*
X22002500Y-6122000D01*
X22002500Y-6092000D02*
X21972500Y-6122000D01*
X22274000Y-13827000D02*
X22304000Y-13857000D01*
X22304000Y-13827000D02*
X22274000Y-13857000D01*
X22371000Y-5461834D02*
X22401000Y-5491834D01*
X22401000Y-5461834D02*
X22371000Y-5491834D01*
X22494405Y-5685016D02*
X22524405Y-5715016D01*
X22524405Y-5685016D02*
X22494405Y-5715016D01*
X22503000Y-6125500D02*
X22533000Y-6155500D01*
X22533000Y-6125500D02*
X22503000Y-6155500D01*
X22506801Y-5605982D02*
X22536801Y-5635982D01*
X22536801Y-5605982D02*
X22506801Y-5635982D01*
X22562681Y-5433293D02*
X22592681Y-5463293D01*
X22592681Y-5433293D02*
X22562681Y-5463293D01*
X22594400Y-10208600D02*
X22624400Y-10238600D01*
X22624400Y-10208600D02*
X22594400Y-10238600D01*
X22636500Y-10659000D02*
X22666500Y-10689000D01*
X22666500Y-10659000D02*
X22636500Y-10689000D01*
X22659138Y-5441361D02*
X22689138Y-5471361D01*
X22689138Y-5441361D02*
X22659138Y-5471361D01*
X22713000Y-6080500D02*
X22743000Y-6110500D01*
X22743000Y-6080500D02*
X22713000Y-6110500D01*
X22750000Y-8596500D02*
X22780000Y-8626500D01*
X22780000Y-8596500D02*
X22750000Y-8626500D01*
X22770000Y-10518700D02*
X22800000Y-10548700D01*
X22800000Y-10518700D02*
X22770000Y-10548700D01*
X22950000Y-8583000D02*
X22980000Y-8613000D01*
X22980000Y-8583000D02*
X22950000Y-8613000D01*
X22962700Y-8278200D02*
X22992700Y-8308200D01*
X22992700Y-8278200D02*
X22962700Y-8308200D01*
X22980000Y-6900000D02*
X23010000Y-6930000D01*
X23010000Y-6900000D02*
X22980000Y-6930000D01*
X23038500Y-7035000D02*
X23068500Y-7065000D01*
X23068500Y-7035000D02*
X23038500Y-7065000D01*
X23038500Y-8146000D02*
X23068500Y-8176000D01*
X23068500Y-8146000D02*
X23038500Y-8176000D01*
X23118000Y-6035500D02*
X23148000Y-6065500D01*
X23148000Y-6035500D02*
X23118000Y-6065500D01*
X23134000Y-6578000D02*
X23164000Y-6608000D01*
X23164000Y-6578000D02*
X23134000Y-6608000D01*
X23178600Y-6728800D02*
X23208600Y-6758800D01*
X23208600Y-6728800D02*
X23178600Y-6758800D01*
X23178600Y-7033600D02*
X23208600Y-7063600D01*
X23208600Y-7033600D02*
X23178600Y-7063600D01*
X23178600Y-8202000D02*
X23208600Y-8232000D01*
X23208600Y-8202000D02*
X23178600Y-8232000D01*
X23178600Y-11656400D02*
X23208600Y-11686400D01*
X23208600Y-11656400D02*
X23178600Y-11686400D01*
X23178600Y-8075000D02*
X23208600Y-8105000D01*
X23208600Y-8075000D02*
X23178600Y-8105000D01*
X23204000Y-8303600D02*
X23234000Y-8333600D01*
X23234000Y-8303600D02*
X23204000Y-8333600D01*
X23216700Y-7998800D02*
X23246700Y-8028800D01*
X23246700Y-7998800D02*
X23216700Y-8028800D01*
X23254800Y-7490800D02*
X23284800Y-7520800D01*
X23284800Y-7490800D02*
X23254800Y-7520800D01*
X23254800Y-11732600D02*
X23284800Y-11762600D01*
X23284800Y-11732600D02*
X23254800Y-11762600D01*
X23445300Y-8887800D02*
X23475300Y-8917800D01*
X23475300Y-8887800D02*
X23445300Y-8917800D01*
X23458000Y-5204800D02*
X23488000Y-5234800D01*
X23488000Y-5204800D02*
X23458000Y-5234800D01*
X23458000Y-6373200D02*
X23488000Y-6403200D01*
X23488000Y-6373200D02*
X23458000Y-6403200D01*
X23458000Y-6728800D02*
X23488000Y-6758800D01*
X23488000Y-6728800D02*
X23458000Y-6758800D01*
X23458000Y-12291400D02*
X23488000Y-12321400D01*
X23488000Y-12291400D02*
X23458000Y-12321400D01*
X23458000Y-14145600D02*
X23488000Y-14175600D01*
X23488000Y-14145600D02*
X23458000Y-14175600D01*
X23508800Y-8405200D02*
X23538800Y-8435200D01*
X23538800Y-8405200D02*
X23508800Y-8435200D01*
X23508800Y-10132400D02*
X23538800Y-10162400D01*
X23538800Y-10132400D02*
X23508800Y-10162400D01*
X23534200Y-6144600D02*
X23564200Y-6174600D01*
X23564200Y-6144600D02*
X23534200Y-6174600D01*
X23534200Y-6297000D02*
X23564200Y-6327000D01*
X23564200Y-6297000D02*
X23534200Y-6327000D01*
X23534200Y-7338400D02*
X23564200Y-7368400D01*
X23564200Y-7338400D02*
X23534200Y-7368400D01*
X23585000Y-10208600D02*
X23615000Y-10238600D01*
X23615000Y-10208600D02*
X23585000Y-10238600D01*
X23610400Y-6220800D02*
X23640400Y-6250800D01*
X23640400Y-6220800D02*
X23610400Y-6250800D01*
X23610400Y-7592400D02*
X23640400Y-7622400D01*
X23640400Y-7592400D02*
X23610400Y-7622400D01*
X23635800Y-8202000D02*
X23665800Y-8232000D01*
X23665800Y-8202000D02*
X23635800Y-8232000D01*
X23712000Y-6779600D02*
X23742000Y-6809600D01*
X23742000Y-6779600D02*
X23712000Y-6809600D01*
X23762800Y-13663000D02*
X23792800Y-13693000D01*
X23792800Y-13663000D02*
X23762800Y-13693000D01*
X23788200Y-8075000D02*
X23818200Y-8105000D01*
X23818200Y-8075000D02*
X23788200Y-8105000D01*
X23788200Y-8887800D02*
X23818200Y-8917800D01*
X23818200Y-8887800D02*
X23788200Y-8917800D01*
X23813600Y-11656400D02*
X23843600Y-11686400D01*
X23843600Y-11656400D02*
X23813600Y-11686400D01*
X23839000Y-13053400D02*
X23869000Y-13083400D01*
X23869000Y-13053400D02*
X23839000Y-13083400D01*
X23966000Y-8659200D02*
X23996000Y-8689200D01*
X23996000Y-8659200D02*
X23966000Y-8689200D01*
X23966000Y-11656400D02*
X23996000Y-11686400D01*
X23996000Y-11656400D02*
X23966000Y-11686400D01*
X23991400Y-13739200D02*
X24021400Y-13769200D01*
X24021400Y-13739200D02*
X23991400Y-13769200D01*
X24042200Y-10665800D02*
X24072200Y-10695800D01*
X24072200Y-10665800D02*
X24042200Y-10695800D01*
X24067600Y-7998800D02*
X24097600Y-8028800D01*
X24097600Y-7998800D02*
X24067600Y-8028800D01*
X24067600Y-13129600D02*
X24097600Y-13159600D01*
X24097600Y-13129600D02*
X24067600Y-13159600D01*
X24143800Y-6525600D02*
X24173800Y-6555600D01*
X24173800Y-6525600D02*
X24143800Y-6555600D01*
X24143800Y-7135200D02*
X24173800Y-7165200D01*
X24173800Y-7135200D02*
X24143800Y-7165200D01*
X24143800Y-8405200D02*
X24173800Y-8435200D01*
X24173800Y-8405200D02*
X24143800Y-8435200D01*
X24143800Y-10208600D02*
X24173800Y-10238600D01*
X24173800Y-10208600D02*
X24143800Y-10238600D01*
X24220000Y-6449400D02*
X24250000Y-6479400D01*
X24250000Y-6449400D02*
X24220000Y-6479400D01*
X24220000Y-7897200D02*
X24250000Y-7927200D01*
X24250000Y-7897200D02*
X24220000Y-7927200D01*
X24220000Y-8456000D02*
X24250000Y-8486000D01*
X24250000Y-8456000D02*
X24220000Y-8486000D01*
X24220000Y-10818200D02*
X24250000Y-10848200D01*
X24250000Y-10818200D02*
X24220000Y-10848200D01*
X24296200Y-5839800D02*
X24326200Y-5869800D01*
X24326200Y-5839800D02*
X24296200Y-5869800D01*
X24296200Y-7795600D02*
X24326200Y-7825600D01*
X24326200Y-7795600D02*
X24296200Y-7825600D01*
X24296200Y-10513400D02*
X24326200Y-10543400D01*
X24326200Y-10513400D02*
X24296200Y-10543400D01*
X24296200Y-13205800D02*
X24326200Y-13235800D01*
X24326200Y-13205800D02*
X24296200Y-13235800D01*
X24372400Y-5916000D02*
X24402400Y-5946000D01*
X24402400Y-5916000D02*
X24372400Y-5946000D01*
X24372400Y-8049600D02*
X24402400Y-8079600D01*
X24402400Y-8049600D02*
X24372400Y-8079600D01*
X24372400Y-8735400D02*
X24402400Y-8765400D01*
X24402400Y-8735400D02*
X24372400Y-8765400D01*
X24474000Y-10132400D02*
X24504000Y-10162400D01*
X24504000Y-10132400D02*
X24474000Y-10162400D01*
X24575600Y-13586800D02*
X24605600Y-13616800D01*
X24605600Y-13586800D02*
X24575600Y-13616800D01*
X24753400Y-10589600D02*
X24783400Y-10619600D01*
X24783400Y-10589600D02*
X24753400Y-10619600D01*
X24829600Y-13510600D02*
X24859600Y-13540600D01*
X24859600Y-13510600D02*
X24829600Y-13540600D01*
X25058200Y-13434400D02*
X25088200Y-13464400D01*
X25088200Y-13434400D02*
X25058200Y-13464400D01*
X25083600Y-11656400D02*
X25113600Y-11686400D01*
X25113600Y-11656400D02*
X25083600Y-11686400D01*
X25312200Y-13358200D02*
X25342200Y-13388200D01*
X25342200Y-13358200D02*
X25312200Y-13388200D01*
X25388400Y-8303600D02*
X25418400Y-8333600D01*
X25418400Y-8303600D02*
X25388400Y-8333600D01*
X25566200Y-13282000D02*
X25596200Y-13312000D01*
X25596200Y-13282000D02*
X25566200Y-13312000D01*
X25642400Y-5179400D02*
X25672400Y-5209400D01*
X25672400Y-5179400D02*
X25642400Y-5209400D01*
X25642400Y-7033600D02*
X25672400Y-7063600D01*
X25672400Y-7033600D02*
X25642400Y-7063600D01*
X25744000Y-7008200D02*
X25774000Y-7038200D01*
X25774000Y-7008200D02*
X25744000Y-7038200D01*
X25744000Y-13891600D02*
X25774000Y-13921600D01*
X25774000Y-13891600D02*
X25744000Y-13921600D01*
X25998000Y-4696800D02*
X26028000Y-4726800D01*
X26028000Y-4696800D02*
X25998000Y-4726800D01*
X26112300Y-11719900D02*
X26142300Y-11749900D01*
X26142300Y-11719900D02*
X26112300Y-11749900D01*
X26112300Y-12050100D02*
X26142300Y-12080100D01*
X26142300Y-12050100D02*
X26112300Y-12080100D01*
X26252000Y-4417400D02*
X26282000Y-4447400D01*
X26282000Y-4417400D02*
X26252000Y-4447400D01*
X26429800Y-4925400D02*
X26459800Y-4955400D01*
X26459800Y-4925400D02*
X26429800Y-4955400D01*
X26429800Y-8811600D02*
X26459800Y-8841600D01*
X26459800Y-8811600D02*
X26429800Y-8841600D01*
X26506000Y-7211400D02*
X26536000Y-7241400D01*
X26536000Y-7211400D02*
X26506000Y-7241400D01*
X26582200Y-7440000D02*
X26612200Y-7470000D01*
X26612200Y-7440000D02*
X26582200Y-7470000D01*
X26582200Y-12367600D02*
X26612200Y-12397600D01*
X26612200Y-12367600D02*
X26582200Y-12397600D01*
X26658400Y-5916000D02*
X26688400Y-5946000D01*
X26688400Y-5916000D02*
X26658400Y-5946000D01*
X26658400Y-6271600D02*
X26688400Y-6301600D01*
X26688400Y-6271600D02*
X26658400Y-6301600D01*
X26734600Y-6170000D02*
X26764600Y-6200000D01*
X26764600Y-6170000D02*
X26734600Y-6200000D01*
X26734600Y-8557600D02*
X26764600Y-8587600D01*
X26764600Y-8557600D02*
X26734600Y-8587600D01*
X26810800Y-5763600D02*
X26840800Y-5793600D01*
X26840800Y-5763600D02*
X26810800Y-5793600D01*
X26810800Y-6373200D02*
X26840800Y-6403200D01*
X26840800Y-6373200D02*
X26810800Y-6403200D01*
X26836200Y-12291400D02*
X26866200Y-12321400D01*
X26866200Y-12291400D02*
X26836200Y-12321400D01*
X26887000Y-6017600D02*
X26917000Y-6047600D01*
X26917000Y-6017600D02*
X26887000Y-6047600D01*
X4105000Y-12558000D02*
G75*
G02*
X4025000Y-12558000I-40000J0D01*
G01*
X4025000Y-12558000D02*
G75*
G02*
X4105000Y-12558000I40000J0D01*
G01*
X4124000Y-10458000D02*
G75*
G02*
X4044000Y-10458000I-40000J0D01*
G01*
X4044000Y-10458000D02*
G75*
G02*
X4124000Y-10458000I40000J0D01*
G01*
X4867000Y-12558000D02*
G75*
G02*
X4787000Y-12558000I-40000J0D01*
G01*
X4787000Y-12558000D02*
G75*
G02*
X4867000Y-12558000I40000J0D01*
G01*
X4886000Y-10458000D02*
G75*
G02*
X4806000Y-10458000I-40000J0D01*
G01*
X4806000Y-10458000D02*
G75*
G02*
X4886000Y-10458000I40000J0D01*
G01*
X5983000Y-10458000D02*
G75*
G02*
X5903000Y-10458000I-40000J0D01*
G01*
X5903000Y-10458000D02*
G75*
G02*
X5983000Y-10458000I40000J0D01*
G01*
X6005000Y-12558000D02*
G75*
G02*
X5925000Y-12558000I-40000J0D01*
G01*
X5925000Y-12558000D02*
G75*
G02*
X6005000Y-12558000I40000J0D01*
G01*
X6745000Y-10458000D02*
G75*
G02*
X6665000Y-10458000I-40000J0D01*
G01*
X6665000Y-10458000D02*
G75*
G02*
X6745000Y-10458000I40000J0D01*
G01*
X6767000Y-12558000D02*
G75*
G02*
X6687000Y-12558000I-40000J0D01*
G01*
X6687000Y-12558000D02*
G75*
G02*
X6767000Y-12558000I40000J0D01*
G01*
X7888000Y-10458000D02*
G75*
G02*
X7808000Y-10458000I-40000J0D01*
G01*
X7808000Y-10458000D02*
G75*
G02*
X7888000Y-10458000I40000J0D01*
G01*
X7905000Y-12558000D02*
G75*
G02*
X7825000Y-12558000I-40000J0D01*
G01*
X7825000Y-12558000D02*
G75*
G02*
X7905000Y-12558000I40000J0D01*
G01*
X8650000Y-10458000D02*
G75*
G02*
X8570000Y-10458000I-40000J0D01*
G01*
X8570000Y-10458000D02*
G75*
G02*
X8650000Y-10458000I40000J0D01*
G01*
X8667000Y-12558000D02*
G75*
G02*
X8587000Y-12558000I-40000J0D01*
G01*
X8587000Y-12558000D02*
G75*
G02*
X8667000Y-12558000I40000J0D01*
G01*
X9793000Y-10458000D02*
G75*
G02*
X9713000Y-10458000I-40000J0D01*
G01*
X9713000Y-10458000D02*
G75*
G02*
X9793000Y-10458000I40000J0D01*
G01*
X9805000Y-12558000D02*
G75*
G02*
X9725000Y-12558000I-40000J0D01*
G01*
X9725000Y-12558000D02*
G75*
G02*
X9805000Y-12558000I40000J0D01*
G01*
X10555000Y-10458000D02*
G75*
G02*
X10475000Y-10458000I-40000J0D01*
G01*
X10475000Y-10458000D02*
G75*
G02*
X10555000Y-10458000I40000J0D01*
G01*
X10567000Y-12558000D02*
G75*
G02*
X10487000Y-12558000I-40000J0D01*
G01*
X10487000Y-12558000D02*
G75*
G02*
X10567000Y-12558000I40000J0D01*
G01*
X11705000Y-12558000D02*
G75*
G02*
X11625000Y-12558000I-40000J0D01*
G01*
X11625000Y-12558000D02*
G75*
G02*
X11705000Y-12558000I40000J0D01*
G01*
X11739000Y-10458000D02*
G75*
G02*
X11659000Y-10458000I-40000J0D01*
G01*
X11659000Y-10458000D02*
G75*
G02*
X11739000Y-10458000I40000J0D01*
G01*
X12467000Y-12558000D02*
G75*
G02*
X12387000Y-12558000I-40000J0D01*
G01*
X12387000Y-12558000D02*
G75*
G02*
X12467000Y-12558000I40000J0D01*
G01*
X12501000Y-10458000D02*
G75*
G02*
X12421000Y-10458000I-40000J0D01*
G01*
X12421000Y-10458000D02*
G75*
G02*
X12501000Y-10458000I40000J0D01*
G01*
X13605000Y-12558000D02*
G75*
G02*
X13525000Y-12558000I-40000J0D01*
G01*
X13525000Y-12558000D02*
G75*
G02*
X13605000Y-12558000I40000J0D01*
G01*
X13644000Y-10458000D02*
G75*
G02*
X13564000Y-10458000I-40000J0D01*
G01*
X13564000Y-10458000D02*
G75*
G02*
X13644000Y-10458000I40000J0D01*
G01*
X14367000Y-12558000D02*
G75*
G02*
X14287000Y-12558000I-40000J0D01*
G01*
X14287000Y-12558000D02*
G75*
G02*
X14367000Y-12558000I40000J0D01*
G01*
X14406000Y-10458000D02*
G75*
G02*
X14326000Y-10458000I-40000J0D01*
G01*
X14326000Y-10458000D02*
G75*
G02*
X14406000Y-10458000I40000J0D01*
G01*
X15505000Y-12558000D02*
G75*
G02*
X15425000Y-12558000I-40000J0D01*
G01*
X15425000Y-12558000D02*
G75*
G02*
X15505000Y-12558000I40000J0D01*
G01*
X15544000Y-10458000D02*
G75*
G02*
X15464000Y-10458000I-40000J0D01*
G01*
X15464000Y-10458000D02*
G75*
G02*
X15544000Y-10458000I40000J0D01*
G01*
X16267000Y-12558000D02*
G75*
G02*
X16187000Y-12558000I-40000J0D01*
G01*
X16187000Y-12558000D02*
G75*
G02*
X16267000Y-12558000I40000J0D01*
G01*
X16306000Y-10458000D02*
G75*
G02*
X16226000Y-10458000I-40000J0D01*
G01*
X16226000Y-10458000D02*
G75*
G02*
X16306000Y-10458000I40000J0D01*
G01*
X17405000Y-12558000D02*
G75*
G02*
X17325000Y-12558000I-40000J0D01*
G01*
X17325000Y-12558000D02*
G75*
G02*
X17405000Y-12558000I40000J0D01*
G01*
X17445000Y-10458000D02*
G75*
G02*
X17365000Y-10458000I-40000J0D01*
G01*
X17365000Y-10458000D02*
G75*
G02*
X17445000Y-10458000I40000J0D01*
G01*
X18167000Y-12558000D02*
G75*
G02*
X18087000Y-12558000I-40000J0D01*
G01*
X18087000Y-12558000D02*
G75*
G02*
X18167000Y-12558000I40000J0D01*
G01*
X18207000Y-10458000D02*
G75*
G02*
X18127000Y-10458000I-40000J0D01*
G01*
X18127000Y-10458000D02*
G75*
G02*
X18207000Y-10458000I40000J0D01*
G01*
X19355000Y-10458000D02*
G75*
G02*
X19275000Y-10458000I-40000J0D01*
G01*
X19275000Y-10458000D02*
G75*
G02*
X19355000Y-10458000I40000J0D01*
G01*
X19405000Y-12558000D02*
G75*
G02*
X19325000Y-12558000I-40000J0D01*
G01*
X19325000Y-12558000D02*
G75*
G02*
X19405000Y-12558000I40000J0D01*
G01*
X20117000Y-10458000D02*
G75*
G02*
X20037000Y-10458000I-40000J0D01*
G01*
X20037000Y-10458000D02*
G75*
G02*
X20117000Y-10458000I40000J0D01*
G01*
X20167000Y-12558000D02*
G75*
G02*
X20087000Y-12558000I-40000J0D01*
G01*
X20087000Y-12558000D02*
G75*
G02*
X20167000Y-12558000I40000J0D01*
G01*
X22005000Y-10408000D02*
G75*
G02*
X21925000Y-10408000I-40000J0D01*
G01*
X21925000Y-10408000D02*
G75*
G02*
X22005000Y-10408000I40000J0D01*
G01*
X22005000Y-12608000D02*
G75*
G02*
X21925000Y-12608000I-40000J0D01*
G01*
X21925000Y-12608000D02*
G75*
G02*
X22005000Y-12608000I40000J0D01*
G01*
X22767000Y-10408000D02*
G75*
G02*
X22687000Y-10408000I-40000J0D01*
G01*
X22687000Y-10408000D02*
G75*
G02*
X22767000Y-10408000I40000J0D01*
G01*
X22767000Y-12608000D02*
G75*
G02*
X22687000Y-12608000I-40000J0D01*
G01*
X22687000Y-12608000D02*
G75*
G02*
X22767000Y-12608000I40000J0D01*
G01*
X23640000Y-10376000D02*
G75*
G02*
X23560000Y-10376000I-40000J0D01*
G01*
X23560000Y-10376000D02*
G75*
G02*
X23640000Y-10376000I40000J0D01*
G01*
X23640000Y-11900000D02*
G75*
G02*
X23560000Y-11900000I-40000J0D01*
G01*
X23560000Y-11900000D02*
G75*
G02*
X23640000Y-11900000I40000J0D01*
G01*
X23640000Y-12509600D02*
G75*
G02*
X23560000Y-12509600I-40000J0D01*
G01*
X23560000Y-12509600D02*
G75*
G02*
X23640000Y-12509600I40000J0D01*
G01*
X23640000Y-14033600D02*
G75*
G02*
X23560000Y-14033600I-40000J0D01*
G01*
X23560000Y-14033600D02*
G75*
G02*
X23640000Y-14033600I40000J0D01*
G01*
X23894000Y-10376000D02*
G75*
G02*
X23814000Y-10376000I-40000J0D01*
G01*
X23814000Y-10376000D02*
G75*
G02*
X23894000Y-10376000I40000J0D01*
G01*
X23894000Y-11900000D02*
G75*
G02*
X23814000Y-11900000I-40000J0D01*
G01*
X23814000Y-11900000D02*
G75*
G02*
X23894000Y-11900000I40000J0D01*
G01*
X23894000Y-12509600D02*
G75*
G02*
X23814000Y-12509600I-40000J0D01*
G01*
X23814000Y-12509600D02*
G75*
G02*
X23894000Y-12509600I40000J0D01*
G01*
X23894000Y-14033600D02*
G75*
G02*
X23814000Y-14033600I-40000J0D01*
G01*
X23814000Y-14033600D02*
G75*
G02*
X23894000Y-14033600I40000J0D01*
G01*
X24148000Y-10376000D02*
G75*
G02*
X24068000Y-10376000I-40000J0D01*
G01*
X24068000Y-10376000D02*
G75*
G02*
X24148000Y-10376000I40000J0D01*
G01*
X24148000Y-11900000D02*
G75*
G02*
X24068000Y-11900000I-40000J0D01*
G01*
X24068000Y-11900000D02*
G75*
G02*
X24148000Y-11900000I40000J0D01*
G01*
X24148000Y-12509600D02*
G75*
G02*
X24068000Y-12509600I-40000J0D01*
G01*
X24068000Y-12509600D02*
G75*
G02*
X24148000Y-12509600I40000J0D01*
G01*
X24148000Y-14033600D02*
G75*
G02*
X24068000Y-14033600I-40000J0D01*
G01*
X24068000Y-14033600D02*
G75*
G02*
X24148000Y-14033600I40000J0D01*
G01*
X24402000Y-10376000D02*
G75*
G02*
X24322000Y-10376000I-40000J0D01*
G01*
X24322000Y-10376000D02*
G75*
G02*
X24402000Y-10376000I40000J0D01*
G01*
X24402000Y-11900000D02*
G75*
G02*
X24322000Y-11900000I-40000J0D01*
G01*
X24322000Y-11900000D02*
G75*
G02*
X24402000Y-11900000I40000J0D01*
G01*
X24402000Y-12509600D02*
G75*
G02*
X24322000Y-12509600I-40000J0D01*
G01*
X24322000Y-12509600D02*
G75*
G02*
X24402000Y-12509600I40000J0D01*
G01*
X24402000Y-14033600D02*
G75*
G02*
X24322000Y-14033600I-40000J0D01*
G01*
X24322000Y-14033600D02*
G75*
G02*
X24402000Y-14033600I40000J0D01*
G01*
X24656000Y-10376000D02*
G75*
G02*
X24576000Y-10376000I-40000J0D01*
G01*
X24576000Y-10376000D02*
G75*
G02*
X24656000Y-10376000I40000J0D01*
G01*
X24656000Y-11900000D02*
G75*
G02*
X24576000Y-11900000I-40000J0D01*
G01*
X24576000Y-11900000D02*
G75*
G02*
X24656000Y-11900000I40000J0D01*
G01*
X24656000Y-12509600D02*
G75*
G02*
X24576000Y-12509600I-40000J0D01*
G01*
X24576000Y-12509600D02*
G75*
G02*
X24656000Y-12509600I40000J0D01*
G01*
X24656000Y-14033600D02*
G75*
G02*
X24576000Y-14033600I-40000J0D01*
G01*
X24576000Y-14033600D02*
G75*
G02*
X24656000Y-14033600I40000J0D01*
G01*
X24910000Y-10376000D02*
G75*
G02*
X24830000Y-10376000I-40000J0D01*
G01*
X24830000Y-10376000D02*
G75*
G02*
X24910000Y-10376000I40000J0D01*
G01*
X24910000Y-11900000D02*
G75*
G02*
X24830000Y-11900000I-40000J0D01*
G01*
X24830000Y-11900000D02*
G75*
G02*
X24910000Y-11900000I40000J0D01*
G01*
X24910000Y-12509600D02*
G75*
G02*
X24830000Y-12509600I-40000J0D01*
G01*
X24830000Y-12509600D02*
G75*
G02*
X24910000Y-12509600I40000J0D01*
G01*
X24910000Y-14033600D02*
G75*
G02*
X24830000Y-14033600I-40000J0D01*
G01*
X24830000Y-14033600D02*
G75*
G02*
X24910000Y-14033600I40000J0D01*
G01*
X25164000Y-10376000D02*
G75*
G02*
X25084000Y-10376000I-40000J0D01*
G01*
X25084000Y-10376000D02*
G75*
G02*
X25164000Y-10376000I40000J0D01*
G01*
X25164000Y-11900000D02*
G75*
G02*
X25084000Y-11900000I-40000J0D01*
G01*
X25084000Y-11900000D02*
G75*
G02*
X25164000Y-11900000I40000J0D01*
G01*
X25164000Y-12509600D02*
G75*
G02*
X25084000Y-12509600I-40000J0D01*
G01*
X25084000Y-12509600D02*
G75*
G02*
X25164000Y-12509600I40000J0D01*
G01*
X25164000Y-14033600D02*
G75*
G02*
X25084000Y-14033600I-40000J0D01*
G01*
X25084000Y-14033600D02*
G75*
G02*
X25164000Y-14033600I40000J0D01*
G01*
X25418000Y-10376000D02*
G75*
G02*
X25338000Y-10376000I-40000J0D01*
G01*
X25338000Y-10376000D02*
G75*
G02*
X25418000Y-10376000I40000J0D01*
G01*
X25418000Y-11900000D02*
G75*
G02*
X25338000Y-11900000I-40000J0D01*
G01*
X25338000Y-11900000D02*
G75*
G02*
X25418000Y-11900000I40000J0D01*
G01*
X25418000Y-12509600D02*
G75*
G02*
X25338000Y-12509600I-40000J0D01*
G01*
X25338000Y-12509600D02*
G75*
G02*
X25418000Y-12509600I40000J0D01*
G01*
X25418000Y-14033600D02*
G75*
G02*
X25338000Y-14033600I-40000J0D01*
G01*
X25338000Y-14033600D02*
G75*
G02*
X25418000Y-14033600I40000J0D01*
G01*
X25672000Y-10376000D02*
G75*
G02*
X25592000Y-10376000I-40000J0D01*
G01*
X25592000Y-10376000D02*
G75*
G02*
X25672000Y-10376000I40000J0D01*
G01*
X25672000Y-11900000D02*
G75*
G02*
X25592000Y-11900000I-40000J0D01*
G01*
X25592000Y-11900000D02*
G75*
G02*
X25672000Y-11900000I40000J0D01*
G01*
X25672000Y-12509600D02*
G75*
G02*
X25592000Y-12509600I-40000J0D01*
G01*
X25592000Y-12509600D02*
G75*
G02*
X25672000Y-12509600I40000J0D01*
G01*
X25672000Y-14033600D02*
G75*
G02*
X25592000Y-14033600I-40000J0D01*
G01*
X25592000Y-14033600D02*
G75*
G02*
X25672000Y-14033600I40000J0D01*
G01*
X25926000Y-10376000D02*
G75*
G02*
X25846000Y-10376000I-40000J0D01*
G01*
X25846000Y-10376000D02*
G75*
G02*
X25926000Y-10376000I40000J0D01*
G01*
X25926000Y-11900000D02*
G75*
G02*
X25846000Y-11900000I-40000J0D01*
G01*
X25846000Y-11900000D02*
G75*
G02*
X25926000Y-11900000I40000J0D01*
G01*
X25926000Y-12509600D02*
G75*
G02*
X25846000Y-12509600I-40000J0D01*
G01*
X25846000Y-12509600D02*
G75*
G02*
X25926000Y-12509600I40000J0D01*
G01*
X25926000Y-14033600D02*
G75*
G02*
X25846000Y-14033600I-40000J0D01*
G01*
X25846000Y-14033600D02*
G75*
G02*
X25926000Y-14033600I40000J0D01*
G01*
X26180000Y-10376000D02*
G75*
G02*
X26100000Y-10376000I-40000J0D01*
G01*
X26100000Y-10376000D02*
G75*
G02*
X26180000Y-10376000I40000J0D01*
G01*
X26180000Y-11900000D02*
G75*
G02*
X26100000Y-11900000I-40000J0D01*
G01*
X26100000Y-11900000D02*
G75*
G02*
X26180000Y-11900000I40000J0D01*
G01*
X26180000Y-12509600D02*
G75*
G02*
X26100000Y-12509600I-40000J0D01*
G01*
X26100000Y-12509600D02*
G75*
G02*
X26180000Y-12509600I40000J0D01*
G01*
X26180000Y-14033600D02*
G75*
G02*
X26100000Y-14033600I-40000J0D01*
G01*
X26100000Y-14033600D02*
G75*
G02*
X26180000Y-14033600I40000J0D01*
G01*
X26434000Y-10376000D02*
G75*
G02*
X26354000Y-10376000I-40000J0D01*
G01*
X26354000Y-10376000D02*
G75*
G02*
X26434000Y-10376000I40000J0D01*
G01*
X26434000Y-11900000D02*
G75*
G02*
X26354000Y-11900000I-40000J0D01*
G01*
X26354000Y-11900000D02*
G75*
G02*
X26434000Y-11900000I40000J0D01*
G01*
X26434000Y-12509600D02*
G75*
G02*
X26354000Y-12509600I-40000J0D01*
G01*
X26354000Y-12509600D02*
G75*
G02*
X26434000Y-12509600I40000J0D01*
G01*
X26434000Y-14033600D02*
G75*
G02*
X26354000Y-14033600I-40000J0D01*
G01*
X26354000Y-14033600D02*
G75*
G02*
X26434000Y-14033600I40000J0D01*
G01*
X4115000Y-13908000D02*
X4115000Y-14008000D01*
X4065000Y-13958000D02*
X4165000Y-13958000D01*
X4165000Y-8113000D02*
X4165000Y-8213000D01*
X4115000Y-8163000D02*
X4215000Y-8163000D01*
X4369000Y-13908000D02*
X4369000Y-14008000D01*
X4319000Y-13958000D02*
X4419000Y-13958000D01*
X4415000Y-8113000D02*
X4415000Y-8213000D01*
X4365000Y-8163000D02*
X4465000Y-8163000D01*
X4623000Y-13908000D02*
X4623000Y-14008000D01*
X4573000Y-13958000D02*
X4673000Y-13958000D01*
X4665000Y-8113000D02*
X4665000Y-8213000D01*
X4615000Y-8163000D02*
X4715000Y-8163000D01*
X6024000Y-13908000D02*
X6024000Y-14008000D01*
X5974000Y-13958000D02*
X6074000Y-13958000D01*
X6074000Y-8113000D02*
X6074000Y-8213000D01*
X6024000Y-8163000D02*
X6124000Y-8163000D01*
X6278000Y-13908000D02*
X6278000Y-14008000D01*
X6228000Y-13958000D02*
X6328000Y-13958000D01*
X6324000Y-8113000D02*
X6324000Y-8213000D01*
X6274000Y-8163000D02*
X6374000Y-8163000D01*
X6532000Y-13908000D02*
X6532000Y-14008000D01*
X6482000Y-13958000D02*
X6582000Y-13958000D01*
X6574000Y-8113000D02*
X6574000Y-8213000D01*
X6524000Y-8163000D02*
X6624000Y-8163000D01*
X7929000Y-13908000D02*
X7929000Y-14008000D01*
X7879000Y-13958000D02*
X7979000Y-13958000D01*
X7979000Y-8113000D02*
X7979000Y-8213000D01*
X7929000Y-8163000D02*
X8029000Y-8163000D01*
X8183000Y-13908000D02*
X8183000Y-14008000D01*
X8133000Y-13958000D02*
X8233000Y-13958000D01*
X8225000Y-4158000D02*
X8225000Y-4258000D01*
X8175000Y-4208000D02*
X8275000Y-4208000D01*
X8225000Y-5608000D02*
X8225000Y-5708000D01*
X8175000Y-5658000D02*
X8275000Y-5658000D01*
X8229000Y-8113000D02*
X8229000Y-8213000D01*
X8179000Y-8163000D02*
X8279000Y-8163000D01*
X8437000Y-13908000D02*
X8437000Y-14008000D01*
X8387000Y-13958000D02*
X8487000Y-13958000D01*
X8475000Y-5608000D02*
X8475000Y-5708000D01*
X8425000Y-5658000D02*
X8525000Y-5658000D01*
X8479000Y-8113000D02*
X8479000Y-8213000D01*
X8429000Y-8163000D02*
X8529000Y-8163000D01*
X8725000Y-4158000D02*
X8725000Y-4258000D01*
X8675000Y-4208000D02*
X8775000Y-4208000D01*
X8725000Y-5608000D02*
X8725000Y-5708000D01*
X8675000Y-5658000D02*
X8775000Y-5658000D01*
X9834000Y-13908000D02*
X9834000Y-14008000D01*
X9784000Y-13958000D02*
X9884000Y-13958000D01*
X9884000Y-8113000D02*
X9884000Y-8213000D01*
X9834000Y-8163000D02*
X9934000Y-8163000D01*
X10088000Y-13908000D02*
X10088000Y-14008000D01*
X10038000Y-13958000D02*
X10138000Y-13958000D01*
X10134000Y-8113000D02*
X10134000Y-8213000D01*
X10084000Y-8163000D02*
X10184000Y-8163000D01*
X10342000Y-13908000D02*
X10342000Y-14008000D01*
X10292000Y-13958000D02*
X10392000Y-13958000D01*
X10384000Y-8113000D02*
X10384000Y-8213000D01*
X10334000Y-8163000D02*
X10434000Y-8163000D01*
X11730000Y-13908000D02*
X11730000Y-14008000D01*
X11680000Y-13958000D02*
X11780000Y-13958000D01*
X11780000Y-8113000D02*
X11780000Y-8213000D01*
X11730000Y-8163000D02*
X11830000Y-8163000D01*
X11984000Y-13908000D02*
X11984000Y-14008000D01*
X11934000Y-13958000D02*
X12034000Y-13958000D01*
X12030000Y-8113000D02*
X12030000Y-8213000D01*
X11980000Y-8163000D02*
X12080000Y-8163000D01*
X12238000Y-13908000D02*
X12238000Y-14008000D01*
X12188000Y-13958000D02*
X12288000Y-13958000D01*
X12280000Y-8113000D02*
X12280000Y-8213000D01*
X12230000Y-8163000D02*
X12330000Y-8163000D01*
X13075000Y-4158000D02*
X13075000Y-4258000D01*
X13025000Y-4208000D02*
X13125000Y-4208000D01*
X13075000Y-5608000D02*
X13075000Y-5708000D01*
X13025000Y-5658000D02*
X13125000Y-5658000D01*
X13325000Y-5608000D02*
X13325000Y-5708000D01*
X13275000Y-5658000D02*
X13375000Y-5658000D01*
X13575000Y-4158000D02*
X13575000Y-4258000D01*
X13525000Y-4208000D02*
X13625000Y-4208000D01*
X13575000Y-5608000D02*
X13575000Y-5708000D01*
X13525000Y-5658000D02*
X13625000Y-5658000D01*
X13635000Y-13908000D02*
X13635000Y-14008000D01*
X13585000Y-13958000D02*
X13685000Y-13958000D01*
X13685000Y-8113000D02*
X13685000Y-8213000D01*
X13635000Y-8163000D02*
X13735000Y-8163000D01*
X13889000Y-13908000D02*
X13889000Y-14008000D01*
X13839000Y-13958000D02*
X13939000Y-13958000D01*
X13935000Y-8113000D02*
X13935000Y-8213000D01*
X13885000Y-8163000D02*
X13985000Y-8163000D01*
X14143000Y-13908000D02*
X14143000Y-14008000D01*
X14093000Y-13958000D02*
X14193000Y-13958000D01*
X14185000Y-8113000D02*
X14185000Y-8213000D01*
X14135000Y-8163000D02*
X14235000Y-8163000D01*
X15535000Y-13908000D02*
X15535000Y-14008000D01*
X15485000Y-13958000D02*
X15585000Y-13958000D01*
X15585000Y-8113000D02*
X15585000Y-8213000D01*
X15535000Y-8163000D02*
X15635000Y-8163000D01*
X15789000Y-13908000D02*
X15789000Y-14008000D01*
X15739000Y-13958000D02*
X15839000Y-13958000D01*
X15835000Y-8113000D02*
X15835000Y-8213000D01*
X15785000Y-8163000D02*
X15885000Y-8163000D01*
X16043000Y-13908000D02*
X16043000Y-14008000D01*
X15993000Y-13958000D02*
X16093000Y-13958000D01*
X16085000Y-8113000D02*
X16085000Y-8213000D01*
X16035000Y-8163000D02*
X16135000Y-8163000D01*
X17436000Y-13908000D02*
X17436000Y-14008000D01*
X17386000Y-13958000D02*
X17486000Y-13958000D01*
X17486000Y-8113000D02*
X17486000Y-8213000D01*
X17436000Y-8163000D02*
X17536000Y-8163000D01*
X17690000Y-13908000D02*
X17690000Y-14008000D01*
X17640000Y-13958000D02*
X17740000Y-13958000D01*
X17736000Y-8113000D02*
X17736000Y-8213000D01*
X17686000Y-8163000D02*
X17786000Y-8163000D01*
X17944000Y-13908000D02*
X17944000Y-14008000D01*
X17894000Y-13958000D02*
X17994000Y-13958000D01*
X17986000Y-8113000D02*
X17986000Y-8213000D01*
X17936000Y-8163000D02*
X18036000Y-8163000D01*
X18125000Y-4158000D02*
X18125000Y-4258000D01*
X18075000Y-4208000D02*
X18175000Y-4208000D01*
X18125000Y-5608000D02*
X18125000Y-5708000D01*
X18075000Y-5658000D02*
X18175000Y-5658000D01*
X18375000Y-5608000D02*
X18375000Y-5708000D01*
X18325000Y-5658000D02*
X18425000Y-5658000D01*
X18625000Y-4158000D02*
X18625000Y-4258000D01*
X18575000Y-4208000D02*
X18675000Y-4208000D01*
X18625000Y-5608000D02*
X18625000Y-5708000D01*
X18575000Y-5658000D02*
X18675000Y-5658000D01*
X19346000Y-13908000D02*
X19346000Y-14008000D01*
X19296000Y-13958000D02*
X19396000Y-13958000D01*
X19396000Y-8113000D02*
X19396000Y-8213000D01*
X19346000Y-8163000D02*
X19446000Y-8163000D01*
X19600000Y-13908000D02*
X19600000Y-14008000D01*
X19550000Y-13958000D02*
X19650000Y-13958000D01*
X19646000Y-8113000D02*
X19646000Y-8213000D01*
X19596000Y-8163000D02*
X19696000Y-8163000D01*
X19854000Y-13908000D02*
X19854000Y-14008000D01*
X19804000Y-13958000D02*
X19904000Y-13958000D01*
X19896000Y-8113000D02*
X19896000Y-8213000D01*
X19846000Y-8163000D02*
X19946000Y-8163000D01*
X22035000Y-13908000D02*
X22035000Y-14008000D01*
X21985000Y-13958000D02*
X22085000Y-13958000D01*
X22085000Y-8113000D02*
X22085000Y-8213000D01*
X22035000Y-8163000D02*
X22135000Y-8163000D01*
X22289000Y-13908000D02*
X22289000Y-14008000D01*
X22239000Y-13958000D02*
X22339000Y-13958000D01*
X22335000Y-8113000D02*
X22335000Y-8213000D01*
X22285000Y-8163000D02*
X22385000Y-8163000D01*
X22543000Y-13908000D02*
X22543000Y-14008000D01*
X22493000Y-13958000D02*
X22593000Y-13958000D01*
X22585000Y-8113000D02*
X22585000Y-8213000D01*
X22535000Y-8163000D02*
X22635000Y-8163000D01*
X24539800Y-3823600D02*
X24539800Y-3923600D01*
X24489800Y-3873600D02*
X24589800Y-3873600D01*
X24539800Y-4077600D02*
X24539800Y-4177600D01*
X24489800Y-4127600D02*
X24589800Y-4127600D01*
X24539800Y-4331600D02*
X24539800Y-4431600D01*
X24489800Y-4381600D02*
X24589800Y-4381600D01*
X24539800Y-4585600D02*
X24539800Y-4685600D01*
X24489800Y-4635600D02*
X24589800Y-4635600D01*
X24539800Y-4839600D02*
X24539800Y-4939600D01*
X24489800Y-4889600D02*
X24589800Y-4889600D01*
X24539800Y-5093600D02*
X24539800Y-5193600D01*
X24489800Y-5143600D02*
X24589800Y-5143600D01*
X24539800Y-5347600D02*
X24539800Y-5447600D01*
X24489800Y-5397600D02*
X24589800Y-5397600D01*
X24539800Y-5601600D02*
X24539800Y-5701600D01*
X24489800Y-5651600D02*
X24589800Y-5651600D01*
X24539800Y-5855600D02*
X24539800Y-5955600D01*
X24489800Y-5905600D02*
X24589800Y-5905600D01*
X24539800Y-6109600D02*
X24539800Y-6209600D01*
X24489800Y-6159600D02*
X24589800Y-6159600D01*
X24539800Y-6363600D02*
X24539800Y-6463600D01*
X24489800Y-6413600D02*
X24589800Y-6413600D01*
X24539800Y-6617600D02*
X24539800Y-6717600D01*
X24489800Y-6667600D02*
X24589800Y-6667600D01*
X24539800Y-6871600D02*
X24539800Y-6971600D01*
X24489800Y-6921600D02*
X24589800Y-6921600D01*
X24539800Y-7125600D02*
X24539800Y-7225600D01*
X24489800Y-7175600D02*
X24589800Y-7175600D01*
X24539800Y-7379600D02*
X24539800Y-7479600D01*
X24489800Y-7429600D02*
X24589800Y-7429600D01*
X24539800Y-7633600D02*
X24539800Y-7733600D01*
X24489800Y-7683600D02*
X24589800Y-7683600D01*
X24539800Y-7887600D02*
X24539800Y-7987600D01*
X24489800Y-7937600D02*
X24589800Y-7937600D01*
X24539800Y-8141600D02*
X24539800Y-8241600D01*
X24489800Y-8191600D02*
X24589800Y-8191600D01*
X24539800Y-8395600D02*
X24539800Y-8495600D01*
X24489800Y-8445600D02*
X24589800Y-8445600D01*
X24539800Y-8649600D02*
X24539800Y-8749600D01*
X24489800Y-8699600D02*
X24589800Y-8699600D01*
X24539800Y-8903600D02*
X24539800Y-9003600D01*
X24489800Y-8953600D02*
X24589800Y-8953600D01*
X24539800Y-9157600D02*
X24539800Y-9257600D01*
X24489800Y-9207600D02*
X24589800Y-9207600D01*
X27079800Y-3823600D02*
X27079800Y-3923600D01*
X27029800Y-3873600D02*
X27129800Y-3873600D01*
X27079800Y-4077600D02*
X27079800Y-4177600D01*
X27029800Y-4127600D02*
X27129800Y-4127600D01*
X27079800Y-4331600D02*
X27079800Y-4431600D01*
X27029800Y-4381600D02*
X27129800Y-4381600D01*
X27079800Y-4585600D02*
X27079800Y-4685600D01*
X27029800Y-4635600D02*
X27129800Y-4635600D01*
X27079800Y-4839600D02*
X27079800Y-4939600D01*
X27029800Y-4889600D02*
X27129800Y-4889600D01*
X27079800Y-5093600D02*
X27079800Y-5193600D01*
X27029800Y-5143600D02*
X27129800Y-5143600D01*
X27079800Y-5347600D02*
X27079800Y-5447600D01*
X27029800Y-5397600D02*
X27129800Y-5397600D01*
X27079800Y-5601600D02*
X27079800Y-5701600D01*
X27029800Y-5651600D02*
X27129800Y-5651600D01*
X27079800Y-5855600D02*
X27079800Y-5955600D01*
X27029800Y-5905600D02*
X27129800Y-5905600D01*
X27079800Y-6109600D02*
X27079800Y-6209600D01*
X27029800Y-6159600D02*
X27129800Y-6159600D01*
X27079800Y-6363600D02*
X27079800Y-6463600D01*
X27029800Y-6413600D02*
X27129800Y-6413600D01*
X27079800Y-6617600D02*
X27079800Y-6717600D01*
X27029800Y-6667600D02*
X27129800Y-6667600D01*
X27079800Y-6871600D02*
X27079800Y-6971600D01*
X27029800Y-6921600D02*
X27129800Y-6921600D01*
X27079800Y-7125600D02*
X27079800Y-7225600D01*
X27029800Y-7175600D02*
X27129800Y-7175600D01*
X27079800Y-7379600D02*
X27079800Y-7479600D01*
X27029800Y-7429600D02*
X27129800Y-7429600D01*
X27079800Y-7633600D02*
X27079800Y-7733600D01*
X27029800Y-7683600D02*
X27129800Y-7683600D01*
X27079800Y-7887600D02*
X27079800Y-7987600D01*
X27029800Y-7937600D02*
X27129800Y-7937600D01*
X27079800Y-8141600D02*
X27079800Y-8241600D01*
X27029800Y-8191600D02*
X27129800Y-8191600D01*
X27079800Y-8395600D02*
X27079800Y-8495600D01*
X27029800Y-8445600D02*
X27129800Y-8445600D01*
X27079800Y-8649600D02*
X27079800Y-8749600D01*
X27029800Y-8699600D02*
X27129800Y-8699600D01*
X27079800Y-8903600D02*
X27079800Y-9003600D01*
X27029800Y-8953600D02*
X27129800Y-8953600D01*
X27079800Y-9157600D02*
X27079800Y-9257600D01*
X27029800Y-9207600D02*
X27129800Y-9207600D01*
D13*
X4457427Y-8860427D02*
X4457427Y-8775573D01*
X4372573Y-8775573D01*
X4372573Y-8860427D01*
X4457427Y-8860427D01*
X4457427Y-10910427D02*
X4457427Y-10825573D01*
X4372573Y-10825573D01*
X4372573Y-10910427D01*
X4457427Y-10910427D01*
X4957427Y-9070427D02*
X4957427Y-8985573D01*
X4872573Y-8985573D01*
X4872573Y-9070427D01*
X4957427Y-9070427D01*
X4957427Y-11120427D02*
X4957427Y-11035573D01*
X4872573Y-11035573D01*
X4872573Y-11120427D01*
X4957427Y-11120427D01*
X6366427Y-8860427D02*
X6366427Y-8775573D01*
X6281573Y-8775573D01*
X6281573Y-8860427D01*
X6366427Y-8860427D01*
X6366427Y-10910427D02*
X6366427Y-10825573D01*
X6281573Y-10825573D01*
X6281573Y-10910427D01*
X6366427Y-10910427D01*
X6866427Y-9070427D02*
X6866427Y-8985573D01*
X6781573Y-8985573D01*
X6781573Y-9070427D01*
X6866427Y-9070427D01*
X6866427Y-11120427D02*
X6866427Y-11035573D01*
X6781573Y-11035573D01*
X6781573Y-11120427D01*
X6866427Y-11120427D01*
X8271427Y-8860427D02*
X8271427Y-8775573D01*
X8186573Y-8775573D01*
X8186573Y-8860427D01*
X8271427Y-8860427D01*
X8271427Y-10910427D02*
X8271427Y-10825573D01*
X8186573Y-10825573D01*
X8186573Y-10910427D01*
X8271427Y-10910427D01*
X8771427Y-9070427D02*
X8771427Y-8985573D01*
X8686573Y-8985573D01*
X8686573Y-9070427D01*
X8771427Y-9070427D01*
X8771427Y-11120427D02*
X8771427Y-11035573D01*
X8686573Y-11035573D01*
X8686573Y-11120427D01*
X8771427Y-11120427D01*
X10176427Y-8860427D02*
X10176427Y-8775573D01*
X10091573Y-8775573D01*
X10091573Y-8860427D01*
X10176427Y-8860427D01*
X10176427Y-10910427D02*
X10176427Y-10825573D01*
X10091573Y-10825573D01*
X10091573Y-10910427D01*
X10176427Y-10910427D01*
X10676427Y-9070427D02*
X10676427Y-8985573D01*
X10591573Y-8985573D01*
X10591573Y-9070427D01*
X10676427Y-9070427D01*
X10676427Y-11120427D02*
X10676427Y-11035573D01*
X10591573Y-11035573D01*
X10591573Y-11120427D01*
X10676427Y-11120427D01*
X12072427Y-8860427D02*
X12072427Y-8775573D01*
X11987573Y-8775573D01*
X11987573Y-8860427D01*
X12072427Y-8860427D01*
X12072427Y-10910427D02*
X12072427Y-10825573D01*
X11987573Y-10825573D01*
X11987573Y-10910427D01*
X12072427Y-10910427D01*
X12572427Y-9070427D02*
X12572427Y-8985573D01*
X12487573Y-8985573D01*
X12487573Y-9070427D01*
X12572427Y-9070427D01*
X12572427Y-11120427D02*
X12572427Y-11035573D01*
X12487573Y-11035573D01*
X12487573Y-11120427D01*
X12572427Y-11120427D01*
X13977427Y-8860427D02*
X13977427Y-8775573D01*
X13892573Y-8775573D01*
X13892573Y-8860427D01*
X13977427Y-8860427D01*
X13977427Y-10910427D02*
X13977427Y-10825573D01*
X13892573Y-10825573D01*
X13892573Y-10910427D01*
X13977427Y-10910427D01*
X14477427Y-9070427D02*
X14477427Y-8985573D01*
X14392573Y-8985573D01*
X14392573Y-9070427D01*
X14477427Y-9070427D01*
X14477427Y-11120427D02*
X14477427Y-11035573D01*
X14392573Y-11035573D01*
X14392573Y-11120427D01*
X14477427Y-11120427D01*
X15877427Y-8860427D02*
X15877427Y-8775573D01*
X15792573Y-8775573D01*
X15792573Y-8860427D01*
X15877427Y-8860427D01*
X15877427Y-10910427D02*
X15877427Y-10825573D01*
X15792573Y-10825573D01*
X15792573Y-10910427D01*
X15877427Y-10910427D01*
X16377427Y-9070427D02*
X16377427Y-8985573D01*
X16292573Y-8985573D01*
X16292573Y-9070427D01*
X16377427Y-9070427D01*
X16377427Y-11120427D02*
X16377427Y-11035573D01*
X16292573Y-11035573D01*
X16292573Y-11120427D01*
X16377427Y-11120427D01*
X17778427Y-8860427D02*
X17778427Y-8775573D01*
X17693573Y-8775573D01*
X17693573Y-8860427D01*
X17778427Y-8860427D01*
X17778427Y-10910427D02*
X17778427Y-10825573D01*
X17693573Y-10825573D01*
X17693573Y-10910427D01*
X17778427Y-10910427D01*
X18278427Y-9070427D02*
X18278427Y-8985573D01*
X18193573Y-8985573D01*
X18193573Y-9070427D01*
X18278427Y-9070427D01*
X18278427Y-11120427D02*
X18278427Y-11035573D01*
X18193573Y-11035573D01*
X18193573Y-11120427D01*
X18278427Y-11120427D01*
X19688427Y-8860427D02*
X19688427Y-8775573D01*
X19603573Y-8775573D01*
X19603573Y-8860427D01*
X19688427Y-8860427D01*
X19688427Y-10910427D02*
X19688427Y-10825573D01*
X19603573Y-10825573D01*
X19603573Y-10910427D01*
X19688427Y-10910427D01*
X20188427Y-9070427D02*
X20188427Y-8985573D01*
X20103573Y-8985573D01*
X20103573Y-9070427D01*
X20188427Y-9070427D01*
X20188427Y-11120427D02*
X20188427Y-11035573D01*
X20103573Y-11035573D01*
X20103573Y-11120427D01*
X20188427Y-11120427D01*
X22377427Y-8860427D02*
X22377427Y-8775573D01*
X22292573Y-8775573D01*
X22292573Y-8860427D01*
X22377427Y-8860427D01*
X22377427Y-10910427D02*
X22377427Y-10825573D01*
X22292573Y-10825573D01*
X22292573Y-10910427D01*
X22377427Y-10910427D01*
X22877427Y-9070427D02*
X22877427Y-8985573D01*
X22792573Y-8985573D01*
X22792573Y-9070427D01*
X22877427Y-9070427D01*
X22877427Y-11120427D02*
X22877427Y-11035573D01*
X22792573Y-11035573D01*
X22792573Y-11120427D01*
X22877427Y-11120427D01*
D14*
X7915000Y-4983000D02*
X7990000Y-4908000D01*
X7915000Y-4833000D01*
X7840000Y-4908000D01*
X7915000Y-4983000D01*
D12*
X7990000Y-4973000D02*
X7990000Y-4843000D01*
X7840000Y-4843000D02*
G75*
G02*
X7990000Y-4843000I75000J0D01*
G01*
X7840000Y-4843000D02*
X7840000Y-4973000D01*
X7840000Y-4973000D02*
G75*
G03*
X7990000Y-4973000I75000J0D01*
G01*
D14*
X9035000Y-4983000D02*
X9110000Y-4908000D01*
X9035000Y-4833000D01*
X8960000Y-4908000D01*
X9035000Y-4983000D01*
D12*
X9110000Y-4973000D02*
X9110000Y-4843000D01*
X8960000Y-4843000D02*
G75*
G02*
X9110000Y-4843000I75000J0D01*
G01*
X8960000Y-4843000D02*
X8960000Y-4973000D01*
X8960000Y-4973000D02*
G75*
G03*
X9110000Y-4973000I75000J0D01*
G01*
D14*
X12765000Y-4983000D02*
X12840000Y-4908000D01*
X12765000Y-4833000D01*
X12690000Y-4908000D01*
X12765000Y-4983000D01*
D12*
X12840000Y-4973000D02*
X12840000Y-4843000D01*
X12690000Y-4843000D02*
G75*
G02*
X12840000Y-4843000I75000J0D01*
G01*
X12690000Y-4843000D02*
X12690000Y-4973000D01*
X12690000Y-4973000D02*
G75*
G03*
X12840000Y-4973000I75000J0D01*
G01*
D14*
X13885000Y-4983000D02*
X13960000Y-4908000D01*
X13885000Y-4833000D01*
X13810000Y-4908000D01*
X13885000Y-4983000D01*
D12*
X13960000Y-4973000D02*
X13960000Y-4843000D01*
X13810000Y-4843000D02*
G75*
G02*
X13960000Y-4843000I75000J0D01*
G01*
X13810000Y-4843000D02*
X13810000Y-4973000D01*
X13810000Y-4973000D02*
G75*
G03*
X13960000Y-4973000I75000J0D01*
G01*
D14*
X17815000Y-4983000D02*
X17890000Y-4908000D01*
X17815000Y-4833000D01*
X17740000Y-4908000D01*
X17815000Y-4983000D01*
D12*
X17890000Y-4973000D02*
X17890000Y-4843000D01*
X17740000Y-4843000D02*
G75*
G02*
X17890000Y-4843000I75000J0D01*
G01*
X17740000Y-4843000D02*
X17740000Y-4973000D01*
X17740000Y-4973000D02*
G75*
G03*
X17890000Y-4973000I75000J0D01*
G01*
D14*
X18935000Y-4983000D02*
X19010000Y-4908000D01*
X18935000Y-4833000D01*
X18860000Y-4908000D01*
X18935000Y-4983000D01*
D12*
X19010000Y-4973000D02*
X19010000Y-4843000D01*
X18860000Y-4843000D02*
G75*
G02*
X19010000Y-4843000I75000J0D01*
G01*
X18860000Y-4843000D02*
X18860000Y-4973000D01*
X18860000Y-4973000D02*
G75*
G03*
X19010000Y-4973000I75000J0D01*
G01*
D15*
X3865000Y-7353000D02*
X4085000Y-7573000D01*
X4085000Y-7353000D02*
X3865000Y-7573000D01*
X4085000Y-7463000D02*
G75*
G02*
X3865000Y-7463000I-110000J0D01*
G01*
X3865000Y-7463000D02*
G75*
G02*
X4085000Y-7463000I110000J0D01*
G01*
X4745000Y-7353000D02*
X4965000Y-7573000D01*
X4965000Y-7353000D02*
X4745000Y-7573000D01*
X4965000Y-7463000D02*
G75*
G02*
X4745000Y-7463000I-110000J0D01*
G01*
X4745000Y-7463000D02*
G75*
G02*
X4965000Y-7463000I110000J0D01*
G01*
X5774000Y-7353000D02*
X5994000Y-7573000D01*
X5994000Y-7353000D02*
X5774000Y-7573000D01*
X5994000Y-7463000D02*
G75*
G02*
X5774000Y-7463000I-110000J0D01*
G01*
X5774000Y-7463000D02*
G75*
G02*
X5994000Y-7463000I110000J0D01*
G01*
X6654000Y-7353000D02*
X6874000Y-7573000D01*
X6874000Y-7353000D02*
X6654000Y-7573000D01*
X6874000Y-7463000D02*
G75*
G02*
X6654000Y-7463000I-110000J0D01*
G01*
X6654000Y-7463000D02*
G75*
G02*
X6874000Y-7463000I110000J0D01*
G01*
X7679000Y-7353000D02*
X7899000Y-7573000D01*
X7899000Y-7353000D02*
X7679000Y-7573000D01*
X7899000Y-7463000D02*
G75*
G02*
X7679000Y-7463000I-110000J0D01*
G01*
X7679000Y-7463000D02*
G75*
G02*
X7899000Y-7463000I110000J0D01*
G01*
X8559000Y-7353000D02*
X8779000Y-7573000D01*
X8779000Y-7353000D02*
X8559000Y-7573000D01*
X8779000Y-7463000D02*
G75*
G02*
X8559000Y-7463000I-110000J0D01*
G01*
X8559000Y-7463000D02*
G75*
G02*
X8779000Y-7463000I110000J0D01*
G01*
X9584000Y-7353000D02*
X9804000Y-7573000D01*
X9804000Y-7353000D02*
X9584000Y-7573000D01*
X9804000Y-7463000D02*
G75*
G02*
X9584000Y-7463000I-110000J0D01*
G01*
X9584000Y-7463000D02*
G75*
G02*
X9804000Y-7463000I110000J0D01*
G01*
X10464000Y-7353000D02*
X10684000Y-7573000D01*
X10684000Y-7353000D02*
X10464000Y-7573000D01*
X10684000Y-7463000D02*
G75*
G02*
X10464000Y-7463000I-110000J0D01*
G01*
X10464000Y-7463000D02*
G75*
G02*
X10684000Y-7463000I110000J0D01*
G01*
X11480000Y-7353000D02*
X11700000Y-7573000D01*
X11700000Y-7353000D02*
X11480000Y-7573000D01*
X11700000Y-7463000D02*
G75*
G02*
X11480000Y-7463000I-110000J0D01*
G01*
X11480000Y-7463000D02*
G75*
G02*
X11700000Y-7463000I110000J0D01*
G01*
X12360000Y-7353000D02*
X12580000Y-7573000D01*
X12580000Y-7353000D02*
X12360000Y-7573000D01*
X12580000Y-7463000D02*
G75*
G02*
X12360000Y-7463000I-110000J0D01*
G01*
X12360000Y-7463000D02*
G75*
G02*
X12580000Y-7463000I110000J0D01*
G01*
X13385000Y-7353000D02*
X13605000Y-7573000D01*
X13605000Y-7353000D02*
X13385000Y-7573000D01*
X13605000Y-7463000D02*
G75*
G02*
X13385000Y-7463000I-110000J0D01*
G01*
X13385000Y-7463000D02*
G75*
G02*
X13605000Y-7463000I110000J0D01*
G01*
X14265000Y-7353000D02*
X14485000Y-7573000D01*
X14485000Y-7353000D02*
X14265000Y-7573000D01*
X14485000Y-7463000D02*
G75*
G02*
X14265000Y-7463000I-110000J0D01*
G01*
X14265000Y-7463000D02*
G75*
G02*
X14485000Y-7463000I110000J0D01*
G01*
X15285000Y-7353000D02*
X15505000Y-7573000D01*
X15505000Y-7353000D02*
X15285000Y-7573000D01*
X15505000Y-7463000D02*
G75*
G02*
X15285000Y-7463000I-110000J0D01*
G01*
X15285000Y-7463000D02*
G75*
G02*
X15505000Y-7463000I110000J0D01*
G01*
X16165000Y-7353000D02*
X16385000Y-7573000D01*
X16385000Y-7353000D02*
X16165000Y-7573000D01*
X16385000Y-7463000D02*
G75*
G02*
X16165000Y-7463000I-110000J0D01*
G01*
X16165000Y-7463000D02*
G75*
G02*
X16385000Y-7463000I110000J0D01*
G01*
X17186000Y-7353000D02*
X17406000Y-7573000D01*
X17406000Y-7353000D02*
X17186000Y-7573000D01*
X17406000Y-7463000D02*
G75*
G02*
X17186000Y-7463000I-110000J0D01*
G01*
X17186000Y-7463000D02*
G75*
G02*
X17406000Y-7463000I110000J0D01*
G01*
X18066000Y-7353000D02*
X18286000Y-7573000D01*
X18286000Y-7353000D02*
X18066000Y-7573000D01*
X18286000Y-7463000D02*
G75*
G02*
X18066000Y-7463000I-110000J0D01*
G01*
X18066000Y-7463000D02*
G75*
G02*
X18286000Y-7463000I110000J0D01*
G01*
X19096000Y-7353000D02*
X19316000Y-7573000D01*
X19316000Y-7353000D02*
X19096000Y-7573000D01*
X19316000Y-7463000D02*
G75*
G02*
X19096000Y-7463000I-110000J0D01*
G01*
X19096000Y-7463000D02*
G75*
G02*
X19316000Y-7463000I110000J0D01*
G01*
X19976000Y-7353000D02*
X20196000Y-7573000D01*
X20196000Y-7353000D02*
X19976000Y-7573000D01*
X20196000Y-7463000D02*
G75*
G02*
X19976000Y-7463000I-110000J0D01*
G01*
X19976000Y-7463000D02*
G75*
G02*
X20196000Y-7463000I110000J0D01*
G01*
X21785000Y-7353000D02*
X22005000Y-7573000D01*
X22005000Y-7353000D02*
X21785000Y-7573000D01*
X22005000Y-7463000D02*
G75*
G02*
X21785000Y-7463000I-110000J0D01*
G01*
X21785000Y-7463000D02*
G75*
G02*
X22005000Y-7463000I110000J0D01*
G01*
X22665000Y-7353000D02*
X22885000Y-7573000D01*
X22885000Y-7353000D02*
X22665000Y-7573000D01*
X22885000Y-7463000D02*
G75*
G02*
X22665000Y-7463000I-110000J0D01*
G01*
X22665000Y-7463000D02*
G75*
G02*
X22885000Y-7463000I110000J0D01*
G01*
D11*
X3422277Y-14631984D02*
X3422277Y-14431984D01*
X3422277Y-14431984D02*
X3469896Y-14431984D01*
X3469896Y-14431984D02*
X3498467Y-14441508D01*
X3498467Y-14441508D02*
X3517515Y-14460555D01*
X3517515Y-14460555D02*
X3527039Y-14479603D01*
X3527039Y-14479603D02*
X3536562Y-14517698D01*
X3536562Y-14517698D02*
X3536562Y-14546269D01*
X3536562Y-14546269D02*
X3527039Y-14584365D01*
X3527039Y-14584365D02*
X3517515Y-14603412D01*
X3517515Y-14603412D02*
X3498467Y-14622460D01*
X3498467Y-14622460D02*
X3469896Y-14631984D01*
X3469896Y-14631984D02*
X3422277Y-14631984D01*
X3622277Y-14631984D02*
X3622277Y-14498650D01*
X3622277Y-14536746D02*
X3631801Y-14517698D01*
X3631801Y-14517698D02*
X3641324Y-14508174D01*
X3641324Y-14508174D02*
X3660372Y-14498650D01*
X3660372Y-14498650D02*
X3679420Y-14498650D01*
X3746086Y-14631984D02*
X3746086Y-14498650D01*
X3746086Y-14431984D02*
X3736562Y-14441508D01*
X3736562Y-14441508D02*
X3746086Y-14451031D01*
X3746086Y-14451031D02*
X3755610Y-14441508D01*
X3755610Y-14441508D02*
X3746086Y-14431984D01*
X3746086Y-14431984D02*
X3746086Y-14451031D01*
X3869896Y-14631984D02*
X3850848Y-14622460D01*
X3850848Y-14622460D02*
X3841324Y-14603412D01*
X3841324Y-14603412D02*
X3841324Y-14431984D01*
X3974658Y-14631984D02*
X3955610Y-14622460D01*
X3955610Y-14622460D02*
X3946086Y-14603412D01*
X3946086Y-14603412D02*
X3946086Y-14431984D01*
X4203229Y-14631984D02*
X4203229Y-14431984D01*
X4203229Y-14431984D02*
X4269896Y-14574841D01*
X4269896Y-14574841D02*
X4336563Y-14431984D01*
X4336563Y-14431984D02*
X4336563Y-14631984D01*
X4517515Y-14631984D02*
X4517515Y-14527222D01*
X4517515Y-14527222D02*
X4507991Y-14508174D01*
X4507991Y-14508174D02*
X4488944Y-14498650D01*
X4488944Y-14498650D02*
X4450848Y-14498650D01*
X4450848Y-14498650D02*
X4431801Y-14508174D01*
X4517515Y-14622460D02*
X4498467Y-14631984D01*
X4498467Y-14631984D02*
X4450848Y-14631984D01*
X4450848Y-14631984D02*
X4431801Y-14622460D01*
X4431801Y-14622460D02*
X4422277Y-14603412D01*
X4422277Y-14603412D02*
X4422277Y-14584365D01*
X4422277Y-14584365D02*
X4431801Y-14565317D01*
X4431801Y-14565317D02*
X4450848Y-14555793D01*
X4450848Y-14555793D02*
X4498467Y-14555793D01*
X4498467Y-14555793D02*
X4517515Y-14546269D01*
X4612753Y-14498650D02*
X4612753Y-14698650D01*
X4612753Y-14508174D02*
X4631801Y-14498650D01*
X4631801Y-14498650D02*
X4669896Y-14498650D01*
X4669896Y-14498650D02*
X4688944Y-14508174D01*
X4688944Y-14508174D02*
X4698467Y-14517698D01*
X4698467Y-14517698D02*
X4707991Y-14536746D01*
X4707991Y-14536746D02*
X4707991Y-14593888D01*
X4707991Y-14593888D02*
X4698467Y-14612936D01*
X4698467Y-14612936D02*
X4688944Y-14622460D01*
X4688944Y-14622460D02*
X4669896Y-14631984D01*
X4669896Y-14631984D02*
X4631801Y-14631984D01*
X4631801Y-14631984D02*
X4612753Y-14622460D01*
X4793705Y-14612936D02*
X4803229Y-14622460D01*
X4803229Y-14622460D02*
X4793705Y-14631984D01*
X4793705Y-14631984D02*
X4784182Y-14622460D01*
X4784182Y-14622460D02*
X4793705Y-14612936D01*
X4793705Y-14612936D02*
X4793705Y-14631984D01*
X4793705Y-14508174D02*
X4803229Y-14517698D01*
X4803229Y-14517698D02*
X4793705Y-14527222D01*
X4793705Y-14527222D02*
X4784182Y-14517698D01*
X4784182Y-14517698D02*
X4793705Y-14508174D01*
X4793705Y-14508174D02*
X4793705Y-14527222D01*
D12*
X3131500Y-14945500D02*
X3161500Y-14975500D01*
X3161500Y-14945500D02*
X3131500Y-14975500D01*
D11*
X3460372Y-14851984D02*
X3479420Y-14851984D01*
X3479420Y-14851984D02*
X3498467Y-14861508D01*
X3498467Y-14861508D02*
X3507991Y-14871031D01*
X3507991Y-14871031D02*
X3517515Y-14890079D01*
X3517515Y-14890079D02*
X3527039Y-14928174D01*
X3527039Y-14928174D02*
X3527039Y-14975793D01*
X3527039Y-14975793D02*
X3517515Y-15013888D01*
X3517515Y-15013888D02*
X3507991Y-15032936D01*
X3507991Y-15032936D02*
X3498467Y-15042460D01*
X3498467Y-15042460D02*
X3479420Y-15051984D01*
X3479420Y-15051984D02*
X3460372Y-15051984D01*
X3460372Y-15051984D02*
X3441324Y-15042460D01*
X3441324Y-15042460D02*
X3431801Y-15032936D01*
X3431801Y-15032936D02*
X3422277Y-15013888D01*
X3422277Y-15013888D02*
X3412753Y-14975793D01*
X3412753Y-14975793D02*
X3412753Y-14928174D01*
X3412753Y-14928174D02*
X3422277Y-14890079D01*
X3422277Y-14890079D02*
X3431801Y-14871031D01*
X3431801Y-14871031D02*
X3441324Y-14861508D01*
X3441324Y-14861508D02*
X3460372Y-14851984D01*
X3622277Y-15042460D02*
X3622277Y-15051984D01*
X3622277Y-15051984D02*
X3612753Y-15071031D01*
X3612753Y-15071031D02*
X3603229Y-15080555D01*
X3688943Y-14851984D02*
X3812753Y-14851984D01*
X3812753Y-14851984D02*
X3746086Y-14928174D01*
X3746086Y-14928174D02*
X3774658Y-14928174D01*
X3774658Y-14928174D02*
X3793705Y-14937698D01*
X3793705Y-14937698D02*
X3803229Y-14947222D01*
X3803229Y-14947222D02*
X3812753Y-14966269D01*
X3812753Y-14966269D02*
X3812753Y-15013888D01*
X3812753Y-15013888D02*
X3803229Y-15032936D01*
X3803229Y-15032936D02*
X3793705Y-15042460D01*
X3793705Y-15042460D02*
X3774658Y-15051984D01*
X3774658Y-15051984D02*
X3717515Y-15051984D01*
X3717515Y-15051984D02*
X3698467Y-15042460D01*
X3698467Y-15042460D02*
X3688943Y-15032936D01*
X3936562Y-14851984D02*
X3955610Y-14851984D01*
X3955610Y-14851984D02*
X3974658Y-14861508D01*
X3974658Y-14861508D02*
X3984182Y-14871031D01*
X3984182Y-14871031D02*
X3993705Y-14890079D01*
X3993705Y-14890079D02*
X4003229Y-14928174D01*
X4003229Y-14928174D02*
X4003229Y-14975793D01*
X4003229Y-14975793D02*
X3993705Y-15013888D01*
X3993705Y-15013888D02*
X3984182Y-15032936D01*
X3984182Y-15032936D02*
X3974658Y-15042460D01*
X3974658Y-15042460D02*
X3955610Y-15051984D01*
X3955610Y-15051984D02*
X3936562Y-15051984D01*
X3936562Y-15051984D02*
X3917515Y-15042460D01*
X3917515Y-15042460D02*
X3907991Y-15032936D01*
X3907991Y-15032936D02*
X3898467Y-15013888D01*
X3898467Y-15013888D02*
X3888943Y-14975793D01*
X3888943Y-14975793D02*
X3888943Y-14928174D01*
X3888943Y-14928174D02*
X3898467Y-14890079D01*
X3898467Y-14890079D02*
X3907991Y-14871031D01*
X3907991Y-14871031D02*
X3917515Y-14861508D01*
X3917515Y-14861508D02*
X3936562Y-14851984D01*
X4127039Y-14851984D02*
X4146086Y-14851984D01*
X4146086Y-14851984D02*
X4165134Y-14861508D01*
X4165134Y-14861508D02*
X4174658Y-14871031D01*
X4174658Y-14871031D02*
X4184182Y-14890079D01*
X4184182Y-14890079D02*
X4193705Y-14928174D01*
X4193705Y-14928174D02*
X4193705Y-14975793D01*
X4193705Y-14975793D02*
X4184182Y-15013888D01*
X4184182Y-15013888D02*
X4174658Y-15032936D01*
X4174658Y-15032936D02*
X4165134Y-15042460D01*
X4165134Y-15042460D02*
X4146086Y-15051984D01*
X4146086Y-15051984D02*
X4127039Y-15051984D01*
X4127039Y-15051984D02*
X4107991Y-15042460D01*
X4107991Y-15042460D02*
X4098467Y-15032936D01*
X4098467Y-15032936D02*
X4088943Y-15013888D01*
X4088943Y-15013888D02*
X4079420Y-14975793D01*
X4079420Y-14975793D02*
X4079420Y-14928174D01*
X4079420Y-14928174D02*
X4088943Y-14890079D01*
X4088943Y-14890079D02*
X4098467Y-14871031D01*
X4098467Y-14871031D02*
X4107991Y-14861508D01*
X4107991Y-14861508D02*
X4127039Y-14851984D01*
X4279420Y-15051984D02*
X4279420Y-14918650D01*
X4279420Y-14937698D02*
X4288944Y-14928174D01*
X4288944Y-14928174D02*
X4307991Y-14918650D01*
X4307991Y-14918650D02*
X4336563Y-14918650D01*
X4336563Y-14918650D02*
X4355610Y-14928174D01*
X4355610Y-14928174D02*
X4365134Y-14947222D01*
X4365134Y-14947222D02*
X4365134Y-15051984D01*
X4365134Y-14947222D02*
X4374658Y-14928174D01*
X4374658Y-14928174D02*
X4393705Y-14918650D01*
X4393705Y-14918650D02*
X4422277Y-14918650D01*
X4422277Y-14918650D02*
X4441325Y-14928174D01*
X4441325Y-14928174D02*
X4450848Y-14947222D01*
X4450848Y-14947222D02*
X4450848Y-15051984D01*
X4546086Y-15051984D02*
X4546086Y-14918650D01*
X4546086Y-14937698D02*
X4555610Y-14928174D01*
X4555610Y-14928174D02*
X4574658Y-14918650D01*
X4574658Y-14918650D02*
X4603229Y-14918650D01*
X4603229Y-14918650D02*
X4622277Y-14928174D01*
X4622277Y-14928174D02*
X4631801Y-14947222D01*
X4631801Y-14947222D02*
X4631801Y-15051984D01*
X4631801Y-14947222D02*
X4641325Y-14928174D01*
X4641325Y-14928174D02*
X4660372Y-14918650D01*
X4660372Y-14918650D02*
X4688944Y-14918650D01*
X4688944Y-14918650D02*
X4707991Y-14928174D01*
X4707991Y-14928174D02*
X4717515Y-14947222D01*
X4717515Y-14947222D02*
X4717515Y-15051984D01*
X5107991Y-14842460D02*
X4936563Y-15099603D01*
X5365134Y-14851984D02*
X5384182Y-14851984D01*
X5384182Y-14851984D02*
X5403229Y-14861508D01*
X5403229Y-14861508D02*
X5412753Y-14871031D01*
X5412753Y-14871031D02*
X5422277Y-14890079D01*
X5422277Y-14890079D02*
X5431801Y-14928174D01*
X5431801Y-14928174D02*
X5431801Y-14975793D01*
X5431801Y-14975793D02*
X5422277Y-15013888D01*
X5422277Y-15013888D02*
X5412753Y-15032936D01*
X5412753Y-15032936D02*
X5403229Y-15042460D01*
X5403229Y-15042460D02*
X5384182Y-15051984D01*
X5384182Y-15051984D02*
X5365134Y-15051984D01*
X5365134Y-15051984D02*
X5346087Y-15042460D01*
X5346087Y-15042460D02*
X5336563Y-15032936D01*
X5336563Y-15032936D02*
X5327039Y-15013888D01*
X5327039Y-15013888D02*
X5317515Y-14975793D01*
X5317515Y-14975793D02*
X5317515Y-14928174D01*
X5317515Y-14928174D02*
X5327039Y-14890079D01*
X5327039Y-14890079D02*
X5336563Y-14871031D01*
X5336563Y-14871031D02*
X5346087Y-14861508D01*
X5346087Y-14861508D02*
X5365134Y-14851984D01*
X5527039Y-15042460D02*
X5527039Y-15051984D01*
X5527039Y-15051984D02*
X5517515Y-15071031D01*
X5517515Y-15071031D02*
X5507991Y-15080555D01*
X5650848Y-14851984D02*
X5669896Y-14851984D01*
X5669896Y-14851984D02*
X5688944Y-14861508D01*
X5688944Y-14861508D02*
X5698467Y-14871031D01*
X5698467Y-14871031D02*
X5707991Y-14890079D01*
X5707991Y-14890079D02*
X5717515Y-14928174D01*
X5717515Y-14928174D02*
X5717515Y-14975793D01*
X5717515Y-14975793D02*
X5707991Y-15013888D01*
X5707991Y-15013888D02*
X5698467Y-15032936D01*
X5698467Y-15032936D02*
X5688944Y-15042460D01*
X5688944Y-15042460D02*
X5669896Y-15051984D01*
X5669896Y-15051984D02*
X5650848Y-15051984D01*
X5650848Y-15051984D02*
X5631801Y-15042460D01*
X5631801Y-15042460D02*
X5622277Y-15032936D01*
X5622277Y-15032936D02*
X5612753Y-15013888D01*
X5612753Y-15013888D02*
X5603229Y-14975793D01*
X5603229Y-14975793D02*
X5603229Y-14928174D01*
X5603229Y-14928174D02*
X5612753Y-14890079D01*
X5612753Y-14890079D02*
X5622277Y-14871031D01*
X5622277Y-14871031D02*
X5631801Y-14861508D01*
X5631801Y-14861508D02*
X5650848Y-14851984D01*
X5907991Y-15051984D02*
X5793706Y-15051984D01*
X5850848Y-15051984D02*
X5850848Y-14851984D01*
X5850848Y-14851984D02*
X5831801Y-14880555D01*
X5831801Y-14880555D02*
X5812753Y-14899603D01*
X5812753Y-14899603D02*
X5793706Y-14909127D01*
X6098467Y-15051984D02*
X5984182Y-15051984D01*
X6041325Y-15051984D02*
X6041325Y-14851984D01*
X6041325Y-14851984D02*
X6022277Y-14880555D01*
X6022277Y-14880555D02*
X6003229Y-14899603D01*
X6003229Y-14899603D02*
X5984182Y-14909127D01*
X6212753Y-14937698D02*
X6193706Y-14928174D01*
X6193706Y-14928174D02*
X6184182Y-14918650D01*
X6184182Y-14918650D02*
X6174658Y-14899603D01*
X6174658Y-14899603D02*
X6174658Y-14890079D01*
X6174658Y-14890079D02*
X6184182Y-14871031D01*
X6184182Y-14871031D02*
X6193706Y-14861508D01*
X6193706Y-14861508D02*
X6212753Y-14851984D01*
X6212753Y-14851984D02*
X6250848Y-14851984D01*
X6250848Y-14851984D02*
X6269896Y-14861508D01*
X6269896Y-14861508D02*
X6279420Y-14871031D01*
X6279420Y-14871031D02*
X6288944Y-14890079D01*
X6288944Y-14890079D02*
X6288944Y-14899603D01*
X6288944Y-14899603D02*
X6279420Y-14918650D01*
X6279420Y-14918650D02*
X6269896Y-14928174D01*
X6269896Y-14928174D02*
X6250848Y-14937698D01*
X6250848Y-14937698D02*
X6212753Y-14937698D01*
X6212753Y-14937698D02*
X6193706Y-14947222D01*
X6193706Y-14947222D02*
X6184182Y-14956746D01*
X6184182Y-14956746D02*
X6174658Y-14975793D01*
X6174658Y-14975793D02*
X6174658Y-15013888D01*
X6174658Y-15013888D02*
X6184182Y-15032936D01*
X6184182Y-15032936D02*
X6193706Y-15042460D01*
X6193706Y-15042460D02*
X6212753Y-15051984D01*
X6212753Y-15051984D02*
X6250848Y-15051984D01*
X6250848Y-15051984D02*
X6269896Y-15042460D01*
X6269896Y-15042460D02*
X6279420Y-15032936D01*
X6279420Y-15032936D02*
X6288944Y-15013888D01*
X6288944Y-15013888D02*
X6288944Y-14975793D01*
X6288944Y-14975793D02*
X6279420Y-14956746D01*
X6279420Y-14956746D02*
X6269896Y-14947222D01*
X6269896Y-14947222D02*
X6250848Y-14937698D01*
X6365134Y-14851984D02*
X6365134Y-14890079D01*
X6441325Y-14851984D02*
X6441325Y-14890079D01*
X6736563Y-15128174D02*
X6727039Y-15118650D01*
X6727039Y-15118650D02*
X6707991Y-15090079D01*
X6707991Y-15090079D02*
X6698468Y-15071031D01*
X6698468Y-15071031D02*
X6688944Y-15042460D01*
X6688944Y-15042460D02*
X6679420Y-14994841D01*
X6679420Y-14994841D02*
X6679420Y-14956746D01*
X6679420Y-14956746D02*
X6688944Y-14909127D01*
X6688944Y-14909127D02*
X6698468Y-14880555D01*
X6698468Y-14880555D02*
X6707991Y-14861508D01*
X6707991Y-14861508D02*
X6727039Y-14832936D01*
X6727039Y-14832936D02*
X6736563Y-14823412D01*
X6803229Y-14871031D02*
X6812753Y-14861508D01*
X6812753Y-14861508D02*
X6831801Y-14851984D01*
X6831801Y-14851984D02*
X6879420Y-14851984D01*
X6879420Y-14851984D02*
X6898468Y-14861508D01*
X6898468Y-14861508D02*
X6907991Y-14871031D01*
X6907991Y-14871031D02*
X6917515Y-14890079D01*
X6917515Y-14890079D02*
X6917515Y-14909127D01*
X6917515Y-14909127D02*
X6907991Y-14937698D01*
X6907991Y-14937698D02*
X6793706Y-15051984D01*
X6793706Y-15051984D02*
X6917515Y-15051984D01*
X7031801Y-14937698D02*
X7012753Y-14928174D01*
X7012753Y-14928174D02*
X7003229Y-14918650D01*
X7003229Y-14918650D02*
X6993706Y-14899603D01*
X6993706Y-14899603D02*
X6993706Y-14890079D01*
X6993706Y-14890079D02*
X7003229Y-14871031D01*
X7003229Y-14871031D02*
X7012753Y-14861508D01*
X7012753Y-14861508D02*
X7031801Y-14851984D01*
X7031801Y-14851984D02*
X7069896Y-14851984D01*
X7069896Y-14851984D02*
X7088944Y-14861508D01*
X7088944Y-14861508D02*
X7098468Y-14871031D01*
X7098468Y-14871031D02*
X7107991Y-14890079D01*
X7107991Y-14890079D02*
X7107991Y-14899603D01*
X7107991Y-14899603D02*
X7098468Y-14918650D01*
X7098468Y-14918650D02*
X7088944Y-14928174D01*
X7088944Y-14928174D02*
X7069896Y-14937698D01*
X7069896Y-14937698D02*
X7031801Y-14937698D01*
X7031801Y-14937698D02*
X7012753Y-14947222D01*
X7012753Y-14947222D02*
X7003229Y-14956746D01*
X7003229Y-14956746D02*
X6993706Y-14975793D01*
X6993706Y-14975793D02*
X6993706Y-15013888D01*
X6993706Y-15013888D02*
X7003229Y-15032936D01*
X7003229Y-15032936D02*
X7012753Y-15042460D01*
X7012753Y-15042460D02*
X7031801Y-15051984D01*
X7031801Y-15051984D02*
X7069896Y-15051984D01*
X7069896Y-15051984D02*
X7088944Y-15042460D01*
X7088944Y-15042460D02*
X7098468Y-15032936D01*
X7098468Y-15032936D02*
X7107991Y-15013888D01*
X7107991Y-15013888D02*
X7107991Y-14975793D01*
X7107991Y-14975793D02*
X7098468Y-14956746D01*
X7098468Y-14956746D02*
X7088944Y-14947222D01*
X7088944Y-14947222D02*
X7069896Y-14937698D01*
X7279420Y-14851984D02*
X7241325Y-14851984D01*
X7241325Y-14851984D02*
X7222277Y-14861508D01*
X7222277Y-14861508D02*
X7212753Y-14871031D01*
X7212753Y-14871031D02*
X7193706Y-14899603D01*
X7193706Y-14899603D02*
X7184182Y-14937698D01*
X7184182Y-14937698D02*
X7184182Y-15013888D01*
X7184182Y-15013888D02*
X7193706Y-15032936D01*
X7193706Y-15032936D02*
X7203229Y-15042460D01*
X7203229Y-15042460D02*
X7222277Y-15051984D01*
X7222277Y-15051984D02*
X7260372Y-15051984D01*
X7260372Y-15051984D02*
X7279420Y-15042460D01*
X7279420Y-15042460D02*
X7288944Y-15032936D01*
X7288944Y-15032936D02*
X7298468Y-15013888D01*
X7298468Y-15013888D02*
X7298468Y-14966269D01*
X7298468Y-14966269D02*
X7288944Y-14947222D01*
X7288944Y-14947222D02*
X7279420Y-14937698D01*
X7279420Y-14937698D02*
X7260372Y-14928174D01*
X7260372Y-14928174D02*
X7222277Y-14928174D01*
X7222277Y-14928174D02*
X7203229Y-14937698D01*
X7203229Y-14937698D02*
X7193706Y-14947222D01*
X7193706Y-14947222D02*
X7184182Y-14966269D01*
X7536563Y-15051984D02*
X7536563Y-14851984D01*
X7622277Y-15051984D02*
X7622277Y-14947222D01*
X7622277Y-14947222D02*
X7612753Y-14928174D01*
X7612753Y-14928174D02*
X7593706Y-14918650D01*
X7593706Y-14918650D02*
X7565134Y-14918650D01*
X7565134Y-14918650D02*
X7546087Y-14928174D01*
X7546087Y-14928174D02*
X7536563Y-14937698D01*
X7746087Y-15051984D02*
X7727039Y-15042460D01*
X7727039Y-15042460D02*
X7717515Y-15032936D01*
X7717515Y-15032936D02*
X7707991Y-15013888D01*
X7707991Y-15013888D02*
X7707991Y-14956746D01*
X7707991Y-14956746D02*
X7717515Y-14937698D01*
X7717515Y-14937698D02*
X7727039Y-14928174D01*
X7727039Y-14928174D02*
X7746087Y-14918650D01*
X7746087Y-14918650D02*
X7774658Y-14918650D01*
X7774658Y-14918650D02*
X7793706Y-14928174D01*
X7793706Y-14928174D02*
X7803230Y-14937698D01*
X7803230Y-14937698D02*
X7812753Y-14956746D01*
X7812753Y-14956746D02*
X7812753Y-15013888D01*
X7812753Y-15013888D02*
X7803230Y-15032936D01*
X7803230Y-15032936D02*
X7793706Y-15042460D01*
X7793706Y-15042460D02*
X7774658Y-15051984D01*
X7774658Y-15051984D02*
X7746087Y-15051984D01*
X7927039Y-15051984D02*
X7907991Y-15042460D01*
X7907991Y-15042460D02*
X7898468Y-15023412D01*
X7898468Y-15023412D02*
X7898468Y-14851984D01*
X8079420Y-15042460D02*
X8060372Y-15051984D01*
X8060372Y-15051984D02*
X8022277Y-15051984D01*
X8022277Y-15051984D02*
X8003230Y-15042460D01*
X8003230Y-15042460D02*
X7993706Y-15023412D01*
X7993706Y-15023412D02*
X7993706Y-14947222D01*
X7993706Y-14947222D02*
X8003230Y-14928174D01*
X8003230Y-14928174D02*
X8022277Y-14918650D01*
X8022277Y-14918650D02*
X8060372Y-14918650D01*
X8060372Y-14918650D02*
X8079420Y-14928174D01*
X8079420Y-14928174D02*
X8088944Y-14947222D01*
X8088944Y-14947222D02*
X8088944Y-14966269D01*
X8088944Y-14966269D02*
X7993706Y-14985317D01*
X8165134Y-15042460D02*
X8184182Y-15051984D01*
X8184182Y-15051984D02*
X8222277Y-15051984D01*
X8222277Y-15051984D02*
X8241325Y-15042460D01*
X8241325Y-15042460D02*
X8250849Y-15023412D01*
X8250849Y-15023412D02*
X8250849Y-15013888D01*
X8250849Y-15013888D02*
X8241325Y-14994841D01*
X8241325Y-14994841D02*
X8222277Y-14985317D01*
X8222277Y-14985317D02*
X8193706Y-14985317D01*
X8193706Y-14985317D02*
X8174658Y-14975793D01*
X8174658Y-14975793D02*
X8165134Y-14956746D01*
X8165134Y-14956746D02*
X8165134Y-14947222D01*
X8165134Y-14947222D02*
X8174658Y-14928174D01*
X8174658Y-14928174D02*
X8193706Y-14918650D01*
X8193706Y-14918650D02*
X8222277Y-14918650D01*
X8222277Y-14918650D02*
X8241325Y-14928174D01*
X8317515Y-15128174D02*
X8327039Y-15118650D01*
X8327039Y-15118650D02*
X8346087Y-15090079D01*
X8346087Y-15090079D02*
X8355611Y-15071031D01*
X8355611Y-15071031D02*
X8365134Y-15042460D01*
X8365134Y-15042460D02*
X8374658Y-14994841D01*
X8374658Y-14994841D02*
X8374658Y-14956746D01*
X8374658Y-14956746D02*
X8365134Y-14909127D01*
X8365134Y-14909127D02*
X8355611Y-14880555D01*
X8355611Y-14880555D02*
X8346087Y-14861508D01*
X8346087Y-14861508D02*
X8327039Y-14832936D01*
X8327039Y-14832936D02*
X8317515Y-14823412D01*
D12*
X3161500Y-15224500D02*
G75*
G02*
X3081500Y-15224500I-40000J0D01*
G01*
X3081500Y-15224500D02*
G75*
G02*
X3161500Y-15224500I40000J0D01*
G01*
D11*
X3460372Y-15115984D02*
X3479420Y-15115984D01*
X3479420Y-15115984D02*
X3498467Y-15125508D01*
X3498467Y-15125508D02*
X3507991Y-15135031D01*
X3507991Y-15135031D02*
X3517515Y-15154079D01*
X3517515Y-15154079D02*
X3527039Y-15192174D01*
X3527039Y-15192174D02*
X3527039Y-15239793D01*
X3527039Y-15239793D02*
X3517515Y-15277888D01*
X3517515Y-15277888D02*
X3507991Y-15296936D01*
X3507991Y-15296936D02*
X3498467Y-15306460D01*
X3498467Y-15306460D02*
X3479420Y-15315984D01*
X3479420Y-15315984D02*
X3460372Y-15315984D01*
X3460372Y-15315984D02*
X3441324Y-15306460D01*
X3441324Y-15306460D02*
X3431801Y-15296936D01*
X3431801Y-15296936D02*
X3422277Y-15277888D01*
X3422277Y-15277888D02*
X3412753Y-15239793D01*
X3412753Y-15239793D02*
X3412753Y-15192174D01*
X3412753Y-15192174D02*
X3422277Y-15154079D01*
X3422277Y-15154079D02*
X3431801Y-15135031D01*
X3431801Y-15135031D02*
X3441324Y-15125508D01*
X3441324Y-15125508D02*
X3460372Y-15115984D01*
X3622277Y-15306460D02*
X3622277Y-15315984D01*
X3622277Y-15315984D02*
X3612753Y-15335031D01*
X3612753Y-15335031D02*
X3603229Y-15344555D01*
X3736562Y-15201698D02*
X3717515Y-15192174D01*
X3717515Y-15192174D02*
X3707991Y-15182650D01*
X3707991Y-15182650D02*
X3698467Y-15163603D01*
X3698467Y-15163603D02*
X3698467Y-15154079D01*
X3698467Y-15154079D02*
X3707991Y-15135031D01*
X3707991Y-15135031D02*
X3717515Y-15125508D01*
X3717515Y-15125508D02*
X3736562Y-15115984D01*
X3736562Y-15115984D02*
X3774658Y-15115984D01*
X3774658Y-15115984D02*
X3793705Y-15125508D01*
X3793705Y-15125508D02*
X3803229Y-15135031D01*
X3803229Y-15135031D02*
X3812753Y-15154079D01*
X3812753Y-15154079D02*
X3812753Y-15163603D01*
X3812753Y-15163603D02*
X3803229Y-15182650D01*
X3803229Y-15182650D02*
X3793705Y-15192174D01*
X3793705Y-15192174D02*
X3774658Y-15201698D01*
X3774658Y-15201698D02*
X3736562Y-15201698D01*
X3736562Y-15201698D02*
X3717515Y-15211222D01*
X3717515Y-15211222D02*
X3707991Y-15220746D01*
X3707991Y-15220746D02*
X3698467Y-15239793D01*
X3698467Y-15239793D02*
X3698467Y-15277888D01*
X3698467Y-15277888D02*
X3707991Y-15296936D01*
X3707991Y-15296936D02*
X3717515Y-15306460D01*
X3717515Y-15306460D02*
X3736562Y-15315984D01*
X3736562Y-15315984D02*
X3774658Y-15315984D01*
X3774658Y-15315984D02*
X3793705Y-15306460D01*
X3793705Y-15306460D02*
X3803229Y-15296936D01*
X3803229Y-15296936D02*
X3812753Y-15277888D01*
X3812753Y-15277888D02*
X3812753Y-15239793D01*
X3812753Y-15239793D02*
X3803229Y-15220746D01*
X3803229Y-15220746D02*
X3793705Y-15211222D01*
X3793705Y-15211222D02*
X3774658Y-15201698D01*
X3936562Y-15115984D02*
X3955610Y-15115984D01*
X3955610Y-15115984D02*
X3974658Y-15125508D01*
X3974658Y-15125508D02*
X3984182Y-15135031D01*
X3984182Y-15135031D02*
X3993705Y-15154079D01*
X3993705Y-15154079D02*
X4003229Y-15192174D01*
X4003229Y-15192174D02*
X4003229Y-15239793D01*
X4003229Y-15239793D02*
X3993705Y-15277888D01*
X3993705Y-15277888D02*
X3984182Y-15296936D01*
X3984182Y-15296936D02*
X3974658Y-15306460D01*
X3974658Y-15306460D02*
X3955610Y-15315984D01*
X3955610Y-15315984D02*
X3936562Y-15315984D01*
X3936562Y-15315984D02*
X3917515Y-15306460D01*
X3917515Y-15306460D02*
X3907991Y-15296936D01*
X3907991Y-15296936D02*
X3898467Y-15277888D01*
X3898467Y-15277888D02*
X3888943Y-15239793D01*
X3888943Y-15239793D02*
X3888943Y-15192174D01*
X3888943Y-15192174D02*
X3898467Y-15154079D01*
X3898467Y-15154079D02*
X3907991Y-15135031D01*
X3907991Y-15135031D02*
X3917515Y-15125508D01*
X3917515Y-15125508D02*
X3936562Y-15115984D01*
X4127039Y-15115984D02*
X4146086Y-15115984D01*
X4146086Y-15115984D02*
X4165134Y-15125508D01*
X4165134Y-15125508D02*
X4174658Y-15135031D01*
X4174658Y-15135031D02*
X4184182Y-15154079D01*
X4184182Y-15154079D02*
X4193705Y-15192174D01*
X4193705Y-15192174D02*
X4193705Y-15239793D01*
X4193705Y-15239793D02*
X4184182Y-15277888D01*
X4184182Y-15277888D02*
X4174658Y-15296936D01*
X4174658Y-15296936D02*
X4165134Y-15306460D01*
X4165134Y-15306460D02*
X4146086Y-15315984D01*
X4146086Y-15315984D02*
X4127039Y-15315984D01*
X4127039Y-15315984D02*
X4107991Y-15306460D01*
X4107991Y-15306460D02*
X4098467Y-15296936D01*
X4098467Y-15296936D02*
X4088943Y-15277888D01*
X4088943Y-15277888D02*
X4079420Y-15239793D01*
X4079420Y-15239793D02*
X4079420Y-15192174D01*
X4079420Y-15192174D02*
X4088943Y-15154079D01*
X4088943Y-15154079D02*
X4098467Y-15135031D01*
X4098467Y-15135031D02*
X4107991Y-15125508D01*
X4107991Y-15125508D02*
X4127039Y-15115984D01*
X4279420Y-15315984D02*
X4279420Y-15182650D01*
X4279420Y-15201698D02*
X4288944Y-15192174D01*
X4288944Y-15192174D02*
X4307991Y-15182650D01*
X4307991Y-15182650D02*
X4336563Y-15182650D01*
X4336563Y-15182650D02*
X4355610Y-15192174D01*
X4355610Y-15192174D02*
X4365134Y-15211222D01*
X4365134Y-15211222D02*
X4365134Y-15315984D01*
X4365134Y-15211222D02*
X4374658Y-15192174D01*
X4374658Y-15192174D02*
X4393705Y-15182650D01*
X4393705Y-15182650D02*
X4422277Y-15182650D01*
X4422277Y-15182650D02*
X4441325Y-15192174D01*
X4441325Y-15192174D02*
X4450848Y-15211222D01*
X4450848Y-15211222D02*
X4450848Y-15315984D01*
X4546086Y-15315984D02*
X4546086Y-15182650D01*
X4546086Y-15201698D02*
X4555610Y-15192174D01*
X4555610Y-15192174D02*
X4574658Y-15182650D01*
X4574658Y-15182650D02*
X4603229Y-15182650D01*
X4603229Y-15182650D02*
X4622277Y-15192174D01*
X4622277Y-15192174D02*
X4631801Y-15211222D01*
X4631801Y-15211222D02*
X4631801Y-15315984D01*
X4631801Y-15211222D02*
X4641325Y-15192174D01*
X4641325Y-15192174D02*
X4660372Y-15182650D01*
X4660372Y-15182650D02*
X4688944Y-15182650D01*
X4688944Y-15182650D02*
X4707991Y-15192174D01*
X4707991Y-15192174D02*
X4717515Y-15211222D01*
X4717515Y-15211222D02*
X4717515Y-15315984D01*
X5107991Y-15106460D02*
X4936563Y-15363603D01*
X5365134Y-15115984D02*
X5384182Y-15115984D01*
X5384182Y-15115984D02*
X5403229Y-15125508D01*
X5403229Y-15125508D02*
X5412753Y-15135031D01*
X5412753Y-15135031D02*
X5422277Y-15154079D01*
X5422277Y-15154079D02*
X5431801Y-15192174D01*
X5431801Y-15192174D02*
X5431801Y-15239793D01*
X5431801Y-15239793D02*
X5422277Y-15277888D01*
X5422277Y-15277888D02*
X5412753Y-15296936D01*
X5412753Y-15296936D02*
X5403229Y-15306460D01*
X5403229Y-15306460D02*
X5384182Y-15315984D01*
X5384182Y-15315984D02*
X5365134Y-15315984D01*
X5365134Y-15315984D02*
X5346087Y-15306460D01*
X5346087Y-15306460D02*
X5336563Y-15296936D01*
X5336563Y-15296936D02*
X5327039Y-15277888D01*
X5327039Y-15277888D02*
X5317515Y-15239793D01*
X5317515Y-15239793D02*
X5317515Y-15192174D01*
X5317515Y-15192174D02*
X5327039Y-15154079D01*
X5327039Y-15154079D02*
X5336563Y-15135031D01*
X5336563Y-15135031D02*
X5346087Y-15125508D01*
X5346087Y-15125508D02*
X5365134Y-15115984D01*
X5527039Y-15306460D02*
X5527039Y-15315984D01*
X5527039Y-15315984D02*
X5517515Y-15335031D01*
X5517515Y-15335031D02*
X5507991Y-15344555D01*
X5650848Y-15115984D02*
X5669896Y-15115984D01*
X5669896Y-15115984D02*
X5688944Y-15125508D01*
X5688944Y-15125508D02*
X5698467Y-15135031D01*
X5698467Y-15135031D02*
X5707991Y-15154079D01*
X5707991Y-15154079D02*
X5717515Y-15192174D01*
X5717515Y-15192174D02*
X5717515Y-15239793D01*
X5717515Y-15239793D02*
X5707991Y-15277888D01*
X5707991Y-15277888D02*
X5698467Y-15296936D01*
X5698467Y-15296936D02*
X5688944Y-15306460D01*
X5688944Y-15306460D02*
X5669896Y-15315984D01*
X5669896Y-15315984D02*
X5650848Y-15315984D01*
X5650848Y-15315984D02*
X5631801Y-15306460D01*
X5631801Y-15306460D02*
X5622277Y-15296936D01*
X5622277Y-15296936D02*
X5612753Y-15277888D01*
X5612753Y-15277888D02*
X5603229Y-15239793D01*
X5603229Y-15239793D02*
X5603229Y-15192174D01*
X5603229Y-15192174D02*
X5612753Y-15154079D01*
X5612753Y-15154079D02*
X5622277Y-15135031D01*
X5622277Y-15135031D02*
X5631801Y-15125508D01*
X5631801Y-15125508D02*
X5650848Y-15115984D01*
X5784182Y-15115984D02*
X5907991Y-15115984D01*
X5907991Y-15115984D02*
X5841325Y-15192174D01*
X5841325Y-15192174D02*
X5869896Y-15192174D01*
X5869896Y-15192174D02*
X5888944Y-15201698D01*
X5888944Y-15201698D02*
X5898467Y-15211222D01*
X5898467Y-15211222D02*
X5907991Y-15230269D01*
X5907991Y-15230269D02*
X5907991Y-15277888D01*
X5907991Y-15277888D02*
X5898467Y-15296936D01*
X5898467Y-15296936D02*
X5888944Y-15306460D01*
X5888944Y-15306460D02*
X5869896Y-15315984D01*
X5869896Y-15315984D02*
X5812753Y-15315984D01*
X5812753Y-15315984D02*
X5793706Y-15306460D01*
X5793706Y-15306460D02*
X5784182Y-15296936D01*
X6098467Y-15315984D02*
X5984182Y-15315984D01*
X6041325Y-15315984D02*
X6041325Y-15115984D01*
X6041325Y-15115984D02*
X6022277Y-15144555D01*
X6022277Y-15144555D02*
X6003229Y-15163603D01*
X6003229Y-15163603D02*
X5984182Y-15173127D01*
X6279420Y-15115984D02*
X6184182Y-15115984D01*
X6184182Y-15115984D02*
X6174658Y-15211222D01*
X6174658Y-15211222D02*
X6184182Y-15201698D01*
X6184182Y-15201698D02*
X6203229Y-15192174D01*
X6203229Y-15192174D02*
X6250848Y-15192174D01*
X6250848Y-15192174D02*
X6269896Y-15201698D01*
X6269896Y-15201698D02*
X6279420Y-15211222D01*
X6279420Y-15211222D02*
X6288944Y-15230269D01*
X6288944Y-15230269D02*
X6288944Y-15277888D01*
X6288944Y-15277888D02*
X6279420Y-15296936D01*
X6279420Y-15296936D02*
X6269896Y-15306460D01*
X6269896Y-15306460D02*
X6250848Y-15315984D01*
X6250848Y-15315984D02*
X6203229Y-15315984D01*
X6203229Y-15315984D02*
X6184182Y-15306460D01*
X6184182Y-15306460D02*
X6174658Y-15296936D01*
X6365134Y-15115984D02*
X6365134Y-15154079D01*
X6441325Y-15115984D02*
X6441325Y-15154079D01*
X6736563Y-15392174D02*
X6727039Y-15382650D01*
X6727039Y-15382650D02*
X6707991Y-15354079D01*
X6707991Y-15354079D02*
X6698468Y-15335031D01*
X6698468Y-15335031D02*
X6688944Y-15306460D01*
X6688944Y-15306460D02*
X6679420Y-15258841D01*
X6679420Y-15258841D02*
X6679420Y-15220746D01*
X6679420Y-15220746D02*
X6688944Y-15173127D01*
X6688944Y-15173127D02*
X6698468Y-15144555D01*
X6698468Y-15144555D02*
X6707991Y-15125508D01*
X6707991Y-15125508D02*
X6727039Y-15096936D01*
X6727039Y-15096936D02*
X6736563Y-15087412D01*
X6841325Y-15201698D02*
X6822277Y-15192174D01*
X6822277Y-15192174D02*
X6812753Y-15182650D01*
X6812753Y-15182650D02*
X6803229Y-15163603D01*
X6803229Y-15163603D02*
X6803229Y-15154079D01*
X6803229Y-15154079D02*
X6812753Y-15135031D01*
X6812753Y-15135031D02*
X6822277Y-15125508D01*
X6822277Y-15125508D02*
X6841325Y-15115984D01*
X6841325Y-15115984D02*
X6879420Y-15115984D01*
X6879420Y-15115984D02*
X6898468Y-15125508D01*
X6898468Y-15125508D02*
X6907991Y-15135031D01*
X6907991Y-15135031D02*
X6917515Y-15154079D01*
X6917515Y-15154079D02*
X6917515Y-15163603D01*
X6917515Y-15163603D02*
X6907991Y-15182650D01*
X6907991Y-15182650D02*
X6898468Y-15192174D01*
X6898468Y-15192174D02*
X6879420Y-15201698D01*
X6879420Y-15201698D02*
X6841325Y-15201698D01*
X6841325Y-15201698D02*
X6822277Y-15211222D01*
X6822277Y-15211222D02*
X6812753Y-15220746D01*
X6812753Y-15220746D02*
X6803229Y-15239793D01*
X6803229Y-15239793D02*
X6803229Y-15277888D01*
X6803229Y-15277888D02*
X6812753Y-15296936D01*
X6812753Y-15296936D02*
X6822277Y-15306460D01*
X6822277Y-15306460D02*
X6841325Y-15315984D01*
X6841325Y-15315984D02*
X6879420Y-15315984D01*
X6879420Y-15315984D02*
X6898468Y-15306460D01*
X6898468Y-15306460D02*
X6907991Y-15296936D01*
X6907991Y-15296936D02*
X6917515Y-15277888D01*
X6917515Y-15277888D02*
X6917515Y-15239793D01*
X6917515Y-15239793D02*
X6907991Y-15220746D01*
X6907991Y-15220746D02*
X6898468Y-15211222D01*
X6898468Y-15211222D02*
X6879420Y-15201698D01*
X7031801Y-15201698D02*
X7012753Y-15192174D01*
X7012753Y-15192174D02*
X7003229Y-15182650D01*
X7003229Y-15182650D02*
X6993706Y-15163603D01*
X6993706Y-15163603D02*
X6993706Y-15154079D01*
X6993706Y-15154079D02*
X7003229Y-15135031D01*
X7003229Y-15135031D02*
X7012753Y-15125508D01*
X7012753Y-15125508D02*
X7031801Y-15115984D01*
X7031801Y-15115984D02*
X7069896Y-15115984D01*
X7069896Y-15115984D02*
X7088944Y-15125508D01*
X7088944Y-15125508D02*
X7098468Y-15135031D01*
X7098468Y-15135031D02*
X7107991Y-15154079D01*
X7107991Y-15154079D02*
X7107991Y-15163603D01*
X7107991Y-15163603D02*
X7098468Y-15182650D01*
X7098468Y-15182650D02*
X7088944Y-15192174D01*
X7088944Y-15192174D02*
X7069896Y-15201698D01*
X7069896Y-15201698D02*
X7031801Y-15201698D01*
X7031801Y-15201698D02*
X7012753Y-15211222D01*
X7012753Y-15211222D02*
X7003229Y-15220746D01*
X7003229Y-15220746D02*
X6993706Y-15239793D01*
X6993706Y-15239793D02*
X6993706Y-15277888D01*
X6993706Y-15277888D02*
X7003229Y-15296936D01*
X7003229Y-15296936D02*
X7012753Y-15306460D01*
X7012753Y-15306460D02*
X7031801Y-15315984D01*
X7031801Y-15315984D02*
X7069896Y-15315984D01*
X7069896Y-15315984D02*
X7088944Y-15306460D01*
X7088944Y-15306460D02*
X7098468Y-15296936D01*
X7098468Y-15296936D02*
X7107991Y-15277888D01*
X7107991Y-15277888D02*
X7107991Y-15239793D01*
X7107991Y-15239793D02*
X7098468Y-15220746D01*
X7098468Y-15220746D02*
X7088944Y-15211222D01*
X7088944Y-15211222D02*
X7069896Y-15201698D01*
X7346087Y-15315984D02*
X7346087Y-15115984D01*
X7431801Y-15315984D02*
X7431801Y-15211222D01*
X7431801Y-15211222D02*
X7422277Y-15192174D01*
X7422277Y-15192174D02*
X7403230Y-15182650D01*
X7403230Y-15182650D02*
X7374658Y-15182650D01*
X7374658Y-15182650D02*
X7355610Y-15192174D01*
X7355610Y-15192174D02*
X7346087Y-15201698D01*
X7555610Y-15315984D02*
X7536563Y-15306460D01*
X7536563Y-15306460D02*
X7527039Y-15296936D01*
X7527039Y-15296936D02*
X7517515Y-15277888D01*
X7517515Y-15277888D02*
X7517515Y-15220746D01*
X7517515Y-15220746D02*
X7527039Y-15201698D01*
X7527039Y-15201698D02*
X7536563Y-15192174D01*
X7536563Y-15192174D02*
X7555610Y-15182650D01*
X7555610Y-15182650D02*
X7584182Y-15182650D01*
X7584182Y-15182650D02*
X7603230Y-15192174D01*
X7603230Y-15192174D02*
X7612753Y-15201698D01*
X7612753Y-15201698D02*
X7622277Y-15220746D01*
X7622277Y-15220746D02*
X7622277Y-15277888D01*
X7622277Y-15277888D02*
X7612753Y-15296936D01*
X7612753Y-15296936D02*
X7603230Y-15306460D01*
X7603230Y-15306460D02*
X7584182Y-15315984D01*
X7584182Y-15315984D02*
X7555610Y-15315984D01*
X7736563Y-15315984D02*
X7717515Y-15306460D01*
X7717515Y-15306460D02*
X7707991Y-15287412D01*
X7707991Y-15287412D02*
X7707991Y-15115984D01*
X7888944Y-15306460D02*
X7869896Y-15315984D01*
X7869896Y-15315984D02*
X7831801Y-15315984D01*
X7831801Y-15315984D02*
X7812753Y-15306460D01*
X7812753Y-15306460D02*
X7803230Y-15287412D01*
X7803230Y-15287412D02*
X7803230Y-15211222D01*
X7803230Y-15211222D02*
X7812753Y-15192174D01*
X7812753Y-15192174D02*
X7831801Y-15182650D01*
X7831801Y-15182650D02*
X7869896Y-15182650D01*
X7869896Y-15182650D02*
X7888944Y-15192174D01*
X7888944Y-15192174D02*
X7898468Y-15211222D01*
X7898468Y-15211222D02*
X7898468Y-15230269D01*
X7898468Y-15230269D02*
X7803230Y-15249317D01*
X7974658Y-15306460D02*
X7993706Y-15315984D01*
X7993706Y-15315984D02*
X8031801Y-15315984D01*
X8031801Y-15315984D02*
X8050849Y-15306460D01*
X8050849Y-15306460D02*
X8060372Y-15287412D01*
X8060372Y-15287412D02*
X8060372Y-15277888D01*
X8060372Y-15277888D02*
X8050849Y-15258841D01*
X8050849Y-15258841D02*
X8031801Y-15249317D01*
X8031801Y-15249317D02*
X8003230Y-15249317D01*
X8003230Y-15249317D02*
X7984182Y-15239793D01*
X7984182Y-15239793D02*
X7974658Y-15220746D01*
X7974658Y-15220746D02*
X7974658Y-15211222D01*
X7974658Y-15211222D02*
X7984182Y-15192174D01*
X7984182Y-15192174D02*
X8003230Y-15182650D01*
X8003230Y-15182650D02*
X8031801Y-15182650D01*
X8031801Y-15182650D02*
X8050849Y-15192174D01*
X8127039Y-15392174D02*
X8136563Y-15382650D01*
X8136563Y-15382650D02*
X8155611Y-15354079D01*
X8155611Y-15354079D02*
X8165134Y-15335031D01*
X8165134Y-15335031D02*
X8174658Y-15306460D01*
X8174658Y-15306460D02*
X8184182Y-15258841D01*
X8184182Y-15258841D02*
X8184182Y-15220746D01*
X8184182Y-15220746D02*
X8174658Y-15173127D01*
X8174658Y-15173127D02*
X8165134Y-15144555D01*
X8165134Y-15144555D02*
X8155611Y-15125508D01*
X8155611Y-15125508D02*
X8136563Y-15096936D01*
X8136563Y-15096936D02*
X8127039Y-15087412D01*
D12*
X3111500Y-15438500D02*
X3111500Y-15538500D01*
X3061500Y-15488500D02*
X3161500Y-15488500D01*
D11*
X3527039Y-15579984D02*
X3412753Y-15579984D01*
X3469896Y-15579984D02*
X3469896Y-15379984D01*
X3469896Y-15379984D02*
X3450848Y-15408555D01*
X3450848Y-15408555D02*
X3431801Y-15427603D01*
X3431801Y-15427603D02*
X3412753Y-15437127D01*
X3622277Y-15570460D02*
X3622277Y-15579984D01*
X3622277Y-15579984D02*
X3612753Y-15599031D01*
X3612753Y-15599031D02*
X3603229Y-15608555D01*
X3746086Y-15379984D02*
X3765134Y-15379984D01*
X3765134Y-15379984D02*
X3784182Y-15389508D01*
X3784182Y-15389508D02*
X3793705Y-15399031D01*
X3793705Y-15399031D02*
X3803229Y-15418079D01*
X3803229Y-15418079D02*
X3812753Y-15456174D01*
X3812753Y-15456174D02*
X3812753Y-15503793D01*
X3812753Y-15503793D02*
X3803229Y-15541888D01*
X3803229Y-15541888D02*
X3793705Y-15560936D01*
X3793705Y-15560936D02*
X3784182Y-15570460D01*
X3784182Y-15570460D02*
X3765134Y-15579984D01*
X3765134Y-15579984D02*
X3746086Y-15579984D01*
X3746086Y-15579984D02*
X3727039Y-15570460D01*
X3727039Y-15570460D02*
X3717515Y-15560936D01*
X3717515Y-15560936D02*
X3707991Y-15541888D01*
X3707991Y-15541888D02*
X3698467Y-15503793D01*
X3698467Y-15503793D02*
X3698467Y-15456174D01*
X3698467Y-15456174D02*
X3707991Y-15418079D01*
X3707991Y-15418079D02*
X3717515Y-15399031D01*
X3717515Y-15399031D02*
X3727039Y-15389508D01*
X3727039Y-15389508D02*
X3746086Y-15379984D01*
X3936562Y-15379984D02*
X3955610Y-15379984D01*
X3955610Y-15379984D02*
X3974658Y-15389508D01*
X3974658Y-15389508D02*
X3984182Y-15399031D01*
X3984182Y-15399031D02*
X3993705Y-15418079D01*
X3993705Y-15418079D02*
X4003229Y-15456174D01*
X4003229Y-15456174D02*
X4003229Y-15503793D01*
X4003229Y-15503793D02*
X3993705Y-15541888D01*
X3993705Y-15541888D02*
X3984182Y-15560936D01*
X3984182Y-15560936D02*
X3974658Y-15570460D01*
X3974658Y-15570460D02*
X3955610Y-15579984D01*
X3955610Y-15579984D02*
X3936562Y-15579984D01*
X3936562Y-15579984D02*
X3917515Y-15570460D01*
X3917515Y-15570460D02*
X3907991Y-15560936D01*
X3907991Y-15560936D02*
X3898467Y-15541888D01*
X3898467Y-15541888D02*
X3888943Y-15503793D01*
X3888943Y-15503793D02*
X3888943Y-15456174D01*
X3888943Y-15456174D02*
X3898467Y-15418079D01*
X3898467Y-15418079D02*
X3907991Y-15399031D01*
X3907991Y-15399031D02*
X3917515Y-15389508D01*
X3917515Y-15389508D02*
X3936562Y-15379984D01*
X4127039Y-15379984D02*
X4146086Y-15379984D01*
X4146086Y-15379984D02*
X4165134Y-15389508D01*
X4165134Y-15389508D02*
X4174658Y-15399031D01*
X4174658Y-15399031D02*
X4184182Y-15418079D01*
X4184182Y-15418079D02*
X4193705Y-15456174D01*
X4193705Y-15456174D02*
X4193705Y-15503793D01*
X4193705Y-15503793D02*
X4184182Y-15541888D01*
X4184182Y-15541888D02*
X4174658Y-15560936D01*
X4174658Y-15560936D02*
X4165134Y-15570460D01*
X4165134Y-15570460D02*
X4146086Y-15579984D01*
X4146086Y-15579984D02*
X4127039Y-15579984D01*
X4127039Y-15579984D02*
X4107991Y-15570460D01*
X4107991Y-15570460D02*
X4098467Y-15560936D01*
X4098467Y-15560936D02*
X4088943Y-15541888D01*
X4088943Y-15541888D02*
X4079420Y-15503793D01*
X4079420Y-15503793D02*
X4079420Y-15456174D01*
X4079420Y-15456174D02*
X4088943Y-15418079D01*
X4088943Y-15418079D02*
X4098467Y-15399031D01*
X4098467Y-15399031D02*
X4107991Y-15389508D01*
X4107991Y-15389508D02*
X4127039Y-15379984D01*
X4279420Y-15579984D02*
X4279420Y-15446650D01*
X4279420Y-15465698D02*
X4288944Y-15456174D01*
X4288944Y-15456174D02*
X4307991Y-15446650D01*
X4307991Y-15446650D02*
X4336563Y-15446650D01*
X4336563Y-15446650D02*
X4355610Y-15456174D01*
X4355610Y-15456174D02*
X4365134Y-15475222D01*
X4365134Y-15475222D02*
X4365134Y-15579984D01*
X4365134Y-15475222D02*
X4374658Y-15456174D01*
X4374658Y-15456174D02*
X4393705Y-15446650D01*
X4393705Y-15446650D02*
X4422277Y-15446650D01*
X4422277Y-15446650D02*
X4441325Y-15456174D01*
X4441325Y-15456174D02*
X4450848Y-15475222D01*
X4450848Y-15475222D02*
X4450848Y-15579984D01*
X4546086Y-15579984D02*
X4546086Y-15446650D01*
X4546086Y-15465698D02*
X4555610Y-15456174D01*
X4555610Y-15456174D02*
X4574658Y-15446650D01*
X4574658Y-15446650D02*
X4603229Y-15446650D01*
X4603229Y-15446650D02*
X4622277Y-15456174D01*
X4622277Y-15456174D02*
X4631801Y-15475222D01*
X4631801Y-15475222D02*
X4631801Y-15579984D01*
X4631801Y-15475222D02*
X4641325Y-15456174D01*
X4641325Y-15456174D02*
X4660372Y-15446650D01*
X4660372Y-15446650D02*
X4688944Y-15446650D01*
X4688944Y-15446650D02*
X4707991Y-15456174D01*
X4707991Y-15456174D02*
X4717515Y-15475222D01*
X4717515Y-15475222D02*
X4717515Y-15579984D01*
X5107991Y-15370460D02*
X4936563Y-15627603D01*
X5365134Y-15379984D02*
X5384182Y-15379984D01*
X5384182Y-15379984D02*
X5403229Y-15389508D01*
X5403229Y-15389508D02*
X5412753Y-15399031D01*
X5412753Y-15399031D02*
X5422277Y-15418079D01*
X5422277Y-15418079D02*
X5431801Y-15456174D01*
X5431801Y-15456174D02*
X5431801Y-15503793D01*
X5431801Y-15503793D02*
X5422277Y-15541888D01*
X5422277Y-15541888D02*
X5412753Y-15560936D01*
X5412753Y-15560936D02*
X5403229Y-15570460D01*
X5403229Y-15570460D02*
X5384182Y-15579984D01*
X5384182Y-15579984D02*
X5365134Y-15579984D01*
X5365134Y-15579984D02*
X5346087Y-15570460D01*
X5346087Y-15570460D02*
X5336563Y-15560936D01*
X5336563Y-15560936D02*
X5327039Y-15541888D01*
X5327039Y-15541888D02*
X5317515Y-15503793D01*
X5317515Y-15503793D02*
X5317515Y-15456174D01*
X5317515Y-15456174D02*
X5327039Y-15418079D01*
X5327039Y-15418079D02*
X5336563Y-15399031D01*
X5336563Y-15399031D02*
X5346087Y-15389508D01*
X5346087Y-15389508D02*
X5365134Y-15379984D01*
X5527039Y-15570460D02*
X5527039Y-15579984D01*
X5527039Y-15579984D02*
X5517515Y-15599031D01*
X5517515Y-15599031D02*
X5507991Y-15608555D01*
X5650848Y-15379984D02*
X5669896Y-15379984D01*
X5669896Y-15379984D02*
X5688944Y-15389508D01*
X5688944Y-15389508D02*
X5698467Y-15399031D01*
X5698467Y-15399031D02*
X5707991Y-15418079D01*
X5707991Y-15418079D02*
X5717515Y-15456174D01*
X5717515Y-15456174D02*
X5717515Y-15503793D01*
X5717515Y-15503793D02*
X5707991Y-15541888D01*
X5707991Y-15541888D02*
X5698467Y-15560936D01*
X5698467Y-15560936D02*
X5688944Y-15570460D01*
X5688944Y-15570460D02*
X5669896Y-15579984D01*
X5669896Y-15579984D02*
X5650848Y-15579984D01*
X5650848Y-15579984D02*
X5631801Y-15570460D01*
X5631801Y-15570460D02*
X5622277Y-15560936D01*
X5622277Y-15560936D02*
X5612753Y-15541888D01*
X5612753Y-15541888D02*
X5603229Y-15503793D01*
X5603229Y-15503793D02*
X5603229Y-15456174D01*
X5603229Y-15456174D02*
X5612753Y-15418079D01*
X5612753Y-15418079D02*
X5622277Y-15399031D01*
X5622277Y-15399031D02*
X5631801Y-15389508D01*
X5631801Y-15389508D02*
X5650848Y-15379984D01*
X5784182Y-15379984D02*
X5907991Y-15379984D01*
X5907991Y-15379984D02*
X5841325Y-15456174D01*
X5841325Y-15456174D02*
X5869896Y-15456174D01*
X5869896Y-15456174D02*
X5888944Y-15465698D01*
X5888944Y-15465698D02*
X5898467Y-15475222D01*
X5898467Y-15475222D02*
X5907991Y-15494269D01*
X5907991Y-15494269D02*
X5907991Y-15541888D01*
X5907991Y-15541888D02*
X5898467Y-15560936D01*
X5898467Y-15560936D02*
X5888944Y-15570460D01*
X5888944Y-15570460D02*
X5869896Y-15579984D01*
X5869896Y-15579984D02*
X5812753Y-15579984D01*
X5812753Y-15579984D02*
X5793706Y-15570460D01*
X5793706Y-15570460D02*
X5784182Y-15560936D01*
X6003229Y-15579984D02*
X6041325Y-15579984D01*
X6041325Y-15579984D02*
X6060372Y-15570460D01*
X6060372Y-15570460D02*
X6069896Y-15560936D01*
X6069896Y-15560936D02*
X6088944Y-15532365D01*
X6088944Y-15532365D02*
X6098467Y-15494269D01*
X6098467Y-15494269D02*
X6098467Y-15418079D01*
X6098467Y-15418079D02*
X6088944Y-15399031D01*
X6088944Y-15399031D02*
X6079420Y-15389508D01*
X6079420Y-15389508D02*
X6060372Y-15379984D01*
X6060372Y-15379984D02*
X6022277Y-15379984D01*
X6022277Y-15379984D02*
X6003229Y-15389508D01*
X6003229Y-15389508D02*
X5993706Y-15399031D01*
X5993706Y-15399031D02*
X5984182Y-15418079D01*
X5984182Y-15418079D02*
X5984182Y-15465698D01*
X5984182Y-15465698D02*
X5993706Y-15484746D01*
X5993706Y-15484746D02*
X6003229Y-15494269D01*
X6003229Y-15494269D02*
X6022277Y-15503793D01*
X6022277Y-15503793D02*
X6060372Y-15503793D01*
X6060372Y-15503793D02*
X6079420Y-15494269D01*
X6079420Y-15494269D02*
X6088944Y-15484746D01*
X6088944Y-15484746D02*
X6098467Y-15465698D01*
X6269896Y-15446650D02*
X6269896Y-15579984D01*
X6222277Y-15370460D02*
X6174658Y-15513317D01*
X6174658Y-15513317D02*
X6298467Y-15513317D01*
X6365134Y-15379984D02*
X6365134Y-15418079D01*
X6441325Y-15379984D02*
X6441325Y-15418079D01*
X6736563Y-15656174D02*
X6727039Y-15646650D01*
X6727039Y-15646650D02*
X6707991Y-15618079D01*
X6707991Y-15618079D02*
X6698468Y-15599031D01*
X6698468Y-15599031D02*
X6688944Y-15570460D01*
X6688944Y-15570460D02*
X6679420Y-15522841D01*
X6679420Y-15522841D02*
X6679420Y-15484746D01*
X6679420Y-15484746D02*
X6688944Y-15437127D01*
X6688944Y-15437127D02*
X6698468Y-15408555D01*
X6698468Y-15408555D02*
X6707991Y-15389508D01*
X6707991Y-15389508D02*
X6727039Y-15360936D01*
X6727039Y-15360936D02*
X6736563Y-15351412D01*
X6917515Y-15579984D02*
X6803229Y-15579984D01*
X6860372Y-15579984D02*
X6860372Y-15379984D01*
X6860372Y-15379984D02*
X6841325Y-15408555D01*
X6841325Y-15408555D02*
X6822277Y-15427603D01*
X6822277Y-15427603D02*
X6803229Y-15437127D01*
X7107991Y-15579984D02*
X6993706Y-15579984D01*
X7050848Y-15579984D02*
X7050848Y-15379984D01*
X7050848Y-15379984D02*
X7031801Y-15408555D01*
X7031801Y-15408555D02*
X7012753Y-15427603D01*
X7012753Y-15427603D02*
X6993706Y-15437127D01*
X7203229Y-15579984D02*
X7241325Y-15579984D01*
X7241325Y-15579984D02*
X7260372Y-15570460D01*
X7260372Y-15570460D02*
X7269896Y-15560936D01*
X7269896Y-15560936D02*
X7288944Y-15532365D01*
X7288944Y-15532365D02*
X7298468Y-15494269D01*
X7298468Y-15494269D02*
X7298468Y-15418079D01*
X7298468Y-15418079D02*
X7288944Y-15399031D01*
X7288944Y-15399031D02*
X7279420Y-15389508D01*
X7279420Y-15389508D02*
X7260372Y-15379984D01*
X7260372Y-15379984D02*
X7222277Y-15379984D01*
X7222277Y-15379984D02*
X7203229Y-15389508D01*
X7203229Y-15389508D02*
X7193706Y-15399031D01*
X7193706Y-15399031D02*
X7184182Y-15418079D01*
X7184182Y-15418079D02*
X7184182Y-15465698D01*
X7184182Y-15465698D02*
X7193706Y-15484746D01*
X7193706Y-15484746D02*
X7203229Y-15494269D01*
X7203229Y-15494269D02*
X7222277Y-15503793D01*
X7222277Y-15503793D02*
X7260372Y-15503793D01*
X7260372Y-15503793D02*
X7279420Y-15494269D01*
X7279420Y-15494269D02*
X7288944Y-15484746D01*
X7288944Y-15484746D02*
X7298468Y-15465698D01*
X7536563Y-15579984D02*
X7536563Y-15379984D01*
X7622277Y-15579984D02*
X7622277Y-15475222D01*
X7622277Y-15475222D02*
X7612753Y-15456174D01*
X7612753Y-15456174D02*
X7593706Y-15446650D01*
X7593706Y-15446650D02*
X7565134Y-15446650D01*
X7565134Y-15446650D02*
X7546087Y-15456174D01*
X7546087Y-15456174D02*
X7536563Y-15465698D01*
X7746087Y-15579984D02*
X7727039Y-15570460D01*
X7727039Y-15570460D02*
X7717515Y-15560936D01*
X7717515Y-15560936D02*
X7707991Y-15541888D01*
X7707991Y-15541888D02*
X7707991Y-15484746D01*
X7707991Y-15484746D02*
X7717515Y-15465698D01*
X7717515Y-15465698D02*
X7727039Y-15456174D01*
X7727039Y-15456174D02*
X7746087Y-15446650D01*
X7746087Y-15446650D02*
X7774658Y-15446650D01*
X7774658Y-15446650D02*
X7793706Y-15456174D01*
X7793706Y-15456174D02*
X7803230Y-15465698D01*
X7803230Y-15465698D02*
X7812753Y-15484746D01*
X7812753Y-15484746D02*
X7812753Y-15541888D01*
X7812753Y-15541888D02*
X7803230Y-15560936D01*
X7803230Y-15560936D02*
X7793706Y-15570460D01*
X7793706Y-15570460D02*
X7774658Y-15579984D01*
X7774658Y-15579984D02*
X7746087Y-15579984D01*
X7927039Y-15579984D02*
X7907991Y-15570460D01*
X7907991Y-15570460D02*
X7898468Y-15551412D01*
X7898468Y-15551412D02*
X7898468Y-15379984D01*
X8079420Y-15570460D02*
X8060372Y-15579984D01*
X8060372Y-15579984D02*
X8022277Y-15579984D01*
X8022277Y-15579984D02*
X8003230Y-15570460D01*
X8003230Y-15570460D02*
X7993706Y-15551412D01*
X7993706Y-15551412D02*
X7993706Y-15475222D01*
X7993706Y-15475222D02*
X8003230Y-15456174D01*
X8003230Y-15456174D02*
X8022277Y-15446650D01*
X8022277Y-15446650D02*
X8060372Y-15446650D01*
X8060372Y-15446650D02*
X8079420Y-15456174D01*
X8079420Y-15456174D02*
X8088944Y-15475222D01*
X8088944Y-15475222D02*
X8088944Y-15494269D01*
X8088944Y-15494269D02*
X7993706Y-15513317D01*
X8165134Y-15570460D02*
X8184182Y-15579984D01*
X8184182Y-15579984D02*
X8222277Y-15579984D01*
X8222277Y-15579984D02*
X8241325Y-15570460D01*
X8241325Y-15570460D02*
X8250849Y-15551412D01*
X8250849Y-15551412D02*
X8250849Y-15541888D01*
X8250849Y-15541888D02*
X8241325Y-15522841D01*
X8241325Y-15522841D02*
X8222277Y-15513317D01*
X8222277Y-15513317D02*
X8193706Y-15513317D01*
X8193706Y-15513317D02*
X8174658Y-15503793D01*
X8174658Y-15503793D02*
X8165134Y-15484746D01*
X8165134Y-15484746D02*
X8165134Y-15475222D01*
X8165134Y-15475222D02*
X8174658Y-15456174D01*
X8174658Y-15456174D02*
X8193706Y-15446650D01*
X8193706Y-15446650D02*
X8222277Y-15446650D01*
X8222277Y-15446650D02*
X8241325Y-15456174D01*
X8317515Y-15656174D02*
X8327039Y-15646650D01*
X8327039Y-15646650D02*
X8346087Y-15618079D01*
X8346087Y-15618079D02*
X8355611Y-15599031D01*
X8355611Y-15599031D02*
X8365134Y-15570460D01*
X8365134Y-15570460D02*
X8374658Y-15522841D01*
X8374658Y-15522841D02*
X8374658Y-15484746D01*
X8374658Y-15484746D02*
X8365134Y-15437127D01*
X8365134Y-15437127D02*
X8355611Y-15408555D01*
X8355611Y-15408555D02*
X8346087Y-15389508D01*
X8346087Y-15389508D02*
X8327039Y-15360936D01*
X8327039Y-15360936D02*
X8317515Y-15351412D01*
D13*
X3143927Y-15794927D02*
X3143927Y-15710073D01*
X3059073Y-15710073D01*
X3059073Y-15794927D01*
X3143927Y-15794927D01*
D11*
X3527039Y-15843984D02*
X3412753Y-15843984D01*
X3469896Y-15843984D02*
X3469896Y-15643984D01*
X3469896Y-15643984D02*
X3450848Y-15672555D01*
X3450848Y-15672555D02*
X3431801Y-15691603D01*
X3431801Y-15691603D02*
X3412753Y-15701127D01*
X3622277Y-15834460D02*
X3622277Y-15843984D01*
X3622277Y-15843984D02*
X3612753Y-15863031D01*
X3612753Y-15863031D02*
X3603229Y-15872555D01*
X3698467Y-15663031D02*
X3707991Y-15653508D01*
X3707991Y-15653508D02*
X3727039Y-15643984D01*
X3727039Y-15643984D02*
X3774658Y-15643984D01*
X3774658Y-15643984D02*
X3793705Y-15653508D01*
X3793705Y-15653508D02*
X3803229Y-15663031D01*
X3803229Y-15663031D02*
X3812753Y-15682079D01*
X3812753Y-15682079D02*
X3812753Y-15701127D01*
X3812753Y-15701127D02*
X3803229Y-15729698D01*
X3803229Y-15729698D02*
X3688943Y-15843984D01*
X3688943Y-15843984D02*
X3812753Y-15843984D01*
X3936562Y-15643984D02*
X3955610Y-15643984D01*
X3955610Y-15643984D02*
X3974658Y-15653508D01*
X3974658Y-15653508D02*
X3984182Y-15663031D01*
X3984182Y-15663031D02*
X3993705Y-15682079D01*
X3993705Y-15682079D02*
X4003229Y-15720174D01*
X4003229Y-15720174D02*
X4003229Y-15767793D01*
X4003229Y-15767793D02*
X3993705Y-15805888D01*
X3993705Y-15805888D02*
X3984182Y-15824936D01*
X3984182Y-15824936D02*
X3974658Y-15834460D01*
X3974658Y-15834460D02*
X3955610Y-15843984D01*
X3955610Y-15843984D02*
X3936562Y-15843984D01*
X3936562Y-15843984D02*
X3917515Y-15834460D01*
X3917515Y-15834460D02*
X3907991Y-15824936D01*
X3907991Y-15824936D02*
X3898467Y-15805888D01*
X3898467Y-15805888D02*
X3888943Y-15767793D01*
X3888943Y-15767793D02*
X3888943Y-15720174D01*
X3888943Y-15720174D02*
X3898467Y-15682079D01*
X3898467Y-15682079D02*
X3907991Y-15663031D01*
X3907991Y-15663031D02*
X3917515Y-15653508D01*
X3917515Y-15653508D02*
X3936562Y-15643984D01*
X4127039Y-15643984D02*
X4146086Y-15643984D01*
X4146086Y-15643984D02*
X4165134Y-15653508D01*
X4165134Y-15653508D02*
X4174658Y-15663031D01*
X4174658Y-15663031D02*
X4184182Y-15682079D01*
X4184182Y-15682079D02*
X4193705Y-15720174D01*
X4193705Y-15720174D02*
X4193705Y-15767793D01*
X4193705Y-15767793D02*
X4184182Y-15805888D01*
X4184182Y-15805888D02*
X4174658Y-15824936D01*
X4174658Y-15824936D02*
X4165134Y-15834460D01*
X4165134Y-15834460D02*
X4146086Y-15843984D01*
X4146086Y-15843984D02*
X4127039Y-15843984D01*
X4127039Y-15843984D02*
X4107991Y-15834460D01*
X4107991Y-15834460D02*
X4098467Y-15824936D01*
X4098467Y-15824936D02*
X4088943Y-15805888D01*
X4088943Y-15805888D02*
X4079420Y-15767793D01*
X4079420Y-15767793D02*
X4079420Y-15720174D01*
X4079420Y-15720174D02*
X4088943Y-15682079D01*
X4088943Y-15682079D02*
X4098467Y-15663031D01*
X4098467Y-15663031D02*
X4107991Y-15653508D01*
X4107991Y-15653508D02*
X4127039Y-15643984D01*
X4279420Y-15843984D02*
X4279420Y-15710650D01*
X4279420Y-15729698D02*
X4288944Y-15720174D01*
X4288944Y-15720174D02*
X4307991Y-15710650D01*
X4307991Y-15710650D02*
X4336563Y-15710650D01*
X4336563Y-15710650D02*
X4355610Y-15720174D01*
X4355610Y-15720174D02*
X4365134Y-15739222D01*
X4365134Y-15739222D02*
X4365134Y-15843984D01*
X4365134Y-15739222D02*
X4374658Y-15720174D01*
X4374658Y-15720174D02*
X4393705Y-15710650D01*
X4393705Y-15710650D02*
X4422277Y-15710650D01*
X4422277Y-15710650D02*
X4441325Y-15720174D01*
X4441325Y-15720174D02*
X4450848Y-15739222D01*
X4450848Y-15739222D02*
X4450848Y-15843984D01*
X4546086Y-15843984D02*
X4546086Y-15710650D01*
X4546086Y-15729698D02*
X4555610Y-15720174D01*
X4555610Y-15720174D02*
X4574658Y-15710650D01*
X4574658Y-15710650D02*
X4603229Y-15710650D01*
X4603229Y-15710650D02*
X4622277Y-15720174D01*
X4622277Y-15720174D02*
X4631801Y-15739222D01*
X4631801Y-15739222D02*
X4631801Y-15843984D01*
X4631801Y-15739222D02*
X4641325Y-15720174D01*
X4641325Y-15720174D02*
X4660372Y-15710650D01*
X4660372Y-15710650D02*
X4688944Y-15710650D01*
X4688944Y-15710650D02*
X4707991Y-15720174D01*
X4707991Y-15720174D02*
X4717515Y-15739222D01*
X4717515Y-15739222D02*
X4717515Y-15843984D01*
X5107991Y-15634460D02*
X4936563Y-15891603D01*
X5365134Y-15643984D02*
X5384182Y-15643984D01*
X5384182Y-15643984D02*
X5403229Y-15653508D01*
X5403229Y-15653508D02*
X5412753Y-15663031D01*
X5412753Y-15663031D02*
X5422277Y-15682079D01*
X5422277Y-15682079D02*
X5431801Y-15720174D01*
X5431801Y-15720174D02*
X5431801Y-15767793D01*
X5431801Y-15767793D02*
X5422277Y-15805888D01*
X5422277Y-15805888D02*
X5412753Y-15824936D01*
X5412753Y-15824936D02*
X5403229Y-15834460D01*
X5403229Y-15834460D02*
X5384182Y-15843984D01*
X5384182Y-15843984D02*
X5365134Y-15843984D01*
X5365134Y-15843984D02*
X5346087Y-15834460D01*
X5346087Y-15834460D02*
X5336563Y-15824936D01*
X5336563Y-15824936D02*
X5327039Y-15805888D01*
X5327039Y-15805888D02*
X5317515Y-15767793D01*
X5317515Y-15767793D02*
X5317515Y-15720174D01*
X5317515Y-15720174D02*
X5327039Y-15682079D01*
X5327039Y-15682079D02*
X5336563Y-15663031D01*
X5336563Y-15663031D02*
X5346087Y-15653508D01*
X5346087Y-15653508D02*
X5365134Y-15643984D01*
X5527039Y-15834460D02*
X5527039Y-15843984D01*
X5527039Y-15843984D02*
X5517515Y-15863031D01*
X5517515Y-15863031D02*
X5507991Y-15872555D01*
X5650848Y-15643984D02*
X5669896Y-15643984D01*
X5669896Y-15643984D02*
X5688944Y-15653508D01*
X5688944Y-15653508D02*
X5698467Y-15663031D01*
X5698467Y-15663031D02*
X5707991Y-15682079D01*
X5707991Y-15682079D02*
X5717515Y-15720174D01*
X5717515Y-15720174D02*
X5717515Y-15767793D01*
X5717515Y-15767793D02*
X5707991Y-15805888D01*
X5707991Y-15805888D02*
X5698467Y-15824936D01*
X5698467Y-15824936D02*
X5688944Y-15834460D01*
X5688944Y-15834460D02*
X5669896Y-15843984D01*
X5669896Y-15843984D02*
X5650848Y-15843984D01*
X5650848Y-15843984D02*
X5631801Y-15834460D01*
X5631801Y-15834460D02*
X5622277Y-15824936D01*
X5622277Y-15824936D02*
X5612753Y-15805888D01*
X5612753Y-15805888D02*
X5603229Y-15767793D01*
X5603229Y-15767793D02*
X5603229Y-15720174D01*
X5603229Y-15720174D02*
X5612753Y-15682079D01*
X5612753Y-15682079D02*
X5622277Y-15663031D01*
X5622277Y-15663031D02*
X5631801Y-15653508D01*
X5631801Y-15653508D02*
X5650848Y-15643984D01*
X5888944Y-15710650D02*
X5888944Y-15843984D01*
X5841325Y-15634460D02*
X5793706Y-15777317D01*
X5793706Y-15777317D02*
X5917515Y-15777317D01*
X5974658Y-15643984D02*
X6107991Y-15643984D01*
X6107991Y-15643984D02*
X6022277Y-15843984D01*
X6174658Y-15663031D02*
X6184182Y-15653508D01*
X6184182Y-15653508D02*
X6203229Y-15643984D01*
X6203229Y-15643984D02*
X6250848Y-15643984D01*
X6250848Y-15643984D02*
X6269896Y-15653508D01*
X6269896Y-15653508D02*
X6279420Y-15663031D01*
X6279420Y-15663031D02*
X6288944Y-15682079D01*
X6288944Y-15682079D02*
X6288944Y-15701127D01*
X6288944Y-15701127D02*
X6279420Y-15729698D01*
X6279420Y-15729698D02*
X6165134Y-15843984D01*
X6165134Y-15843984D02*
X6288944Y-15843984D01*
X6365134Y-15643984D02*
X6365134Y-15682079D01*
X6441325Y-15643984D02*
X6441325Y-15682079D01*
X6736563Y-15920174D02*
X6727039Y-15910650D01*
X6727039Y-15910650D02*
X6707991Y-15882079D01*
X6707991Y-15882079D02*
X6698468Y-15863031D01*
X6698468Y-15863031D02*
X6688944Y-15834460D01*
X6688944Y-15834460D02*
X6679420Y-15786841D01*
X6679420Y-15786841D02*
X6679420Y-15748746D01*
X6679420Y-15748746D02*
X6688944Y-15701127D01*
X6688944Y-15701127D02*
X6698468Y-15672555D01*
X6698468Y-15672555D02*
X6707991Y-15653508D01*
X6707991Y-15653508D02*
X6727039Y-15624936D01*
X6727039Y-15624936D02*
X6736563Y-15615412D01*
X6898468Y-15710650D02*
X6898468Y-15843984D01*
X6850848Y-15634460D02*
X6803229Y-15777317D01*
X6803229Y-15777317D02*
X6927039Y-15777317D01*
X7041325Y-15643984D02*
X7060372Y-15643984D01*
X7060372Y-15643984D02*
X7079420Y-15653508D01*
X7079420Y-15653508D02*
X7088944Y-15663031D01*
X7088944Y-15663031D02*
X7098468Y-15682079D01*
X7098468Y-15682079D02*
X7107991Y-15720174D01*
X7107991Y-15720174D02*
X7107991Y-15767793D01*
X7107991Y-15767793D02*
X7098468Y-15805888D01*
X7098468Y-15805888D02*
X7088944Y-15824936D01*
X7088944Y-15824936D02*
X7079420Y-15834460D01*
X7079420Y-15834460D02*
X7060372Y-15843984D01*
X7060372Y-15843984D02*
X7041325Y-15843984D01*
X7041325Y-15843984D02*
X7022277Y-15834460D01*
X7022277Y-15834460D02*
X7012753Y-15824936D01*
X7012753Y-15824936D02*
X7003229Y-15805888D01*
X7003229Y-15805888D02*
X6993706Y-15767793D01*
X6993706Y-15767793D02*
X6993706Y-15720174D01*
X6993706Y-15720174D02*
X7003229Y-15682079D01*
X7003229Y-15682079D02*
X7012753Y-15663031D01*
X7012753Y-15663031D02*
X7022277Y-15653508D01*
X7022277Y-15653508D02*
X7041325Y-15643984D01*
X7346087Y-15843984D02*
X7346087Y-15643984D01*
X7431801Y-15843984D02*
X7431801Y-15739222D01*
X7431801Y-15739222D02*
X7422277Y-15720174D01*
X7422277Y-15720174D02*
X7403230Y-15710650D01*
X7403230Y-15710650D02*
X7374658Y-15710650D01*
X7374658Y-15710650D02*
X7355610Y-15720174D01*
X7355610Y-15720174D02*
X7346087Y-15729698D01*
X7555610Y-15843984D02*
X7536563Y-15834460D01*
X7536563Y-15834460D02*
X7527039Y-15824936D01*
X7527039Y-15824936D02*
X7517515Y-15805888D01*
X7517515Y-15805888D02*
X7517515Y-15748746D01*
X7517515Y-15748746D02*
X7527039Y-15729698D01*
X7527039Y-15729698D02*
X7536563Y-15720174D01*
X7536563Y-15720174D02*
X7555610Y-15710650D01*
X7555610Y-15710650D02*
X7584182Y-15710650D01*
X7584182Y-15710650D02*
X7603230Y-15720174D01*
X7603230Y-15720174D02*
X7612753Y-15729698D01*
X7612753Y-15729698D02*
X7622277Y-15748746D01*
X7622277Y-15748746D02*
X7622277Y-15805888D01*
X7622277Y-15805888D02*
X7612753Y-15824936D01*
X7612753Y-15824936D02*
X7603230Y-15834460D01*
X7603230Y-15834460D02*
X7584182Y-15843984D01*
X7584182Y-15843984D02*
X7555610Y-15843984D01*
X7736563Y-15843984D02*
X7717515Y-15834460D01*
X7717515Y-15834460D02*
X7707991Y-15815412D01*
X7707991Y-15815412D02*
X7707991Y-15643984D01*
X7888944Y-15834460D02*
X7869896Y-15843984D01*
X7869896Y-15843984D02*
X7831801Y-15843984D01*
X7831801Y-15843984D02*
X7812753Y-15834460D01*
X7812753Y-15834460D02*
X7803230Y-15815412D01*
X7803230Y-15815412D02*
X7803230Y-15739222D01*
X7803230Y-15739222D02*
X7812753Y-15720174D01*
X7812753Y-15720174D02*
X7831801Y-15710650D01*
X7831801Y-15710650D02*
X7869896Y-15710650D01*
X7869896Y-15710650D02*
X7888944Y-15720174D01*
X7888944Y-15720174D02*
X7898468Y-15739222D01*
X7898468Y-15739222D02*
X7898468Y-15758269D01*
X7898468Y-15758269D02*
X7803230Y-15777317D01*
X7974658Y-15834460D02*
X7993706Y-15843984D01*
X7993706Y-15843984D02*
X8031801Y-15843984D01*
X8031801Y-15843984D02*
X8050849Y-15834460D01*
X8050849Y-15834460D02*
X8060372Y-15815412D01*
X8060372Y-15815412D02*
X8060372Y-15805888D01*
X8060372Y-15805888D02*
X8050849Y-15786841D01*
X8050849Y-15786841D02*
X8031801Y-15777317D01*
X8031801Y-15777317D02*
X8003230Y-15777317D01*
X8003230Y-15777317D02*
X7984182Y-15767793D01*
X7984182Y-15767793D02*
X7974658Y-15748746D01*
X7974658Y-15748746D02*
X7974658Y-15739222D01*
X7974658Y-15739222D02*
X7984182Y-15720174D01*
X7984182Y-15720174D02*
X8003230Y-15710650D01*
X8003230Y-15710650D02*
X8031801Y-15710650D01*
X8031801Y-15710650D02*
X8050849Y-15720174D01*
X8127039Y-15920174D02*
X8136563Y-15910650D01*
X8136563Y-15910650D02*
X8155611Y-15882079D01*
X8155611Y-15882079D02*
X8165134Y-15863031D01*
X8165134Y-15863031D02*
X8174658Y-15834460D01*
X8174658Y-15834460D02*
X8184182Y-15786841D01*
X8184182Y-15786841D02*
X8184182Y-15748746D01*
X8184182Y-15748746D02*
X8174658Y-15701127D01*
X8174658Y-15701127D02*
X8165134Y-15672555D01*
X8165134Y-15672555D02*
X8155611Y-15653508D01*
X8155611Y-15653508D02*
X8136563Y-15624936D01*
X8136563Y-15624936D02*
X8127039Y-15615412D01*
D14*
X3086500Y-16091500D02*
X3161500Y-16016500D01*
X3086500Y-15941500D01*
X3011500Y-16016500D01*
X3086500Y-16091500D01*
D11*
X3527039Y-16107984D02*
X3412753Y-16107984D01*
X3469896Y-16107984D02*
X3469896Y-15907984D01*
X3469896Y-15907984D02*
X3450848Y-15936555D01*
X3450848Y-15936555D02*
X3431801Y-15955603D01*
X3431801Y-15955603D02*
X3412753Y-15965127D01*
X3622277Y-16098460D02*
X3622277Y-16107984D01*
X3622277Y-16107984D02*
X3612753Y-16127031D01*
X3612753Y-16127031D02*
X3603229Y-16136555D01*
X3803229Y-15907984D02*
X3707991Y-15907984D01*
X3707991Y-15907984D02*
X3698467Y-16003222D01*
X3698467Y-16003222D02*
X3707991Y-15993698D01*
X3707991Y-15993698D02*
X3727039Y-15984174D01*
X3727039Y-15984174D02*
X3774658Y-15984174D01*
X3774658Y-15984174D02*
X3793705Y-15993698D01*
X3793705Y-15993698D02*
X3803229Y-16003222D01*
X3803229Y-16003222D02*
X3812753Y-16022269D01*
X3812753Y-16022269D02*
X3812753Y-16069888D01*
X3812753Y-16069888D02*
X3803229Y-16088936D01*
X3803229Y-16088936D02*
X3793705Y-16098460D01*
X3793705Y-16098460D02*
X3774658Y-16107984D01*
X3774658Y-16107984D02*
X3727039Y-16107984D01*
X3727039Y-16107984D02*
X3707991Y-16098460D01*
X3707991Y-16098460D02*
X3698467Y-16088936D01*
X3936562Y-15907984D02*
X3955610Y-15907984D01*
X3955610Y-15907984D02*
X3974658Y-15917508D01*
X3974658Y-15917508D02*
X3984182Y-15927031D01*
X3984182Y-15927031D02*
X3993705Y-15946079D01*
X3993705Y-15946079D02*
X4003229Y-15984174D01*
X4003229Y-15984174D02*
X4003229Y-16031793D01*
X4003229Y-16031793D02*
X3993705Y-16069888D01*
X3993705Y-16069888D02*
X3984182Y-16088936D01*
X3984182Y-16088936D02*
X3974658Y-16098460D01*
X3974658Y-16098460D02*
X3955610Y-16107984D01*
X3955610Y-16107984D02*
X3936562Y-16107984D01*
X3936562Y-16107984D02*
X3917515Y-16098460D01*
X3917515Y-16098460D02*
X3907991Y-16088936D01*
X3907991Y-16088936D02*
X3898467Y-16069888D01*
X3898467Y-16069888D02*
X3888943Y-16031793D01*
X3888943Y-16031793D02*
X3888943Y-15984174D01*
X3888943Y-15984174D02*
X3898467Y-15946079D01*
X3898467Y-15946079D02*
X3907991Y-15927031D01*
X3907991Y-15927031D02*
X3917515Y-15917508D01*
X3917515Y-15917508D02*
X3936562Y-15907984D01*
X4127039Y-15907984D02*
X4146086Y-15907984D01*
X4146086Y-15907984D02*
X4165134Y-15917508D01*
X4165134Y-15917508D02*
X4174658Y-15927031D01*
X4174658Y-15927031D02*
X4184182Y-15946079D01*
X4184182Y-15946079D02*
X4193705Y-15984174D01*
X4193705Y-15984174D02*
X4193705Y-16031793D01*
X4193705Y-16031793D02*
X4184182Y-16069888D01*
X4184182Y-16069888D02*
X4174658Y-16088936D01*
X4174658Y-16088936D02*
X4165134Y-16098460D01*
X4165134Y-16098460D02*
X4146086Y-16107984D01*
X4146086Y-16107984D02*
X4127039Y-16107984D01*
X4127039Y-16107984D02*
X4107991Y-16098460D01*
X4107991Y-16098460D02*
X4098467Y-16088936D01*
X4098467Y-16088936D02*
X4088943Y-16069888D01*
X4088943Y-16069888D02*
X4079420Y-16031793D01*
X4079420Y-16031793D02*
X4079420Y-15984174D01*
X4079420Y-15984174D02*
X4088943Y-15946079D01*
X4088943Y-15946079D02*
X4098467Y-15927031D01*
X4098467Y-15927031D02*
X4107991Y-15917508D01*
X4107991Y-15917508D02*
X4127039Y-15907984D01*
X4279420Y-16107984D02*
X4279420Y-15974650D01*
X4279420Y-15993698D02*
X4288944Y-15984174D01*
X4288944Y-15984174D02*
X4307991Y-15974650D01*
X4307991Y-15974650D02*
X4336563Y-15974650D01*
X4336563Y-15974650D02*
X4355610Y-15984174D01*
X4355610Y-15984174D02*
X4365134Y-16003222D01*
X4365134Y-16003222D02*
X4365134Y-16107984D01*
X4365134Y-16003222D02*
X4374658Y-15984174D01*
X4374658Y-15984174D02*
X4393705Y-15974650D01*
X4393705Y-15974650D02*
X4422277Y-15974650D01*
X4422277Y-15974650D02*
X4441325Y-15984174D01*
X4441325Y-15984174D02*
X4450848Y-16003222D01*
X4450848Y-16003222D02*
X4450848Y-16107984D01*
X4546086Y-16107984D02*
X4546086Y-15974650D01*
X4546086Y-15993698D02*
X4555610Y-15984174D01*
X4555610Y-15984174D02*
X4574658Y-15974650D01*
X4574658Y-15974650D02*
X4603229Y-15974650D01*
X4603229Y-15974650D02*
X4622277Y-15984174D01*
X4622277Y-15984174D02*
X4631801Y-16003222D01*
X4631801Y-16003222D02*
X4631801Y-16107984D01*
X4631801Y-16003222D02*
X4641325Y-15984174D01*
X4641325Y-15984174D02*
X4660372Y-15974650D01*
X4660372Y-15974650D02*
X4688944Y-15974650D01*
X4688944Y-15974650D02*
X4707991Y-15984174D01*
X4707991Y-15984174D02*
X4717515Y-16003222D01*
X4717515Y-16003222D02*
X4717515Y-16107984D01*
X5107991Y-15898460D02*
X4936563Y-16155603D01*
X5365134Y-15907984D02*
X5384182Y-15907984D01*
X5384182Y-15907984D02*
X5403229Y-15917508D01*
X5403229Y-15917508D02*
X5412753Y-15927031D01*
X5412753Y-15927031D02*
X5422277Y-15946079D01*
X5422277Y-15946079D02*
X5431801Y-15984174D01*
X5431801Y-15984174D02*
X5431801Y-16031793D01*
X5431801Y-16031793D02*
X5422277Y-16069888D01*
X5422277Y-16069888D02*
X5412753Y-16088936D01*
X5412753Y-16088936D02*
X5403229Y-16098460D01*
X5403229Y-16098460D02*
X5384182Y-16107984D01*
X5384182Y-16107984D02*
X5365134Y-16107984D01*
X5365134Y-16107984D02*
X5346087Y-16098460D01*
X5346087Y-16098460D02*
X5336563Y-16088936D01*
X5336563Y-16088936D02*
X5327039Y-16069888D01*
X5327039Y-16069888D02*
X5317515Y-16031793D01*
X5317515Y-16031793D02*
X5317515Y-15984174D01*
X5317515Y-15984174D02*
X5327039Y-15946079D01*
X5327039Y-15946079D02*
X5336563Y-15927031D01*
X5336563Y-15927031D02*
X5346087Y-15917508D01*
X5346087Y-15917508D02*
X5365134Y-15907984D01*
X5527039Y-16098460D02*
X5527039Y-16107984D01*
X5527039Y-16107984D02*
X5517515Y-16127031D01*
X5517515Y-16127031D02*
X5507991Y-16136555D01*
X5650848Y-15907984D02*
X5669896Y-15907984D01*
X5669896Y-15907984D02*
X5688944Y-15917508D01*
X5688944Y-15917508D02*
X5698467Y-15927031D01*
X5698467Y-15927031D02*
X5707991Y-15946079D01*
X5707991Y-15946079D02*
X5717515Y-15984174D01*
X5717515Y-15984174D02*
X5717515Y-16031793D01*
X5717515Y-16031793D02*
X5707991Y-16069888D01*
X5707991Y-16069888D02*
X5698467Y-16088936D01*
X5698467Y-16088936D02*
X5688944Y-16098460D01*
X5688944Y-16098460D02*
X5669896Y-16107984D01*
X5669896Y-16107984D02*
X5650848Y-16107984D01*
X5650848Y-16107984D02*
X5631801Y-16098460D01*
X5631801Y-16098460D02*
X5622277Y-16088936D01*
X5622277Y-16088936D02*
X5612753Y-16069888D01*
X5612753Y-16069888D02*
X5603229Y-16031793D01*
X5603229Y-16031793D02*
X5603229Y-15984174D01*
X5603229Y-15984174D02*
X5612753Y-15946079D01*
X5612753Y-15946079D02*
X5622277Y-15927031D01*
X5622277Y-15927031D02*
X5631801Y-15917508D01*
X5631801Y-15917508D02*
X5650848Y-15907984D01*
X5898467Y-15907984D02*
X5803229Y-15907984D01*
X5803229Y-15907984D02*
X5793706Y-16003222D01*
X5793706Y-16003222D02*
X5803229Y-15993698D01*
X5803229Y-15993698D02*
X5822277Y-15984174D01*
X5822277Y-15984174D02*
X5869896Y-15984174D01*
X5869896Y-15984174D02*
X5888944Y-15993698D01*
X5888944Y-15993698D02*
X5898467Y-16003222D01*
X5898467Y-16003222D02*
X5907991Y-16022269D01*
X5907991Y-16022269D02*
X5907991Y-16069888D01*
X5907991Y-16069888D02*
X5898467Y-16088936D01*
X5898467Y-16088936D02*
X5888944Y-16098460D01*
X5888944Y-16098460D02*
X5869896Y-16107984D01*
X5869896Y-16107984D02*
X5822277Y-16107984D01*
X5822277Y-16107984D02*
X5803229Y-16098460D01*
X5803229Y-16098460D02*
X5793706Y-16088936D01*
X6003229Y-16107984D02*
X6041325Y-16107984D01*
X6041325Y-16107984D02*
X6060372Y-16098460D01*
X6060372Y-16098460D02*
X6069896Y-16088936D01*
X6069896Y-16088936D02*
X6088944Y-16060365D01*
X6088944Y-16060365D02*
X6098467Y-16022269D01*
X6098467Y-16022269D02*
X6098467Y-15946079D01*
X6098467Y-15946079D02*
X6088944Y-15927031D01*
X6088944Y-15927031D02*
X6079420Y-15917508D01*
X6079420Y-15917508D02*
X6060372Y-15907984D01*
X6060372Y-15907984D02*
X6022277Y-15907984D01*
X6022277Y-15907984D02*
X6003229Y-15917508D01*
X6003229Y-15917508D02*
X5993706Y-15927031D01*
X5993706Y-15927031D02*
X5984182Y-15946079D01*
X5984182Y-15946079D02*
X5984182Y-15993698D01*
X5984182Y-15993698D02*
X5993706Y-16012746D01*
X5993706Y-16012746D02*
X6003229Y-16022269D01*
X6003229Y-16022269D02*
X6022277Y-16031793D01*
X6022277Y-16031793D02*
X6060372Y-16031793D01*
X6060372Y-16031793D02*
X6079420Y-16022269D01*
X6079420Y-16022269D02*
X6088944Y-16012746D01*
X6088944Y-16012746D02*
X6098467Y-15993698D01*
X6288944Y-16107984D02*
X6174658Y-16107984D01*
X6231801Y-16107984D02*
X6231801Y-15907984D01*
X6231801Y-15907984D02*
X6212753Y-15936555D01*
X6212753Y-15936555D02*
X6193706Y-15955603D01*
X6193706Y-15955603D02*
X6174658Y-15965127D01*
X6365134Y-15907984D02*
X6365134Y-15946079D01*
X6441325Y-15907984D02*
X6441325Y-15946079D01*
X6736563Y-16184174D02*
X6727039Y-16174650D01*
X6727039Y-16174650D02*
X6707991Y-16146079D01*
X6707991Y-16146079D02*
X6698468Y-16127031D01*
X6698468Y-16127031D02*
X6688944Y-16098460D01*
X6688944Y-16098460D02*
X6679420Y-16050841D01*
X6679420Y-16050841D02*
X6679420Y-16012746D01*
X6679420Y-16012746D02*
X6688944Y-15965127D01*
X6688944Y-15965127D02*
X6698468Y-15936555D01*
X6698468Y-15936555D02*
X6707991Y-15917508D01*
X6707991Y-15917508D02*
X6727039Y-15888936D01*
X6727039Y-15888936D02*
X6736563Y-15879412D01*
X6850848Y-15907984D02*
X6869896Y-15907984D01*
X6869896Y-15907984D02*
X6888944Y-15917508D01*
X6888944Y-15917508D02*
X6898468Y-15927031D01*
X6898468Y-15927031D02*
X6907991Y-15946079D01*
X6907991Y-15946079D02*
X6917515Y-15984174D01*
X6917515Y-15984174D02*
X6917515Y-16031793D01*
X6917515Y-16031793D02*
X6907991Y-16069888D01*
X6907991Y-16069888D02*
X6898468Y-16088936D01*
X6898468Y-16088936D02*
X6888944Y-16098460D01*
X6888944Y-16098460D02*
X6869896Y-16107984D01*
X6869896Y-16107984D02*
X6850848Y-16107984D01*
X6850848Y-16107984D02*
X6831801Y-16098460D01*
X6831801Y-16098460D02*
X6822277Y-16088936D01*
X6822277Y-16088936D02*
X6812753Y-16069888D01*
X6812753Y-16069888D02*
X6803229Y-16031793D01*
X6803229Y-16031793D02*
X6803229Y-15984174D01*
X6803229Y-15984174D02*
X6812753Y-15946079D01*
X6812753Y-15946079D02*
X6822277Y-15927031D01*
X6822277Y-15927031D02*
X6831801Y-15917508D01*
X6831801Y-15917508D02*
X6850848Y-15907984D01*
X7155610Y-16107984D02*
X7155610Y-15907984D01*
X7241325Y-16107984D02*
X7241325Y-16003222D01*
X7241325Y-16003222D02*
X7231801Y-15984174D01*
X7231801Y-15984174D02*
X7212753Y-15974650D01*
X7212753Y-15974650D02*
X7184182Y-15974650D01*
X7184182Y-15974650D02*
X7165134Y-15984174D01*
X7165134Y-15984174D02*
X7155610Y-15993698D01*
X7365134Y-16107984D02*
X7346087Y-16098460D01*
X7346087Y-16098460D02*
X7336563Y-16088936D01*
X7336563Y-16088936D02*
X7327039Y-16069888D01*
X7327039Y-16069888D02*
X7327039Y-16012746D01*
X7327039Y-16012746D02*
X7336563Y-15993698D01*
X7336563Y-15993698D02*
X7346087Y-15984174D01*
X7346087Y-15984174D02*
X7365134Y-15974650D01*
X7365134Y-15974650D02*
X7393706Y-15974650D01*
X7393706Y-15974650D02*
X7412753Y-15984174D01*
X7412753Y-15984174D02*
X7422277Y-15993698D01*
X7422277Y-15993698D02*
X7431801Y-16012746D01*
X7431801Y-16012746D02*
X7431801Y-16069888D01*
X7431801Y-16069888D02*
X7422277Y-16088936D01*
X7422277Y-16088936D02*
X7412753Y-16098460D01*
X7412753Y-16098460D02*
X7393706Y-16107984D01*
X7393706Y-16107984D02*
X7365134Y-16107984D01*
X7546087Y-16107984D02*
X7527039Y-16098460D01*
X7527039Y-16098460D02*
X7517515Y-16079412D01*
X7517515Y-16079412D02*
X7517515Y-15907984D01*
X7698468Y-16098460D02*
X7679420Y-16107984D01*
X7679420Y-16107984D02*
X7641325Y-16107984D01*
X7641325Y-16107984D02*
X7622277Y-16098460D01*
X7622277Y-16098460D02*
X7612753Y-16079412D01*
X7612753Y-16079412D02*
X7612753Y-16003222D01*
X7612753Y-16003222D02*
X7622277Y-15984174D01*
X7622277Y-15984174D02*
X7641325Y-15974650D01*
X7641325Y-15974650D02*
X7679420Y-15974650D01*
X7679420Y-15974650D02*
X7698468Y-15984174D01*
X7698468Y-15984174D02*
X7707991Y-16003222D01*
X7707991Y-16003222D02*
X7707991Y-16022269D01*
X7707991Y-16022269D02*
X7612753Y-16041317D01*
X7784182Y-16098460D02*
X7803230Y-16107984D01*
X7803230Y-16107984D02*
X7841325Y-16107984D01*
X7841325Y-16107984D02*
X7860372Y-16098460D01*
X7860372Y-16098460D02*
X7869896Y-16079412D01*
X7869896Y-16079412D02*
X7869896Y-16069888D01*
X7869896Y-16069888D02*
X7860372Y-16050841D01*
X7860372Y-16050841D02*
X7841325Y-16041317D01*
X7841325Y-16041317D02*
X7812753Y-16041317D01*
X7812753Y-16041317D02*
X7793706Y-16031793D01*
X7793706Y-16031793D02*
X7784182Y-16012746D01*
X7784182Y-16012746D02*
X7784182Y-16003222D01*
X7784182Y-16003222D02*
X7793706Y-15984174D01*
X7793706Y-15984174D02*
X7812753Y-15974650D01*
X7812753Y-15974650D02*
X7841325Y-15974650D01*
X7841325Y-15974650D02*
X7860372Y-15984174D01*
X8107992Y-16031793D02*
X8260373Y-16031793D01*
X8184182Y-16107984D02*
X8184182Y-15955603D01*
X8593706Y-15907984D02*
X8555611Y-15907984D01*
X8555611Y-15907984D02*
X8536563Y-15917508D01*
X8536563Y-15917508D02*
X8527039Y-15927031D01*
X8527039Y-15927031D02*
X8507992Y-15955603D01*
X8507992Y-15955603D02*
X8498468Y-15993698D01*
X8498468Y-15993698D02*
X8498468Y-16069888D01*
X8498468Y-16069888D02*
X8507992Y-16088936D01*
X8507992Y-16088936D02*
X8517515Y-16098460D01*
X8517515Y-16098460D02*
X8536563Y-16107984D01*
X8536563Y-16107984D02*
X8574658Y-16107984D01*
X8574658Y-16107984D02*
X8593706Y-16098460D01*
X8593706Y-16098460D02*
X8603230Y-16088936D01*
X8603230Y-16088936D02*
X8612754Y-16069888D01*
X8612754Y-16069888D02*
X8612754Y-16022269D01*
X8612754Y-16022269D02*
X8603230Y-16003222D01*
X8603230Y-16003222D02*
X8593706Y-15993698D01*
X8593706Y-15993698D02*
X8574658Y-15984174D01*
X8574658Y-15984174D02*
X8536563Y-15984174D01*
X8536563Y-15984174D02*
X8517515Y-15993698D01*
X8517515Y-15993698D02*
X8507992Y-16003222D01*
X8507992Y-16003222D02*
X8498468Y-16022269D01*
X8841325Y-16098460D02*
X8860373Y-16107984D01*
X8860373Y-16107984D02*
X8898468Y-16107984D01*
X8898468Y-16107984D02*
X8917516Y-16098460D01*
X8917516Y-16098460D02*
X8927039Y-16079412D01*
X8927039Y-16079412D02*
X8927039Y-16069888D01*
X8927039Y-16069888D02*
X8917516Y-16050841D01*
X8917516Y-16050841D02*
X8898468Y-16041317D01*
X8898468Y-16041317D02*
X8869896Y-16041317D01*
X8869896Y-16041317D02*
X8850849Y-16031793D01*
X8850849Y-16031793D02*
X8841325Y-16012746D01*
X8841325Y-16012746D02*
X8841325Y-16003222D01*
X8841325Y-16003222D02*
X8850849Y-15984174D01*
X8850849Y-15984174D02*
X8869896Y-15974650D01*
X8869896Y-15974650D02*
X8898468Y-15974650D01*
X8898468Y-15974650D02*
X8917516Y-15984174D01*
X9041325Y-16107984D02*
X9022277Y-16098460D01*
X9022277Y-16098460D02*
X9012754Y-16079412D01*
X9012754Y-16079412D02*
X9012754Y-15907984D01*
X9146087Y-16107984D02*
X9127039Y-16098460D01*
X9127039Y-16098460D02*
X9117516Y-16088936D01*
X9117516Y-16088936D02*
X9107992Y-16069888D01*
X9107992Y-16069888D02*
X9107992Y-16012746D01*
X9107992Y-16012746D02*
X9117516Y-15993698D01*
X9117516Y-15993698D02*
X9127039Y-15984174D01*
X9127039Y-15984174D02*
X9146087Y-15974650D01*
X9146087Y-15974650D02*
X9174658Y-15974650D01*
X9174658Y-15974650D02*
X9193706Y-15984174D01*
X9193706Y-15984174D02*
X9203230Y-15993698D01*
X9203230Y-15993698D02*
X9212754Y-16012746D01*
X9212754Y-16012746D02*
X9212754Y-16069888D01*
X9212754Y-16069888D02*
X9203230Y-16088936D01*
X9203230Y-16088936D02*
X9193706Y-16098460D01*
X9193706Y-16098460D02*
X9174658Y-16107984D01*
X9174658Y-16107984D02*
X9146087Y-16107984D01*
X9269897Y-15974650D02*
X9346087Y-15974650D01*
X9298468Y-15907984D02*
X9298468Y-16079412D01*
X9298468Y-16079412D02*
X9307992Y-16098460D01*
X9307992Y-16098460D02*
X9327039Y-16107984D01*
X9327039Y-16107984D02*
X9346087Y-16107984D01*
X9403230Y-16098460D02*
X9422277Y-16107984D01*
X9422277Y-16107984D02*
X9460373Y-16107984D01*
X9460373Y-16107984D02*
X9479420Y-16098460D01*
X9479420Y-16098460D02*
X9488944Y-16079412D01*
X9488944Y-16079412D02*
X9488944Y-16069888D01*
X9488944Y-16069888D02*
X9479420Y-16050841D01*
X9479420Y-16050841D02*
X9460373Y-16041317D01*
X9460373Y-16041317D02*
X9431801Y-16041317D01*
X9431801Y-16041317D02*
X9412754Y-16031793D01*
X9412754Y-16031793D02*
X9403230Y-16012746D01*
X9403230Y-16012746D02*
X9403230Y-16003222D01*
X9403230Y-16003222D02*
X9412754Y-15984174D01*
X9412754Y-15984174D02*
X9431801Y-15974650D01*
X9431801Y-15974650D02*
X9460373Y-15974650D01*
X9460373Y-15974650D02*
X9479420Y-15984174D01*
X9555611Y-16184174D02*
X9565135Y-16174650D01*
X9565135Y-16174650D02*
X9584182Y-16146079D01*
X9584182Y-16146079D02*
X9593706Y-16127031D01*
X9593706Y-16127031D02*
X9603230Y-16098460D01*
X9603230Y-16098460D02*
X9612754Y-16050841D01*
X9612754Y-16050841D02*
X9612754Y-16012746D01*
X9612754Y-16012746D02*
X9603230Y-15965127D01*
X9603230Y-15965127D02*
X9593706Y-15936555D01*
X9593706Y-15936555D02*
X9584182Y-15917508D01*
X9584182Y-15917508D02*
X9565135Y-15888936D01*
X9565135Y-15888936D02*
X9555611Y-15879412D01*
X2961500Y-16186500D02*
X3161500Y-16386500D01*
X3161500Y-16186500D02*
X2961500Y-16386500D01*
X3161500Y-16286500D02*
G75*
G02*
X2961500Y-16286500I-100000J0D01*
G01*
X2961500Y-16286500D02*
G75*
G02*
X3161500Y-16286500I100000J0D01*
G01*
X3412753Y-16197031D02*
X3422277Y-16187508D01*
X3422277Y-16187508D02*
X3441324Y-16177984D01*
X3441324Y-16177984D02*
X3488943Y-16177984D01*
X3488943Y-16177984D02*
X3507991Y-16187508D01*
X3507991Y-16187508D02*
X3517515Y-16197031D01*
X3517515Y-16197031D02*
X3527039Y-16216079D01*
X3527039Y-16216079D02*
X3527039Y-16235127D01*
X3527039Y-16235127D02*
X3517515Y-16263698D01*
X3517515Y-16263698D02*
X3403229Y-16377984D01*
X3403229Y-16377984D02*
X3527039Y-16377984D01*
X3622277Y-16368460D02*
X3622277Y-16377984D01*
X3622277Y-16377984D02*
X3612753Y-16397031D01*
X3612753Y-16397031D02*
X3603229Y-16406555D01*
X3698467Y-16197031D02*
X3707991Y-16187508D01*
X3707991Y-16187508D02*
X3727039Y-16177984D01*
X3727039Y-16177984D02*
X3774658Y-16177984D01*
X3774658Y-16177984D02*
X3793705Y-16187508D01*
X3793705Y-16187508D02*
X3803229Y-16197031D01*
X3803229Y-16197031D02*
X3812753Y-16216079D01*
X3812753Y-16216079D02*
X3812753Y-16235127D01*
X3812753Y-16235127D02*
X3803229Y-16263698D01*
X3803229Y-16263698D02*
X3688943Y-16377984D01*
X3688943Y-16377984D02*
X3812753Y-16377984D01*
X3936562Y-16177984D02*
X3955610Y-16177984D01*
X3955610Y-16177984D02*
X3974658Y-16187508D01*
X3974658Y-16187508D02*
X3984182Y-16197031D01*
X3984182Y-16197031D02*
X3993705Y-16216079D01*
X3993705Y-16216079D02*
X4003229Y-16254174D01*
X4003229Y-16254174D02*
X4003229Y-16301793D01*
X4003229Y-16301793D02*
X3993705Y-16339888D01*
X3993705Y-16339888D02*
X3984182Y-16358936D01*
X3984182Y-16358936D02*
X3974658Y-16368460D01*
X3974658Y-16368460D02*
X3955610Y-16377984D01*
X3955610Y-16377984D02*
X3936562Y-16377984D01*
X3936562Y-16377984D02*
X3917515Y-16368460D01*
X3917515Y-16368460D02*
X3907991Y-16358936D01*
X3907991Y-16358936D02*
X3898467Y-16339888D01*
X3898467Y-16339888D02*
X3888943Y-16301793D01*
X3888943Y-16301793D02*
X3888943Y-16254174D01*
X3888943Y-16254174D02*
X3898467Y-16216079D01*
X3898467Y-16216079D02*
X3907991Y-16197031D01*
X3907991Y-16197031D02*
X3917515Y-16187508D01*
X3917515Y-16187508D02*
X3936562Y-16177984D01*
X4127039Y-16177984D02*
X4146086Y-16177984D01*
X4146086Y-16177984D02*
X4165134Y-16187508D01*
X4165134Y-16187508D02*
X4174658Y-16197031D01*
X4174658Y-16197031D02*
X4184182Y-16216079D01*
X4184182Y-16216079D02*
X4193705Y-16254174D01*
X4193705Y-16254174D02*
X4193705Y-16301793D01*
X4193705Y-16301793D02*
X4184182Y-16339888D01*
X4184182Y-16339888D02*
X4174658Y-16358936D01*
X4174658Y-16358936D02*
X4165134Y-16368460D01*
X4165134Y-16368460D02*
X4146086Y-16377984D01*
X4146086Y-16377984D02*
X4127039Y-16377984D01*
X4127039Y-16377984D02*
X4107991Y-16368460D01*
X4107991Y-16368460D02*
X4098467Y-16358936D01*
X4098467Y-16358936D02*
X4088943Y-16339888D01*
X4088943Y-16339888D02*
X4079420Y-16301793D01*
X4079420Y-16301793D02*
X4079420Y-16254174D01*
X4079420Y-16254174D02*
X4088943Y-16216079D01*
X4088943Y-16216079D02*
X4098467Y-16197031D01*
X4098467Y-16197031D02*
X4107991Y-16187508D01*
X4107991Y-16187508D02*
X4127039Y-16177984D01*
X4279420Y-16377984D02*
X4279420Y-16244650D01*
X4279420Y-16263698D02*
X4288944Y-16254174D01*
X4288944Y-16254174D02*
X4307991Y-16244650D01*
X4307991Y-16244650D02*
X4336563Y-16244650D01*
X4336563Y-16244650D02*
X4355610Y-16254174D01*
X4355610Y-16254174D02*
X4365134Y-16273222D01*
X4365134Y-16273222D02*
X4365134Y-16377984D01*
X4365134Y-16273222D02*
X4374658Y-16254174D01*
X4374658Y-16254174D02*
X4393705Y-16244650D01*
X4393705Y-16244650D02*
X4422277Y-16244650D01*
X4422277Y-16244650D02*
X4441325Y-16254174D01*
X4441325Y-16254174D02*
X4450848Y-16273222D01*
X4450848Y-16273222D02*
X4450848Y-16377984D01*
X4546086Y-16377984D02*
X4546086Y-16244650D01*
X4546086Y-16263698D02*
X4555610Y-16254174D01*
X4555610Y-16254174D02*
X4574658Y-16244650D01*
X4574658Y-16244650D02*
X4603229Y-16244650D01*
X4603229Y-16244650D02*
X4622277Y-16254174D01*
X4622277Y-16254174D02*
X4631801Y-16273222D01*
X4631801Y-16273222D02*
X4631801Y-16377984D01*
X4631801Y-16273222D02*
X4641325Y-16254174D01*
X4641325Y-16254174D02*
X4660372Y-16244650D01*
X4660372Y-16244650D02*
X4688944Y-16244650D01*
X4688944Y-16244650D02*
X4707991Y-16254174D01*
X4707991Y-16254174D02*
X4717515Y-16273222D01*
X4717515Y-16273222D02*
X4717515Y-16377984D01*
X5107991Y-16168460D02*
X4936563Y-16425603D01*
X5365134Y-16177984D02*
X5384182Y-16177984D01*
X5384182Y-16177984D02*
X5403229Y-16187508D01*
X5403229Y-16187508D02*
X5412753Y-16197031D01*
X5412753Y-16197031D02*
X5422277Y-16216079D01*
X5422277Y-16216079D02*
X5431801Y-16254174D01*
X5431801Y-16254174D02*
X5431801Y-16301793D01*
X5431801Y-16301793D02*
X5422277Y-16339888D01*
X5422277Y-16339888D02*
X5412753Y-16358936D01*
X5412753Y-16358936D02*
X5403229Y-16368460D01*
X5403229Y-16368460D02*
X5384182Y-16377984D01*
X5384182Y-16377984D02*
X5365134Y-16377984D01*
X5365134Y-16377984D02*
X5346087Y-16368460D01*
X5346087Y-16368460D02*
X5336563Y-16358936D01*
X5336563Y-16358936D02*
X5327039Y-16339888D01*
X5327039Y-16339888D02*
X5317515Y-16301793D01*
X5317515Y-16301793D02*
X5317515Y-16254174D01*
X5317515Y-16254174D02*
X5327039Y-16216079D01*
X5327039Y-16216079D02*
X5336563Y-16197031D01*
X5336563Y-16197031D02*
X5346087Y-16187508D01*
X5346087Y-16187508D02*
X5365134Y-16177984D01*
X5527039Y-16368460D02*
X5527039Y-16377984D01*
X5527039Y-16377984D02*
X5517515Y-16397031D01*
X5517515Y-16397031D02*
X5507991Y-16406555D01*
X5650848Y-16177984D02*
X5669896Y-16177984D01*
X5669896Y-16177984D02*
X5688944Y-16187508D01*
X5688944Y-16187508D02*
X5698467Y-16197031D01*
X5698467Y-16197031D02*
X5707991Y-16216079D01*
X5707991Y-16216079D02*
X5717515Y-16254174D01*
X5717515Y-16254174D02*
X5717515Y-16301793D01*
X5717515Y-16301793D02*
X5707991Y-16339888D01*
X5707991Y-16339888D02*
X5698467Y-16358936D01*
X5698467Y-16358936D02*
X5688944Y-16368460D01*
X5688944Y-16368460D02*
X5669896Y-16377984D01*
X5669896Y-16377984D02*
X5650848Y-16377984D01*
X5650848Y-16377984D02*
X5631801Y-16368460D01*
X5631801Y-16368460D02*
X5622277Y-16358936D01*
X5622277Y-16358936D02*
X5612753Y-16339888D01*
X5612753Y-16339888D02*
X5603229Y-16301793D01*
X5603229Y-16301793D02*
X5603229Y-16254174D01*
X5603229Y-16254174D02*
X5612753Y-16216079D01*
X5612753Y-16216079D02*
X5622277Y-16197031D01*
X5622277Y-16197031D02*
X5631801Y-16187508D01*
X5631801Y-16187508D02*
X5650848Y-16177984D01*
X5831801Y-16263698D02*
X5812753Y-16254174D01*
X5812753Y-16254174D02*
X5803229Y-16244650D01*
X5803229Y-16244650D02*
X5793706Y-16225603D01*
X5793706Y-16225603D02*
X5793706Y-16216079D01*
X5793706Y-16216079D02*
X5803229Y-16197031D01*
X5803229Y-16197031D02*
X5812753Y-16187508D01*
X5812753Y-16187508D02*
X5831801Y-16177984D01*
X5831801Y-16177984D02*
X5869896Y-16177984D01*
X5869896Y-16177984D02*
X5888944Y-16187508D01*
X5888944Y-16187508D02*
X5898467Y-16197031D01*
X5898467Y-16197031D02*
X5907991Y-16216079D01*
X5907991Y-16216079D02*
X5907991Y-16225603D01*
X5907991Y-16225603D02*
X5898467Y-16244650D01*
X5898467Y-16244650D02*
X5888944Y-16254174D01*
X5888944Y-16254174D02*
X5869896Y-16263698D01*
X5869896Y-16263698D02*
X5831801Y-16263698D01*
X5831801Y-16263698D02*
X5812753Y-16273222D01*
X5812753Y-16273222D02*
X5803229Y-16282746D01*
X5803229Y-16282746D02*
X5793706Y-16301793D01*
X5793706Y-16301793D02*
X5793706Y-16339888D01*
X5793706Y-16339888D02*
X5803229Y-16358936D01*
X5803229Y-16358936D02*
X5812753Y-16368460D01*
X5812753Y-16368460D02*
X5831801Y-16377984D01*
X5831801Y-16377984D02*
X5869896Y-16377984D01*
X5869896Y-16377984D02*
X5888944Y-16368460D01*
X5888944Y-16368460D02*
X5898467Y-16358936D01*
X5898467Y-16358936D02*
X5907991Y-16339888D01*
X5907991Y-16339888D02*
X5907991Y-16301793D01*
X5907991Y-16301793D02*
X5898467Y-16282746D01*
X5898467Y-16282746D02*
X5888944Y-16273222D01*
X5888944Y-16273222D02*
X5869896Y-16263698D01*
X6079420Y-16177984D02*
X6041325Y-16177984D01*
X6041325Y-16177984D02*
X6022277Y-16187508D01*
X6022277Y-16187508D02*
X6012753Y-16197031D01*
X6012753Y-16197031D02*
X5993706Y-16225603D01*
X5993706Y-16225603D02*
X5984182Y-16263698D01*
X5984182Y-16263698D02*
X5984182Y-16339888D01*
X5984182Y-16339888D02*
X5993706Y-16358936D01*
X5993706Y-16358936D02*
X6003229Y-16368460D01*
X6003229Y-16368460D02*
X6022277Y-16377984D01*
X6022277Y-16377984D02*
X6060372Y-16377984D01*
X6060372Y-16377984D02*
X6079420Y-16368460D01*
X6079420Y-16368460D02*
X6088944Y-16358936D01*
X6088944Y-16358936D02*
X6098467Y-16339888D01*
X6098467Y-16339888D02*
X6098467Y-16292269D01*
X6098467Y-16292269D02*
X6088944Y-16273222D01*
X6088944Y-16273222D02*
X6079420Y-16263698D01*
X6079420Y-16263698D02*
X6060372Y-16254174D01*
X6060372Y-16254174D02*
X6022277Y-16254174D01*
X6022277Y-16254174D02*
X6003229Y-16263698D01*
X6003229Y-16263698D02*
X5993706Y-16273222D01*
X5993706Y-16273222D02*
X5984182Y-16292269D01*
X6269896Y-16177984D02*
X6231801Y-16177984D01*
X6231801Y-16177984D02*
X6212753Y-16187508D01*
X6212753Y-16187508D02*
X6203229Y-16197031D01*
X6203229Y-16197031D02*
X6184182Y-16225603D01*
X6184182Y-16225603D02*
X6174658Y-16263698D01*
X6174658Y-16263698D02*
X6174658Y-16339888D01*
X6174658Y-16339888D02*
X6184182Y-16358936D01*
X6184182Y-16358936D02*
X6193706Y-16368460D01*
X6193706Y-16368460D02*
X6212753Y-16377984D01*
X6212753Y-16377984D02*
X6250848Y-16377984D01*
X6250848Y-16377984D02*
X6269896Y-16368460D01*
X6269896Y-16368460D02*
X6279420Y-16358936D01*
X6279420Y-16358936D02*
X6288944Y-16339888D01*
X6288944Y-16339888D02*
X6288944Y-16292269D01*
X6288944Y-16292269D02*
X6279420Y-16273222D01*
X6279420Y-16273222D02*
X6269896Y-16263698D01*
X6269896Y-16263698D02*
X6250848Y-16254174D01*
X6250848Y-16254174D02*
X6212753Y-16254174D01*
X6212753Y-16254174D02*
X6193706Y-16263698D01*
X6193706Y-16263698D02*
X6184182Y-16273222D01*
X6184182Y-16273222D02*
X6174658Y-16292269D01*
X6365134Y-16177984D02*
X6365134Y-16216079D01*
X6441325Y-16177984D02*
X6441325Y-16216079D01*
X6736563Y-16454174D02*
X6727039Y-16444650D01*
X6727039Y-16444650D02*
X6707991Y-16416079D01*
X6707991Y-16416079D02*
X6698468Y-16397031D01*
X6698468Y-16397031D02*
X6688944Y-16368460D01*
X6688944Y-16368460D02*
X6679420Y-16320841D01*
X6679420Y-16320841D02*
X6679420Y-16282746D01*
X6679420Y-16282746D02*
X6688944Y-16235127D01*
X6688944Y-16235127D02*
X6698468Y-16206555D01*
X6698468Y-16206555D02*
X6707991Y-16187508D01*
X6707991Y-16187508D02*
X6727039Y-16158936D01*
X6727039Y-16158936D02*
X6736563Y-16149412D01*
X6803229Y-16197031D02*
X6812753Y-16187508D01*
X6812753Y-16187508D02*
X6831801Y-16177984D01*
X6831801Y-16177984D02*
X6879420Y-16177984D01*
X6879420Y-16177984D02*
X6898468Y-16187508D01*
X6898468Y-16187508D02*
X6907991Y-16197031D01*
X6907991Y-16197031D02*
X6917515Y-16216079D01*
X6917515Y-16216079D02*
X6917515Y-16235127D01*
X6917515Y-16235127D02*
X6907991Y-16263698D01*
X6907991Y-16263698D02*
X6793706Y-16377984D01*
X6793706Y-16377984D02*
X6917515Y-16377984D01*
X7041325Y-16177984D02*
X7060372Y-16177984D01*
X7060372Y-16177984D02*
X7079420Y-16187508D01*
X7079420Y-16187508D02*
X7088944Y-16197031D01*
X7088944Y-16197031D02*
X7098468Y-16216079D01*
X7098468Y-16216079D02*
X7107991Y-16254174D01*
X7107991Y-16254174D02*
X7107991Y-16301793D01*
X7107991Y-16301793D02*
X7098468Y-16339888D01*
X7098468Y-16339888D02*
X7088944Y-16358936D01*
X7088944Y-16358936D02*
X7079420Y-16368460D01*
X7079420Y-16368460D02*
X7060372Y-16377984D01*
X7060372Y-16377984D02*
X7041325Y-16377984D01*
X7041325Y-16377984D02*
X7022277Y-16368460D01*
X7022277Y-16368460D02*
X7012753Y-16358936D01*
X7012753Y-16358936D02*
X7003229Y-16339888D01*
X7003229Y-16339888D02*
X6993706Y-16301793D01*
X6993706Y-16301793D02*
X6993706Y-16254174D01*
X6993706Y-16254174D02*
X7003229Y-16216079D01*
X7003229Y-16216079D02*
X7012753Y-16197031D01*
X7012753Y-16197031D02*
X7022277Y-16187508D01*
X7022277Y-16187508D02*
X7041325Y-16177984D01*
X7346087Y-16377984D02*
X7346087Y-16177984D01*
X7431801Y-16377984D02*
X7431801Y-16273222D01*
X7431801Y-16273222D02*
X7422277Y-16254174D01*
X7422277Y-16254174D02*
X7403230Y-16244650D01*
X7403230Y-16244650D02*
X7374658Y-16244650D01*
X7374658Y-16244650D02*
X7355610Y-16254174D01*
X7355610Y-16254174D02*
X7346087Y-16263698D01*
X7555610Y-16377984D02*
X7536563Y-16368460D01*
X7536563Y-16368460D02*
X7527039Y-16358936D01*
X7527039Y-16358936D02*
X7517515Y-16339888D01*
X7517515Y-16339888D02*
X7517515Y-16282746D01*
X7517515Y-16282746D02*
X7527039Y-16263698D01*
X7527039Y-16263698D02*
X7536563Y-16254174D01*
X7536563Y-16254174D02*
X7555610Y-16244650D01*
X7555610Y-16244650D02*
X7584182Y-16244650D01*
X7584182Y-16244650D02*
X7603230Y-16254174D01*
X7603230Y-16254174D02*
X7612753Y-16263698D01*
X7612753Y-16263698D02*
X7622277Y-16282746D01*
X7622277Y-16282746D02*
X7622277Y-16339888D01*
X7622277Y-16339888D02*
X7612753Y-16358936D01*
X7612753Y-16358936D02*
X7603230Y-16368460D01*
X7603230Y-16368460D02*
X7584182Y-16377984D01*
X7584182Y-16377984D02*
X7555610Y-16377984D01*
X7736563Y-16377984D02*
X7717515Y-16368460D01*
X7717515Y-16368460D02*
X7707991Y-16349412D01*
X7707991Y-16349412D02*
X7707991Y-16177984D01*
X7888944Y-16368460D02*
X7869896Y-16377984D01*
X7869896Y-16377984D02*
X7831801Y-16377984D01*
X7831801Y-16377984D02*
X7812753Y-16368460D01*
X7812753Y-16368460D02*
X7803230Y-16349412D01*
X7803230Y-16349412D02*
X7803230Y-16273222D01*
X7803230Y-16273222D02*
X7812753Y-16254174D01*
X7812753Y-16254174D02*
X7831801Y-16244650D01*
X7831801Y-16244650D02*
X7869896Y-16244650D01*
X7869896Y-16244650D02*
X7888944Y-16254174D01*
X7888944Y-16254174D02*
X7898468Y-16273222D01*
X7898468Y-16273222D02*
X7898468Y-16292269D01*
X7898468Y-16292269D02*
X7803230Y-16311317D01*
X7974658Y-16368460D02*
X7993706Y-16377984D01*
X7993706Y-16377984D02*
X8031801Y-16377984D01*
X8031801Y-16377984D02*
X8050849Y-16368460D01*
X8050849Y-16368460D02*
X8060372Y-16349412D01*
X8060372Y-16349412D02*
X8060372Y-16339888D01*
X8060372Y-16339888D02*
X8050849Y-16320841D01*
X8050849Y-16320841D02*
X8031801Y-16311317D01*
X8031801Y-16311317D02*
X8003230Y-16311317D01*
X8003230Y-16311317D02*
X7984182Y-16301793D01*
X7984182Y-16301793D02*
X7974658Y-16282746D01*
X7974658Y-16282746D02*
X7974658Y-16273222D01*
X7974658Y-16273222D02*
X7984182Y-16254174D01*
X7984182Y-16254174D02*
X8003230Y-16244650D01*
X8003230Y-16244650D02*
X8031801Y-16244650D01*
X8031801Y-16244650D02*
X8050849Y-16254174D01*
X8127039Y-16454174D02*
X8136563Y-16444650D01*
X8136563Y-16444650D02*
X8155611Y-16416079D01*
X8155611Y-16416079D02*
X8165134Y-16397031D01*
X8165134Y-16397031D02*
X8174658Y-16368460D01*
X8174658Y-16368460D02*
X8184182Y-16320841D01*
X8184182Y-16320841D02*
X8184182Y-16282746D01*
X8184182Y-16282746D02*
X8174658Y-16235127D01*
X8174658Y-16235127D02*
X8165134Y-16206555D01*
X8165134Y-16206555D02*
X8155611Y-16187508D01*
X8155611Y-16187508D02*
X8136563Y-16158936D01*
X8136563Y-16158936D02*
X8127039Y-16149412D01*
M02*
