%TF.GenerationSoftware,KiCad,Pcbnew,10.0.6*%
%TF.CreationDate,2026-10-04T15:24:10+02:00*%
%TF.ProjectId,KiCad - MIDI-controller,4b694361-6420-42d2-904d-4944492d636f,rev?*%
%TF.SameCoordinates,Original*%
%TF.FileFunction,Soldermask,Top*%
%TF.FilePolarity,Negative*%
%FSLAX46Y46*%
G04 Gerber Fmt 4.6, Leading zero omitted, Abs format (unit mm)*
G04 Created by KiCad (PCBNEW 10.0.6) date 2026-10-04 15:24:10*
%MOMM*%
%LPD*%
G01*
G04 APERTURE LIST*
G04 Aperture macros list*
%AMRoundRect*
0 Rectangle with rounded corners*
0 $1 Rounding radius*
0 $2 $3 $4 $5 $6 $7 $8 $9 X,Y pos of 4 corners*
0 Add a 4 corners polygon primitive as box body*
4,1,4,$2,$3,$4,$5,$6,$7,$8,$9,$2,$3,0*
0 Add four circle primitives for the rounded corners*
1,1,$1+$1,$2,$3*
1,1,$1+$1,$4,$5*
1,1,$1+$1,$6,$7*
1,1,$1+$1,$8,$9*
0 Add four rect primitives between the rounded corners*
20,1,$1+$1,$2,$3,$4,$5,0*
20,1,$1+$1,$4,$5,$6,$7,0*
20,1,$1+$1,$6,$7,$8,$9,0*
20,1,$1+$1,$8,$9,$2,$3,0*%
G04 Aperture macros list end*
%ADD10RoundRect,0.150000X0.150000X-0.875000X0.150000X0.875000X-0.150000X0.875000X-0.150000X-0.875000X0*%
%ADD11C,1.800000*%
%ADD12C,4.400000*%
%ADD13C,4.000000*%
%ADD14C,2.200000*%
%ADD15R,1.500000X0.900000*%
%ADD16R,0.900000X1.500000*%
%ADD17C,0.600000*%
%ADD18R,3.900000X3.900000*%
%ADD19R,2.000000X2.000000*%
%ADD20C,2.000000*%
%ADD21R,2.000000X3.200000*%
%ADD22R,1.700000X1.700000*%
%ADD23C,1.700000*%
%ADD24RoundRect,0.150000X0.875000X0.150000X-0.875000X0.150000X-0.875000X-0.150000X0.875000X-0.150000X0*%
%ADD25RoundRect,0.250000X-0.550000X-0.550000X0.550000X-0.550000X0.550000X0.550000X-0.550000X0.550000X0*%
%ADD26C,1.600000*%
G04 APERTURE END LIST*
D10*
%TO.C,U2*%
X238475000Y-107930000D03*
X239745000Y-107930000D03*
X241015000Y-107930000D03*
X242285000Y-107930000D03*
X243555000Y-107930000D03*
X244825000Y-107930000D03*
X246095000Y-107930000D03*
X247365000Y-107930000D03*
X248635000Y-107930000D03*
X249905000Y-107930000D03*
X251175000Y-107930000D03*
X252445000Y-107930000D03*
X252445000Y-117230000D03*
X251175000Y-117230000D03*
X249905000Y-117230000D03*
X248635000Y-117230000D03*
X247365000Y-117230000D03*
X246095000Y-117230000D03*
X244825000Y-117230000D03*
X243555000Y-117230000D03*
X242285000Y-117230000D03*
X241015000Y-117230000D03*
X239745000Y-117230000D03*
X238475000Y-117230000D03*
%TD*%
D11*
%TO.C,RV13*%
X84790000Y-81630000D03*
X82290000Y-81630000D03*
X79790000Y-81630000D03*
D12*
X77890000Y-74630000D03*
X86690000Y-74630000D03*
%TD*%
D13*
%TO.C,SW11*%
X44150000Y-94080000D03*
D14*
X46690000Y-89000000D03*
X40340000Y-91540000D03*
%TD*%
D15*
%TO.C,U1*%
X246465000Y-43560000D03*
X246465000Y-44830000D03*
X246465000Y-46100000D03*
X246465000Y-47370000D03*
X246465000Y-48640000D03*
X246465000Y-49910000D03*
X246465000Y-51180000D03*
X246465000Y-52450000D03*
X246465000Y-53720000D03*
X246465000Y-54990000D03*
X246465000Y-56260000D03*
X246465000Y-57530000D03*
X246465000Y-58800000D03*
X246465000Y-60070000D03*
D16*
X248230000Y-61320000D03*
X249500000Y-61320000D03*
X250770000Y-61320000D03*
X252040000Y-61320000D03*
X253310000Y-61320000D03*
X254580000Y-61320000D03*
X255850000Y-61320000D03*
X257120000Y-61320000D03*
X258390000Y-61320000D03*
X259660000Y-61320000D03*
X260930000Y-61320000D03*
X262200000Y-61320000D03*
D15*
X263965000Y-60070000D03*
X263965000Y-58800000D03*
X263965000Y-57530000D03*
X263965000Y-56260000D03*
X263965000Y-54990000D03*
X263965000Y-53720000D03*
X263965000Y-52450000D03*
X263965000Y-51180000D03*
X263965000Y-49910000D03*
X263965000Y-48640000D03*
X263965000Y-47370000D03*
X263965000Y-46100000D03*
X263965000Y-44830000D03*
X263965000Y-43560000D03*
D17*
X252315000Y-50580000D03*
X252315000Y-51980000D03*
X253015000Y-49880000D03*
X253015000Y-51280000D03*
X253015000Y-52680000D03*
X253715000Y-50580000D03*
D18*
X253715000Y-51280000D03*
D17*
X253715000Y-51980000D03*
X254415000Y-49880000D03*
X254415000Y-51280000D03*
X254415000Y-52680000D03*
X255115000Y-50580000D03*
X255115000Y-51980000D03*
%TD*%
D13*
%TO.C,SW15*%
X120300000Y-94080000D03*
D14*
X122840000Y-89000000D03*
X116490000Y-91540000D03*
%TD*%
D13*
%TO.C,SW7*%
X158350000Y-114580000D03*
D14*
X160890000Y-109500000D03*
X154540000Y-112040000D03*
%TD*%
D19*
%TO.C,SW21*%
X82250000Y-56580000D03*
D20*
X87250000Y-56580000D03*
X84750000Y-56580000D03*
D21*
X79150000Y-49080000D03*
X90350000Y-49080000D03*
D20*
X87250000Y-42080000D03*
X82250000Y-42080000D03*
%TD*%
D13*
%TO.C,SW14*%
X101340000Y-94080000D03*
D14*
X103880000Y-89000000D03*
X97530000Y-91540000D03*
%TD*%
D13*
%TO.C,SW10*%
X223350000Y-114580000D03*
D14*
X225890000Y-109500000D03*
X219540000Y-112040000D03*
%TD*%
D11*
%TO.C,RV19*%
X198960000Y-81630000D03*
X196460000Y-81630000D03*
X193960000Y-81630000D03*
D12*
X192060000Y-74630000D03*
X200860000Y-74630000D03*
%TD*%
D22*
%TO.C,RV8*%
X174360000Y-139580000D03*
D23*
X176900000Y-139580000D03*
X179440000Y-139580000D03*
%TD*%
D13*
%TO.C,SW3*%
X82290000Y-114580000D03*
D14*
X84830000Y-109500000D03*
X78480000Y-112040000D03*
%TD*%
D13*
%TO.C,SW19*%
X196460000Y-94080000D03*
D14*
X199000000Y-89000000D03*
X192650000Y-91540000D03*
%TD*%
D13*
%TO.C,SW20*%
X223350000Y-94080000D03*
D14*
X225890000Y-89000000D03*
X219540000Y-91540000D03*
%TD*%
D13*
%TO.C,SW18*%
X177360000Y-94080000D03*
D14*
X179900000Y-89000000D03*
X173550000Y-91540000D03*
%TD*%
D22*
%TO.C,RV2*%
X60240000Y-139580000D03*
D23*
X62780000Y-139580000D03*
X65320000Y-139580000D03*
%TD*%
D13*
%TO.C,SW17*%
X158350000Y-94080000D03*
D14*
X160890000Y-89000000D03*
X154540000Y-91540000D03*
%TD*%
D11*
%TO.C,RV15*%
X122800000Y-81630000D03*
X120300000Y-81630000D03*
X117800000Y-81630000D03*
D12*
X115900000Y-74630000D03*
X124700000Y-74630000D03*
%TD*%
D11*
%TO.C,RV17*%
X160850000Y-81630000D03*
X158350000Y-81630000D03*
X155850000Y-81630000D03*
D12*
X153950000Y-74630000D03*
X162750000Y-74630000D03*
%TD*%
D19*
%TO.C,SW22*%
X130750000Y-56580000D03*
D20*
X135750000Y-56580000D03*
X133250000Y-56580000D03*
D21*
X127650000Y-49080000D03*
X138850000Y-49080000D03*
D20*
X135750000Y-42080000D03*
X130750000Y-42080000D03*
%TD*%
D13*
%TO.C,SW1*%
X44150000Y-114580000D03*
D14*
X46690000Y-109500000D03*
X40340000Y-112040000D03*
%TD*%
D22*
%TO.C,RV4*%
X98340000Y-139580000D03*
D23*
X100880000Y-139580000D03*
X103420000Y-139580000D03*
%TD*%
D22*
%TO.C,RV5*%
X117300000Y-139580000D03*
D23*
X119840000Y-139580000D03*
X122380000Y-139580000D03*
%TD*%
D11*
%TO.C,RV14*%
X103840000Y-81630000D03*
X101340000Y-81630000D03*
X98840000Y-81630000D03*
D12*
X96940000Y-74630000D03*
X105740000Y-74630000D03*
%TD*%
D13*
%TO.C,SW6*%
X139350000Y-114580000D03*
D14*
X141890000Y-109500000D03*
X135540000Y-112040000D03*
%TD*%
D13*
%TO.C,SW9*%
X196460000Y-114580000D03*
D14*
X199000000Y-109500000D03*
X192650000Y-112040000D03*
%TD*%
D22*
%TO.C,RV6*%
X136350000Y-139580000D03*
D23*
X138890000Y-139580000D03*
X141430000Y-139580000D03*
%TD*%
D13*
%TO.C,SW5*%
X120300000Y-114580000D03*
D14*
X122840000Y-109500000D03*
X116490000Y-112040000D03*
%TD*%
D13*
%TO.C,SW16*%
X139350000Y-94080000D03*
D14*
X141890000Y-89000000D03*
X135540000Y-91540000D03*
%TD*%
D11*
%TO.C,RV18*%
X179860000Y-81630000D03*
X177360000Y-81630000D03*
X174860000Y-81630000D03*
D12*
X172960000Y-74630000D03*
X181760000Y-74630000D03*
%TD*%
D22*
%TO.C,RV9*%
X193460000Y-139580000D03*
D23*
X196000000Y-139580000D03*
X198540000Y-139580000D03*
%TD*%
D13*
%TO.C,SW12*%
X63240000Y-94080000D03*
D14*
X65780000Y-89000000D03*
X59430000Y-91540000D03*
%TD*%
D22*
%TO.C,RV3*%
X79290000Y-139580000D03*
D23*
X81830000Y-139580000D03*
X84370000Y-139580000D03*
%TD*%
D13*
%TO.C,SW2*%
X63240000Y-114580000D03*
D14*
X65780000Y-109500000D03*
X59430000Y-112040000D03*
%TD*%
D11*
%TO.C,RV16*%
X141850000Y-81630000D03*
X139350000Y-81630000D03*
X136850000Y-81630000D03*
D12*
X134950000Y-74630000D03*
X143750000Y-74630000D03*
%TD*%
D22*
%TO.C,RV1*%
X41150000Y-139580000D03*
D23*
X43690000Y-139580000D03*
X46230000Y-139580000D03*
%TD*%
D24*
%TO.C,U3*%
X259920000Y-87292500D03*
X259920000Y-86022500D03*
X259920000Y-84752500D03*
X259920000Y-83482500D03*
X259920000Y-82212500D03*
X259920000Y-80942500D03*
X259920000Y-79672500D03*
X259920000Y-78402500D03*
X259920000Y-77132500D03*
X259920000Y-75862500D03*
X259920000Y-74592500D03*
X259920000Y-73322500D03*
X250620000Y-73322500D03*
X250620000Y-74592500D03*
X250620000Y-75862500D03*
X250620000Y-77132500D03*
X250620000Y-78402500D03*
X250620000Y-79672500D03*
X250620000Y-80942500D03*
X250620000Y-82212500D03*
X250620000Y-83482500D03*
X250620000Y-84752500D03*
X250620000Y-86022500D03*
X250620000Y-87292500D03*
%TD*%
D11*
%TO.C,RV11*%
X46650000Y-81630000D03*
X44150000Y-81630000D03*
X41650000Y-81630000D03*
D12*
X39750000Y-74630000D03*
X48550000Y-74630000D03*
%TD*%
D13*
%TO.C,SW4*%
X101340000Y-114580000D03*
D14*
X103880000Y-109500000D03*
X97530000Y-112040000D03*
%TD*%
D19*
%TO.C,SW23*%
X181250000Y-56580000D03*
D20*
X186250000Y-56580000D03*
X183750000Y-56580000D03*
D21*
X178150000Y-49080000D03*
X189350000Y-49080000D03*
D20*
X186250000Y-42080000D03*
X181250000Y-42080000D03*
%TD*%
D11*
%TO.C,RV20*%
X225850000Y-81630000D03*
X223350000Y-81630000D03*
X220850000Y-81630000D03*
D12*
X218950000Y-74630000D03*
X227750000Y-74630000D03*
%TD*%
D13*
%TO.C,SW8*%
X177360000Y-114580000D03*
D14*
X179900000Y-109500000D03*
X173550000Y-112040000D03*
%TD*%
D22*
%TO.C,RV7*%
X155350000Y-139580000D03*
D23*
X157890000Y-139580000D03*
X160430000Y-139580000D03*
%TD*%
D11*
%TO.C,RV12*%
X65740000Y-81630000D03*
X63240000Y-81630000D03*
X60740000Y-81630000D03*
D12*
X58840000Y-74630000D03*
X67640000Y-74630000D03*
%TD*%
D22*
%TO.C,RV10*%
X220350000Y-139580000D03*
D23*
X222890000Y-139580000D03*
X225430000Y-139580000D03*
%TD*%
D13*
%TO.C,SW13*%
X82290000Y-94080000D03*
D14*
X84830000Y-89000000D03*
X78480000Y-91540000D03*
%TD*%
D25*
%TO.C,D18*%
X174050000Y-104580000D03*
D26*
X181670000Y-104580000D03*
%TD*%
D25*
%TO.C,D3*%
X78650000Y-125580000D03*
D26*
X86270000Y-125580000D03*
%TD*%
D25*
%TO.C,D17*%
X155040000Y-104580000D03*
D26*
X162660000Y-104580000D03*
%TD*%
D25*
%TO.C,D4*%
X97650000Y-125580000D03*
D26*
X105270000Y-125580000D03*
%TD*%
D25*
%TO.C,D2*%
X59650000Y-125580000D03*
D26*
X67270000Y-125580000D03*
%TD*%
D25*
%TO.C,D13*%
X78480000Y-104580000D03*
D26*
X86100000Y-104580000D03*
%TD*%
D25*
%TO.C,D16*%
X136040000Y-104580000D03*
D26*
X143660000Y-104580000D03*
%TD*%
D25*
%TO.C,D8*%
X173650000Y-125580000D03*
D26*
X181270000Y-125580000D03*
%TD*%
D25*
%TO.C,D20*%
X219650000Y-104080000D03*
D26*
X227270000Y-104080000D03*
%TD*%
D25*
%TO.C,D7*%
X154650000Y-125580000D03*
D26*
X162270000Y-125580000D03*
%TD*%
D25*
%TO.C,D19*%
X193150000Y-104580000D03*
D26*
X200770000Y-104580000D03*
%TD*%
D25*
%TO.C,D10*%
X219650000Y-126080000D03*
D26*
X227270000Y-126080000D03*
%TD*%
D25*
%TO.C,D15*%
X116990000Y-104580000D03*
D26*
X124610000Y-104580000D03*
%TD*%
D25*
%TO.C,D11*%
X40840000Y-104580000D03*
D26*
X48460000Y-104580000D03*
%TD*%
D25*
%TO.C,D1*%
X40650000Y-125580000D03*
D26*
X48270000Y-125580000D03*
%TD*%
D25*
%TO.C,D12*%
X59430000Y-104580000D03*
D26*
X67050000Y-104580000D03*
%TD*%
D25*
%TO.C,D14*%
X97530000Y-104580000D03*
D26*
X105150000Y-104580000D03*
%TD*%
D25*
%TO.C,D6*%
X135650000Y-125580000D03*
D26*
X143270000Y-125580000D03*
%TD*%
D25*
%TO.C,D5*%
X116650000Y-125580000D03*
D26*
X124270000Y-125580000D03*
%TD*%
D25*
%TO.C,D9*%
X193650000Y-125580000D03*
D26*
X201270000Y-125580000D03*
%TD*%
M02*
