%TF.GenerationSoftware,KiCad,Pcbnew,10.0.6*%
%TF.CreationDate,2026-10-04T15:24:10+02:00*%
%TF.ProjectId,KiCad - MIDI-controller,4b694361-6420-42d2-904d-4944492d636f,rev?*%
%TF.SameCoordinates,Original*%
%TF.FileFunction,Legend,Bot*%
%TF.FilePolarity,Positive*%
%FSLAX46Y46*%
G04 Gerber Fmt 4.6, Leading zero omitted, Abs format (unit mm)*
G04 Created by KiCad (PCBNEW 10.0.6) date 2026-10-04 15:24:10*
%MOMM*%
%LPD*%
G01*
G04 APERTURE LIST*
%ADD10C,0.150000*%
%ADD11C,0.120000*%
G04 APERTURE END LIST*
D10*
X160183332Y-104907200D02*
X160040475Y-104954819D01*
X160040475Y-104954819D02*
X159802380Y-104954819D01*
X159802380Y-104954819D02*
X159707142Y-104907200D01*
X159707142Y-104907200D02*
X159659523Y-104859580D01*
X159659523Y-104859580D02*
X159611904Y-104764342D01*
X159611904Y-104764342D02*
X159611904Y-104669104D01*
X159611904Y-104669104D02*
X159659523Y-104573866D01*
X159659523Y-104573866D02*
X159707142Y-104526247D01*
X159707142Y-104526247D02*
X159802380Y-104478628D01*
X159802380Y-104478628D02*
X159992856Y-104431009D01*
X159992856Y-104431009D02*
X160088094Y-104383390D01*
X160088094Y-104383390D02*
X160135713Y-104335771D01*
X160135713Y-104335771D02*
X160183332Y-104240533D01*
X160183332Y-104240533D02*
X160183332Y-104145295D01*
X160183332Y-104145295D02*
X160135713Y-104050057D01*
X160135713Y-104050057D02*
X160088094Y-104002438D01*
X160088094Y-104002438D02*
X159992856Y-103954819D01*
X159992856Y-103954819D02*
X159754761Y-103954819D01*
X159754761Y-103954819D02*
X159611904Y-104002438D01*
X159278570Y-103954819D02*
X159040475Y-104954819D01*
X159040475Y-104954819D02*
X158849999Y-104240533D01*
X158849999Y-104240533D02*
X158659523Y-104954819D01*
X158659523Y-104954819D02*
X158421428Y-103954819D01*
X158135713Y-103954819D02*
X157469047Y-103954819D01*
X157469047Y-103954819D02*
X157897618Y-104954819D01*
X83123332Y-104987200D02*
X82980475Y-105034819D01*
X82980475Y-105034819D02*
X82742380Y-105034819D01*
X82742380Y-105034819D02*
X82647142Y-104987200D01*
X82647142Y-104987200D02*
X82599523Y-104939580D01*
X82599523Y-104939580D02*
X82551904Y-104844342D01*
X82551904Y-104844342D02*
X82551904Y-104749104D01*
X82551904Y-104749104D02*
X82599523Y-104653866D01*
X82599523Y-104653866D02*
X82647142Y-104606247D01*
X82647142Y-104606247D02*
X82742380Y-104558628D01*
X82742380Y-104558628D02*
X82932856Y-104511009D01*
X82932856Y-104511009D02*
X83028094Y-104463390D01*
X83028094Y-104463390D02*
X83075713Y-104415771D01*
X83075713Y-104415771D02*
X83123332Y-104320533D01*
X83123332Y-104320533D02*
X83123332Y-104225295D01*
X83123332Y-104225295D02*
X83075713Y-104130057D01*
X83075713Y-104130057D02*
X83028094Y-104082438D01*
X83028094Y-104082438D02*
X82932856Y-104034819D01*
X82932856Y-104034819D02*
X82694761Y-104034819D01*
X82694761Y-104034819D02*
X82551904Y-104082438D01*
X82218570Y-104034819D02*
X81980475Y-105034819D01*
X81980475Y-105034819D02*
X81789999Y-104320533D01*
X81789999Y-104320533D02*
X81599523Y-105034819D01*
X81599523Y-105034819D02*
X81361428Y-104034819D01*
X81075713Y-104034819D02*
X80456666Y-104034819D01*
X80456666Y-104034819D02*
X80789999Y-104415771D01*
X80789999Y-104415771D02*
X80647142Y-104415771D01*
X80647142Y-104415771D02*
X80551904Y-104463390D01*
X80551904Y-104463390D02*
X80504285Y-104511009D01*
X80504285Y-104511009D02*
X80456666Y-104606247D01*
X80456666Y-104606247D02*
X80456666Y-104844342D01*
X80456666Y-104844342D02*
X80504285Y-104939580D01*
X80504285Y-104939580D02*
X80551904Y-104987200D01*
X80551904Y-104987200D02*
X80647142Y-105034819D01*
X80647142Y-105034819D02*
X80932856Y-105034819D01*
X80932856Y-105034819D02*
X81028094Y-104987200D01*
X81028094Y-104987200D02*
X81075713Y-104939580D01*
X45983332Y-104987200D02*
X45840475Y-105034819D01*
X45840475Y-105034819D02*
X45602380Y-105034819D01*
X45602380Y-105034819D02*
X45507142Y-104987200D01*
X45507142Y-104987200D02*
X45459523Y-104939580D01*
X45459523Y-104939580D02*
X45411904Y-104844342D01*
X45411904Y-104844342D02*
X45411904Y-104749104D01*
X45411904Y-104749104D02*
X45459523Y-104653866D01*
X45459523Y-104653866D02*
X45507142Y-104606247D01*
X45507142Y-104606247D02*
X45602380Y-104558628D01*
X45602380Y-104558628D02*
X45792856Y-104511009D01*
X45792856Y-104511009D02*
X45888094Y-104463390D01*
X45888094Y-104463390D02*
X45935713Y-104415771D01*
X45935713Y-104415771D02*
X45983332Y-104320533D01*
X45983332Y-104320533D02*
X45983332Y-104225295D01*
X45983332Y-104225295D02*
X45935713Y-104130057D01*
X45935713Y-104130057D02*
X45888094Y-104082438D01*
X45888094Y-104082438D02*
X45792856Y-104034819D01*
X45792856Y-104034819D02*
X45554761Y-104034819D01*
X45554761Y-104034819D02*
X45411904Y-104082438D01*
X45078570Y-104034819D02*
X44840475Y-105034819D01*
X44840475Y-105034819D02*
X44649999Y-104320533D01*
X44649999Y-104320533D02*
X44459523Y-105034819D01*
X44459523Y-105034819D02*
X44221428Y-104034819D01*
X43316666Y-105034819D02*
X43888094Y-105034819D01*
X43602380Y-105034819D02*
X43602380Y-104034819D01*
X43602380Y-104034819D02*
X43697618Y-104177676D01*
X43697618Y-104177676D02*
X43792856Y-104272914D01*
X43792856Y-104272914D02*
X43888094Y-104320533D01*
X141183332Y-104987200D02*
X141040475Y-105034819D01*
X141040475Y-105034819D02*
X140802380Y-105034819D01*
X140802380Y-105034819D02*
X140707142Y-104987200D01*
X140707142Y-104987200D02*
X140659523Y-104939580D01*
X140659523Y-104939580D02*
X140611904Y-104844342D01*
X140611904Y-104844342D02*
X140611904Y-104749104D01*
X140611904Y-104749104D02*
X140659523Y-104653866D01*
X140659523Y-104653866D02*
X140707142Y-104606247D01*
X140707142Y-104606247D02*
X140802380Y-104558628D01*
X140802380Y-104558628D02*
X140992856Y-104511009D01*
X140992856Y-104511009D02*
X141088094Y-104463390D01*
X141088094Y-104463390D02*
X141135713Y-104415771D01*
X141135713Y-104415771D02*
X141183332Y-104320533D01*
X141183332Y-104320533D02*
X141183332Y-104225295D01*
X141183332Y-104225295D02*
X141135713Y-104130057D01*
X141135713Y-104130057D02*
X141088094Y-104082438D01*
X141088094Y-104082438D02*
X140992856Y-104034819D01*
X140992856Y-104034819D02*
X140754761Y-104034819D01*
X140754761Y-104034819D02*
X140611904Y-104082438D01*
X140278570Y-104034819D02*
X140040475Y-105034819D01*
X140040475Y-105034819D02*
X139849999Y-104320533D01*
X139849999Y-104320533D02*
X139659523Y-105034819D01*
X139659523Y-105034819D02*
X139421428Y-104034819D01*
X138611904Y-104034819D02*
X138802380Y-104034819D01*
X138802380Y-104034819D02*
X138897618Y-104082438D01*
X138897618Y-104082438D02*
X138945237Y-104130057D01*
X138945237Y-104130057D02*
X139040475Y-104272914D01*
X139040475Y-104272914D02*
X139088094Y-104463390D01*
X139088094Y-104463390D02*
X139088094Y-104844342D01*
X139088094Y-104844342D02*
X139040475Y-104939580D01*
X139040475Y-104939580D02*
X138992856Y-104987200D01*
X138992856Y-104987200D02*
X138897618Y-105034819D01*
X138897618Y-105034819D02*
X138707142Y-105034819D01*
X138707142Y-105034819D02*
X138611904Y-104987200D01*
X138611904Y-104987200D02*
X138564285Y-104939580D01*
X138564285Y-104939580D02*
X138516666Y-104844342D01*
X138516666Y-104844342D02*
X138516666Y-104606247D01*
X138516666Y-104606247D02*
X138564285Y-104511009D01*
X138564285Y-104511009D02*
X138611904Y-104463390D01*
X138611904Y-104463390D02*
X138707142Y-104415771D01*
X138707142Y-104415771D02*
X138897618Y-104415771D01*
X138897618Y-104415771D02*
X138992856Y-104463390D01*
X138992856Y-104463390D02*
X139040475Y-104511009D01*
X139040475Y-104511009D02*
X139088094Y-104606247D01*
X198293332Y-104987200D02*
X198150475Y-105034819D01*
X198150475Y-105034819D02*
X197912380Y-105034819D01*
X197912380Y-105034819D02*
X197817142Y-104987200D01*
X197817142Y-104987200D02*
X197769523Y-104939580D01*
X197769523Y-104939580D02*
X197721904Y-104844342D01*
X197721904Y-104844342D02*
X197721904Y-104749104D01*
X197721904Y-104749104D02*
X197769523Y-104653866D01*
X197769523Y-104653866D02*
X197817142Y-104606247D01*
X197817142Y-104606247D02*
X197912380Y-104558628D01*
X197912380Y-104558628D02*
X198102856Y-104511009D01*
X198102856Y-104511009D02*
X198198094Y-104463390D01*
X198198094Y-104463390D02*
X198245713Y-104415771D01*
X198245713Y-104415771D02*
X198293332Y-104320533D01*
X198293332Y-104320533D02*
X198293332Y-104225295D01*
X198293332Y-104225295D02*
X198245713Y-104130057D01*
X198245713Y-104130057D02*
X198198094Y-104082438D01*
X198198094Y-104082438D02*
X198102856Y-104034819D01*
X198102856Y-104034819D02*
X197864761Y-104034819D01*
X197864761Y-104034819D02*
X197721904Y-104082438D01*
X197388570Y-104034819D02*
X197150475Y-105034819D01*
X197150475Y-105034819D02*
X196959999Y-104320533D01*
X196959999Y-104320533D02*
X196769523Y-105034819D01*
X196769523Y-105034819D02*
X196531428Y-104034819D01*
X196102856Y-105034819D02*
X195912380Y-105034819D01*
X195912380Y-105034819D02*
X195817142Y-104987200D01*
X195817142Y-104987200D02*
X195769523Y-104939580D01*
X195769523Y-104939580D02*
X195674285Y-104796723D01*
X195674285Y-104796723D02*
X195626666Y-104606247D01*
X195626666Y-104606247D02*
X195626666Y-104225295D01*
X195626666Y-104225295D02*
X195674285Y-104130057D01*
X195674285Y-104130057D02*
X195721904Y-104082438D01*
X195721904Y-104082438D02*
X195817142Y-104034819D01*
X195817142Y-104034819D02*
X196007618Y-104034819D01*
X196007618Y-104034819D02*
X196102856Y-104082438D01*
X196102856Y-104082438D02*
X196150475Y-104130057D01*
X196150475Y-104130057D02*
X196198094Y-104225295D01*
X196198094Y-104225295D02*
X196198094Y-104463390D01*
X196198094Y-104463390D02*
X196150475Y-104558628D01*
X196150475Y-104558628D02*
X196102856Y-104606247D01*
X196102856Y-104606247D02*
X196007618Y-104653866D01*
X196007618Y-104653866D02*
X195817142Y-104653866D01*
X195817142Y-104653866D02*
X195721904Y-104606247D01*
X195721904Y-104606247D02*
X195674285Y-104558628D01*
X195674285Y-104558628D02*
X195626666Y-104463390D01*
X122133332Y-104987200D02*
X121990475Y-105034819D01*
X121990475Y-105034819D02*
X121752380Y-105034819D01*
X121752380Y-105034819D02*
X121657142Y-104987200D01*
X121657142Y-104987200D02*
X121609523Y-104939580D01*
X121609523Y-104939580D02*
X121561904Y-104844342D01*
X121561904Y-104844342D02*
X121561904Y-104749104D01*
X121561904Y-104749104D02*
X121609523Y-104653866D01*
X121609523Y-104653866D02*
X121657142Y-104606247D01*
X121657142Y-104606247D02*
X121752380Y-104558628D01*
X121752380Y-104558628D02*
X121942856Y-104511009D01*
X121942856Y-104511009D02*
X122038094Y-104463390D01*
X122038094Y-104463390D02*
X122085713Y-104415771D01*
X122085713Y-104415771D02*
X122133332Y-104320533D01*
X122133332Y-104320533D02*
X122133332Y-104225295D01*
X122133332Y-104225295D02*
X122085713Y-104130057D01*
X122085713Y-104130057D02*
X122038094Y-104082438D01*
X122038094Y-104082438D02*
X121942856Y-104034819D01*
X121942856Y-104034819D02*
X121704761Y-104034819D01*
X121704761Y-104034819D02*
X121561904Y-104082438D01*
X121228570Y-104034819D02*
X120990475Y-105034819D01*
X120990475Y-105034819D02*
X120799999Y-104320533D01*
X120799999Y-104320533D02*
X120609523Y-105034819D01*
X120609523Y-105034819D02*
X120371428Y-104034819D01*
X119514285Y-104034819D02*
X119990475Y-104034819D01*
X119990475Y-104034819D02*
X120038094Y-104511009D01*
X120038094Y-104511009D02*
X119990475Y-104463390D01*
X119990475Y-104463390D02*
X119895237Y-104415771D01*
X119895237Y-104415771D02*
X119657142Y-104415771D01*
X119657142Y-104415771D02*
X119561904Y-104463390D01*
X119561904Y-104463390D02*
X119514285Y-104511009D01*
X119514285Y-104511009D02*
X119466666Y-104606247D01*
X119466666Y-104606247D02*
X119466666Y-104844342D01*
X119466666Y-104844342D02*
X119514285Y-104939580D01*
X119514285Y-104939580D02*
X119561904Y-104987200D01*
X119561904Y-104987200D02*
X119657142Y-105034819D01*
X119657142Y-105034819D02*
X119895237Y-105034819D01*
X119895237Y-105034819D02*
X119990475Y-104987200D01*
X119990475Y-104987200D02*
X120038094Y-104939580D01*
X63883332Y-104987200D02*
X63740475Y-105034819D01*
X63740475Y-105034819D02*
X63502380Y-105034819D01*
X63502380Y-105034819D02*
X63407142Y-104987200D01*
X63407142Y-104987200D02*
X63359523Y-104939580D01*
X63359523Y-104939580D02*
X63311904Y-104844342D01*
X63311904Y-104844342D02*
X63311904Y-104749104D01*
X63311904Y-104749104D02*
X63359523Y-104653866D01*
X63359523Y-104653866D02*
X63407142Y-104606247D01*
X63407142Y-104606247D02*
X63502380Y-104558628D01*
X63502380Y-104558628D02*
X63692856Y-104511009D01*
X63692856Y-104511009D02*
X63788094Y-104463390D01*
X63788094Y-104463390D02*
X63835713Y-104415771D01*
X63835713Y-104415771D02*
X63883332Y-104320533D01*
X63883332Y-104320533D02*
X63883332Y-104225295D01*
X63883332Y-104225295D02*
X63835713Y-104130057D01*
X63835713Y-104130057D02*
X63788094Y-104082438D01*
X63788094Y-104082438D02*
X63692856Y-104034819D01*
X63692856Y-104034819D02*
X63454761Y-104034819D01*
X63454761Y-104034819D02*
X63311904Y-104082438D01*
X62978570Y-104034819D02*
X62740475Y-105034819D01*
X62740475Y-105034819D02*
X62549999Y-104320533D01*
X62549999Y-104320533D02*
X62359523Y-105034819D01*
X62359523Y-105034819D02*
X62121428Y-104034819D01*
X61788094Y-104130057D02*
X61740475Y-104082438D01*
X61740475Y-104082438D02*
X61645237Y-104034819D01*
X61645237Y-104034819D02*
X61407142Y-104034819D01*
X61407142Y-104034819D02*
X61311904Y-104082438D01*
X61311904Y-104082438D02*
X61264285Y-104130057D01*
X61264285Y-104130057D02*
X61216666Y-104225295D01*
X61216666Y-104225295D02*
X61216666Y-104320533D01*
X61216666Y-104320533D02*
X61264285Y-104463390D01*
X61264285Y-104463390D02*
X61835713Y-105034819D01*
X61835713Y-105034819D02*
X61216666Y-105034819D01*
X102173332Y-104987200D02*
X102030475Y-105034819D01*
X102030475Y-105034819D02*
X101792380Y-105034819D01*
X101792380Y-105034819D02*
X101697142Y-104987200D01*
X101697142Y-104987200D02*
X101649523Y-104939580D01*
X101649523Y-104939580D02*
X101601904Y-104844342D01*
X101601904Y-104844342D02*
X101601904Y-104749104D01*
X101601904Y-104749104D02*
X101649523Y-104653866D01*
X101649523Y-104653866D02*
X101697142Y-104606247D01*
X101697142Y-104606247D02*
X101792380Y-104558628D01*
X101792380Y-104558628D02*
X101982856Y-104511009D01*
X101982856Y-104511009D02*
X102078094Y-104463390D01*
X102078094Y-104463390D02*
X102125713Y-104415771D01*
X102125713Y-104415771D02*
X102173332Y-104320533D01*
X102173332Y-104320533D02*
X102173332Y-104225295D01*
X102173332Y-104225295D02*
X102125713Y-104130057D01*
X102125713Y-104130057D02*
X102078094Y-104082438D01*
X102078094Y-104082438D02*
X101982856Y-104034819D01*
X101982856Y-104034819D02*
X101744761Y-104034819D01*
X101744761Y-104034819D02*
X101601904Y-104082438D01*
X101268570Y-104034819D02*
X101030475Y-105034819D01*
X101030475Y-105034819D02*
X100839999Y-104320533D01*
X100839999Y-104320533D02*
X100649523Y-105034819D01*
X100649523Y-105034819D02*
X100411428Y-104034819D01*
X99601904Y-104368152D02*
X99601904Y-105034819D01*
X99839999Y-103987200D02*
X100078094Y-104701485D01*
X100078094Y-104701485D02*
X99459047Y-104701485D01*
X179193332Y-104947200D02*
X179050475Y-104994819D01*
X179050475Y-104994819D02*
X178812380Y-104994819D01*
X178812380Y-104994819D02*
X178717142Y-104947200D01*
X178717142Y-104947200D02*
X178669523Y-104899580D01*
X178669523Y-104899580D02*
X178621904Y-104804342D01*
X178621904Y-104804342D02*
X178621904Y-104709104D01*
X178621904Y-104709104D02*
X178669523Y-104613866D01*
X178669523Y-104613866D02*
X178717142Y-104566247D01*
X178717142Y-104566247D02*
X178812380Y-104518628D01*
X178812380Y-104518628D02*
X179002856Y-104471009D01*
X179002856Y-104471009D02*
X179098094Y-104423390D01*
X179098094Y-104423390D02*
X179145713Y-104375771D01*
X179145713Y-104375771D02*
X179193332Y-104280533D01*
X179193332Y-104280533D02*
X179193332Y-104185295D01*
X179193332Y-104185295D02*
X179145713Y-104090057D01*
X179145713Y-104090057D02*
X179098094Y-104042438D01*
X179098094Y-104042438D02*
X179002856Y-103994819D01*
X179002856Y-103994819D02*
X178764761Y-103994819D01*
X178764761Y-103994819D02*
X178621904Y-104042438D01*
X178288570Y-103994819D02*
X178050475Y-104994819D01*
X178050475Y-104994819D02*
X177859999Y-104280533D01*
X177859999Y-104280533D02*
X177669523Y-104994819D01*
X177669523Y-104994819D02*
X177431428Y-103994819D01*
X176907618Y-104423390D02*
X177002856Y-104375771D01*
X177002856Y-104375771D02*
X177050475Y-104328152D01*
X177050475Y-104328152D02*
X177098094Y-104232914D01*
X177098094Y-104232914D02*
X177098094Y-104185295D01*
X177098094Y-104185295D02*
X177050475Y-104090057D01*
X177050475Y-104090057D02*
X177002856Y-104042438D01*
X177002856Y-104042438D02*
X176907618Y-103994819D01*
X176907618Y-103994819D02*
X176717142Y-103994819D01*
X176717142Y-103994819D02*
X176621904Y-104042438D01*
X176621904Y-104042438D02*
X176574285Y-104090057D01*
X176574285Y-104090057D02*
X176526666Y-104185295D01*
X176526666Y-104185295D02*
X176526666Y-104232914D01*
X176526666Y-104232914D02*
X176574285Y-104328152D01*
X176574285Y-104328152D02*
X176621904Y-104375771D01*
X176621904Y-104375771D02*
X176717142Y-104423390D01*
X176717142Y-104423390D02*
X176907618Y-104423390D01*
X176907618Y-104423390D02*
X177002856Y-104471009D01*
X177002856Y-104471009D02*
X177050475Y-104518628D01*
X177050475Y-104518628D02*
X177098094Y-104613866D01*
X177098094Y-104613866D02*
X177098094Y-104804342D01*
X177098094Y-104804342D02*
X177050475Y-104899580D01*
X177050475Y-104899580D02*
X177002856Y-104947200D01*
X177002856Y-104947200D02*
X176907618Y-104994819D01*
X176907618Y-104994819D02*
X176717142Y-104994819D01*
X176717142Y-104994819D02*
X176621904Y-104947200D01*
X176621904Y-104947200D02*
X176574285Y-104899580D01*
X176574285Y-104899580D02*
X176526666Y-104804342D01*
X176526666Y-104804342D02*
X176526666Y-104613866D01*
X176526666Y-104613866D02*
X176574285Y-104518628D01*
X176574285Y-104518628D02*
X176621904Y-104471009D01*
X176621904Y-104471009D02*
X176717142Y-104423390D01*
X177074285Y-107034819D02*
X177074285Y-106034819D01*
X177074285Y-106034819D02*
X176836190Y-106034819D01*
X176836190Y-106034819D02*
X176693333Y-106082438D01*
X176693333Y-106082438D02*
X176598095Y-106177676D01*
X176598095Y-106177676D02*
X176550476Y-106272914D01*
X176550476Y-106272914D02*
X176502857Y-106463390D01*
X176502857Y-106463390D02*
X176502857Y-106606247D01*
X176502857Y-106606247D02*
X176550476Y-106796723D01*
X176550476Y-106796723D02*
X176598095Y-106891961D01*
X176598095Y-106891961D02*
X176693333Y-106987200D01*
X176693333Y-106987200D02*
X176836190Y-107034819D01*
X176836190Y-107034819D02*
X177074285Y-107034819D01*
X175550476Y-107034819D02*
X176121904Y-107034819D01*
X175836190Y-107034819D02*
X175836190Y-106034819D01*
X175836190Y-106034819D02*
X175931428Y-106177676D01*
X175931428Y-106177676D02*
X176026666Y-106272914D01*
X176026666Y-106272914D02*
X176121904Y-106320533D01*
X174979047Y-106463390D02*
X175074285Y-106415771D01*
X175074285Y-106415771D02*
X175121904Y-106368152D01*
X175121904Y-106368152D02*
X175169523Y-106272914D01*
X175169523Y-106272914D02*
X175169523Y-106225295D01*
X175169523Y-106225295D02*
X175121904Y-106130057D01*
X175121904Y-106130057D02*
X175074285Y-106082438D01*
X175074285Y-106082438D02*
X174979047Y-106034819D01*
X174979047Y-106034819D02*
X174788571Y-106034819D01*
X174788571Y-106034819D02*
X174693333Y-106082438D01*
X174693333Y-106082438D02*
X174645714Y-106130057D01*
X174645714Y-106130057D02*
X174598095Y-106225295D01*
X174598095Y-106225295D02*
X174598095Y-106272914D01*
X174598095Y-106272914D02*
X174645714Y-106368152D01*
X174645714Y-106368152D02*
X174693333Y-106415771D01*
X174693333Y-106415771D02*
X174788571Y-106463390D01*
X174788571Y-106463390D02*
X174979047Y-106463390D01*
X174979047Y-106463390D02*
X175074285Y-106511009D01*
X175074285Y-106511009D02*
X175121904Y-106558628D01*
X175121904Y-106558628D02*
X175169523Y-106653866D01*
X175169523Y-106653866D02*
X175169523Y-106844342D01*
X175169523Y-106844342D02*
X175121904Y-106939580D01*
X175121904Y-106939580D02*
X175074285Y-106987200D01*
X175074285Y-106987200D02*
X174979047Y-107034819D01*
X174979047Y-107034819D02*
X174788571Y-107034819D01*
X174788571Y-107034819D02*
X174693333Y-106987200D01*
X174693333Y-106987200D02*
X174645714Y-106939580D01*
X174645714Y-106939580D02*
X174598095Y-106844342D01*
X174598095Y-106844342D02*
X174598095Y-106653866D01*
X174598095Y-106653866D02*
X174645714Y-106558628D01*
X174645714Y-106558628D02*
X174693333Y-106511009D01*
X174693333Y-106511009D02*
X174788571Y-106463390D01*
X174311904Y-106834819D02*
X174311904Y-105834819D01*
X173740476Y-106834819D02*
X174169047Y-106263390D01*
X173740476Y-105834819D02*
X174311904Y-106406247D01*
X83198094Y-128154819D02*
X83198094Y-127154819D01*
X83198094Y-127154819D02*
X82959999Y-127154819D01*
X82959999Y-127154819D02*
X82817142Y-127202438D01*
X82817142Y-127202438D02*
X82721904Y-127297676D01*
X82721904Y-127297676D02*
X82674285Y-127392914D01*
X82674285Y-127392914D02*
X82626666Y-127583390D01*
X82626666Y-127583390D02*
X82626666Y-127726247D01*
X82626666Y-127726247D02*
X82674285Y-127916723D01*
X82674285Y-127916723D02*
X82721904Y-128011961D01*
X82721904Y-128011961D02*
X82817142Y-128107200D01*
X82817142Y-128107200D02*
X82959999Y-128154819D01*
X82959999Y-128154819D02*
X83198094Y-128154819D01*
X82293332Y-127154819D02*
X81674285Y-127154819D01*
X81674285Y-127154819D02*
X82007618Y-127535771D01*
X82007618Y-127535771D02*
X81864761Y-127535771D01*
X81864761Y-127535771D02*
X81769523Y-127583390D01*
X81769523Y-127583390D02*
X81721904Y-127631009D01*
X81721904Y-127631009D02*
X81674285Y-127726247D01*
X81674285Y-127726247D02*
X81674285Y-127964342D01*
X81674285Y-127964342D02*
X81721904Y-128059580D01*
X81721904Y-128059580D02*
X81769523Y-128107200D01*
X81769523Y-128107200D02*
X81864761Y-128154819D01*
X81864761Y-128154819D02*
X82150475Y-128154819D01*
X82150475Y-128154819D02*
X82245713Y-128107200D01*
X82245713Y-128107200D02*
X82293332Y-128059580D01*
X78911904Y-127834819D02*
X78911904Y-126834819D01*
X78340476Y-127834819D02*
X78769047Y-127263390D01*
X78340476Y-126834819D02*
X78911904Y-127406247D01*
X158064285Y-107034819D02*
X158064285Y-106034819D01*
X158064285Y-106034819D02*
X157826190Y-106034819D01*
X157826190Y-106034819D02*
X157683333Y-106082438D01*
X157683333Y-106082438D02*
X157588095Y-106177676D01*
X157588095Y-106177676D02*
X157540476Y-106272914D01*
X157540476Y-106272914D02*
X157492857Y-106463390D01*
X157492857Y-106463390D02*
X157492857Y-106606247D01*
X157492857Y-106606247D02*
X157540476Y-106796723D01*
X157540476Y-106796723D02*
X157588095Y-106891961D01*
X157588095Y-106891961D02*
X157683333Y-106987200D01*
X157683333Y-106987200D02*
X157826190Y-107034819D01*
X157826190Y-107034819D02*
X158064285Y-107034819D01*
X156540476Y-107034819D02*
X157111904Y-107034819D01*
X156826190Y-107034819D02*
X156826190Y-106034819D01*
X156826190Y-106034819D02*
X156921428Y-106177676D01*
X156921428Y-106177676D02*
X157016666Y-106272914D01*
X157016666Y-106272914D02*
X157111904Y-106320533D01*
X156207142Y-106034819D02*
X155540476Y-106034819D01*
X155540476Y-106034819D02*
X155969047Y-107034819D01*
X155301904Y-106834819D02*
X155301904Y-105834819D01*
X154730476Y-106834819D02*
X155159047Y-106263390D01*
X154730476Y-105834819D02*
X155301904Y-106406247D01*
X102198094Y-128154819D02*
X102198094Y-127154819D01*
X102198094Y-127154819D02*
X101959999Y-127154819D01*
X101959999Y-127154819D02*
X101817142Y-127202438D01*
X101817142Y-127202438D02*
X101721904Y-127297676D01*
X101721904Y-127297676D02*
X101674285Y-127392914D01*
X101674285Y-127392914D02*
X101626666Y-127583390D01*
X101626666Y-127583390D02*
X101626666Y-127726247D01*
X101626666Y-127726247D02*
X101674285Y-127916723D01*
X101674285Y-127916723D02*
X101721904Y-128011961D01*
X101721904Y-128011961D02*
X101817142Y-128107200D01*
X101817142Y-128107200D02*
X101959999Y-128154819D01*
X101959999Y-128154819D02*
X102198094Y-128154819D01*
X100769523Y-127488152D02*
X100769523Y-128154819D01*
X101007618Y-127107200D02*
X101245713Y-127821485D01*
X101245713Y-127821485D02*
X100626666Y-127821485D01*
X97911904Y-127834819D02*
X97911904Y-126834819D01*
X97340476Y-127834819D02*
X97769047Y-127263390D01*
X97340476Y-126834819D02*
X97911904Y-127406247D01*
X64198094Y-128154819D02*
X64198094Y-127154819D01*
X64198094Y-127154819D02*
X63959999Y-127154819D01*
X63959999Y-127154819D02*
X63817142Y-127202438D01*
X63817142Y-127202438D02*
X63721904Y-127297676D01*
X63721904Y-127297676D02*
X63674285Y-127392914D01*
X63674285Y-127392914D02*
X63626666Y-127583390D01*
X63626666Y-127583390D02*
X63626666Y-127726247D01*
X63626666Y-127726247D02*
X63674285Y-127916723D01*
X63674285Y-127916723D02*
X63721904Y-128011961D01*
X63721904Y-128011961D02*
X63817142Y-128107200D01*
X63817142Y-128107200D02*
X63959999Y-128154819D01*
X63959999Y-128154819D02*
X64198094Y-128154819D01*
X63245713Y-127250057D02*
X63198094Y-127202438D01*
X63198094Y-127202438D02*
X63102856Y-127154819D01*
X63102856Y-127154819D02*
X62864761Y-127154819D01*
X62864761Y-127154819D02*
X62769523Y-127202438D01*
X62769523Y-127202438D02*
X62721904Y-127250057D01*
X62721904Y-127250057D02*
X62674285Y-127345295D01*
X62674285Y-127345295D02*
X62674285Y-127440533D01*
X62674285Y-127440533D02*
X62721904Y-127583390D01*
X62721904Y-127583390D02*
X63293332Y-128154819D01*
X63293332Y-128154819D02*
X62674285Y-128154819D01*
X59911904Y-127834819D02*
X59911904Y-126834819D01*
X59340476Y-127834819D02*
X59769047Y-127263390D01*
X59340476Y-126834819D02*
X59911904Y-127406247D01*
X83504285Y-115034819D02*
X83504285Y-114034819D01*
X83504285Y-114034819D02*
X83266190Y-114034819D01*
X83266190Y-114034819D02*
X83123333Y-114082438D01*
X83123333Y-114082438D02*
X83028095Y-114177676D01*
X83028095Y-114177676D02*
X82980476Y-114272914D01*
X82980476Y-114272914D02*
X82932857Y-114463390D01*
X82932857Y-114463390D02*
X82932857Y-114606247D01*
X82932857Y-114606247D02*
X82980476Y-114796723D01*
X82980476Y-114796723D02*
X83028095Y-114891961D01*
X83028095Y-114891961D02*
X83123333Y-114987200D01*
X83123333Y-114987200D02*
X83266190Y-115034819D01*
X83266190Y-115034819D02*
X83504285Y-115034819D01*
X81980476Y-115034819D02*
X82551904Y-115034819D01*
X82266190Y-115034819D02*
X82266190Y-114034819D01*
X82266190Y-114034819D02*
X82361428Y-114177676D01*
X82361428Y-114177676D02*
X82456666Y-114272914D01*
X82456666Y-114272914D02*
X82551904Y-114320533D01*
X81647142Y-114034819D02*
X81028095Y-114034819D01*
X81028095Y-114034819D02*
X81361428Y-114415771D01*
X81361428Y-114415771D02*
X81218571Y-114415771D01*
X81218571Y-114415771D02*
X81123333Y-114463390D01*
X81123333Y-114463390D02*
X81075714Y-114511009D01*
X81075714Y-114511009D02*
X81028095Y-114606247D01*
X81028095Y-114606247D02*
X81028095Y-114844342D01*
X81028095Y-114844342D02*
X81075714Y-114939580D01*
X81075714Y-114939580D02*
X81123333Y-114987200D01*
X81123333Y-114987200D02*
X81218571Y-115034819D01*
X81218571Y-115034819D02*
X81504285Y-115034819D01*
X81504285Y-115034819D02*
X81599523Y-114987200D01*
X81599523Y-114987200D02*
X81647142Y-114939580D01*
X78741904Y-106834819D02*
X78741904Y-105834819D01*
X78170476Y-106834819D02*
X78599047Y-106263390D01*
X78170476Y-105834819D02*
X78741904Y-106406247D01*
X139064285Y-115034819D02*
X139064285Y-114034819D01*
X139064285Y-114034819D02*
X138826190Y-114034819D01*
X138826190Y-114034819D02*
X138683333Y-114082438D01*
X138683333Y-114082438D02*
X138588095Y-114177676D01*
X138588095Y-114177676D02*
X138540476Y-114272914D01*
X138540476Y-114272914D02*
X138492857Y-114463390D01*
X138492857Y-114463390D02*
X138492857Y-114606247D01*
X138492857Y-114606247D02*
X138540476Y-114796723D01*
X138540476Y-114796723D02*
X138588095Y-114891961D01*
X138588095Y-114891961D02*
X138683333Y-114987200D01*
X138683333Y-114987200D02*
X138826190Y-115034819D01*
X138826190Y-115034819D02*
X139064285Y-115034819D01*
X137540476Y-115034819D02*
X138111904Y-115034819D01*
X137826190Y-115034819D02*
X137826190Y-114034819D01*
X137826190Y-114034819D02*
X137921428Y-114177676D01*
X137921428Y-114177676D02*
X138016666Y-114272914D01*
X138016666Y-114272914D02*
X138111904Y-114320533D01*
X136683333Y-114034819D02*
X136873809Y-114034819D01*
X136873809Y-114034819D02*
X136969047Y-114082438D01*
X136969047Y-114082438D02*
X137016666Y-114130057D01*
X137016666Y-114130057D02*
X137111904Y-114272914D01*
X137111904Y-114272914D02*
X137159523Y-114463390D01*
X137159523Y-114463390D02*
X137159523Y-114844342D01*
X137159523Y-114844342D02*
X137111904Y-114939580D01*
X137111904Y-114939580D02*
X137064285Y-114987200D01*
X137064285Y-114987200D02*
X136969047Y-115034819D01*
X136969047Y-115034819D02*
X136778571Y-115034819D01*
X136778571Y-115034819D02*
X136683333Y-114987200D01*
X136683333Y-114987200D02*
X136635714Y-114939580D01*
X136635714Y-114939580D02*
X136588095Y-114844342D01*
X136588095Y-114844342D02*
X136588095Y-114606247D01*
X136588095Y-114606247D02*
X136635714Y-114511009D01*
X136635714Y-114511009D02*
X136683333Y-114463390D01*
X136683333Y-114463390D02*
X136778571Y-114415771D01*
X136778571Y-114415771D02*
X136969047Y-114415771D01*
X136969047Y-114415771D02*
X137064285Y-114463390D01*
X137064285Y-114463390D02*
X137111904Y-114511009D01*
X137111904Y-114511009D02*
X137159523Y-114606247D01*
X136301904Y-106834819D02*
X136301904Y-105834819D01*
X135730476Y-106834819D02*
X136159047Y-106263390D01*
X135730476Y-105834819D02*
X136301904Y-106406247D01*
X178198094Y-128154819D02*
X178198094Y-127154819D01*
X178198094Y-127154819D02*
X177959999Y-127154819D01*
X177959999Y-127154819D02*
X177817142Y-127202438D01*
X177817142Y-127202438D02*
X177721904Y-127297676D01*
X177721904Y-127297676D02*
X177674285Y-127392914D01*
X177674285Y-127392914D02*
X177626666Y-127583390D01*
X177626666Y-127583390D02*
X177626666Y-127726247D01*
X177626666Y-127726247D02*
X177674285Y-127916723D01*
X177674285Y-127916723D02*
X177721904Y-128011961D01*
X177721904Y-128011961D02*
X177817142Y-128107200D01*
X177817142Y-128107200D02*
X177959999Y-128154819D01*
X177959999Y-128154819D02*
X178198094Y-128154819D01*
X177055237Y-127583390D02*
X177150475Y-127535771D01*
X177150475Y-127535771D02*
X177198094Y-127488152D01*
X177198094Y-127488152D02*
X177245713Y-127392914D01*
X177245713Y-127392914D02*
X177245713Y-127345295D01*
X177245713Y-127345295D02*
X177198094Y-127250057D01*
X177198094Y-127250057D02*
X177150475Y-127202438D01*
X177150475Y-127202438D02*
X177055237Y-127154819D01*
X177055237Y-127154819D02*
X176864761Y-127154819D01*
X176864761Y-127154819D02*
X176769523Y-127202438D01*
X176769523Y-127202438D02*
X176721904Y-127250057D01*
X176721904Y-127250057D02*
X176674285Y-127345295D01*
X176674285Y-127345295D02*
X176674285Y-127392914D01*
X176674285Y-127392914D02*
X176721904Y-127488152D01*
X176721904Y-127488152D02*
X176769523Y-127535771D01*
X176769523Y-127535771D02*
X176864761Y-127583390D01*
X176864761Y-127583390D02*
X177055237Y-127583390D01*
X177055237Y-127583390D02*
X177150475Y-127631009D01*
X177150475Y-127631009D02*
X177198094Y-127678628D01*
X177198094Y-127678628D02*
X177245713Y-127773866D01*
X177245713Y-127773866D02*
X177245713Y-127964342D01*
X177245713Y-127964342D02*
X177198094Y-128059580D01*
X177198094Y-128059580D02*
X177150475Y-128107200D01*
X177150475Y-128107200D02*
X177055237Y-128154819D01*
X177055237Y-128154819D02*
X176864761Y-128154819D01*
X176864761Y-128154819D02*
X176769523Y-128107200D01*
X176769523Y-128107200D02*
X176721904Y-128059580D01*
X176721904Y-128059580D02*
X176674285Y-127964342D01*
X176674285Y-127964342D02*
X176674285Y-127773866D01*
X176674285Y-127773866D02*
X176721904Y-127678628D01*
X176721904Y-127678628D02*
X176769523Y-127631009D01*
X176769523Y-127631009D02*
X176864761Y-127583390D01*
X173911904Y-127834819D02*
X173911904Y-126834819D01*
X173340476Y-127834819D02*
X173769047Y-127263390D01*
X173340476Y-126834819D02*
X173911904Y-127406247D01*
X222674285Y-105034819D02*
X222674285Y-104034819D01*
X222674285Y-104034819D02*
X222436190Y-104034819D01*
X222436190Y-104034819D02*
X222293333Y-104082438D01*
X222293333Y-104082438D02*
X222198095Y-104177676D01*
X222198095Y-104177676D02*
X222150476Y-104272914D01*
X222150476Y-104272914D02*
X222102857Y-104463390D01*
X222102857Y-104463390D02*
X222102857Y-104606247D01*
X222102857Y-104606247D02*
X222150476Y-104796723D01*
X222150476Y-104796723D02*
X222198095Y-104891961D01*
X222198095Y-104891961D02*
X222293333Y-104987200D01*
X222293333Y-104987200D02*
X222436190Y-105034819D01*
X222436190Y-105034819D02*
X222674285Y-105034819D01*
X221721904Y-104130057D02*
X221674285Y-104082438D01*
X221674285Y-104082438D02*
X221579047Y-104034819D01*
X221579047Y-104034819D02*
X221340952Y-104034819D01*
X221340952Y-104034819D02*
X221245714Y-104082438D01*
X221245714Y-104082438D02*
X221198095Y-104130057D01*
X221198095Y-104130057D02*
X221150476Y-104225295D01*
X221150476Y-104225295D02*
X221150476Y-104320533D01*
X221150476Y-104320533D02*
X221198095Y-104463390D01*
X221198095Y-104463390D02*
X221769523Y-105034819D01*
X221769523Y-105034819D02*
X221150476Y-105034819D01*
X220531428Y-104034819D02*
X220436190Y-104034819D01*
X220436190Y-104034819D02*
X220340952Y-104082438D01*
X220340952Y-104082438D02*
X220293333Y-104130057D01*
X220293333Y-104130057D02*
X220245714Y-104225295D01*
X220245714Y-104225295D02*
X220198095Y-104415771D01*
X220198095Y-104415771D02*
X220198095Y-104653866D01*
X220198095Y-104653866D02*
X220245714Y-104844342D01*
X220245714Y-104844342D02*
X220293333Y-104939580D01*
X220293333Y-104939580D02*
X220340952Y-104987200D01*
X220340952Y-104987200D02*
X220436190Y-105034819D01*
X220436190Y-105034819D02*
X220531428Y-105034819D01*
X220531428Y-105034819D02*
X220626666Y-104987200D01*
X220626666Y-104987200D02*
X220674285Y-104939580D01*
X220674285Y-104939580D02*
X220721904Y-104844342D01*
X220721904Y-104844342D02*
X220769523Y-104653866D01*
X220769523Y-104653866D02*
X220769523Y-104415771D01*
X220769523Y-104415771D02*
X220721904Y-104225295D01*
X220721904Y-104225295D02*
X220674285Y-104130057D01*
X220674285Y-104130057D02*
X220626666Y-104082438D01*
X220626666Y-104082438D02*
X220531428Y-104034819D01*
X217911904Y-104714819D02*
X217911904Y-103714819D01*
X217340476Y-104714819D02*
X217769047Y-104143390D01*
X217340476Y-103714819D02*
X217911904Y-104286247D01*
X159198094Y-128154819D02*
X159198094Y-127154819D01*
X159198094Y-127154819D02*
X158959999Y-127154819D01*
X158959999Y-127154819D02*
X158817142Y-127202438D01*
X158817142Y-127202438D02*
X158721904Y-127297676D01*
X158721904Y-127297676D02*
X158674285Y-127392914D01*
X158674285Y-127392914D02*
X158626666Y-127583390D01*
X158626666Y-127583390D02*
X158626666Y-127726247D01*
X158626666Y-127726247D02*
X158674285Y-127916723D01*
X158674285Y-127916723D02*
X158721904Y-128011961D01*
X158721904Y-128011961D02*
X158817142Y-128107200D01*
X158817142Y-128107200D02*
X158959999Y-128154819D01*
X158959999Y-128154819D02*
X159198094Y-128154819D01*
X158293332Y-127154819D02*
X157626666Y-127154819D01*
X157626666Y-127154819D02*
X158055237Y-128154819D01*
X154911904Y-127834819D02*
X154911904Y-126834819D01*
X154340476Y-127834819D02*
X154769047Y-127263390D01*
X154340476Y-126834819D02*
X154911904Y-127406247D01*
X194904285Y-115034819D02*
X194904285Y-114034819D01*
X194904285Y-114034819D02*
X194666190Y-114034819D01*
X194666190Y-114034819D02*
X194523333Y-114082438D01*
X194523333Y-114082438D02*
X194428095Y-114177676D01*
X194428095Y-114177676D02*
X194380476Y-114272914D01*
X194380476Y-114272914D02*
X194332857Y-114463390D01*
X194332857Y-114463390D02*
X194332857Y-114606247D01*
X194332857Y-114606247D02*
X194380476Y-114796723D01*
X194380476Y-114796723D02*
X194428095Y-114891961D01*
X194428095Y-114891961D02*
X194523333Y-114987200D01*
X194523333Y-114987200D02*
X194666190Y-115034819D01*
X194666190Y-115034819D02*
X194904285Y-115034819D01*
X193380476Y-115034819D02*
X193951904Y-115034819D01*
X193666190Y-115034819D02*
X193666190Y-114034819D01*
X193666190Y-114034819D02*
X193761428Y-114177676D01*
X193761428Y-114177676D02*
X193856666Y-114272914D01*
X193856666Y-114272914D02*
X193951904Y-114320533D01*
X192904285Y-115034819D02*
X192713809Y-115034819D01*
X192713809Y-115034819D02*
X192618571Y-114987200D01*
X192618571Y-114987200D02*
X192570952Y-114939580D01*
X192570952Y-114939580D02*
X192475714Y-114796723D01*
X192475714Y-114796723D02*
X192428095Y-114606247D01*
X192428095Y-114606247D02*
X192428095Y-114225295D01*
X192428095Y-114225295D02*
X192475714Y-114130057D01*
X192475714Y-114130057D02*
X192523333Y-114082438D01*
X192523333Y-114082438D02*
X192618571Y-114034819D01*
X192618571Y-114034819D02*
X192809047Y-114034819D01*
X192809047Y-114034819D02*
X192904285Y-114082438D01*
X192904285Y-114082438D02*
X192951904Y-114130057D01*
X192951904Y-114130057D02*
X192999523Y-114225295D01*
X192999523Y-114225295D02*
X192999523Y-114463390D01*
X192999523Y-114463390D02*
X192951904Y-114558628D01*
X192951904Y-114558628D02*
X192904285Y-114606247D01*
X192904285Y-114606247D02*
X192809047Y-114653866D01*
X192809047Y-114653866D02*
X192618571Y-114653866D01*
X192618571Y-114653866D02*
X192523333Y-114606247D01*
X192523333Y-114606247D02*
X192475714Y-114558628D01*
X192475714Y-114558628D02*
X192428095Y-114463390D01*
X193411904Y-106834819D02*
X193411904Y-105834819D01*
X192840476Y-106834819D02*
X193269047Y-106263390D01*
X192840476Y-105834819D02*
X193411904Y-106406247D01*
X224674285Y-128654819D02*
X224674285Y-127654819D01*
X224674285Y-127654819D02*
X224436190Y-127654819D01*
X224436190Y-127654819D02*
X224293333Y-127702438D01*
X224293333Y-127702438D02*
X224198095Y-127797676D01*
X224198095Y-127797676D02*
X224150476Y-127892914D01*
X224150476Y-127892914D02*
X224102857Y-128083390D01*
X224102857Y-128083390D02*
X224102857Y-128226247D01*
X224102857Y-128226247D02*
X224150476Y-128416723D01*
X224150476Y-128416723D02*
X224198095Y-128511961D01*
X224198095Y-128511961D02*
X224293333Y-128607200D01*
X224293333Y-128607200D02*
X224436190Y-128654819D01*
X224436190Y-128654819D02*
X224674285Y-128654819D01*
X223150476Y-128654819D02*
X223721904Y-128654819D01*
X223436190Y-128654819D02*
X223436190Y-127654819D01*
X223436190Y-127654819D02*
X223531428Y-127797676D01*
X223531428Y-127797676D02*
X223626666Y-127892914D01*
X223626666Y-127892914D02*
X223721904Y-127940533D01*
X222531428Y-127654819D02*
X222436190Y-127654819D01*
X222436190Y-127654819D02*
X222340952Y-127702438D01*
X222340952Y-127702438D02*
X222293333Y-127750057D01*
X222293333Y-127750057D02*
X222245714Y-127845295D01*
X222245714Y-127845295D02*
X222198095Y-128035771D01*
X222198095Y-128035771D02*
X222198095Y-128273866D01*
X222198095Y-128273866D02*
X222245714Y-128464342D01*
X222245714Y-128464342D02*
X222293333Y-128559580D01*
X222293333Y-128559580D02*
X222340952Y-128607200D01*
X222340952Y-128607200D02*
X222436190Y-128654819D01*
X222436190Y-128654819D02*
X222531428Y-128654819D01*
X222531428Y-128654819D02*
X222626666Y-128607200D01*
X222626666Y-128607200D02*
X222674285Y-128559580D01*
X222674285Y-128559580D02*
X222721904Y-128464342D01*
X222721904Y-128464342D02*
X222769523Y-128273866D01*
X222769523Y-128273866D02*
X222769523Y-128035771D01*
X222769523Y-128035771D02*
X222721904Y-127845295D01*
X222721904Y-127845295D02*
X222674285Y-127750057D01*
X222674285Y-127750057D02*
X222626666Y-127702438D01*
X222626666Y-127702438D02*
X222531428Y-127654819D01*
X219911904Y-128334819D02*
X219911904Y-127334819D01*
X219340476Y-128334819D02*
X219769047Y-127763390D01*
X219340476Y-127334819D02*
X219911904Y-127906247D01*
X122014285Y-115034819D02*
X122014285Y-114034819D01*
X122014285Y-114034819D02*
X121776190Y-114034819D01*
X121776190Y-114034819D02*
X121633333Y-114082438D01*
X121633333Y-114082438D02*
X121538095Y-114177676D01*
X121538095Y-114177676D02*
X121490476Y-114272914D01*
X121490476Y-114272914D02*
X121442857Y-114463390D01*
X121442857Y-114463390D02*
X121442857Y-114606247D01*
X121442857Y-114606247D02*
X121490476Y-114796723D01*
X121490476Y-114796723D02*
X121538095Y-114891961D01*
X121538095Y-114891961D02*
X121633333Y-114987200D01*
X121633333Y-114987200D02*
X121776190Y-115034819D01*
X121776190Y-115034819D02*
X122014285Y-115034819D01*
X120490476Y-115034819D02*
X121061904Y-115034819D01*
X120776190Y-115034819D02*
X120776190Y-114034819D01*
X120776190Y-114034819D02*
X120871428Y-114177676D01*
X120871428Y-114177676D02*
X120966666Y-114272914D01*
X120966666Y-114272914D02*
X121061904Y-114320533D01*
X119585714Y-114034819D02*
X120061904Y-114034819D01*
X120061904Y-114034819D02*
X120109523Y-114511009D01*
X120109523Y-114511009D02*
X120061904Y-114463390D01*
X120061904Y-114463390D02*
X119966666Y-114415771D01*
X119966666Y-114415771D02*
X119728571Y-114415771D01*
X119728571Y-114415771D02*
X119633333Y-114463390D01*
X119633333Y-114463390D02*
X119585714Y-114511009D01*
X119585714Y-114511009D02*
X119538095Y-114606247D01*
X119538095Y-114606247D02*
X119538095Y-114844342D01*
X119538095Y-114844342D02*
X119585714Y-114939580D01*
X119585714Y-114939580D02*
X119633333Y-114987200D01*
X119633333Y-114987200D02*
X119728571Y-115034819D01*
X119728571Y-115034819D02*
X119966666Y-115034819D01*
X119966666Y-115034819D02*
X120061904Y-114987200D01*
X120061904Y-114987200D02*
X120109523Y-114939580D01*
X117251904Y-106834819D02*
X117251904Y-105834819D01*
X116680476Y-106834819D02*
X117109047Y-106263390D01*
X116680476Y-105834819D02*
X117251904Y-106406247D01*
X45864285Y-115034819D02*
X45864285Y-114034819D01*
X45864285Y-114034819D02*
X45626190Y-114034819D01*
X45626190Y-114034819D02*
X45483333Y-114082438D01*
X45483333Y-114082438D02*
X45388095Y-114177676D01*
X45388095Y-114177676D02*
X45340476Y-114272914D01*
X45340476Y-114272914D02*
X45292857Y-114463390D01*
X45292857Y-114463390D02*
X45292857Y-114606247D01*
X45292857Y-114606247D02*
X45340476Y-114796723D01*
X45340476Y-114796723D02*
X45388095Y-114891961D01*
X45388095Y-114891961D02*
X45483333Y-114987200D01*
X45483333Y-114987200D02*
X45626190Y-115034819D01*
X45626190Y-115034819D02*
X45864285Y-115034819D01*
X44340476Y-115034819D02*
X44911904Y-115034819D01*
X44626190Y-115034819D02*
X44626190Y-114034819D01*
X44626190Y-114034819D02*
X44721428Y-114177676D01*
X44721428Y-114177676D02*
X44816666Y-114272914D01*
X44816666Y-114272914D02*
X44911904Y-114320533D01*
X43388095Y-115034819D02*
X43959523Y-115034819D01*
X43673809Y-115034819D02*
X43673809Y-114034819D01*
X43673809Y-114034819D02*
X43769047Y-114177676D01*
X43769047Y-114177676D02*
X43864285Y-114272914D01*
X43864285Y-114272914D02*
X43959523Y-114320533D01*
X41101904Y-106834819D02*
X41101904Y-105834819D01*
X40530476Y-106834819D02*
X40959047Y-106263390D01*
X40530476Y-105834819D02*
X41101904Y-106406247D01*
X45198094Y-128154819D02*
X45198094Y-127154819D01*
X45198094Y-127154819D02*
X44959999Y-127154819D01*
X44959999Y-127154819D02*
X44817142Y-127202438D01*
X44817142Y-127202438D02*
X44721904Y-127297676D01*
X44721904Y-127297676D02*
X44674285Y-127392914D01*
X44674285Y-127392914D02*
X44626666Y-127583390D01*
X44626666Y-127583390D02*
X44626666Y-127726247D01*
X44626666Y-127726247D02*
X44674285Y-127916723D01*
X44674285Y-127916723D02*
X44721904Y-128011961D01*
X44721904Y-128011961D02*
X44817142Y-128107200D01*
X44817142Y-128107200D02*
X44959999Y-128154819D01*
X44959999Y-128154819D02*
X45198094Y-128154819D01*
X43674285Y-128154819D02*
X44245713Y-128154819D01*
X43959999Y-128154819D02*
X43959999Y-127154819D01*
X43959999Y-127154819D02*
X44055237Y-127297676D01*
X44055237Y-127297676D02*
X44150475Y-127392914D01*
X44150475Y-127392914D02*
X44245713Y-127440533D01*
X40911904Y-127834819D02*
X40911904Y-126834819D01*
X40340476Y-127834819D02*
X40769047Y-127263390D01*
X40340476Y-126834819D02*
X40911904Y-127406247D01*
X64454285Y-115034819D02*
X64454285Y-114034819D01*
X64454285Y-114034819D02*
X64216190Y-114034819D01*
X64216190Y-114034819D02*
X64073333Y-114082438D01*
X64073333Y-114082438D02*
X63978095Y-114177676D01*
X63978095Y-114177676D02*
X63930476Y-114272914D01*
X63930476Y-114272914D02*
X63882857Y-114463390D01*
X63882857Y-114463390D02*
X63882857Y-114606247D01*
X63882857Y-114606247D02*
X63930476Y-114796723D01*
X63930476Y-114796723D02*
X63978095Y-114891961D01*
X63978095Y-114891961D02*
X64073333Y-114987200D01*
X64073333Y-114987200D02*
X64216190Y-115034819D01*
X64216190Y-115034819D02*
X64454285Y-115034819D01*
X62930476Y-115034819D02*
X63501904Y-115034819D01*
X63216190Y-115034819D02*
X63216190Y-114034819D01*
X63216190Y-114034819D02*
X63311428Y-114177676D01*
X63311428Y-114177676D02*
X63406666Y-114272914D01*
X63406666Y-114272914D02*
X63501904Y-114320533D01*
X62549523Y-114130057D02*
X62501904Y-114082438D01*
X62501904Y-114082438D02*
X62406666Y-114034819D01*
X62406666Y-114034819D02*
X62168571Y-114034819D01*
X62168571Y-114034819D02*
X62073333Y-114082438D01*
X62073333Y-114082438D02*
X62025714Y-114130057D01*
X62025714Y-114130057D02*
X61978095Y-114225295D01*
X61978095Y-114225295D02*
X61978095Y-114320533D01*
X61978095Y-114320533D02*
X62025714Y-114463390D01*
X62025714Y-114463390D02*
X62597142Y-115034819D01*
X62597142Y-115034819D02*
X61978095Y-115034819D01*
X59691904Y-106834819D02*
X59691904Y-105834819D01*
X59120476Y-106834819D02*
X59549047Y-106263390D01*
X59120476Y-105834819D02*
X59691904Y-106406247D01*
X105364285Y-115034819D02*
X105364285Y-114034819D01*
X105364285Y-114034819D02*
X105126190Y-114034819D01*
X105126190Y-114034819D02*
X104983333Y-114082438D01*
X104983333Y-114082438D02*
X104888095Y-114177676D01*
X104888095Y-114177676D02*
X104840476Y-114272914D01*
X104840476Y-114272914D02*
X104792857Y-114463390D01*
X104792857Y-114463390D02*
X104792857Y-114606247D01*
X104792857Y-114606247D02*
X104840476Y-114796723D01*
X104840476Y-114796723D02*
X104888095Y-114891961D01*
X104888095Y-114891961D02*
X104983333Y-114987200D01*
X104983333Y-114987200D02*
X105126190Y-115034819D01*
X105126190Y-115034819D02*
X105364285Y-115034819D01*
X103840476Y-115034819D02*
X104411904Y-115034819D01*
X104126190Y-115034819D02*
X104126190Y-114034819D01*
X104126190Y-114034819D02*
X104221428Y-114177676D01*
X104221428Y-114177676D02*
X104316666Y-114272914D01*
X104316666Y-114272914D02*
X104411904Y-114320533D01*
X102983333Y-114368152D02*
X102983333Y-115034819D01*
X103221428Y-113987200D02*
X103459523Y-114701485D01*
X103459523Y-114701485D02*
X102840476Y-114701485D01*
X100601904Y-107034819D02*
X100601904Y-106034819D01*
X100030476Y-107034819D02*
X100459047Y-106463390D01*
X100030476Y-106034819D02*
X100601904Y-106606247D01*
X140198094Y-128154819D02*
X140198094Y-127154819D01*
X140198094Y-127154819D02*
X139959999Y-127154819D01*
X139959999Y-127154819D02*
X139817142Y-127202438D01*
X139817142Y-127202438D02*
X139721904Y-127297676D01*
X139721904Y-127297676D02*
X139674285Y-127392914D01*
X139674285Y-127392914D02*
X139626666Y-127583390D01*
X139626666Y-127583390D02*
X139626666Y-127726247D01*
X139626666Y-127726247D02*
X139674285Y-127916723D01*
X139674285Y-127916723D02*
X139721904Y-128011961D01*
X139721904Y-128011961D02*
X139817142Y-128107200D01*
X139817142Y-128107200D02*
X139959999Y-128154819D01*
X139959999Y-128154819D02*
X140198094Y-128154819D01*
X138769523Y-127154819D02*
X138959999Y-127154819D01*
X138959999Y-127154819D02*
X139055237Y-127202438D01*
X139055237Y-127202438D02*
X139102856Y-127250057D01*
X139102856Y-127250057D02*
X139198094Y-127392914D01*
X139198094Y-127392914D02*
X139245713Y-127583390D01*
X139245713Y-127583390D02*
X139245713Y-127964342D01*
X139245713Y-127964342D02*
X139198094Y-128059580D01*
X139198094Y-128059580D02*
X139150475Y-128107200D01*
X139150475Y-128107200D02*
X139055237Y-128154819D01*
X139055237Y-128154819D02*
X138864761Y-128154819D01*
X138864761Y-128154819D02*
X138769523Y-128107200D01*
X138769523Y-128107200D02*
X138721904Y-128059580D01*
X138721904Y-128059580D02*
X138674285Y-127964342D01*
X138674285Y-127964342D02*
X138674285Y-127726247D01*
X138674285Y-127726247D02*
X138721904Y-127631009D01*
X138721904Y-127631009D02*
X138769523Y-127583390D01*
X138769523Y-127583390D02*
X138864761Y-127535771D01*
X138864761Y-127535771D02*
X139055237Y-127535771D01*
X139055237Y-127535771D02*
X139150475Y-127583390D01*
X139150475Y-127583390D02*
X139198094Y-127631009D01*
X139198094Y-127631009D02*
X139245713Y-127726247D01*
X135911904Y-127834819D02*
X135911904Y-126834819D01*
X135340476Y-127834819D02*
X135769047Y-127263390D01*
X135340476Y-126834819D02*
X135911904Y-127406247D01*
X121198094Y-128154819D02*
X121198094Y-127154819D01*
X121198094Y-127154819D02*
X120959999Y-127154819D01*
X120959999Y-127154819D02*
X120817142Y-127202438D01*
X120817142Y-127202438D02*
X120721904Y-127297676D01*
X120721904Y-127297676D02*
X120674285Y-127392914D01*
X120674285Y-127392914D02*
X120626666Y-127583390D01*
X120626666Y-127583390D02*
X120626666Y-127726247D01*
X120626666Y-127726247D02*
X120674285Y-127916723D01*
X120674285Y-127916723D02*
X120721904Y-128011961D01*
X120721904Y-128011961D02*
X120817142Y-128107200D01*
X120817142Y-128107200D02*
X120959999Y-128154819D01*
X120959999Y-128154819D02*
X121198094Y-128154819D01*
X119721904Y-127154819D02*
X120198094Y-127154819D01*
X120198094Y-127154819D02*
X120245713Y-127631009D01*
X120245713Y-127631009D02*
X120198094Y-127583390D01*
X120198094Y-127583390D02*
X120102856Y-127535771D01*
X120102856Y-127535771D02*
X119864761Y-127535771D01*
X119864761Y-127535771D02*
X119769523Y-127583390D01*
X119769523Y-127583390D02*
X119721904Y-127631009D01*
X119721904Y-127631009D02*
X119674285Y-127726247D01*
X119674285Y-127726247D02*
X119674285Y-127964342D01*
X119674285Y-127964342D02*
X119721904Y-128059580D01*
X119721904Y-128059580D02*
X119769523Y-128107200D01*
X119769523Y-128107200D02*
X119864761Y-128154819D01*
X119864761Y-128154819D02*
X120102856Y-128154819D01*
X120102856Y-128154819D02*
X120198094Y-128107200D01*
X120198094Y-128107200D02*
X120245713Y-128059580D01*
X116911904Y-127834819D02*
X116911904Y-126834819D01*
X116340476Y-127834819D02*
X116769047Y-127263390D01*
X116340476Y-126834819D02*
X116911904Y-127406247D01*
X198198094Y-128154819D02*
X198198094Y-127154819D01*
X198198094Y-127154819D02*
X197959999Y-127154819D01*
X197959999Y-127154819D02*
X197817142Y-127202438D01*
X197817142Y-127202438D02*
X197721904Y-127297676D01*
X197721904Y-127297676D02*
X197674285Y-127392914D01*
X197674285Y-127392914D02*
X197626666Y-127583390D01*
X197626666Y-127583390D02*
X197626666Y-127726247D01*
X197626666Y-127726247D02*
X197674285Y-127916723D01*
X197674285Y-127916723D02*
X197721904Y-128011961D01*
X197721904Y-128011961D02*
X197817142Y-128107200D01*
X197817142Y-128107200D02*
X197959999Y-128154819D01*
X197959999Y-128154819D02*
X198198094Y-128154819D01*
X197150475Y-128154819D02*
X196959999Y-128154819D01*
X196959999Y-128154819D02*
X196864761Y-128107200D01*
X196864761Y-128107200D02*
X196817142Y-128059580D01*
X196817142Y-128059580D02*
X196721904Y-127916723D01*
X196721904Y-127916723D02*
X196674285Y-127726247D01*
X196674285Y-127726247D02*
X196674285Y-127345295D01*
X196674285Y-127345295D02*
X196721904Y-127250057D01*
X196721904Y-127250057D02*
X196769523Y-127202438D01*
X196769523Y-127202438D02*
X196864761Y-127154819D01*
X196864761Y-127154819D02*
X197055237Y-127154819D01*
X197055237Y-127154819D02*
X197150475Y-127202438D01*
X197150475Y-127202438D02*
X197198094Y-127250057D01*
X197198094Y-127250057D02*
X197245713Y-127345295D01*
X197245713Y-127345295D02*
X197245713Y-127583390D01*
X197245713Y-127583390D02*
X197198094Y-127678628D01*
X197198094Y-127678628D02*
X197150475Y-127726247D01*
X197150475Y-127726247D02*
X197055237Y-127773866D01*
X197055237Y-127773866D02*
X196864761Y-127773866D01*
X196864761Y-127773866D02*
X196769523Y-127726247D01*
X196769523Y-127726247D02*
X196721904Y-127678628D01*
X196721904Y-127678628D02*
X196674285Y-127583390D01*
X193911904Y-127834819D02*
X193911904Y-126834819D01*
X193340476Y-127834819D02*
X193769047Y-127263390D01*
X193340476Y-126834819D02*
X193911904Y-127406247D01*
%TO.C,D18*%
D11*
X175090000Y-104580000D02*
X175740000Y-104580000D01*
X176340000Y-105700000D02*
X176340000Y-103460000D01*
X176460000Y-105700000D02*
X176460000Y-103460000D01*
X176580000Y-105700000D02*
X176580000Y-103460000D01*
X180630000Y-104580000D02*
X179980000Y-104580000D01*
X175740000Y-103460000D02*
X179980000Y-103460000D01*
X179980000Y-105700000D01*
X175740000Y-105700000D01*
X175740000Y-103460000D01*
%TO.C,D3*%
X79690000Y-125580000D02*
X80340000Y-125580000D01*
X80940000Y-126700000D02*
X80940000Y-124460000D01*
X81060000Y-126700000D02*
X81060000Y-124460000D01*
X81180000Y-126700000D02*
X81180000Y-124460000D01*
X85230000Y-125580000D02*
X84580000Y-125580000D01*
X80340000Y-124460000D02*
X84580000Y-124460000D01*
X84580000Y-126700000D01*
X80340000Y-126700000D01*
X80340000Y-124460000D01*
%TO.C,D17*%
X156080000Y-104580000D02*
X156730000Y-104580000D01*
X157330000Y-105700000D02*
X157330000Y-103460000D01*
X157450000Y-105700000D02*
X157450000Y-103460000D01*
X157570000Y-105700000D02*
X157570000Y-103460000D01*
X161620000Y-104580000D02*
X160970000Y-104580000D01*
X156730000Y-103460000D02*
X160970000Y-103460000D01*
X160970000Y-105700000D01*
X156730000Y-105700000D01*
X156730000Y-103460000D01*
%TO.C,D4*%
X98690000Y-125580000D02*
X99340000Y-125580000D01*
X99940000Y-126700000D02*
X99940000Y-124460000D01*
X100060000Y-126700000D02*
X100060000Y-124460000D01*
X100180000Y-126700000D02*
X100180000Y-124460000D01*
X104230000Y-125580000D02*
X103580000Y-125580000D01*
X99340000Y-124460000D02*
X103580000Y-124460000D01*
X103580000Y-126700000D01*
X99340000Y-126700000D01*
X99340000Y-124460000D01*
%TO.C,D2*%
X60690000Y-125580000D02*
X61340000Y-125580000D01*
X61940000Y-126700000D02*
X61940000Y-124460000D01*
X62060000Y-126700000D02*
X62060000Y-124460000D01*
X62180000Y-126700000D02*
X62180000Y-124460000D01*
X66230000Y-125580000D02*
X65580000Y-125580000D01*
X61340000Y-124460000D02*
X65580000Y-124460000D01*
X65580000Y-126700000D01*
X61340000Y-126700000D01*
X61340000Y-124460000D01*
%TO.C,D13*%
X79520000Y-104580000D02*
X80170000Y-104580000D01*
X80770000Y-105700000D02*
X80770000Y-103460000D01*
X80890000Y-105700000D02*
X80890000Y-103460000D01*
X81010000Y-105700000D02*
X81010000Y-103460000D01*
X85060000Y-104580000D02*
X84410000Y-104580000D01*
X80170000Y-103460000D02*
X84410000Y-103460000D01*
X84410000Y-105700000D01*
X80170000Y-105700000D01*
X80170000Y-103460000D01*
%TO.C,D16*%
X137080000Y-104580000D02*
X137730000Y-104580000D01*
X138330000Y-105700000D02*
X138330000Y-103460000D01*
X138450000Y-105700000D02*
X138450000Y-103460000D01*
X138570000Y-105700000D02*
X138570000Y-103460000D01*
X142620000Y-104580000D02*
X141970000Y-104580000D01*
X137730000Y-103460000D02*
X141970000Y-103460000D01*
X141970000Y-105700000D01*
X137730000Y-105700000D01*
X137730000Y-103460000D01*
%TO.C,D8*%
X174690000Y-125580000D02*
X175340000Y-125580000D01*
X175940000Y-126700000D02*
X175940000Y-124460000D01*
X176060000Y-126700000D02*
X176060000Y-124460000D01*
X176180000Y-126700000D02*
X176180000Y-124460000D01*
X180230000Y-125580000D02*
X179580000Y-125580000D01*
X175340000Y-124460000D02*
X179580000Y-124460000D01*
X179580000Y-126700000D01*
X175340000Y-126700000D01*
X175340000Y-124460000D01*
%TO.C,D20*%
X220690000Y-104080000D02*
X221340000Y-104080000D01*
X221940000Y-105200000D02*
X221940000Y-102960000D01*
X222060000Y-105200000D02*
X222060000Y-102960000D01*
X222180000Y-105200000D02*
X222180000Y-102960000D01*
X226230000Y-104080000D02*
X225580000Y-104080000D01*
X221340000Y-102960000D02*
X225580000Y-102960000D01*
X225580000Y-105200000D01*
X221340000Y-105200000D01*
X221340000Y-102960000D01*
%TO.C,D7*%
X155690000Y-125580000D02*
X156340000Y-125580000D01*
X156940000Y-126700000D02*
X156940000Y-124460000D01*
X157060000Y-126700000D02*
X157060000Y-124460000D01*
X157180000Y-126700000D02*
X157180000Y-124460000D01*
X161230000Y-125580000D02*
X160580000Y-125580000D01*
X156340000Y-124460000D02*
X160580000Y-124460000D01*
X160580000Y-126700000D01*
X156340000Y-126700000D01*
X156340000Y-124460000D01*
%TO.C,D19*%
X194190000Y-104580000D02*
X194840000Y-104580000D01*
X195440000Y-105700000D02*
X195440000Y-103460000D01*
X195560000Y-105700000D02*
X195560000Y-103460000D01*
X195680000Y-105700000D02*
X195680000Y-103460000D01*
X199730000Y-104580000D02*
X199080000Y-104580000D01*
X194840000Y-103460000D02*
X199080000Y-103460000D01*
X199080000Y-105700000D01*
X194840000Y-105700000D01*
X194840000Y-103460000D01*
%TO.C,D10*%
X220690000Y-126080000D02*
X221340000Y-126080000D01*
X221940000Y-127200000D02*
X221940000Y-124960000D01*
X222060000Y-127200000D02*
X222060000Y-124960000D01*
X222180000Y-127200000D02*
X222180000Y-124960000D01*
X226230000Y-126080000D02*
X225580000Y-126080000D01*
X221340000Y-124960000D02*
X225580000Y-124960000D01*
X225580000Y-127200000D01*
X221340000Y-127200000D01*
X221340000Y-124960000D01*
%TO.C,D15*%
X118030000Y-104580000D02*
X118680000Y-104580000D01*
X119280000Y-105700000D02*
X119280000Y-103460000D01*
X119400000Y-105700000D02*
X119400000Y-103460000D01*
X119520000Y-105700000D02*
X119520000Y-103460000D01*
X123570000Y-104580000D02*
X122920000Y-104580000D01*
X118680000Y-103460000D02*
X122920000Y-103460000D01*
X122920000Y-105700000D01*
X118680000Y-105700000D01*
X118680000Y-103460000D01*
%TO.C,D11*%
X41880000Y-104580000D02*
X42530000Y-104580000D01*
X43130000Y-105700000D02*
X43130000Y-103460000D01*
X43250000Y-105700000D02*
X43250000Y-103460000D01*
X43370000Y-105700000D02*
X43370000Y-103460000D01*
X47420000Y-104580000D02*
X46770000Y-104580000D01*
X42530000Y-103460000D02*
X46770000Y-103460000D01*
X46770000Y-105700000D01*
X42530000Y-105700000D01*
X42530000Y-103460000D01*
%TO.C,D1*%
X41690000Y-125580000D02*
X42340000Y-125580000D01*
X42940000Y-126700000D02*
X42940000Y-124460000D01*
X43060000Y-126700000D02*
X43060000Y-124460000D01*
X43180000Y-126700000D02*
X43180000Y-124460000D01*
X47230000Y-125580000D02*
X46580000Y-125580000D01*
X42340000Y-124460000D02*
X46580000Y-124460000D01*
X46580000Y-126700000D01*
X42340000Y-126700000D01*
X42340000Y-124460000D01*
%TO.C,D12*%
X60470000Y-104580000D02*
X61120000Y-104580000D01*
X61720000Y-105700000D02*
X61720000Y-103460000D01*
X61840000Y-105700000D02*
X61840000Y-103460000D01*
X61960000Y-105700000D02*
X61960000Y-103460000D01*
X66010000Y-104580000D02*
X65360000Y-104580000D01*
X61120000Y-103460000D02*
X65360000Y-103460000D01*
X65360000Y-105700000D01*
X61120000Y-105700000D01*
X61120000Y-103460000D01*
%TO.C,D14*%
X98570000Y-104580000D02*
X99220000Y-104580000D01*
X99820000Y-105700000D02*
X99820000Y-103460000D01*
X99940000Y-105700000D02*
X99940000Y-103460000D01*
X100060000Y-105700000D02*
X100060000Y-103460000D01*
X104110000Y-104580000D02*
X103460000Y-104580000D01*
X99220000Y-103460000D02*
X103460000Y-103460000D01*
X103460000Y-105700000D01*
X99220000Y-105700000D01*
X99220000Y-103460000D01*
%TO.C,D6*%
X136690000Y-125580000D02*
X137340000Y-125580000D01*
X137940000Y-126700000D02*
X137940000Y-124460000D01*
X138060000Y-126700000D02*
X138060000Y-124460000D01*
X138180000Y-126700000D02*
X138180000Y-124460000D01*
X142230000Y-125580000D02*
X141580000Y-125580000D01*
X137340000Y-124460000D02*
X141580000Y-124460000D01*
X141580000Y-126700000D01*
X137340000Y-126700000D01*
X137340000Y-124460000D01*
%TO.C,D5*%
X117690000Y-125580000D02*
X118340000Y-125580000D01*
X118940000Y-126700000D02*
X118940000Y-124460000D01*
X119060000Y-126700000D02*
X119060000Y-124460000D01*
X119180000Y-126700000D02*
X119180000Y-124460000D01*
X123230000Y-125580000D02*
X122580000Y-125580000D01*
X118340000Y-124460000D02*
X122580000Y-124460000D01*
X122580000Y-126700000D01*
X118340000Y-126700000D01*
X118340000Y-124460000D01*
%TO.C,D9*%
X194690000Y-125580000D02*
X195340000Y-125580000D01*
X195940000Y-126700000D02*
X195940000Y-124460000D01*
X196060000Y-126700000D02*
X196060000Y-124460000D01*
X196180000Y-126700000D02*
X196180000Y-124460000D01*
X200230000Y-125580000D02*
X199580000Y-125580000D01*
X195340000Y-124460000D02*
X199580000Y-124460000D01*
X199580000Y-126700000D01*
X195340000Y-126700000D01*
X195340000Y-124460000D01*
%TD*%
M02*
