%TF.GenerationSoftware,KiCad,Pcbnew,10.0.6*%
%TF.CreationDate,2026-10-06T15:00:38+02:00*%
%TF.ProjectId,KiCad - MIDI-controller,4b694361-6420-42d2-904d-4944492d636f,rev?*%
%TF.SameCoordinates,Original*%
%TF.FileFunction,Legend,Top*%
%TF.FilePolarity,Positive*%
%FSLAX46Y46*%
G04 Gerber Fmt 4.6, Leading zero omitted, Abs format (unit mm)*
G04 Created by KiCad (PCBNEW 10.0.6) date 2026-10-06 15:00:38*
%MOMM*%
%LPD*%
G01*
G04 APERTURE LIST*
G04 Aperture macros list*
%AMRoundRect*
0 Rectangle with rounded corners*
0 $1 Rounding radius*
0 $2 $3 $4 $5 $6 $7 $8 $9 X,Y pos of 4 corners*
0 Add a 4 corners polygon primitive as box body*
4,1,4,$2,$3,$4,$5,$6,$7,$8,$9,$2,$3,0*
0 Add four circle primitives for the rounded corners*
1,1,$1+$1,$2,$3*
1,1,$1+$1,$4,$5*
1,1,$1+$1,$6,$7*
1,1,$1+$1,$8,$9*
0 Add four rect primitives between the rounded corners*
20,1,$1+$1,$2,$3,$4,$5,0*
20,1,$1+$1,$4,$5,$6,$7,0*
20,1,$1+$1,$6,$7,$8,$9,0*
20,1,$1+$1,$8,$9,$2,$3,0*%
G04 Aperture macros list end*
%ADD10C,0.150000*%
%ADD11C,0.120000*%
%ADD12C,0.200000*%
%ADD13C,1.800000*%
%ADD14C,4.400000*%
%ADD15C,3.200000*%
%ADD16C,1.900000*%
%ADD17C,3.450000*%
%ADD18C,2.200000*%
%ADD19R,2.000000X2.000000*%
%ADD20C,2.000000*%
%ADD21R,2.000000X3.200000*%
%ADD22R,1.700000X1.700000*%
%ADD23C,1.700000*%
%ADD24RoundRect,0.250000X0.550000X-0.550000X0.550000X0.550000X-0.550000X0.550000X-0.550000X-0.550000X0*%
%ADD25C,1.600000*%
%ADD26O,1.700000X1.700000*%
%ADD27RoundRect,0.250000X-0.550000X-0.550000X0.550000X-0.550000X0.550000X0.550000X-0.550000X0.550000X0*%
G04 APERTURE END LIST*
D10*
X74894819Y-76651428D02*
X74418628Y-76984761D01*
X74894819Y-77222856D02*
X73894819Y-77222856D01*
X73894819Y-77222856D02*
X73894819Y-76841904D01*
X73894819Y-76841904D02*
X73942438Y-76746666D01*
X73942438Y-76746666D02*
X73990057Y-76699047D01*
X73990057Y-76699047D02*
X74085295Y-76651428D01*
X74085295Y-76651428D02*
X74228152Y-76651428D01*
X74228152Y-76651428D02*
X74323390Y-76699047D01*
X74323390Y-76699047D02*
X74371009Y-76746666D01*
X74371009Y-76746666D02*
X74418628Y-76841904D01*
X74418628Y-76841904D02*
X74418628Y-77222856D01*
X73894819Y-76365713D02*
X74894819Y-76032380D01*
X74894819Y-76032380D02*
X73894819Y-75699047D01*
X74894819Y-74841904D02*
X74894819Y-75413332D01*
X74894819Y-75127618D02*
X73894819Y-75127618D01*
X73894819Y-75127618D02*
X74037676Y-75222856D01*
X74037676Y-75222856D02*
X74132914Y-75318094D01*
X74132914Y-75318094D02*
X74180533Y-75413332D01*
X73894819Y-74508570D02*
X73894819Y-73889523D01*
X73894819Y-73889523D02*
X74275771Y-74222856D01*
X74275771Y-74222856D02*
X74275771Y-74079999D01*
X74275771Y-74079999D02*
X74323390Y-73984761D01*
X74323390Y-73984761D02*
X74371009Y-73937142D01*
X74371009Y-73937142D02*
X74466247Y-73889523D01*
X74466247Y-73889523D02*
X74704342Y-73889523D01*
X74704342Y-73889523D02*
X74799580Y-73937142D01*
X74799580Y-73937142D02*
X74847200Y-73984761D01*
X74847200Y-73984761D02*
X74894819Y-74079999D01*
X74894819Y-74079999D02*
X74894819Y-74365713D01*
X74894819Y-74365713D02*
X74847200Y-74460951D01*
X74847200Y-74460951D02*
X74799580Y-74508570D01*
X138016667Y-105987200D02*
X138159524Y-106034819D01*
X138159524Y-106034819D02*
X138397619Y-106034819D01*
X138397619Y-106034819D02*
X138492857Y-105987200D01*
X138492857Y-105987200D02*
X138540476Y-105939580D01*
X138540476Y-105939580D02*
X138588095Y-105844342D01*
X138588095Y-105844342D02*
X138588095Y-105749104D01*
X138588095Y-105749104D02*
X138540476Y-105653866D01*
X138540476Y-105653866D02*
X138492857Y-105606247D01*
X138492857Y-105606247D02*
X138397619Y-105558628D01*
X138397619Y-105558628D02*
X138207143Y-105511009D01*
X138207143Y-105511009D02*
X138111905Y-105463390D01*
X138111905Y-105463390D02*
X138064286Y-105415771D01*
X138064286Y-105415771D02*
X138016667Y-105320533D01*
X138016667Y-105320533D02*
X138016667Y-105225295D01*
X138016667Y-105225295D02*
X138064286Y-105130057D01*
X138064286Y-105130057D02*
X138111905Y-105082438D01*
X138111905Y-105082438D02*
X138207143Y-105034819D01*
X138207143Y-105034819D02*
X138445238Y-105034819D01*
X138445238Y-105034819D02*
X138588095Y-105082438D01*
X138921429Y-105034819D02*
X139159524Y-106034819D01*
X139159524Y-106034819D02*
X139350000Y-105320533D01*
X139350000Y-105320533D02*
X139540476Y-106034819D01*
X139540476Y-106034819D02*
X139778572Y-105034819D01*
X140588095Y-105034819D02*
X140397619Y-105034819D01*
X140397619Y-105034819D02*
X140302381Y-105082438D01*
X140302381Y-105082438D02*
X140254762Y-105130057D01*
X140254762Y-105130057D02*
X140159524Y-105272914D01*
X140159524Y-105272914D02*
X140111905Y-105463390D01*
X140111905Y-105463390D02*
X140111905Y-105844342D01*
X140111905Y-105844342D02*
X140159524Y-105939580D01*
X140159524Y-105939580D02*
X140207143Y-105987200D01*
X140207143Y-105987200D02*
X140302381Y-106034819D01*
X140302381Y-106034819D02*
X140492857Y-106034819D01*
X140492857Y-106034819D02*
X140588095Y-105987200D01*
X140588095Y-105987200D02*
X140635714Y-105939580D01*
X140635714Y-105939580D02*
X140683333Y-105844342D01*
X140683333Y-105844342D02*
X140683333Y-105606247D01*
X140683333Y-105606247D02*
X140635714Y-105511009D01*
X140635714Y-105511009D02*
X140588095Y-105463390D01*
X140588095Y-105463390D02*
X140492857Y-105415771D01*
X140492857Y-105415771D02*
X140302381Y-105415771D01*
X140302381Y-105415771D02*
X140207143Y-105463390D01*
X140207143Y-105463390D02*
X140159524Y-105511009D01*
X140159524Y-105511009D02*
X140111905Y-105606247D01*
X61430476Y-85487200D02*
X61573333Y-85534819D01*
X61573333Y-85534819D02*
X61811428Y-85534819D01*
X61811428Y-85534819D02*
X61906666Y-85487200D01*
X61906666Y-85487200D02*
X61954285Y-85439580D01*
X61954285Y-85439580D02*
X62001904Y-85344342D01*
X62001904Y-85344342D02*
X62001904Y-85249104D01*
X62001904Y-85249104D02*
X61954285Y-85153866D01*
X61954285Y-85153866D02*
X61906666Y-85106247D01*
X61906666Y-85106247D02*
X61811428Y-85058628D01*
X61811428Y-85058628D02*
X61620952Y-85011009D01*
X61620952Y-85011009D02*
X61525714Y-84963390D01*
X61525714Y-84963390D02*
X61478095Y-84915771D01*
X61478095Y-84915771D02*
X61430476Y-84820533D01*
X61430476Y-84820533D02*
X61430476Y-84725295D01*
X61430476Y-84725295D02*
X61478095Y-84630057D01*
X61478095Y-84630057D02*
X61525714Y-84582438D01*
X61525714Y-84582438D02*
X61620952Y-84534819D01*
X61620952Y-84534819D02*
X61859047Y-84534819D01*
X61859047Y-84534819D02*
X62001904Y-84582438D01*
X62335238Y-84534819D02*
X62573333Y-85534819D01*
X62573333Y-85534819D02*
X62763809Y-84820533D01*
X62763809Y-84820533D02*
X62954285Y-85534819D01*
X62954285Y-85534819D02*
X63192381Y-84534819D01*
X64097142Y-85534819D02*
X63525714Y-85534819D01*
X63811428Y-85534819D02*
X63811428Y-84534819D01*
X63811428Y-84534819D02*
X63716190Y-84677676D01*
X63716190Y-84677676D02*
X63620952Y-84772914D01*
X63620952Y-84772914D02*
X63525714Y-84820533D01*
X64478095Y-84630057D02*
X64525714Y-84582438D01*
X64525714Y-84582438D02*
X64620952Y-84534819D01*
X64620952Y-84534819D02*
X64859047Y-84534819D01*
X64859047Y-84534819D02*
X64954285Y-84582438D01*
X64954285Y-84582438D02*
X65001904Y-84630057D01*
X65001904Y-84630057D02*
X65049523Y-84725295D01*
X65049523Y-84725295D02*
X65049523Y-84820533D01*
X65049523Y-84820533D02*
X65001904Y-84963390D01*
X65001904Y-84963390D02*
X64430476Y-85534819D01*
X64430476Y-85534819D02*
X65049523Y-85534819D01*
X77957200Y-55589523D02*
X78004819Y-55446666D01*
X78004819Y-55446666D02*
X78004819Y-55208571D01*
X78004819Y-55208571D02*
X77957200Y-55113333D01*
X77957200Y-55113333D02*
X77909580Y-55065714D01*
X77909580Y-55065714D02*
X77814342Y-55018095D01*
X77814342Y-55018095D02*
X77719104Y-55018095D01*
X77719104Y-55018095D02*
X77623866Y-55065714D01*
X77623866Y-55065714D02*
X77576247Y-55113333D01*
X77576247Y-55113333D02*
X77528628Y-55208571D01*
X77528628Y-55208571D02*
X77481009Y-55399047D01*
X77481009Y-55399047D02*
X77433390Y-55494285D01*
X77433390Y-55494285D02*
X77385771Y-55541904D01*
X77385771Y-55541904D02*
X77290533Y-55589523D01*
X77290533Y-55589523D02*
X77195295Y-55589523D01*
X77195295Y-55589523D02*
X77100057Y-55541904D01*
X77100057Y-55541904D02*
X77052438Y-55494285D01*
X77052438Y-55494285D02*
X77004819Y-55399047D01*
X77004819Y-55399047D02*
X77004819Y-55160952D01*
X77004819Y-55160952D02*
X77052438Y-55018095D01*
X77004819Y-54684761D02*
X78004819Y-54446666D01*
X78004819Y-54446666D02*
X77290533Y-54256190D01*
X77290533Y-54256190D02*
X78004819Y-54065714D01*
X78004819Y-54065714D02*
X77004819Y-53827619D01*
X77100057Y-53494285D02*
X77052438Y-53446666D01*
X77052438Y-53446666D02*
X77004819Y-53351428D01*
X77004819Y-53351428D02*
X77004819Y-53113333D01*
X77004819Y-53113333D02*
X77052438Y-53018095D01*
X77052438Y-53018095D02*
X77100057Y-52970476D01*
X77100057Y-52970476D02*
X77195295Y-52922857D01*
X77195295Y-52922857D02*
X77290533Y-52922857D01*
X77290533Y-52922857D02*
X77433390Y-52970476D01*
X77433390Y-52970476D02*
X78004819Y-53541904D01*
X78004819Y-53541904D02*
X78004819Y-52922857D01*
X78004819Y-51970476D02*
X78004819Y-52541904D01*
X78004819Y-52256190D02*
X77004819Y-52256190D01*
X77004819Y-52256190D02*
X77147676Y-52351428D01*
X77147676Y-52351428D02*
X77242914Y-52446666D01*
X77242914Y-52446666D02*
X77290533Y-52541904D01*
X42340476Y-85487200D02*
X42483333Y-85534819D01*
X42483333Y-85534819D02*
X42721428Y-85534819D01*
X42721428Y-85534819D02*
X42816666Y-85487200D01*
X42816666Y-85487200D02*
X42864285Y-85439580D01*
X42864285Y-85439580D02*
X42911904Y-85344342D01*
X42911904Y-85344342D02*
X42911904Y-85249104D01*
X42911904Y-85249104D02*
X42864285Y-85153866D01*
X42864285Y-85153866D02*
X42816666Y-85106247D01*
X42816666Y-85106247D02*
X42721428Y-85058628D01*
X42721428Y-85058628D02*
X42530952Y-85011009D01*
X42530952Y-85011009D02*
X42435714Y-84963390D01*
X42435714Y-84963390D02*
X42388095Y-84915771D01*
X42388095Y-84915771D02*
X42340476Y-84820533D01*
X42340476Y-84820533D02*
X42340476Y-84725295D01*
X42340476Y-84725295D02*
X42388095Y-84630057D01*
X42388095Y-84630057D02*
X42435714Y-84582438D01*
X42435714Y-84582438D02*
X42530952Y-84534819D01*
X42530952Y-84534819D02*
X42769047Y-84534819D01*
X42769047Y-84534819D02*
X42911904Y-84582438D01*
X43245238Y-84534819D02*
X43483333Y-85534819D01*
X43483333Y-85534819D02*
X43673809Y-84820533D01*
X43673809Y-84820533D02*
X43864285Y-85534819D01*
X43864285Y-85534819D02*
X44102381Y-84534819D01*
X45007142Y-85534819D02*
X44435714Y-85534819D01*
X44721428Y-85534819D02*
X44721428Y-84534819D01*
X44721428Y-84534819D02*
X44626190Y-84677676D01*
X44626190Y-84677676D02*
X44530952Y-84772914D01*
X44530952Y-84772914D02*
X44435714Y-84820533D01*
X45959523Y-85534819D02*
X45388095Y-85534819D01*
X45673809Y-85534819D02*
X45673809Y-84534819D01*
X45673809Y-84534819D02*
X45578571Y-84677676D01*
X45578571Y-84677676D02*
X45483333Y-84772914D01*
X45483333Y-84772914D02*
X45388095Y-84820533D01*
X178514819Y-76651428D02*
X178038628Y-76984761D01*
X178514819Y-77222856D02*
X177514819Y-77222856D01*
X177514819Y-77222856D02*
X177514819Y-76841904D01*
X177514819Y-76841904D02*
X177562438Y-76746666D01*
X177562438Y-76746666D02*
X177610057Y-76699047D01*
X177610057Y-76699047D02*
X177705295Y-76651428D01*
X177705295Y-76651428D02*
X177848152Y-76651428D01*
X177848152Y-76651428D02*
X177943390Y-76699047D01*
X177943390Y-76699047D02*
X177991009Y-76746666D01*
X177991009Y-76746666D02*
X178038628Y-76841904D01*
X178038628Y-76841904D02*
X178038628Y-77222856D01*
X177514819Y-76365713D02*
X178514819Y-76032380D01*
X178514819Y-76032380D02*
X177514819Y-75699047D01*
X178514819Y-74841904D02*
X178514819Y-75413332D01*
X178514819Y-75127618D02*
X177514819Y-75127618D01*
X177514819Y-75127618D02*
X177657676Y-75222856D01*
X177657676Y-75222856D02*
X177752914Y-75318094D01*
X177752914Y-75318094D02*
X177800533Y-75413332D01*
X178514819Y-74365713D02*
X178514819Y-74175237D01*
X178514819Y-74175237D02*
X178467200Y-74079999D01*
X178467200Y-74079999D02*
X178419580Y-74032380D01*
X178419580Y-74032380D02*
X178276723Y-73937142D01*
X178276723Y-73937142D02*
X178086247Y-73889523D01*
X178086247Y-73889523D02*
X177705295Y-73889523D01*
X177705295Y-73889523D02*
X177610057Y-73937142D01*
X177610057Y-73937142D02*
X177562438Y-73984761D01*
X177562438Y-73984761D02*
X177514819Y-74079999D01*
X177514819Y-74079999D02*
X177514819Y-74270475D01*
X177514819Y-74270475D02*
X177562438Y-74365713D01*
X177562438Y-74365713D02*
X177610057Y-74413332D01*
X177610057Y-74413332D02*
X177705295Y-74460951D01*
X177705295Y-74460951D02*
X177943390Y-74460951D01*
X177943390Y-74460951D02*
X178038628Y-74413332D01*
X178038628Y-74413332D02*
X178086247Y-74365713D01*
X178086247Y-74365713D02*
X178133866Y-74270475D01*
X178133866Y-74270475D02*
X178133866Y-74079999D01*
X178133866Y-74079999D02*
X178086247Y-73984761D01*
X178086247Y-73984761D02*
X178038628Y-73937142D01*
X178038628Y-73937142D02*
X177943390Y-73889523D01*
X194650476Y-85487200D02*
X194793333Y-85534819D01*
X194793333Y-85534819D02*
X195031428Y-85534819D01*
X195031428Y-85534819D02*
X195126666Y-85487200D01*
X195126666Y-85487200D02*
X195174285Y-85439580D01*
X195174285Y-85439580D02*
X195221904Y-85344342D01*
X195221904Y-85344342D02*
X195221904Y-85249104D01*
X195221904Y-85249104D02*
X195174285Y-85153866D01*
X195174285Y-85153866D02*
X195126666Y-85106247D01*
X195126666Y-85106247D02*
X195031428Y-85058628D01*
X195031428Y-85058628D02*
X194840952Y-85011009D01*
X194840952Y-85011009D02*
X194745714Y-84963390D01*
X194745714Y-84963390D02*
X194698095Y-84915771D01*
X194698095Y-84915771D02*
X194650476Y-84820533D01*
X194650476Y-84820533D02*
X194650476Y-84725295D01*
X194650476Y-84725295D02*
X194698095Y-84630057D01*
X194698095Y-84630057D02*
X194745714Y-84582438D01*
X194745714Y-84582438D02*
X194840952Y-84534819D01*
X194840952Y-84534819D02*
X195079047Y-84534819D01*
X195079047Y-84534819D02*
X195221904Y-84582438D01*
X195555238Y-84534819D02*
X195793333Y-85534819D01*
X195793333Y-85534819D02*
X195983809Y-84820533D01*
X195983809Y-84820533D02*
X196174285Y-85534819D01*
X196174285Y-85534819D02*
X196412381Y-84534819D01*
X197317142Y-85534819D02*
X196745714Y-85534819D01*
X197031428Y-85534819D02*
X197031428Y-84534819D01*
X197031428Y-84534819D02*
X196936190Y-84677676D01*
X196936190Y-84677676D02*
X196840952Y-84772914D01*
X196840952Y-84772914D02*
X196745714Y-84820533D01*
X197793333Y-85534819D02*
X197983809Y-85534819D01*
X197983809Y-85534819D02*
X198079047Y-85487200D01*
X198079047Y-85487200D02*
X198126666Y-85439580D01*
X198126666Y-85439580D02*
X198221904Y-85296723D01*
X198221904Y-85296723D02*
X198269523Y-85106247D01*
X198269523Y-85106247D02*
X198269523Y-84725295D01*
X198269523Y-84725295D02*
X198221904Y-84630057D01*
X198221904Y-84630057D02*
X198174285Y-84582438D01*
X198174285Y-84582438D02*
X198079047Y-84534819D01*
X198079047Y-84534819D02*
X197888571Y-84534819D01*
X197888571Y-84534819D02*
X197793333Y-84582438D01*
X197793333Y-84582438D02*
X197745714Y-84630057D01*
X197745714Y-84630057D02*
X197698095Y-84725295D01*
X197698095Y-84725295D02*
X197698095Y-84963390D01*
X197698095Y-84963390D02*
X197745714Y-85058628D01*
X197745714Y-85058628D02*
X197793333Y-85106247D01*
X197793333Y-85106247D02*
X197888571Y-85153866D01*
X197888571Y-85153866D02*
X198079047Y-85153866D01*
X198079047Y-85153866D02*
X198174285Y-85106247D01*
X198174285Y-85106247D02*
X198221904Y-85058628D01*
X198221904Y-85058628D02*
X198269523Y-84963390D01*
X172434819Y-140175238D02*
X171958628Y-140508571D01*
X172434819Y-140746666D02*
X171434819Y-140746666D01*
X171434819Y-140746666D02*
X171434819Y-140365714D01*
X171434819Y-140365714D02*
X171482438Y-140270476D01*
X171482438Y-140270476D02*
X171530057Y-140222857D01*
X171530057Y-140222857D02*
X171625295Y-140175238D01*
X171625295Y-140175238D02*
X171768152Y-140175238D01*
X171768152Y-140175238D02*
X171863390Y-140222857D01*
X171863390Y-140222857D02*
X171911009Y-140270476D01*
X171911009Y-140270476D02*
X171958628Y-140365714D01*
X171958628Y-140365714D02*
X171958628Y-140746666D01*
X171434819Y-139889523D02*
X172434819Y-139556190D01*
X172434819Y-139556190D02*
X171434819Y-139222857D01*
X171863390Y-138746666D02*
X171815771Y-138841904D01*
X171815771Y-138841904D02*
X171768152Y-138889523D01*
X171768152Y-138889523D02*
X171672914Y-138937142D01*
X171672914Y-138937142D02*
X171625295Y-138937142D01*
X171625295Y-138937142D02*
X171530057Y-138889523D01*
X171530057Y-138889523D02*
X171482438Y-138841904D01*
X171482438Y-138841904D02*
X171434819Y-138746666D01*
X171434819Y-138746666D02*
X171434819Y-138556190D01*
X171434819Y-138556190D02*
X171482438Y-138460952D01*
X171482438Y-138460952D02*
X171530057Y-138413333D01*
X171530057Y-138413333D02*
X171625295Y-138365714D01*
X171625295Y-138365714D02*
X171672914Y-138365714D01*
X171672914Y-138365714D02*
X171768152Y-138413333D01*
X171768152Y-138413333D02*
X171815771Y-138460952D01*
X171815771Y-138460952D02*
X171863390Y-138556190D01*
X171863390Y-138556190D02*
X171863390Y-138746666D01*
X171863390Y-138746666D02*
X171911009Y-138841904D01*
X171911009Y-138841904D02*
X171958628Y-138889523D01*
X171958628Y-138889523D02*
X172053866Y-138937142D01*
X172053866Y-138937142D02*
X172244342Y-138937142D01*
X172244342Y-138937142D02*
X172339580Y-138889523D01*
X172339580Y-138889523D02*
X172387200Y-138841904D01*
X172387200Y-138841904D02*
X172434819Y-138746666D01*
X172434819Y-138746666D02*
X172434819Y-138556190D01*
X172434819Y-138556190D02*
X172387200Y-138460952D01*
X172387200Y-138460952D02*
X172339580Y-138413333D01*
X172339580Y-138413333D02*
X172244342Y-138365714D01*
X172244342Y-138365714D02*
X172053866Y-138365714D01*
X172053866Y-138365714D02*
X171958628Y-138413333D01*
X171958628Y-138413333D02*
X171911009Y-138460952D01*
X171911009Y-138460952D02*
X171863390Y-138556190D01*
X233124819Y-133477904D02*
X233934342Y-133477904D01*
X233934342Y-133477904D02*
X234029580Y-133430285D01*
X234029580Y-133430285D02*
X234077200Y-133382666D01*
X234077200Y-133382666D02*
X234124819Y-133287428D01*
X234124819Y-133287428D02*
X234124819Y-133096952D01*
X234124819Y-133096952D02*
X234077200Y-133001714D01*
X234077200Y-133001714D02*
X234029580Y-132954095D01*
X234029580Y-132954095D02*
X233934342Y-132906476D01*
X233934342Y-132906476D02*
X233124819Y-132906476D01*
X233124819Y-132525523D02*
X233124819Y-131906476D01*
X233124819Y-131906476D02*
X233505771Y-132239809D01*
X233505771Y-132239809D02*
X233505771Y-132096952D01*
X233505771Y-132096952D02*
X233553390Y-132001714D01*
X233553390Y-132001714D02*
X233601009Y-131954095D01*
X233601009Y-131954095D02*
X233696247Y-131906476D01*
X233696247Y-131906476D02*
X233934342Y-131906476D01*
X233934342Y-131906476D02*
X234029580Y-131954095D01*
X234029580Y-131954095D02*
X234077200Y-132001714D01*
X234077200Y-132001714D02*
X234124819Y-132096952D01*
X234124819Y-132096952D02*
X234124819Y-132382666D01*
X234124819Y-132382666D02*
X234077200Y-132477904D01*
X234077200Y-132477904D02*
X234029580Y-132525523D01*
X58314819Y-140175238D02*
X57838628Y-140508571D01*
X58314819Y-140746666D02*
X57314819Y-140746666D01*
X57314819Y-140746666D02*
X57314819Y-140365714D01*
X57314819Y-140365714D02*
X57362438Y-140270476D01*
X57362438Y-140270476D02*
X57410057Y-140222857D01*
X57410057Y-140222857D02*
X57505295Y-140175238D01*
X57505295Y-140175238D02*
X57648152Y-140175238D01*
X57648152Y-140175238D02*
X57743390Y-140222857D01*
X57743390Y-140222857D02*
X57791009Y-140270476D01*
X57791009Y-140270476D02*
X57838628Y-140365714D01*
X57838628Y-140365714D02*
X57838628Y-140746666D01*
X57314819Y-139889523D02*
X58314819Y-139556190D01*
X58314819Y-139556190D02*
X57314819Y-139222857D01*
X57410057Y-138937142D02*
X57362438Y-138889523D01*
X57362438Y-138889523D02*
X57314819Y-138794285D01*
X57314819Y-138794285D02*
X57314819Y-138556190D01*
X57314819Y-138556190D02*
X57362438Y-138460952D01*
X57362438Y-138460952D02*
X57410057Y-138413333D01*
X57410057Y-138413333D02*
X57505295Y-138365714D01*
X57505295Y-138365714D02*
X57600533Y-138365714D01*
X57600533Y-138365714D02*
X57743390Y-138413333D01*
X57743390Y-138413333D02*
X58314819Y-138984761D01*
X58314819Y-138984761D02*
X58314819Y-138365714D01*
X80480475Y-85487200D02*
X80623332Y-85534819D01*
X80623332Y-85534819D02*
X80861427Y-85534819D01*
X80861427Y-85534819D02*
X80956665Y-85487200D01*
X80956665Y-85487200D02*
X81004284Y-85439580D01*
X81004284Y-85439580D02*
X81051903Y-85344342D01*
X81051903Y-85344342D02*
X81051903Y-85249104D01*
X81051903Y-85249104D02*
X81004284Y-85153866D01*
X81004284Y-85153866D02*
X80956665Y-85106247D01*
X80956665Y-85106247D02*
X80861427Y-85058628D01*
X80861427Y-85058628D02*
X80670951Y-85011009D01*
X80670951Y-85011009D02*
X80575713Y-84963390D01*
X80575713Y-84963390D02*
X80528094Y-84915771D01*
X80528094Y-84915771D02*
X80480475Y-84820533D01*
X80480475Y-84820533D02*
X80480475Y-84725295D01*
X80480475Y-84725295D02*
X80528094Y-84630057D01*
X80528094Y-84630057D02*
X80575713Y-84582438D01*
X80575713Y-84582438D02*
X80670951Y-84534819D01*
X80670951Y-84534819D02*
X80909046Y-84534819D01*
X80909046Y-84534819D02*
X81051903Y-84582438D01*
X81385237Y-84534819D02*
X81623332Y-85534819D01*
X81623332Y-85534819D02*
X81813808Y-84820533D01*
X81813808Y-84820533D02*
X82004284Y-85534819D01*
X82004284Y-85534819D02*
X82242380Y-84534819D01*
X83147141Y-85534819D02*
X82575713Y-85534819D01*
X82861427Y-85534819D02*
X82861427Y-84534819D01*
X82861427Y-84534819D02*
X82766189Y-84677676D01*
X82766189Y-84677676D02*
X82670951Y-84772914D01*
X82670951Y-84772914D02*
X82575713Y-84820533D01*
X83480475Y-84534819D02*
X84099522Y-84534819D01*
X84099522Y-84534819D02*
X83766189Y-84915771D01*
X83766189Y-84915771D02*
X83909046Y-84915771D01*
X83909046Y-84915771D02*
X84004284Y-84963390D01*
X84004284Y-84963390D02*
X84051903Y-85011009D01*
X84051903Y-85011009D02*
X84099522Y-85106247D01*
X84099522Y-85106247D02*
X84099522Y-85344342D01*
X84099522Y-85344342D02*
X84051903Y-85439580D01*
X84051903Y-85439580D02*
X84004284Y-85487200D01*
X84004284Y-85487200D02*
X83909046Y-85534819D01*
X83909046Y-85534819D02*
X83623332Y-85534819D01*
X83623332Y-85534819D02*
X83528094Y-85487200D01*
X83528094Y-85487200D02*
X83480475Y-85439580D01*
X111904819Y-76651428D02*
X111428628Y-76984761D01*
X111904819Y-77222856D02*
X110904819Y-77222856D01*
X110904819Y-77222856D02*
X110904819Y-76841904D01*
X110904819Y-76841904D02*
X110952438Y-76746666D01*
X110952438Y-76746666D02*
X111000057Y-76699047D01*
X111000057Y-76699047D02*
X111095295Y-76651428D01*
X111095295Y-76651428D02*
X111238152Y-76651428D01*
X111238152Y-76651428D02*
X111333390Y-76699047D01*
X111333390Y-76699047D02*
X111381009Y-76746666D01*
X111381009Y-76746666D02*
X111428628Y-76841904D01*
X111428628Y-76841904D02*
X111428628Y-77222856D01*
X110904819Y-76365713D02*
X111904819Y-76032380D01*
X111904819Y-76032380D02*
X110904819Y-75699047D01*
X111904819Y-74841904D02*
X111904819Y-75413332D01*
X111904819Y-75127618D02*
X110904819Y-75127618D01*
X110904819Y-75127618D02*
X111047676Y-75222856D01*
X111047676Y-75222856D02*
X111142914Y-75318094D01*
X111142914Y-75318094D02*
X111190533Y-75413332D01*
X110904819Y-73937142D02*
X110904819Y-74413332D01*
X110904819Y-74413332D02*
X111381009Y-74460951D01*
X111381009Y-74460951D02*
X111333390Y-74413332D01*
X111333390Y-74413332D02*
X111285771Y-74318094D01*
X111285771Y-74318094D02*
X111285771Y-74079999D01*
X111285771Y-74079999D02*
X111333390Y-73984761D01*
X111333390Y-73984761D02*
X111381009Y-73937142D01*
X111381009Y-73937142D02*
X111476247Y-73889523D01*
X111476247Y-73889523D02*
X111714342Y-73889523D01*
X111714342Y-73889523D02*
X111809580Y-73937142D01*
X111809580Y-73937142D02*
X111857200Y-73984761D01*
X111857200Y-73984761D02*
X111904819Y-74079999D01*
X111904819Y-74079999D02*
X111904819Y-74318094D01*
X111904819Y-74318094D02*
X111857200Y-74413332D01*
X111857200Y-74413332D02*
X111809580Y-74460951D01*
X150954819Y-76651428D02*
X150478628Y-76984761D01*
X150954819Y-77222856D02*
X149954819Y-77222856D01*
X149954819Y-77222856D02*
X149954819Y-76841904D01*
X149954819Y-76841904D02*
X150002438Y-76746666D01*
X150002438Y-76746666D02*
X150050057Y-76699047D01*
X150050057Y-76699047D02*
X150145295Y-76651428D01*
X150145295Y-76651428D02*
X150288152Y-76651428D01*
X150288152Y-76651428D02*
X150383390Y-76699047D01*
X150383390Y-76699047D02*
X150431009Y-76746666D01*
X150431009Y-76746666D02*
X150478628Y-76841904D01*
X150478628Y-76841904D02*
X150478628Y-77222856D01*
X149954819Y-76365713D02*
X150954819Y-76032380D01*
X150954819Y-76032380D02*
X149954819Y-75699047D01*
X150954819Y-74841904D02*
X150954819Y-75413332D01*
X150954819Y-75127618D02*
X149954819Y-75127618D01*
X149954819Y-75127618D02*
X150097676Y-75222856D01*
X150097676Y-75222856D02*
X150192914Y-75318094D01*
X150192914Y-75318094D02*
X150240533Y-75413332D01*
X149954819Y-74508570D02*
X149954819Y-73841904D01*
X149954819Y-73841904D02*
X150954819Y-74270475D01*
X61906667Y-105987200D02*
X62049524Y-106034819D01*
X62049524Y-106034819D02*
X62287619Y-106034819D01*
X62287619Y-106034819D02*
X62382857Y-105987200D01*
X62382857Y-105987200D02*
X62430476Y-105939580D01*
X62430476Y-105939580D02*
X62478095Y-105844342D01*
X62478095Y-105844342D02*
X62478095Y-105749104D01*
X62478095Y-105749104D02*
X62430476Y-105653866D01*
X62430476Y-105653866D02*
X62382857Y-105606247D01*
X62382857Y-105606247D02*
X62287619Y-105558628D01*
X62287619Y-105558628D02*
X62097143Y-105511009D01*
X62097143Y-105511009D02*
X62001905Y-105463390D01*
X62001905Y-105463390D02*
X61954286Y-105415771D01*
X61954286Y-105415771D02*
X61906667Y-105320533D01*
X61906667Y-105320533D02*
X61906667Y-105225295D01*
X61906667Y-105225295D02*
X61954286Y-105130057D01*
X61954286Y-105130057D02*
X62001905Y-105082438D01*
X62001905Y-105082438D02*
X62097143Y-105034819D01*
X62097143Y-105034819D02*
X62335238Y-105034819D01*
X62335238Y-105034819D02*
X62478095Y-105082438D01*
X62811429Y-105034819D02*
X63049524Y-106034819D01*
X63049524Y-106034819D02*
X63240000Y-105320533D01*
X63240000Y-105320533D02*
X63430476Y-106034819D01*
X63430476Y-106034819D02*
X63668572Y-105034819D01*
X64001905Y-105130057D02*
X64049524Y-105082438D01*
X64049524Y-105082438D02*
X64144762Y-105034819D01*
X64144762Y-105034819D02*
X64382857Y-105034819D01*
X64382857Y-105034819D02*
X64478095Y-105082438D01*
X64478095Y-105082438D02*
X64525714Y-105130057D01*
X64525714Y-105130057D02*
X64573333Y-105225295D01*
X64573333Y-105225295D02*
X64573333Y-105320533D01*
X64573333Y-105320533D02*
X64525714Y-105463390D01*
X64525714Y-105463390D02*
X63954286Y-106034819D01*
X63954286Y-106034819D02*
X64573333Y-106034819D01*
X128657200Y-55639523D02*
X128704819Y-55496666D01*
X128704819Y-55496666D02*
X128704819Y-55258571D01*
X128704819Y-55258571D02*
X128657200Y-55163333D01*
X128657200Y-55163333D02*
X128609580Y-55115714D01*
X128609580Y-55115714D02*
X128514342Y-55068095D01*
X128514342Y-55068095D02*
X128419104Y-55068095D01*
X128419104Y-55068095D02*
X128323866Y-55115714D01*
X128323866Y-55115714D02*
X128276247Y-55163333D01*
X128276247Y-55163333D02*
X128228628Y-55258571D01*
X128228628Y-55258571D02*
X128181009Y-55449047D01*
X128181009Y-55449047D02*
X128133390Y-55544285D01*
X128133390Y-55544285D02*
X128085771Y-55591904D01*
X128085771Y-55591904D02*
X127990533Y-55639523D01*
X127990533Y-55639523D02*
X127895295Y-55639523D01*
X127895295Y-55639523D02*
X127800057Y-55591904D01*
X127800057Y-55591904D02*
X127752438Y-55544285D01*
X127752438Y-55544285D02*
X127704819Y-55449047D01*
X127704819Y-55449047D02*
X127704819Y-55210952D01*
X127704819Y-55210952D02*
X127752438Y-55068095D01*
X127704819Y-54734761D02*
X128704819Y-54496666D01*
X128704819Y-54496666D02*
X127990533Y-54306190D01*
X127990533Y-54306190D02*
X128704819Y-54115714D01*
X128704819Y-54115714D02*
X127704819Y-53877619D01*
X127800057Y-53544285D02*
X127752438Y-53496666D01*
X127752438Y-53496666D02*
X127704819Y-53401428D01*
X127704819Y-53401428D02*
X127704819Y-53163333D01*
X127704819Y-53163333D02*
X127752438Y-53068095D01*
X127752438Y-53068095D02*
X127800057Y-53020476D01*
X127800057Y-53020476D02*
X127895295Y-52972857D01*
X127895295Y-52972857D02*
X127990533Y-52972857D01*
X127990533Y-52972857D02*
X128133390Y-53020476D01*
X128133390Y-53020476D02*
X128704819Y-53591904D01*
X128704819Y-53591904D02*
X128704819Y-52972857D01*
X127800057Y-52591904D02*
X127752438Y-52544285D01*
X127752438Y-52544285D02*
X127704819Y-52449047D01*
X127704819Y-52449047D02*
X127704819Y-52210952D01*
X127704819Y-52210952D02*
X127752438Y-52115714D01*
X127752438Y-52115714D02*
X127800057Y-52068095D01*
X127800057Y-52068095D02*
X127895295Y-52020476D01*
X127895295Y-52020476D02*
X127990533Y-52020476D01*
X127990533Y-52020476D02*
X128133390Y-52068095D01*
X128133390Y-52068095D02*
X128704819Y-52639523D01*
X128704819Y-52639523D02*
X128704819Y-52020476D01*
X96414819Y-140175238D02*
X95938628Y-140508571D01*
X96414819Y-140746666D02*
X95414819Y-140746666D01*
X95414819Y-140746666D02*
X95414819Y-140365714D01*
X95414819Y-140365714D02*
X95462438Y-140270476D01*
X95462438Y-140270476D02*
X95510057Y-140222857D01*
X95510057Y-140222857D02*
X95605295Y-140175238D01*
X95605295Y-140175238D02*
X95748152Y-140175238D01*
X95748152Y-140175238D02*
X95843390Y-140222857D01*
X95843390Y-140222857D02*
X95891009Y-140270476D01*
X95891009Y-140270476D02*
X95938628Y-140365714D01*
X95938628Y-140365714D02*
X95938628Y-140746666D01*
X95414819Y-139889523D02*
X96414819Y-139556190D01*
X96414819Y-139556190D02*
X95414819Y-139222857D01*
X95748152Y-138460952D02*
X96414819Y-138460952D01*
X95367200Y-138699047D02*
X96081485Y-138937142D01*
X96081485Y-138937142D02*
X96081485Y-138318095D01*
X115374819Y-140175238D02*
X114898628Y-140508571D01*
X115374819Y-140746666D02*
X114374819Y-140746666D01*
X114374819Y-140746666D02*
X114374819Y-140365714D01*
X114374819Y-140365714D02*
X114422438Y-140270476D01*
X114422438Y-140270476D02*
X114470057Y-140222857D01*
X114470057Y-140222857D02*
X114565295Y-140175238D01*
X114565295Y-140175238D02*
X114708152Y-140175238D01*
X114708152Y-140175238D02*
X114803390Y-140222857D01*
X114803390Y-140222857D02*
X114851009Y-140270476D01*
X114851009Y-140270476D02*
X114898628Y-140365714D01*
X114898628Y-140365714D02*
X114898628Y-140746666D01*
X114374819Y-139889523D02*
X115374819Y-139556190D01*
X115374819Y-139556190D02*
X114374819Y-139222857D01*
X114374819Y-138413333D02*
X114374819Y-138889523D01*
X114374819Y-138889523D02*
X114851009Y-138937142D01*
X114851009Y-138937142D02*
X114803390Y-138889523D01*
X114803390Y-138889523D02*
X114755771Y-138794285D01*
X114755771Y-138794285D02*
X114755771Y-138556190D01*
X114755771Y-138556190D02*
X114803390Y-138460952D01*
X114803390Y-138460952D02*
X114851009Y-138413333D01*
X114851009Y-138413333D02*
X114946247Y-138365714D01*
X114946247Y-138365714D02*
X115184342Y-138365714D01*
X115184342Y-138365714D02*
X115279580Y-138413333D01*
X115279580Y-138413333D02*
X115327200Y-138460952D01*
X115327200Y-138460952D02*
X115374819Y-138556190D01*
X115374819Y-138556190D02*
X115374819Y-138794285D01*
X115374819Y-138794285D02*
X115327200Y-138889523D01*
X115327200Y-138889523D02*
X115279580Y-138937142D01*
X221540476Y-85487200D02*
X221683333Y-85534819D01*
X221683333Y-85534819D02*
X221921428Y-85534819D01*
X221921428Y-85534819D02*
X222016666Y-85487200D01*
X222016666Y-85487200D02*
X222064285Y-85439580D01*
X222064285Y-85439580D02*
X222111904Y-85344342D01*
X222111904Y-85344342D02*
X222111904Y-85249104D01*
X222111904Y-85249104D02*
X222064285Y-85153866D01*
X222064285Y-85153866D02*
X222016666Y-85106247D01*
X222016666Y-85106247D02*
X221921428Y-85058628D01*
X221921428Y-85058628D02*
X221730952Y-85011009D01*
X221730952Y-85011009D02*
X221635714Y-84963390D01*
X221635714Y-84963390D02*
X221588095Y-84915771D01*
X221588095Y-84915771D02*
X221540476Y-84820533D01*
X221540476Y-84820533D02*
X221540476Y-84725295D01*
X221540476Y-84725295D02*
X221588095Y-84630057D01*
X221588095Y-84630057D02*
X221635714Y-84582438D01*
X221635714Y-84582438D02*
X221730952Y-84534819D01*
X221730952Y-84534819D02*
X221969047Y-84534819D01*
X221969047Y-84534819D02*
X222111904Y-84582438D01*
X222445238Y-84534819D02*
X222683333Y-85534819D01*
X222683333Y-85534819D02*
X222873809Y-84820533D01*
X222873809Y-84820533D02*
X223064285Y-85534819D01*
X223064285Y-85534819D02*
X223302381Y-84534819D01*
X223635714Y-84630057D02*
X223683333Y-84582438D01*
X223683333Y-84582438D02*
X223778571Y-84534819D01*
X223778571Y-84534819D02*
X224016666Y-84534819D01*
X224016666Y-84534819D02*
X224111904Y-84582438D01*
X224111904Y-84582438D02*
X224159523Y-84630057D01*
X224159523Y-84630057D02*
X224207142Y-84725295D01*
X224207142Y-84725295D02*
X224207142Y-84820533D01*
X224207142Y-84820533D02*
X224159523Y-84963390D01*
X224159523Y-84963390D02*
X223588095Y-85534819D01*
X223588095Y-85534819D02*
X224207142Y-85534819D01*
X224826190Y-84534819D02*
X224921428Y-84534819D01*
X224921428Y-84534819D02*
X225016666Y-84582438D01*
X225016666Y-84582438D02*
X225064285Y-84630057D01*
X225064285Y-84630057D02*
X225111904Y-84725295D01*
X225111904Y-84725295D02*
X225159523Y-84915771D01*
X225159523Y-84915771D02*
X225159523Y-85153866D01*
X225159523Y-85153866D02*
X225111904Y-85344342D01*
X225111904Y-85344342D02*
X225064285Y-85439580D01*
X225064285Y-85439580D02*
X225016666Y-85487200D01*
X225016666Y-85487200D02*
X224921428Y-85534819D01*
X224921428Y-85534819D02*
X224826190Y-85534819D01*
X224826190Y-85534819D02*
X224730952Y-85487200D01*
X224730952Y-85487200D02*
X224683333Y-85439580D01*
X224683333Y-85439580D02*
X224635714Y-85344342D01*
X224635714Y-85344342D02*
X224588095Y-85153866D01*
X224588095Y-85153866D02*
X224588095Y-84915771D01*
X224588095Y-84915771D02*
X224635714Y-84725295D01*
X224635714Y-84725295D02*
X224683333Y-84630057D01*
X224683333Y-84630057D02*
X224730952Y-84582438D01*
X224730952Y-84582438D02*
X224826190Y-84534819D01*
X82994819Y-76651428D02*
X82518628Y-76984761D01*
X82994819Y-77222856D02*
X81994819Y-77222856D01*
X81994819Y-77222856D02*
X81994819Y-76841904D01*
X81994819Y-76841904D02*
X82042438Y-76746666D01*
X82042438Y-76746666D02*
X82090057Y-76699047D01*
X82090057Y-76699047D02*
X82185295Y-76651428D01*
X82185295Y-76651428D02*
X82328152Y-76651428D01*
X82328152Y-76651428D02*
X82423390Y-76699047D01*
X82423390Y-76699047D02*
X82471009Y-76746666D01*
X82471009Y-76746666D02*
X82518628Y-76841904D01*
X82518628Y-76841904D02*
X82518628Y-77222856D01*
X81994819Y-76365713D02*
X82994819Y-76032380D01*
X82994819Y-76032380D02*
X81994819Y-75699047D01*
X82994819Y-74841904D02*
X82994819Y-75413332D01*
X82994819Y-75127618D02*
X81994819Y-75127618D01*
X81994819Y-75127618D02*
X82137676Y-75222856D01*
X82137676Y-75222856D02*
X82232914Y-75318094D01*
X82232914Y-75318094D02*
X82280533Y-75413332D01*
X82328152Y-73984761D02*
X82994819Y-73984761D01*
X81947200Y-74222856D02*
X82661485Y-74460951D01*
X82661485Y-74460951D02*
X82661485Y-73841904D01*
X134424819Y-140175238D02*
X133948628Y-140508571D01*
X134424819Y-140746666D02*
X133424819Y-140746666D01*
X133424819Y-140746666D02*
X133424819Y-140365714D01*
X133424819Y-140365714D02*
X133472438Y-140270476D01*
X133472438Y-140270476D02*
X133520057Y-140222857D01*
X133520057Y-140222857D02*
X133615295Y-140175238D01*
X133615295Y-140175238D02*
X133758152Y-140175238D01*
X133758152Y-140175238D02*
X133853390Y-140222857D01*
X133853390Y-140222857D02*
X133901009Y-140270476D01*
X133901009Y-140270476D02*
X133948628Y-140365714D01*
X133948628Y-140365714D02*
X133948628Y-140746666D01*
X133424819Y-139889523D02*
X134424819Y-139556190D01*
X134424819Y-139556190D02*
X133424819Y-139222857D01*
X133424819Y-138460952D02*
X133424819Y-138651428D01*
X133424819Y-138651428D02*
X133472438Y-138746666D01*
X133472438Y-138746666D02*
X133520057Y-138794285D01*
X133520057Y-138794285D02*
X133662914Y-138889523D01*
X133662914Y-138889523D02*
X133853390Y-138937142D01*
X133853390Y-138937142D02*
X134234342Y-138937142D01*
X134234342Y-138937142D02*
X134329580Y-138889523D01*
X134329580Y-138889523D02*
X134377200Y-138841904D01*
X134377200Y-138841904D02*
X134424819Y-138746666D01*
X134424819Y-138746666D02*
X134424819Y-138556190D01*
X134424819Y-138556190D02*
X134377200Y-138460952D01*
X134377200Y-138460952D02*
X134329580Y-138413333D01*
X134329580Y-138413333D02*
X134234342Y-138365714D01*
X134234342Y-138365714D02*
X133996247Y-138365714D01*
X133996247Y-138365714D02*
X133901009Y-138413333D01*
X133901009Y-138413333D02*
X133853390Y-138460952D01*
X133853390Y-138460952D02*
X133805771Y-138556190D01*
X133805771Y-138556190D02*
X133805771Y-138746666D01*
X133805771Y-138746666D02*
X133853390Y-138841904D01*
X133853390Y-138841904D02*
X133901009Y-138889523D01*
X133901009Y-138889523D02*
X133996247Y-138937142D01*
X169964819Y-76651428D02*
X169488628Y-76984761D01*
X169964819Y-77222856D02*
X168964819Y-77222856D01*
X168964819Y-77222856D02*
X168964819Y-76841904D01*
X168964819Y-76841904D02*
X169012438Y-76746666D01*
X169012438Y-76746666D02*
X169060057Y-76699047D01*
X169060057Y-76699047D02*
X169155295Y-76651428D01*
X169155295Y-76651428D02*
X169298152Y-76651428D01*
X169298152Y-76651428D02*
X169393390Y-76699047D01*
X169393390Y-76699047D02*
X169441009Y-76746666D01*
X169441009Y-76746666D02*
X169488628Y-76841904D01*
X169488628Y-76841904D02*
X169488628Y-77222856D01*
X168964819Y-76365713D02*
X169964819Y-76032380D01*
X169964819Y-76032380D02*
X168964819Y-75699047D01*
X169964819Y-74841904D02*
X169964819Y-75413332D01*
X169964819Y-75127618D02*
X168964819Y-75127618D01*
X168964819Y-75127618D02*
X169107676Y-75222856D01*
X169107676Y-75222856D02*
X169202914Y-75318094D01*
X169202914Y-75318094D02*
X169250533Y-75413332D01*
X169393390Y-74270475D02*
X169345771Y-74365713D01*
X169345771Y-74365713D02*
X169298152Y-74413332D01*
X169298152Y-74413332D02*
X169202914Y-74460951D01*
X169202914Y-74460951D02*
X169155295Y-74460951D01*
X169155295Y-74460951D02*
X169060057Y-74413332D01*
X169060057Y-74413332D02*
X169012438Y-74365713D01*
X169012438Y-74365713D02*
X168964819Y-74270475D01*
X168964819Y-74270475D02*
X168964819Y-74079999D01*
X168964819Y-74079999D02*
X169012438Y-73984761D01*
X169012438Y-73984761D02*
X169060057Y-73937142D01*
X169060057Y-73937142D02*
X169155295Y-73889523D01*
X169155295Y-73889523D02*
X169202914Y-73889523D01*
X169202914Y-73889523D02*
X169298152Y-73937142D01*
X169298152Y-73937142D02*
X169345771Y-73984761D01*
X169345771Y-73984761D02*
X169393390Y-74079999D01*
X169393390Y-74079999D02*
X169393390Y-74270475D01*
X169393390Y-74270475D02*
X169441009Y-74365713D01*
X169441009Y-74365713D02*
X169488628Y-74413332D01*
X169488628Y-74413332D02*
X169583866Y-74460951D01*
X169583866Y-74460951D02*
X169774342Y-74460951D01*
X169774342Y-74460951D02*
X169869580Y-74413332D01*
X169869580Y-74413332D02*
X169917200Y-74365713D01*
X169917200Y-74365713D02*
X169964819Y-74270475D01*
X169964819Y-74270475D02*
X169964819Y-74079999D01*
X169964819Y-74079999D02*
X169917200Y-73984761D01*
X169917200Y-73984761D02*
X169869580Y-73937142D01*
X169869580Y-73937142D02*
X169774342Y-73889523D01*
X169774342Y-73889523D02*
X169583866Y-73889523D01*
X169583866Y-73889523D02*
X169488628Y-73937142D01*
X169488628Y-73937142D02*
X169441009Y-73984761D01*
X169441009Y-73984761D02*
X169393390Y-74079999D01*
X191534819Y-140175238D02*
X191058628Y-140508571D01*
X191534819Y-140746666D02*
X190534819Y-140746666D01*
X190534819Y-140746666D02*
X190534819Y-140365714D01*
X190534819Y-140365714D02*
X190582438Y-140270476D01*
X190582438Y-140270476D02*
X190630057Y-140222857D01*
X190630057Y-140222857D02*
X190725295Y-140175238D01*
X190725295Y-140175238D02*
X190868152Y-140175238D01*
X190868152Y-140175238D02*
X190963390Y-140222857D01*
X190963390Y-140222857D02*
X191011009Y-140270476D01*
X191011009Y-140270476D02*
X191058628Y-140365714D01*
X191058628Y-140365714D02*
X191058628Y-140746666D01*
X190534819Y-139889523D02*
X191534819Y-139556190D01*
X191534819Y-139556190D02*
X190534819Y-139222857D01*
X191534819Y-138841904D02*
X191534819Y-138651428D01*
X191534819Y-138651428D02*
X191487200Y-138556190D01*
X191487200Y-138556190D02*
X191439580Y-138508571D01*
X191439580Y-138508571D02*
X191296723Y-138413333D01*
X191296723Y-138413333D02*
X191106247Y-138365714D01*
X191106247Y-138365714D02*
X190725295Y-138365714D01*
X190725295Y-138365714D02*
X190630057Y-138413333D01*
X190630057Y-138413333D02*
X190582438Y-138460952D01*
X190582438Y-138460952D02*
X190534819Y-138556190D01*
X190534819Y-138556190D02*
X190534819Y-138746666D01*
X190534819Y-138746666D02*
X190582438Y-138841904D01*
X190582438Y-138841904D02*
X190630057Y-138889523D01*
X190630057Y-138889523D02*
X190725295Y-138937142D01*
X190725295Y-138937142D02*
X190963390Y-138937142D01*
X190963390Y-138937142D02*
X191058628Y-138889523D01*
X191058628Y-138889523D02*
X191106247Y-138841904D01*
X191106247Y-138841904D02*
X191153866Y-138746666D01*
X191153866Y-138746666D02*
X191153866Y-138556190D01*
X191153866Y-138556190D02*
X191106247Y-138460952D01*
X191106247Y-138460952D02*
X191058628Y-138413333D01*
X191058628Y-138413333D02*
X190963390Y-138365714D01*
X157016667Y-105987200D02*
X157159524Y-106034819D01*
X157159524Y-106034819D02*
X157397619Y-106034819D01*
X157397619Y-106034819D02*
X157492857Y-105987200D01*
X157492857Y-105987200D02*
X157540476Y-105939580D01*
X157540476Y-105939580D02*
X157588095Y-105844342D01*
X157588095Y-105844342D02*
X157588095Y-105749104D01*
X157588095Y-105749104D02*
X157540476Y-105653866D01*
X157540476Y-105653866D02*
X157492857Y-105606247D01*
X157492857Y-105606247D02*
X157397619Y-105558628D01*
X157397619Y-105558628D02*
X157207143Y-105511009D01*
X157207143Y-105511009D02*
X157111905Y-105463390D01*
X157111905Y-105463390D02*
X157064286Y-105415771D01*
X157064286Y-105415771D02*
X157016667Y-105320533D01*
X157016667Y-105320533D02*
X157016667Y-105225295D01*
X157016667Y-105225295D02*
X157064286Y-105130057D01*
X157064286Y-105130057D02*
X157111905Y-105082438D01*
X157111905Y-105082438D02*
X157207143Y-105034819D01*
X157207143Y-105034819D02*
X157445238Y-105034819D01*
X157445238Y-105034819D02*
X157588095Y-105082438D01*
X157921429Y-105034819D02*
X158159524Y-106034819D01*
X158159524Y-106034819D02*
X158350000Y-105320533D01*
X158350000Y-105320533D02*
X158540476Y-106034819D01*
X158540476Y-106034819D02*
X158778572Y-105034819D01*
X159064286Y-105034819D02*
X159730952Y-105034819D01*
X159730952Y-105034819D02*
X159302381Y-106034819D01*
X195126667Y-105987200D02*
X195269524Y-106034819D01*
X195269524Y-106034819D02*
X195507619Y-106034819D01*
X195507619Y-106034819D02*
X195602857Y-105987200D01*
X195602857Y-105987200D02*
X195650476Y-105939580D01*
X195650476Y-105939580D02*
X195698095Y-105844342D01*
X195698095Y-105844342D02*
X195698095Y-105749104D01*
X195698095Y-105749104D02*
X195650476Y-105653866D01*
X195650476Y-105653866D02*
X195602857Y-105606247D01*
X195602857Y-105606247D02*
X195507619Y-105558628D01*
X195507619Y-105558628D02*
X195317143Y-105511009D01*
X195317143Y-105511009D02*
X195221905Y-105463390D01*
X195221905Y-105463390D02*
X195174286Y-105415771D01*
X195174286Y-105415771D02*
X195126667Y-105320533D01*
X195126667Y-105320533D02*
X195126667Y-105225295D01*
X195126667Y-105225295D02*
X195174286Y-105130057D01*
X195174286Y-105130057D02*
X195221905Y-105082438D01*
X195221905Y-105082438D02*
X195317143Y-105034819D01*
X195317143Y-105034819D02*
X195555238Y-105034819D01*
X195555238Y-105034819D02*
X195698095Y-105082438D01*
X196031429Y-105034819D02*
X196269524Y-106034819D01*
X196269524Y-106034819D02*
X196460000Y-105320533D01*
X196460000Y-105320533D02*
X196650476Y-106034819D01*
X196650476Y-106034819D02*
X196888572Y-105034819D01*
X197317143Y-106034819D02*
X197507619Y-106034819D01*
X197507619Y-106034819D02*
X197602857Y-105987200D01*
X197602857Y-105987200D02*
X197650476Y-105939580D01*
X197650476Y-105939580D02*
X197745714Y-105796723D01*
X197745714Y-105796723D02*
X197793333Y-105606247D01*
X197793333Y-105606247D02*
X197793333Y-105225295D01*
X197793333Y-105225295D02*
X197745714Y-105130057D01*
X197745714Y-105130057D02*
X197698095Y-105082438D01*
X197698095Y-105082438D02*
X197602857Y-105034819D01*
X197602857Y-105034819D02*
X197412381Y-105034819D01*
X197412381Y-105034819D02*
X197317143Y-105082438D01*
X197317143Y-105082438D02*
X197269524Y-105130057D01*
X197269524Y-105130057D02*
X197221905Y-105225295D01*
X197221905Y-105225295D02*
X197221905Y-105463390D01*
X197221905Y-105463390D02*
X197269524Y-105558628D01*
X197269524Y-105558628D02*
X197317143Y-105606247D01*
X197317143Y-105606247D02*
X197412381Y-105653866D01*
X197412381Y-105653866D02*
X197602857Y-105653866D01*
X197602857Y-105653866D02*
X197698095Y-105606247D01*
X197698095Y-105606247D02*
X197745714Y-105558628D01*
X197745714Y-105558628D02*
X197793333Y-105463390D01*
X77364819Y-140175238D02*
X76888628Y-140508571D01*
X77364819Y-140746666D02*
X76364819Y-140746666D01*
X76364819Y-140746666D02*
X76364819Y-140365714D01*
X76364819Y-140365714D02*
X76412438Y-140270476D01*
X76412438Y-140270476D02*
X76460057Y-140222857D01*
X76460057Y-140222857D02*
X76555295Y-140175238D01*
X76555295Y-140175238D02*
X76698152Y-140175238D01*
X76698152Y-140175238D02*
X76793390Y-140222857D01*
X76793390Y-140222857D02*
X76841009Y-140270476D01*
X76841009Y-140270476D02*
X76888628Y-140365714D01*
X76888628Y-140365714D02*
X76888628Y-140746666D01*
X76364819Y-139889523D02*
X77364819Y-139556190D01*
X77364819Y-139556190D02*
X76364819Y-139222857D01*
X76364819Y-138984761D02*
X76364819Y-138365714D01*
X76364819Y-138365714D02*
X76745771Y-138699047D01*
X76745771Y-138699047D02*
X76745771Y-138556190D01*
X76745771Y-138556190D02*
X76793390Y-138460952D01*
X76793390Y-138460952D02*
X76841009Y-138413333D01*
X76841009Y-138413333D02*
X76936247Y-138365714D01*
X76936247Y-138365714D02*
X77174342Y-138365714D01*
X77174342Y-138365714D02*
X77269580Y-138413333D01*
X77269580Y-138413333D02*
X77317200Y-138460952D01*
X77317200Y-138460952D02*
X77364819Y-138556190D01*
X77364819Y-138556190D02*
X77364819Y-138841904D01*
X77364819Y-138841904D02*
X77317200Y-138937142D01*
X77317200Y-138937142D02*
X77269580Y-138984761D01*
X175550476Y-85487200D02*
X175693333Y-85534819D01*
X175693333Y-85534819D02*
X175931428Y-85534819D01*
X175931428Y-85534819D02*
X176026666Y-85487200D01*
X176026666Y-85487200D02*
X176074285Y-85439580D01*
X176074285Y-85439580D02*
X176121904Y-85344342D01*
X176121904Y-85344342D02*
X176121904Y-85249104D01*
X176121904Y-85249104D02*
X176074285Y-85153866D01*
X176074285Y-85153866D02*
X176026666Y-85106247D01*
X176026666Y-85106247D02*
X175931428Y-85058628D01*
X175931428Y-85058628D02*
X175740952Y-85011009D01*
X175740952Y-85011009D02*
X175645714Y-84963390D01*
X175645714Y-84963390D02*
X175598095Y-84915771D01*
X175598095Y-84915771D02*
X175550476Y-84820533D01*
X175550476Y-84820533D02*
X175550476Y-84725295D01*
X175550476Y-84725295D02*
X175598095Y-84630057D01*
X175598095Y-84630057D02*
X175645714Y-84582438D01*
X175645714Y-84582438D02*
X175740952Y-84534819D01*
X175740952Y-84534819D02*
X175979047Y-84534819D01*
X175979047Y-84534819D02*
X176121904Y-84582438D01*
X176455238Y-84534819D02*
X176693333Y-85534819D01*
X176693333Y-85534819D02*
X176883809Y-84820533D01*
X176883809Y-84820533D02*
X177074285Y-85534819D01*
X177074285Y-85534819D02*
X177312381Y-84534819D01*
X178217142Y-85534819D02*
X177645714Y-85534819D01*
X177931428Y-85534819D02*
X177931428Y-84534819D01*
X177931428Y-84534819D02*
X177836190Y-84677676D01*
X177836190Y-84677676D02*
X177740952Y-84772914D01*
X177740952Y-84772914D02*
X177645714Y-84820533D01*
X178788571Y-84963390D02*
X178693333Y-84915771D01*
X178693333Y-84915771D02*
X178645714Y-84868152D01*
X178645714Y-84868152D02*
X178598095Y-84772914D01*
X178598095Y-84772914D02*
X178598095Y-84725295D01*
X178598095Y-84725295D02*
X178645714Y-84630057D01*
X178645714Y-84630057D02*
X178693333Y-84582438D01*
X178693333Y-84582438D02*
X178788571Y-84534819D01*
X178788571Y-84534819D02*
X178979047Y-84534819D01*
X178979047Y-84534819D02*
X179074285Y-84582438D01*
X179074285Y-84582438D02*
X179121904Y-84630057D01*
X179121904Y-84630057D02*
X179169523Y-84725295D01*
X179169523Y-84725295D02*
X179169523Y-84772914D01*
X179169523Y-84772914D02*
X179121904Y-84868152D01*
X179121904Y-84868152D02*
X179074285Y-84915771D01*
X179074285Y-84915771D02*
X178979047Y-84963390D01*
X178979047Y-84963390D02*
X178788571Y-84963390D01*
X178788571Y-84963390D02*
X178693333Y-85011009D01*
X178693333Y-85011009D02*
X178645714Y-85058628D01*
X178645714Y-85058628D02*
X178598095Y-85153866D01*
X178598095Y-85153866D02*
X178598095Y-85344342D01*
X178598095Y-85344342D02*
X178645714Y-85439580D01*
X178645714Y-85439580D02*
X178693333Y-85487200D01*
X178693333Y-85487200D02*
X178788571Y-85534819D01*
X178788571Y-85534819D02*
X178979047Y-85534819D01*
X178979047Y-85534819D02*
X179074285Y-85487200D01*
X179074285Y-85487200D02*
X179121904Y-85439580D01*
X179121904Y-85439580D02*
X179169523Y-85344342D01*
X179169523Y-85344342D02*
X179169523Y-85153866D01*
X179169523Y-85153866D02*
X179121904Y-85058628D01*
X179121904Y-85058628D02*
X179074285Y-85011009D01*
X179074285Y-85011009D02*
X178979047Y-84963390D01*
X118490476Y-85487200D02*
X118633333Y-85534819D01*
X118633333Y-85534819D02*
X118871428Y-85534819D01*
X118871428Y-85534819D02*
X118966666Y-85487200D01*
X118966666Y-85487200D02*
X119014285Y-85439580D01*
X119014285Y-85439580D02*
X119061904Y-85344342D01*
X119061904Y-85344342D02*
X119061904Y-85249104D01*
X119061904Y-85249104D02*
X119014285Y-85153866D01*
X119014285Y-85153866D02*
X118966666Y-85106247D01*
X118966666Y-85106247D02*
X118871428Y-85058628D01*
X118871428Y-85058628D02*
X118680952Y-85011009D01*
X118680952Y-85011009D02*
X118585714Y-84963390D01*
X118585714Y-84963390D02*
X118538095Y-84915771D01*
X118538095Y-84915771D02*
X118490476Y-84820533D01*
X118490476Y-84820533D02*
X118490476Y-84725295D01*
X118490476Y-84725295D02*
X118538095Y-84630057D01*
X118538095Y-84630057D02*
X118585714Y-84582438D01*
X118585714Y-84582438D02*
X118680952Y-84534819D01*
X118680952Y-84534819D02*
X118919047Y-84534819D01*
X118919047Y-84534819D02*
X119061904Y-84582438D01*
X119395238Y-84534819D02*
X119633333Y-85534819D01*
X119633333Y-85534819D02*
X119823809Y-84820533D01*
X119823809Y-84820533D02*
X120014285Y-85534819D01*
X120014285Y-85534819D02*
X120252381Y-84534819D01*
X121157142Y-85534819D02*
X120585714Y-85534819D01*
X120871428Y-85534819D02*
X120871428Y-84534819D01*
X120871428Y-84534819D02*
X120776190Y-84677676D01*
X120776190Y-84677676D02*
X120680952Y-84772914D01*
X120680952Y-84772914D02*
X120585714Y-84820533D01*
X122061904Y-84534819D02*
X121585714Y-84534819D01*
X121585714Y-84534819D02*
X121538095Y-85011009D01*
X121538095Y-85011009D02*
X121585714Y-84963390D01*
X121585714Y-84963390D02*
X121680952Y-84915771D01*
X121680952Y-84915771D02*
X121919047Y-84915771D01*
X121919047Y-84915771D02*
X122014285Y-84963390D01*
X122014285Y-84963390D02*
X122061904Y-85011009D01*
X122061904Y-85011009D02*
X122109523Y-85106247D01*
X122109523Y-85106247D02*
X122109523Y-85344342D01*
X122109523Y-85344342D02*
X122061904Y-85439580D01*
X122061904Y-85439580D02*
X122014285Y-85487200D01*
X122014285Y-85487200D02*
X121919047Y-85534819D01*
X121919047Y-85534819D02*
X121680952Y-85534819D01*
X121680952Y-85534819D02*
X121585714Y-85487200D01*
X121585714Y-85487200D02*
X121538095Y-85439580D01*
X131954819Y-76651428D02*
X131478628Y-76984761D01*
X131954819Y-77222856D02*
X130954819Y-77222856D01*
X130954819Y-77222856D02*
X130954819Y-76841904D01*
X130954819Y-76841904D02*
X131002438Y-76746666D01*
X131002438Y-76746666D02*
X131050057Y-76699047D01*
X131050057Y-76699047D02*
X131145295Y-76651428D01*
X131145295Y-76651428D02*
X131288152Y-76651428D01*
X131288152Y-76651428D02*
X131383390Y-76699047D01*
X131383390Y-76699047D02*
X131431009Y-76746666D01*
X131431009Y-76746666D02*
X131478628Y-76841904D01*
X131478628Y-76841904D02*
X131478628Y-77222856D01*
X130954819Y-76365713D02*
X131954819Y-76032380D01*
X131954819Y-76032380D02*
X130954819Y-75699047D01*
X131954819Y-74841904D02*
X131954819Y-75413332D01*
X131954819Y-75127618D02*
X130954819Y-75127618D01*
X130954819Y-75127618D02*
X131097676Y-75222856D01*
X131097676Y-75222856D02*
X131192914Y-75318094D01*
X131192914Y-75318094D02*
X131240533Y-75413332D01*
X130954819Y-73984761D02*
X130954819Y-74175237D01*
X130954819Y-74175237D02*
X131002438Y-74270475D01*
X131002438Y-74270475D02*
X131050057Y-74318094D01*
X131050057Y-74318094D02*
X131192914Y-74413332D01*
X131192914Y-74413332D02*
X131383390Y-74460951D01*
X131383390Y-74460951D02*
X131764342Y-74460951D01*
X131764342Y-74460951D02*
X131859580Y-74413332D01*
X131859580Y-74413332D02*
X131907200Y-74365713D01*
X131907200Y-74365713D02*
X131954819Y-74270475D01*
X131954819Y-74270475D02*
X131954819Y-74079999D01*
X131954819Y-74079999D02*
X131907200Y-73984761D01*
X131907200Y-73984761D02*
X131859580Y-73937142D01*
X131859580Y-73937142D02*
X131764342Y-73889523D01*
X131764342Y-73889523D02*
X131526247Y-73889523D01*
X131526247Y-73889523D02*
X131431009Y-73937142D01*
X131431009Y-73937142D02*
X131383390Y-73984761D01*
X131383390Y-73984761D02*
X131335771Y-74079999D01*
X131335771Y-74079999D02*
X131335771Y-74270475D01*
X131335771Y-74270475D02*
X131383390Y-74365713D01*
X131383390Y-74365713D02*
X131431009Y-74413332D01*
X131431009Y-74413332D02*
X131526247Y-74460951D01*
X39224819Y-140175238D02*
X38748628Y-140508571D01*
X39224819Y-140746666D02*
X38224819Y-140746666D01*
X38224819Y-140746666D02*
X38224819Y-140365714D01*
X38224819Y-140365714D02*
X38272438Y-140270476D01*
X38272438Y-140270476D02*
X38320057Y-140222857D01*
X38320057Y-140222857D02*
X38415295Y-140175238D01*
X38415295Y-140175238D02*
X38558152Y-140175238D01*
X38558152Y-140175238D02*
X38653390Y-140222857D01*
X38653390Y-140222857D02*
X38701009Y-140270476D01*
X38701009Y-140270476D02*
X38748628Y-140365714D01*
X38748628Y-140365714D02*
X38748628Y-140746666D01*
X38224819Y-139889523D02*
X39224819Y-139556190D01*
X39224819Y-139556190D02*
X38224819Y-139222857D01*
X39224819Y-138365714D02*
X39224819Y-138937142D01*
X39224819Y-138651428D02*
X38224819Y-138651428D01*
X38224819Y-138651428D02*
X38367676Y-138746666D01*
X38367676Y-138746666D02*
X38462914Y-138841904D01*
X38462914Y-138841904D02*
X38510533Y-138937142D01*
X50104819Y-80651428D02*
X49628628Y-80984761D01*
X50104819Y-81222856D02*
X49104819Y-81222856D01*
X49104819Y-81222856D02*
X49104819Y-80841904D01*
X49104819Y-80841904D02*
X49152438Y-80746666D01*
X49152438Y-80746666D02*
X49200057Y-80699047D01*
X49200057Y-80699047D02*
X49295295Y-80651428D01*
X49295295Y-80651428D02*
X49438152Y-80651428D01*
X49438152Y-80651428D02*
X49533390Y-80699047D01*
X49533390Y-80699047D02*
X49581009Y-80746666D01*
X49581009Y-80746666D02*
X49628628Y-80841904D01*
X49628628Y-80841904D02*
X49628628Y-81222856D01*
X49104819Y-80365713D02*
X50104819Y-80032380D01*
X50104819Y-80032380D02*
X49104819Y-79699047D01*
X50104819Y-78841904D02*
X50104819Y-79413332D01*
X50104819Y-79127618D02*
X49104819Y-79127618D01*
X49104819Y-79127618D02*
X49247676Y-79222856D01*
X49247676Y-79222856D02*
X49342914Y-79318094D01*
X49342914Y-79318094D02*
X49390533Y-79413332D01*
X50104819Y-77889523D02*
X50104819Y-78460951D01*
X50104819Y-78175237D02*
X49104819Y-78175237D01*
X49104819Y-78175237D02*
X49247676Y-78270475D01*
X49247676Y-78270475D02*
X49342914Y-78365713D01*
X49342914Y-78365713D02*
X49390533Y-78460951D01*
X233124819Y-112141904D02*
X233934342Y-112141904D01*
X233934342Y-112141904D02*
X234029580Y-112094285D01*
X234029580Y-112094285D02*
X234077200Y-112046666D01*
X234077200Y-112046666D02*
X234124819Y-111951428D01*
X234124819Y-111951428D02*
X234124819Y-111760952D01*
X234124819Y-111760952D02*
X234077200Y-111665714D01*
X234077200Y-111665714D02*
X234029580Y-111618095D01*
X234029580Y-111618095D02*
X233934342Y-111570476D01*
X233934342Y-111570476D02*
X233124819Y-111570476D01*
X233220057Y-111141904D02*
X233172438Y-111094285D01*
X233172438Y-111094285D02*
X233124819Y-110999047D01*
X233124819Y-110999047D02*
X233124819Y-110760952D01*
X233124819Y-110760952D02*
X233172438Y-110665714D01*
X233172438Y-110665714D02*
X233220057Y-110618095D01*
X233220057Y-110618095D02*
X233315295Y-110570476D01*
X233315295Y-110570476D02*
X233410533Y-110570476D01*
X233410533Y-110570476D02*
X233553390Y-110618095D01*
X233553390Y-110618095D02*
X234124819Y-111189523D01*
X234124819Y-111189523D02*
X234124819Y-110570476D01*
X176957200Y-55589523D02*
X177004819Y-55446666D01*
X177004819Y-55446666D02*
X177004819Y-55208571D01*
X177004819Y-55208571D02*
X176957200Y-55113333D01*
X176957200Y-55113333D02*
X176909580Y-55065714D01*
X176909580Y-55065714D02*
X176814342Y-55018095D01*
X176814342Y-55018095D02*
X176719104Y-55018095D01*
X176719104Y-55018095D02*
X176623866Y-55065714D01*
X176623866Y-55065714D02*
X176576247Y-55113333D01*
X176576247Y-55113333D02*
X176528628Y-55208571D01*
X176528628Y-55208571D02*
X176481009Y-55399047D01*
X176481009Y-55399047D02*
X176433390Y-55494285D01*
X176433390Y-55494285D02*
X176385771Y-55541904D01*
X176385771Y-55541904D02*
X176290533Y-55589523D01*
X176290533Y-55589523D02*
X176195295Y-55589523D01*
X176195295Y-55589523D02*
X176100057Y-55541904D01*
X176100057Y-55541904D02*
X176052438Y-55494285D01*
X176052438Y-55494285D02*
X176004819Y-55399047D01*
X176004819Y-55399047D02*
X176004819Y-55160952D01*
X176004819Y-55160952D02*
X176052438Y-55018095D01*
X176004819Y-54684761D02*
X177004819Y-54446666D01*
X177004819Y-54446666D02*
X176290533Y-54256190D01*
X176290533Y-54256190D02*
X177004819Y-54065714D01*
X177004819Y-54065714D02*
X176004819Y-53827619D01*
X176100057Y-53494285D02*
X176052438Y-53446666D01*
X176052438Y-53446666D02*
X176004819Y-53351428D01*
X176004819Y-53351428D02*
X176004819Y-53113333D01*
X176004819Y-53113333D02*
X176052438Y-53018095D01*
X176052438Y-53018095D02*
X176100057Y-52970476D01*
X176100057Y-52970476D02*
X176195295Y-52922857D01*
X176195295Y-52922857D02*
X176290533Y-52922857D01*
X176290533Y-52922857D02*
X176433390Y-52970476D01*
X176433390Y-52970476D02*
X177004819Y-53541904D01*
X177004819Y-53541904D02*
X177004819Y-52922857D01*
X176004819Y-52589523D02*
X176004819Y-51970476D01*
X176004819Y-51970476D02*
X176385771Y-52303809D01*
X176385771Y-52303809D02*
X176385771Y-52160952D01*
X176385771Y-52160952D02*
X176433390Y-52065714D01*
X176433390Y-52065714D02*
X176481009Y-52018095D01*
X176481009Y-52018095D02*
X176576247Y-51970476D01*
X176576247Y-51970476D02*
X176814342Y-51970476D01*
X176814342Y-51970476D02*
X176909580Y-52018095D01*
X176909580Y-52018095D02*
X176957200Y-52065714D01*
X176957200Y-52065714D02*
X177004819Y-52160952D01*
X177004819Y-52160952D02*
X177004819Y-52446666D01*
X177004819Y-52446666D02*
X176957200Y-52541904D01*
X176957200Y-52541904D02*
X176909580Y-52589523D01*
X221540476Y-105987200D02*
X221683333Y-106034819D01*
X221683333Y-106034819D02*
X221921428Y-106034819D01*
X221921428Y-106034819D02*
X222016666Y-105987200D01*
X222016666Y-105987200D02*
X222064285Y-105939580D01*
X222064285Y-105939580D02*
X222111904Y-105844342D01*
X222111904Y-105844342D02*
X222111904Y-105749104D01*
X222111904Y-105749104D02*
X222064285Y-105653866D01*
X222064285Y-105653866D02*
X222016666Y-105606247D01*
X222016666Y-105606247D02*
X221921428Y-105558628D01*
X221921428Y-105558628D02*
X221730952Y-105511009D01*
X221730952Y-105511009D02*
X221635714Y-105463390D01*
X221635714Y-105463390D02*
X221588095Y-105415771D01*
X221588095Y-105415771D02*
X221540476Y-105320533D01*
X221540476Y-105320533D02*
X221540476Y-105225295D01*
X221540476Y-105225295D02*
X221588095Y-105130057D01*
X221588095Y-105130057D02*
X221635714Y-105082438D01*
X221635714Y-105082438D02*
X221730952Y-105034819D01*
X221730952Y-105034819D02*
X221969047Y-105034819D01*
X221969047Y-105034819D02*
X222111904Y-105082438D01*
X222445238Y-105034819D02*
X222683333Y-106034819D01*
X222683333Y-106034819D02*
X222873809Y-105320533D01*
X222873809Y-105320533D02*
X223064285Y-106034819D01*
X223064285Y-106034819D02*
X223302381Y-105034819D01*
X224207142Y-106034819D02*
X223635714Y-106034819D01*
X223921428Y-106034819D02*
X223921428Y-105034819D01*
X223921428Y-105034819D02*
X223826190Y-105177676D01*
X223826190Y-105177676D02*
X223730952Y-105272914D01*
X223730952Y-105272914D02*
X223635714Y-105320533D01*
X224826190Y-105034819D02*
X224921428Y-105034819D01*
X224921428Y-105034819D02*
X225016666Y-105082438D01*
X225016666Y-105082438D02*
X225064285Y-105130057D01*
X225064285Y-105130057D02*
X225111904Y-105225295D01*
X225111904Y-105225295D02*
X225159523Y-105415771D01*
X225159523Y-105415771D02*
X225159523Y-105653866D01*
X225159523Y-105653866D02*
X225111904Y-105844342D01*
X225111904Y-105844342D02*
X225064285Y-105939580D01*
X225064285Y-105939580D02*
X225016666Y-105987200D01*
X225016666Y-105987200D02*
X224921428Y-106034819D01*
X224921428Y-106034819D02*
X224826190Y-106034819D01*
X224826190Y-106034819D02*
X224730952Y-105987200D01*
X224730952Y-105987200D02*
X224683333Y-105939580D01*
X224683333Y-105939580D02*
X224635714Y-105844342D01*
X224635714Y-105844342D02*
X224588095Y-105653866D01*
X224588095Y-105653866D02*
X224588095Y-105415771D01*
X224588095Y-105415771D02*
X224635714Y-105225295D01*
X224635714Y-105225295D02*
X224683333Y-105130057D01*
X224683333Y-105130057D02*
X224730952Y-105082438D01*
X224730952Y-105082438D02*
X224826190Y-105034819D01*
X80956666Y-105987200D02*
X81099523Y-106034819D01*
X81099523Y-106034819D02*
X81337618Y-106034819D01*
X81337618Y-106034819D02*
X81432856Y-105987200D01*
X81432856Y-105987200D02*
X81480475Y-105939580D01*
X81480475Y-105939580D02*
X81528094Y-105844342D01*
X81528094Y-105844342D02*
X81528094Y-105749104D01*
X81528094Y-105749104D02*
X81480475Y-105653866D01*
X81480475Y-105653866D02*
X81432856Y-105606247D01*
X81432856Y-105606247D02*
X81337618Y-105558628D01*
X81337618Y-105558628D02*
X81147142Y-105511009D01*
X81147142Y-105511009D02*
X81051904Y-105463390D01*
X81051904Y-105463390D02*
X81004285Y-105415771D01*
X81004285Y-105415771D02*
X80956666Y-105320533D01*
X80956666Y-105320533D02*
X80956666Y-105225295D01*
X80956666Y-105225295D02*
X81004285Y-105130057D01*
X81004285Y-105130057D02*
X81051904Y-105082438D01*
X81051904Y-105082438D02*
X81147142Y-105034819D01*
X81147142Y-105034819D02*
X81385237Y-105034819D01*
X81385237Y-105034819D02*
X81528094Y-105082438D01*
X81861428Y-105034819D02*
X82099523Y-106034819D01*
X82099523Y-106034819D02*
X82289999Y-105320533D01*
X82289999Y-105320533D02*
X82480475Y-106034819D01*
X82480475Y-106034819D02*
X82718571Y-105034819D01*
X83004285Y-105034819D02*
X83623332Y-105034819D01*
X83623332Y-105034819D02*
X83289999Y-105415771D01*
X83289999Y-105415771D02*
X83432856Y-105415771D01*
X83432856Y-105415771D02*
X83528094Y-105463390D01*
X83528094Y-105463390D02*
X83575713Y-105511009D01*
X83575713Y-105511009D02*
X83623332Y-105606247D01*
X83623332Y-105606247D02*
X83623332Y-105844342D01*
X83623332Y-105844342D02*
X83575713Y-105939580D01*
X83575713Y-105939580D02*
X83528094Y-105987200D01*
X83528094Y-105987200D02*
X83432856Y-106034819D01*
X83432856Y-106034819D02*
X83147142Y-106034819D01*
X83147142Y-106034819D02*
X83051904Y-105987200D01*
X83051904Y-105987200D02*
X83004285Y-105939580D01*
X215954819Y-76651428D02*
X215478628Y-76984761D01*
X215954819Y-77222856D02*
X214954819Y-77222856D01*
X214954819Y-77222856D02*
X214954819Y-76841904D01*
X214954819Y-76841904D02*
X215002438Y-76746666D01*
X215002438Y-76746666D02*
X215050057Y-76699047D01*
X215050057Y-76699047D02*
X215145295Y-76651428D01*
X215145295Y-76651428D02*
X215288152Y-76651428D01*
X215288152Y-76651428D02*
X215383390Y-76699047D01*
X215383390Y-76699047D02*
X215431009Y-76746666D01*
X215431009Y-76746666D02*
X215478628Y-76841904D01*
X215478628Y-76841904D02*
X215478628Y-77222856D01*
X214954819Y-76365713D02*
X215954819Y-76032380D01*
X215954819Y-76032380D02*
X214954819Y-75699047D01*
X215050057Y-75413332D02*
X215002438Y-75365713D01*
X215002438Y-75365713D02*
X214954819Y-75270475D01*
X214954819Y-75270475D02*
X214954819Y-75032380D01*
X214954819Y-75032380D02*
X215002438Y-74937142D01*
X215002438Y-74937142D02*
X215050057Y-74889523D01*
X215050057Y-74889523D02*
X215145295Y-74841904D01*
X215145295Y-74841904D02*
X215240533Y-74841904D01*
X215240533Y-74841904D02*
X215383390Y-74889523D01*
X215383390Y-74889523D02*
X215954819Y-75460951D01*
X215954819Y-75460951D02*
X215954819Y-74841904D01*
X214954819Y-74222856D02*
X214954819Y-74127618D01*
X214954819Y-74127618D02*
X215002438Y-74032380D01*
X215002438Y-74032380D02*
X215050057Y-73984761D01*
X215050057Y-73984761D02*
X215145295Y-73937142D01*
X215145295Y-73937142D02*
X215335771Y-73889523D01*
X215335771Y-73889523D02*
X215573866Y-73889523D01*
X215573866Y-73889523D02*
X215764342Y-73937142D01*
X215764342Y-73937142D02*
X215859580Y-73984761D01*
X215859580Y-73984761D02*
X215907200Y-74032380D01*
X215907200Y-74032380D02*
X215954819Y-74127618D01*
X215954819Y-74127618D02*
X215954819Y-74222856D01*
X215954819Y-74222856D02*
X215907200Y-74318094D01*
X215907200Y-74318094D02*
X215859580Y-74365713D01*
X215859580Y-74365713D02*
X215764342Y-74413332D01*
X215764342Y-74413332D02*
X215573866Y-74460951D01*
X215573866Y-74460951D02*
X215335771Y-74460951D01*
X215335771Y-74460951D02*
X215145295Y-74413332D01*
X215145295Y-74413332D02*
X215050057Y-74365713D01*
X215050057Y-74365713D02*
X215002438Y-74318094D01*
X215002438Y-74318094D02*
X214954819Y-74222856D01*
X156540476Y-85487200D02*
X156683333Y-85534819D01*
X156683333Y-85534819D02*
X156921428Y-85534819D01*
X156921428Y-85534819D02*
X157016666Y-85487200D01*
X157016666Y-85487200D02*
X157064285Y-85439580D01*
X157064285Y-85439580D02*
X157111904Y-85344342D01*
X157111904Y-85344342D02*
X157111904Y-85249104D01*
X157111904Y-85249104D02*
X157064285Y-85153866D01*
X157064285Y-85153866D02*
X157016666Y-85106247D01*
X157016666Y-85106247D02*
X156921428Y-85058628D01*
X156921428Y-85058628D02*
X156730952Y-85011009D01*
X156730952Y-85011009D02*
X156635714Y-84963390D01*
X156635714Y-84963390D02*
X156588095Y-84915771D01*
X156588095Y-84915771D02*
X156540476Y-84820533D01*
X156540476Y-84820533D02*
X156540476Y-84725295D01*
X156540476Y-84725295D02*
X156588095Y-84630057D01*
X156588095Y-84630057D02*
X156635714Y-84582438D01*
X156635714Y-84582438D02*
X156730952Y-84534819D01*
X156730952Y-84534819D02*
X156969047Y-84534819D01*
X156969047Y-84534819D02*
X157111904Y-84582438D01*
X157445238Y-84534819D02*
X157683333Y-85534819D01*
X157683333Y-85534819D02*
X157873809Y-84820533D01*
X157873809Y-84820533D02*
X158064285Y-85534819D01*
X158064285Y-85534819D02*
X158302381Y-84534819D01*
X159207142Y-85534819D02*
X158635714Y-85534819D01*
X158921428Y-85534819D02*
X158921428Y-84534819D01*
X158921428Y-84534819D02*
X158826190Y-84677676D01*
X158826190Y-84677676D02*
X158730952Y-84772914D01*
X158730952Y-84772914D02*
X158635714Y-84820533D01*
X159540476Y-84534819D02*
X160207142Y-84534819D01*
X160207142Y-84534819D02*
X159778571Y-85534819D01*
X153424819Y-140175238D02*
X152948628Y-140508571D01*
X153424819Y-140746666D02*
X152424819Y-140746666D01*
X152424819Y-140746666D02*
X152424819Y-140365714D01*
X152424819Y-140365714D02*
X152472438Y-140270476D01*
X152472438Y-140270476D02*
X152520057Y-140222857D01*
X152520057Y-140222857D02*
X152615295Y-140175238D01*
X152615295Y-140175238D02*
X152758152Y-140175238D01*
X152758152Y-140175238D02*
X152853390Y-140222857D01*
X152853390Y-140222857D02*
X152901009Y-140270476D01*
X152901009Y-140270476D02*
X152948628Y-140365714D01*
X152948628Y-140365714D02*
X152948628Y-140746666D01*
X152424819Y-139889523D02*
X153424819Y-139556190D01*
X153424819Y-139556190D02*
X152424819Y-139222857D01*
X152424819Y-138984761D02*
X152424819Y-138318095D01*
X152424819Y-138318095D02*
X153424819Y-138746666D01*
X99530475Y-85487200D02*
X99673332Y-85534819D01*
X99673332Y-85534819D02*
X99911427Y-85534819D01*
X99911427Y-85534819D02*
X100006665Y-85487200D01*
X100006665Y-85487200D02*
X100054284Y-85439580D01*
X100054284Y-85439580D02*
X100101903Y-85344342D01*
X100101903Y-85344342D02*
X100101903Y-85249104D01*
X100101903Y-85249104D02*
X100054284Y-85153866D01*
X100054284Y-85153866D02*
X100006665Y-85106247D01*
X100006665Y-85106247D02*
X99911427Y-85058628D01*
X99911427Y-85058628D02*
X99720951Y-85011009D01*
X99720951Y-85011009D02*
X99625713Y-84963390D01*
X99625713Y-84963390D02*
X99578094Y-84915771D01*
X99578094Y-84915771D02*
X99530475Y-84820533D01*
X99530475Y-84820533D02*
X99530475Y-84725295D01*
X99530475Y-84725295D02*
X99578094Y-84630057D01*
X99578094Y-84630057D02*
X99625713Y-84582438D01*
X99625713Y-84582438D02*
X99720951Y-84534819D01*
X99720951Y-84534819D02*
X99959046Y-84534819D01*
X99959046Y-84534819D02*
X100101903Y-84582438D01*
X100435237Y-84534819D02*
X100673332Y-85534819D01*
X100673332Y-85534819D02*
X100863808Y-84820533D01*
X100863808Y-84820533D02*
X101054284Y-85534819D01*
X101054284Y-85534819D02*
X101292380Y-84534819D01*
X102197141Y-85534819D02*
X101625713Y-85534819D01*
X101911427Y-85534819D02*
X101911427Y-84534819D01*
X101911427Y-84534819D02*
X101816189Y-84677676D01*
X101816189Y-84677676D02*
X101720951Y-84772914D01*
X101720951Y-84772914D02*
X101625713Y-84820533D01*
X103054284Y-84868152D02*
X103054284Y-85534819D01*
X102816189Y-84487200D02*
X102578094Y-85201485D01*
X102578094Y-85201485D02*
X103197141Y-85201485D01*
X55844819Y-76651428D02*
X55368628Y-76984761D01*
X55844819Y-77222856D02*
X54844819Y-77222856D01*
X54844819Y-77222856D02*
X54844819Y-76841904D01*
X54844819Y-76841904D02*
X54892438Y-76746666D01*
X54892438Y-76746666D02*
X54940057Y-76699047D01*
X54940057Y-76699047D02*
X55035295Y-76651428D01*
X55035295Y-76651428D02*
X55178152Y-76651428D01*
X55178152Y-76651428D02*
X55273390Y-76699047D01*
X55273390Y-76699047D02*
X55321009Y-76746666D01*
X55321009Y-76746666D02*
X55368628Y-76841904D01*
X55368628Y-76841904D02*
X55368628Y-77222856D01*
X54844819Y-76365713D02*
X55844819Y-76032380D01*
X55844819Y-76032380D02*
X54844819Y-75699047D01*
X55844819Y-74841904D02*
X55844819Y-75413332D01*
X55844819Y-75127618D02*
X54844819Y-75127618D01*
X54844819Y-75127618D02*
X54987676Y-75222856D01*
X54987676Y-75222856D02*
X55082914Y-75318094D01*
X55082914Y-75318094D02*
X55130533Y-75413332D01*
X54940057Y-74460951D02*
X54892438Y-74413332D01*
X54892438Y-74413332D02*
X54844819Y-74318094D01*
X54844819Y-74318094D02*
X54844819Y-74079999D01*
X54844819Y-74079999D02*
X54892438Y-73984761D01*
X54892438Y-73984761D02*
X54940057Y-73937142D01*
X54940057Y-73937142D02*
X55035295Y-73889523D01*
X55035295Y-73889523D02*
X55130533Y-73889523D01*
X55130533Y-73889523D02*
X55273390Y-73937142D01*
X55273390Y-73937142D02*
X55844819Y-74508570D01*
X55844819Y-74508570D02*
X55844819Y-73889523D01*
X118966667Y-105987200D02*
X119109524Y-106034819D01*
X119109524Y-106034819D02*
X119347619Y-106034819D01*
X119347619Y-106034819D02*
X119442857Y-105987200D01*
X119442857Y-105987200D02*
X119490476Y-105939580D01*
X119490476Y-105939580D02*
X119538095Y-105844342D01*
X119538095Y-105844342D02*
X119538095Y-105749104D01*
X119538095Y-105749104D02*
X119490476Y-105653866D01*
X119490476Y-105653866D02*
X119442857Y-105606247D01*
X119442857Y-105606247D02*
X119347619Y-105558628D01*
X119347619Y-105558628D02*
X119157143Y-105511009D01*
X119157143Y-105511009D02*
X119061905Y-105463390D01*
X119061905Y-105463390D02*
X119014286Y-105415771D01*
X119014286Y-105415771D02*
X118966667Y-105320533D01*
X118966667Y-105320533D02*
X118966667Y-105225295D01*
X118966667Y-105225295D02*
X119014286Y-105130057D01*
X119014286Y-105130057D02*
X119061905Y-105082438D01*
X119061905Y-105082438D02*
X119157143Y-105034819D01*
X119157143Y-105034819D02*
X119395238Y-105034819D01*
X119395238Y-105034819D02*
X119538095Y-105082438D01*
X119871429Y-105034819D02*
X120109524Y-106034819D01*
X120109524Y-106034819D02*
X120300000Y-105320533D01*
X120300000Y-105320533D02*
X120490476Y-106034819D01*
X120490476Y-106034819D02*
X120728572Y-105034819D01*
X121585714Y-105034819D02*
X121109524Y-105034819D01*
X121109524Y-105034819D02*
X121061905Y-105511009D01*
X121061905Y-105511009D02*
X121109524Y-105463390D01*
X121109524Y-105463390D02*
X121204762Y-105415771D01*
X121204762Y-105415771D02*
X121442857Y-105415771D01*
X121442857Y-105415771D02*
X121538095Y-105463390D01*
X121538095Y-105463390D02*
X121585714Y-105511009D01*
X121585714Y-105511009D02*
X121633333Y-105606247D01*
X121633333Y-105606247D02*
X121633333Y-105844342D01*
X121633333Y-105844342D02*
X121585714Y-105939580D01*
X121585714Y-105939580D02*
X121538095Y-105987200D01*
X121538095Y-105987200D02*
X121442857Y-106034819D01*
X121442857Y-106034819D02*
X121204762Y-106034819D01*
X121204762Y-106034819D02*
X121109524Y-105987200D01*
X121109524Y-105987200D02*
X121061905Y-105939580D01*
X218424819Y-140651428D02*
X217948628Y-140984761D01*
X218424819Y-141222856D02*
X217424819Y-141222856D01*
X217424819Y-141222856D02*
X217424819Y-140841904D01*
X217424819Y-140841904D02*
X217472438Y-140746666D01*
X217472438Y-140746666D02*
X217520057Y-140699047D01*
X217520057Y-140699047D02*
X217615295Y-140651428D01*
X217615295Y-140651428D02*
X217758152Y-140651428D01*
X217758152Y-140651428D02*
X217853390Y-140699047D01*
X217853390Y-140699047D02*
X217901009Y-140746666D01*
X217901009Y-140746666D02*
X217948628Y-140841904D01*
X217948628Y-140841904D02*
X217948628Y-141222856D01*
X217424819Y-140365713D02*
X218424819Y-140032380D01*
X218424819Y-140032380D02*
X217424819Y-139699047D01*
X218424819Y-138841904D02*
X218424819Y-139413332D01*
X218424819Y-139127618D02*
X217424819Y-139127618D01*
X217424819Y-139127618D02*
X217567676Y-139222856D01*
X217567676Y-139222856D02*
X217662914Y-139318094D01*
X217662914Y-139318094D02*
X217710533Y-139413332D01*
X217424819Y-138222856D02*
X217424819Y-138127618D01*
X217424819Y-138127618D02*
X217472438Y-138032380D01*
X217472438Y-138032380D02*
X217520057Y-137984761D01*
X217520057Y-137984761D02*
X217615295Y-137937142D01*
X217615295Y-137937142D02*
X217805771Y-137889523D01*
X217805771Y-137889523D02*
X218043866Y-137889523D01*
X218043866Y-137889523D02*
X218234342Y-137937142D01*
X218234342Y-137937142D02*
X218329580Y-137984761D01*
X218329580Y-137984761D02*
X218377200Y-138032380D01*
X218377200Y-138032380D02*
X218424819Y-138127618D01*
X218424819Y-138127618D02*
X218424819Y-138222856D01*
X218424819Y-138222856D02*
X218377200Y-138318094D01*
X218377200Y-138318094D02*
X218329580Y-138365713D01*
X218329580Y-138365713D02*
X218234342Y-138413332D01*
X218234342Y-138413332D02*
X218043866Y-138460951D01*
X218043866Y-138460951D02*
X217805771Y-138460951D01*
X217805771Y-138460951D02*
X217615295Y-138413332D01*
X217615295Y-138413332D02*
X217520057Y-138365713D01*
X217520057Y-138365713D02*
X217472438Y-138318094D01*
X217472438Y-138318094D02*
X217424819Y-138222856D01*
X176026667Y-105987200D02*
X176169524Y-106034819D01*
X176169524Y-106034819D02*
X176407619Y-106034819D01*
X176407619Y-106034819D02*
X176502857Y-105987200D01*
X176502857Y-105987200D02*
X176550476Y-105939580D01*
X176550476Y-105939580D02*
X176598095Y-105844342D01*
X176598095Y-105844342D02*
X176598095Y-105749104D01*
X176598095Y-105749104D02*
X176550476Y-105653866D01*
X176550476Y-105653866D02*
X176502857Y-105606247D01*
X176502857Y-105606247D02*
X176407619Y-105558628D01*
X176407619Y-105558628D02*
X176217143Y-105511009D01*
X176217143Y-105511009D02*
X176121905Y-105463390D01*
X176121905Y-105463390D02*
X176074286Y-105415771D01*
X176074286Y-105415771D02*
X176026667Y-105320533D01*
X176026667Y-105320533D02*
X176026667Y-105225295D01*
X176026667Y-105225295D02*
X176074286Y-105130057D01*
X176074286Y-105130057D02*
X176121905Y-105082438D01*
X176121905Y-105082438D02*
X176217143Y-105034819D01*
X176217143Y-105034819D02*
X176455238Y-105034819D01*
X176455238Y-105034819D02*
X176598095Y-105082438D01*
X176931429Y-105034819D02*
X177169524Y-106034819D01*
X177169524Y-106034819D02*
X177360000Y-105320533D01*
X177360000Y-105320533D02*
X177550476Y-106034819D01*
X177550476Y-106034819D02*
X177788572Y-105034819D01*
X178312381Y-105463390D02*
X178217143Y-105415771D01*
X178217143Y-105415771D02*
X178169524Y-105368152D01*
X178169524Y-105368152D02*
X178121905Y-105272914D01*
X178121905Y-105272914D02*
X178121905Y-105225295D01*
X178121905Y-105225295D02*
X178169524Y-105130057D01*
X178169524Y-105130057D02*
X178217143Y-105082438D01*
X178217143Y-105082438D02*
X178312381Y-105034819D01*
X178312381Y-105034819D02*
X178502857Y-105034819D01*
X178502857Y-105034819D02*
X178598095Y-105082438D01*
X178598095Y-105082438D02*
X178645714Y-105130057D01*
X178645714Y-105130057D02*
X178693333Y-105225295D01*
X178693333Y-105225295D02*
X178693333Y-105272914D01*
X178693333Y-105272914D02*
X178645714Y-105368152D01*
X178645714Y-105368152D02*
X178598095Y-105415771D01*
X178598095Y-105415771D02*
X178502857Y-105463390D01*
X178502857Y-105463390D02*
X178312381Y-105463390D01*
X178312381Y-105463390D02*
X178217143Y-105511009D01*
X178217143Y-105511009D02*
X178169524Y-105558628D01*
X178169524Y-105558628D02*
X178121905Y-105653866D01*
X178121905Y-105653866D02*
X178121905Y-105844342D01*
X178121905Y-105844342D02*
X178169524Y-105939580D01*
X178169524Y-105939580D02*
X178217143Y-105987200D01*
X178217143Y-105987200D02*
X178312381Y-106034819D01*
X178312381Y-106034819D02*
X178502857Y-106034819D01*
X178502857Y-106034819D02*
X178598095Y-105987200D01*
X178598095Y-105987200D02*
X178645714Y-105939580D01*
X178645714Y-105939580D02*
X178693333Y-105844342D01*
X178693333Y-105844342D02*
X178693333Y-105653866D01*
X178693333Y-105653866D02*
X178645714Y-105558628D01*
X178645714Y-105558628D02*
X178598095Y-105511009D01*
X178598095Y-105511009D02*
X178502857Y-105463390D01*
X42816667Y-105987200D02*
X42959524Y-106034819D01*
X42959524Y-106034819D02*
X43197619Y-106034819D01*
X43197619Y-106034819D02*
X43292857Y-105987200D01*
X43292857Y-105987200D02*
X43340476Y-105939580D01*
X43340476Y-105939580D02*
X43388095Y-105844342D01*
X43388095Y-105844342D02*
X43388095Y-105749104D01*
X43388095Y-105749104D02*
X43340476Y-105653866D01*
X43340476Y-105653866D02*
X43292857Y-105606247D01*
X43292857Y-105606247D02*
X43197619Y-105558628D01*
X43197619Y-105558628D02*
X43007143Y-105511009D01*
X43007143Y-105511009D02*
X42911905Y-105463390D01*
X42911905Y-105463390D02*
X42864286Y-105415771D01*
X42864286Y-105415771D02*
X42816667Y-105320533D01*
X42816667Y-105320533D02*
X42816667Y-105225295D01*
X42816667Y-105225295D02*
X42864286Y-105130057D01*
X42864286Y-105130057D02*
X42911905Y-105082438D01*
X42911905Y-105082438D02*
X43007143Y-105034819D01*
X43007143Y-105034819D02*
X43245238Y-105034819D01*
X43245238Y-105034819D02*
X43388095Y-105082438D01*
X43721429Y-105034819D02*
X43959524Y-106034819D01*
X43959524Y-106034819D02*
X44150000Y-105320533D01*
X44150000Y-105320533D02*
X44340476Y-106034819D01*
X44340476Y-106034819D02*
X44578572Y-105034819D01*
X45483333Y-106034819D02*
X44911905Y-106034819D01*
X45197619Y-106034819D02*
X45197619Y-105034819D01*
X45197619Y-105034819D02*
X45102381Y-105177676D01*
X45102381Y-105177676D02*
X45007143Y-105272914D01*
X45007143Y-105272914D02*
X44911905Y-105320533D01*
X137540476Y-85487200D02*
X137683333Y-85534819D01*
X137683333Y-85534819D02*
X137921428Y-85534819D01*
X137921428Y-85534819D02*
X138016666Y-85487200D01*
X138016666Y-85487200D02*
X138064285Y-85439580D01*
X138064285Y-85439580D02*
X138111904Y-85344342D01*
X138111904Y-85344342D02*
X138111904Y-85249104D01*
X138111904Y-85249104D02*
X138064285Y-85153866D01*
X138064285Y-85153866D02*
X138016666Y-85106247D01*
X138016666Y-85106247D02*
X137921428Y-85058628D01*
X137921428Y-85058628D02*
X137730952Y-85011009D01*
X137730952Y-85011009D02*
X137635714Y-84963390D01*
X137635714Y-84963390D02*
X137588095Y-84915771D01*
X137588095Y-84915771D02*
X137540476Y-84820533D01*
X137540476Y-84820533D02*
X137540476Y-84725295D01*
X137540476Y-84725295D02*
X137588095Y-84630057D01*
X137588095Y-84630057D02*
X137635714Y-84582438D01*
X137635714Y-84582438D02*
X137730952Y-84534819D01*
X137730952Y-84534819D02*
X137969047Y-84534819D01*
X137969047Y-84534819D02*
X138111904Y-84582438D01*
X138445238Y-84534819D02*
X138683333Y-85534819D01*
X138683333Y-85534819D02*
X138873809Y-84820533D01*
X138873809Y-84820533D02*
X139064285Y-85534819D01*
X139064285Y-85534819D02*
X139302381Y-84534819D01*
X140207142Y-85534819D02*
X139635714Y-85534819D01*
X139921428Y-85534819D02*
X139921428Y-84534819D01*
X139921428Y-84534819D02*
X139826190Y-84677676D01*
X139826190Y-84677676D02*
X139730952Y-84772914D01*
X139730952Y-84772914D02*
X139635714Y-84820533D01*
X141064285Y-84534819D02*
X140873809Y-84534819D01*
X140873809Y-84534819D02*
X140778571Y-84582438D01*
X140778571Y-84582438D02*
X140730952Y-84630057D01*
X140730952Y-84630057D02*
X140635714Y-84772914D01*
X140635714Y-84772914D02*
X140588095Y-84963390D01*
X140588095Y-84963390D02*
X140588095Y-85344342D01*
X140588095Y-85344342D02*
X140635714Y-85439580D01*
X140635714Y-85439580D02*
X140683333Y-85487200D01*
X140683333Y-85487200D02*
X140778571Y-85534819D01*
X140778571Y-85534819D02*
X140969047Y-85534819D01*
X140969047Y-85534819D02*
X141064285Y-85487200D01*
X141064285Y-85487200D02*
X141111904Y-85439580D01*
X141111904Y-85439580D02*
X141159523Y-85344342D01*
X141159523Y-85344342D02*
X141159523Y-85106247D01*
X141159523Y-85106247D02*
X141111904Y-85011009D01*
X141111904Y-85011009D02*
X141064285Y-84963390D01*
X141064285Y-84963390D02*
X140969047Y-84915771D01*
X140969047Y-84915771D02*
X140778571Y-84915771D01*
X140778571Y-84915771D02*
X140683333Y-84963390D01*
X140683333Y-84963390D02*
X140635714Y-85011009D01*
X140635714Y-85011009D02*
X140588095Y-85106247D01*
X257336095Y-101530819D02*
X257336095Y-102340342D01*
X257336095Y-102340342D02*
X257383714Y-102435580D01*
X257383714Y-102435580D02*
X257431333Y-102483200D01*
X257431333Y-102483200D02*
X257526571Y-102530819D01*
X257526571Y-102530819D02*
X257717047Y-102530819D01*
X257717047Y-102530819D02*
X257812285Y-102483200D01*
X257812285Y-102483200D02*
X257859904Y-102435580D01*
X257859904Y-102435580D02*
X257907523Y-102340342D01*
X257907523Y-102340342D02*
X257907523Y-101530819D01*
X258907523Y-102530819D02*
X258336095Y-102530819D01*
X258621809Y-102530819D02*
X258621809Y-101530819D01*
X258621809Y-101530819D02*
X258526571Y-101673676D01*
X258526571Y-101673676D02*
X258431333Y-101768914D01*
X258431333Y-101768914D02*
X258336095Y-101816533D01*
D11*
X246690481Y-38337950D02*
X246614291Y-38299855D01*
X246614291Y-38299855D02*
X246500005Y-38299855D01*
X246500005Y-38299855D02*
X246385719Y-38337950D01*
X246385719Y-38337950D02*
X246309529Y-38414140D01*
X246309529Y-38414140D02*
X246271434Y-38490331D01*
X246271434Y-38490331D02*
X246233338Y-38642712D01*
X246233338Y-38642712D02*
X246233338Y-38756998D01*
X246233338Y-38756998D02*
X246271434Y-38909379D01*
X246271434Y-38909379D02*
X246309529Y-38985569D01*
X246309529Y-38985569D02*
X246385719Y-39061760D01*
X246385719Y-39061760D02*
X246500005Y-39099855D01*
X246500005Y-39099855D02*
X246576196Y-39099855D01*
X246576196Y-39099855D02*
X246690481Y-39061760D01*
X246690481Y-39061760D02*
X246728577Y-39023664D01*
X246728577Y-39023664D02*
X246728577Y-38756998D01*
X246728577Y-38756998D02*
X246576196Y-38756998D01*
X247071434Y-39099855D02*
X247071434Y-38299855D01*
X247071434Y-38299855D02*
X247528577Y-39099855D01*
X247528577Y-39099855D02*
X247528577Y-38299855D01*
X247909529Y-39099855D02*
X247909529Y-38299855D01*
X247909529Y-38299855D02*
X248100005Y-38299855D01*
X248100005Y-38299855D02*
X248214291Y-38337950D01*
X248214291Y-38337950D02*
X248290481Y-38414140D01*
X248290481Y-38414140D02*
X248328576Y-38490331D01*
X248328576Y-38490331D02*
X248366672Y-38642712D01*
X248366672Y-38642712D02*
X248366672Y-38756998D01*
X248366672Y-38756998D02*
X248328576Y-38909379D01*
X248328576Y-38909379D02*
X248290481Y-38985569D01*
X248290481Y-38985569D02*
X248214291Y-39061760D01*
X248214291Y-39061760D02*
X248100005Y-39099855D01*
X248100005Y-39099855D02*
X247909529Y-39099855D01*
X246690481Y-91677950D02*
X246614291Y-91639855D01*
X246614291Y-91639855D02*
X246500005Y-91639855D01*
X246500005Y-91639855D02*
X246385719Y-91677950D01*
X246385719Y-91677950D02*
X246309529Y-91754140D01*
X246309529Y-91754140D02*
X246271434Y-91830331D01*
X246271434Y-91830331D02*
X246233338Y-91982712D01*
X246233338Y-91982712D02*
X246233338Y-92096998D01*
X246233338Y-92096998D02*
X246271434Y-92249379D01*
X246271434Y-92249379D02*
X246309529Y-92325569D01*
X246309529Y-92325569D02*
X246385719Y-92401760D01*
X246385719Y-92401760D02*
X246500005Y-92439855D01*
X246500005Y-92439855D02*
X246576196Y-92439855D01*
X246576196Y-92439855D02*
X246690481Y-92401760D01*
X246690481Y-92401760D02*
X246728577Y-92363664D01*
X246728577Y-92363664D02*
X246728577Y-92096998D01*
X246728577Y-92096998D02*
X246576196Y-92096998D01*
X247071434Y-92439855D02*
X247071434Y-91639855D01*
X247071434Y-91639855D02*
X247528577Y-92439855D01*
X247528577Y-92439855D02*
X247528577Y-91639855D01*
X247909529Y-92439855D02*
X247909529Y-91639855D01*
X247909529Y-91639855D02*
X248100005Y-91639855D01*
X248100005Y-91639855D02*
X248214291Y-91677950D01*
X248214291Y-91677950D02*
X248290481Y-91754140D01*
X248290481Y-91754140D02*
X248328576Y-91830331D01*
X248328576Y-91830331D02*
X248366672Y-91982712D01*
X248366672Y-91982712D02*
X248366672Y-92096998D01*
X248366672Y-92096998D02*
X248328576Y-92249379D01*
X248328576Y-92249379D02*
X248290481Y-92325569D01*
X248290481Y-92325569D02*
X248214291Y-92401760D01*
X248214291Y-92401760D02*
X248100005Y-92439855D01*
X248100005Y-92439855D02*
X247909529Y-92439855D01*
D10*
X255717048Y-39530819D02*
X255717048Y-40340342D01*
X255717048Y-40340342D02*
X255764667Y-40435580D01*
X255764667Y-40435580D02*
X255812286Y-40483200D01*
X255812286Y-40483200D02*
X255907524Y-40530819D01*
X255907524Y-40530819D02*
X256098000Y-40530819D01*
X256098000Y-40530819D02*
X256193238Y-40483200D01*
X256193238Y-40483200D02*
X256240857Y-40435580D01*
X256240857Y-40435580D02*
X256288476Y-40340342D01*
X256288476Y-40340342D02*
X256288476Y-39530819D01*
X256717048Y-40483200D02*
X256859905Y-40530819D01*
X256859905Y-40530819D02*
X257098000Y-40530819D01*
X257098000Y-40530819D02*
X257193238Y-40483200D01*
X257193238Y-40483200D02*
X257240857Y-40435580D01*
X257240857Y-40435580D02*
X257288476Y-40340342D01*
X257288476Y-40340342D02*
X257288476Y-40245104D01*
X257288476Y-40245104D02*
X257240857Y-40149866D01*
X257240857Y-40149866D02*
X257193238Y-40102247D01*
X257193238Y-40102247D02*
X257098000Y-40054628D01*
X257098000Y-40054628D02*
X256907524Y-40007009D01*
X256907524Y-40007009D02*
X256812286Y-39959390D01*
X256812286Y-39959390D02*
X256764667Y-39911771D01*
X256764667Y-39911771D02*
X256717048Y-39816533D01*
X256717048Y-39816533D02*
X256717048Y-39721295D01*
X256717048Y-39721295D02*
X256764667Y-39626057D01*
X256764667Y-39626057D02*
X256812286Y-39578438D01*
X256812286Y-39578438D02*
X256907524Y-39530819D01*
X256907524Y-39530819D02*
X257145619Y-39530819D01*
X257145619Y-39530819D02*
X257288476Y-39578438D01*
X258050381Y-40007009D02*
X258193238Y-40054628D01*
X258193238Y-40054628D02*
X258240857Y-40102247D01*
X258240857Y-40102247D02*
X258288476Y-40197485D01*
X258288476Y-40197485D02*
X258288476Y-40340342D01*
X258288476Y-40340342D02*
X258240857Y-40435580D01*
X258240857Y-40435580D02*
X258193238Y-40483200D01*
X258193238Y-40483200D02*
X258098000Y-40530819D01*
X258098000Y-40530819D02*
X257717048Y-40530819D01*
X257717048Y-40530819D02*
X257717048Y-39530819D01*
X257717048Y-39530819D02*
X258050381Y-39530819D01*
X258050381Y-39530819D02*
X258145619Y-39578438D01*
X258145619Y-39578438D02*
X258193238Y-39626057D01*
X258193238Y-39626057D02*
X258240857Y-39721295D01*
X258240857Y-39721295D02*
X258240857Y-39816533D01*
X258240857Y-39816533D02*
X258193238Y-39911771D01*
X258193238Y-39911771D02*
X258145619Y-39959390D01*
X258145619Y-39959390D02*
X258050381Y-40007009D01*
X258050381Y-40007009D02*
X257717048Y-40007009D01*
X258717048Y-40149866D02*
X259478953Y-40149866D01*
X260526571Y-40435580D02*
X260478952Y-40483200D01*
X260478952Y-40483200D02*
X260336095Y-40530819D01*
X260336095Y-40530819D02*
X260240857Y-40530819D01*
X260240857Y-40530819D02*
X260098000Y-40483200D01*
X260098000Y-40483200D02*
X260002762Y-40387961D01*
X260002762Y-40387961D02*
X259955143Y-40292723D01*
X259955143Y-40292723D02*
X259907524Y-40102247D01*
X259907524Y-40102247D02*
X259907524Y-39959390D01*
X259907524Y-39959390D02*
X259955143Y-39768914D01*
X259955143Y-39768914D02*
X260002762Y-39673676D01*
X260002762Y-39673676D02*
X260098000Y-39578438D01*
X260098000Y-39578438D02*
X260240857Y-39530819D01*
X260240857Y-39530819D02*
X260336095Y-39530819D01*
X260336095Y-39530819D02*
X260478952Y-39578438D01*
X260478952Y-39578438D02*
X260526571Y-39626057D01*
X255026571Y-97245104D02*
X255502761Y-97245104D01*
X254931333Y-97530819D02*
X255264666Y-96530819D01*
X255264666Y-96530819D02*
X255597999Y-97530819D01*
X255931333Y-97530819D02*
X255931333Y-96530819D01*
X255931333Y-96530819D02*
X256502761Y-97530819D01*
X256502761Y-97530819D02*
X256502761Y-96530819D01*
X256836095Y-96530819D02*
X257407523Y-96530819D01*
X257121809Y-97530819D02*
X257121809Y-96530819D01*
X257740857Y-97007009D02*
X258074190Y-97007009D01*
X258217047Y-97530819D02*
X257740857Y-97530819D01*
X257740857Y-97530819D02*
X257740857Y-96530819D01*
X257740857Y-96530819D02*
X258217047Y-96530819D01*
X258645619Y-97530819D02*
X258645619Y-96530819D01*
X258645619Y-96530819D02*
X259217047Y-97530819D01*
X259217047Y-97530819D02*
X259217047Y-96530819D01*
X259693238Y-97530819D02*
X259693238Y-96530819D01*
X259693238Y-96530819D02*
X260264666Y-97530819D01*
X260264666Y-97530819D02*
X260264666Y-96530819D01*
X260693238Y-97245104D02*
X261169428Y-97245104D01*
X260598000Y-97530819D02*
X260931333Y-96530819D01*
X260931333Y-96530819D02*
X261264666Y-97530819D01*
D11*
X268286470Y-38337950D02*
X268210280Y-38299855D01*
X268210280Y-38299855D02*
X268095994Y-38299855D01*
X268095994Y-38299855D02*
X267981708Y-38337950D01*
X267981708Y-38337950D02*
X267905518Y-38414140D01*
X267905518Y-38414140D02*
X267867423Y-38490331D01*
X267867423Y-38490331D02*
X267829327Y-38642712D01*
X267829327Y-38642712D02*
X267829327Y-38756998D01*
X267829327Y-38756998D02*
X267867423Y-38909379D01*
X267867423Y-38909379D02*
X267905518Y-38985569D01*
X267905518Y-38985569D02*
X267981708Y-39061760D01*
X267981708Y-39061760D02*
X268095994Y-39099855D01*
X268095994Y-39099855D02*
X268172185Y-39099855D01*
X268172185Y-39099855D02*
X268286470Y-39061760D01*
X268286470Y-39061760D02*
X268324566Y-39023664D01*
X268324566Y-39023664D02*
X268324566Y-38756998D01*
X268324566Y-38756998D02*
X268172185Y-38756998D01*
X268667423Y-39099855D02*
X268667423Y-38299855D01*
X268667423Y-38299855D02*
X269124566Y-39099855D01*
X269124566Y-39099855D02*
X269124566Y-38299855D01*
X269505518Y-39099855D02*
X269505518Y-38299855D01*
X269505518Y-38299855D02*
X269695994Y-38299855D01*
X269695994Y-38299855D02*
X269810280Y-38337950D01*
X269810280Y-38337950D02*
X269886470Y-38414140D01*
X269886470Y-38414140D02*
X269924565Y-38490331D01*
X269924565Y-38490331D02*
X269962661Y-38642712D01*
X269962661Y-38642712D02*
X269962661Y-38756998D01*
X269962661Y-38756998D02*
X269924565Y-38909379D01*
X269924565Y-38909379D02*
X269886470Y-38985569D01*
X269886470Y-38985569D02*
X269810280Y-39061760D01*
X269810280Y-39061760D02*
X269695994Y-39099855D01*
X269695994Y-39099855D02*
X269505518Y-39099855D01*
X268248375Y-40839855D02*
X267867423Y-40839855D01*
X267867423Y-40839855D02*
X267829327Y-41220807D01*
X267829327Y-41220807D02*
X267867423Y-41182712D01*
X267867423Y-41182712D02*
X267943613Y-41144617D01*
X267943613Y-41144617D02*
X268134089Y-41144617D01*
X268134089Y-41144617D02*
X268210280Y-41182712D01*
X268210280Y-41182712D02*
X268248375Y-41220807D01*
X268248375Y-41220807D02*
X268286470Y-41296998D01*
X268286470Y-41296998D02*
X268286470Y-41487474D01*
X268286470Y-41487474D02*
X268248375Y-41563664D01*
X268248375Y-41563664D02*
X268210280Y-41601760D01*
X268210280Y-41601760D02*
X268134089Y-41639855D01*
X268134089Y-41639855D02*
X267943613Y-41639855D01*
X267943613Y-41639855D02*
X267867423Y-41601760D01*
X267867423Y-41601760D02*
X267829327Y-41563664D01*
X268515042Y-40839855D02*
X268781709Y-41639855D01*
X268781709Y-41639855D02*
X269048375Y-40839855D01*
X267791232Y-91639855D02*
X268286470Y-91639855D01*
X268286470Y-91639855D02*
X268019804Y-91944617D01*
X268019804Y-91944617D02*
X268134089Y-91944617D01*
X268134089Y-91944617D02*
X268210280Y-91982712D01*
X268210280Y-91982712D02*
X268248375Y-92020807D01*
X268248375Y-92020807D02*
X268286470Y-92096998D01*
X268286470Y-92096998D02*
X268286470Y-92287474D01*
X268286470Y-92287474D02*
X268248375Y-92363664D01*
X268248375Y-92363664D02*
X268210280Y-92401760D01*
X268210280Y-92401760D02*
X268134089Y-92439855D01*
X268134089Y-92439855D02*
X267905518Y-92439855D01*
X267905518Y-92439855D02*
X267829327Y-92401760D01*
X267829327Y-92401760D02*
X267791232Y-92363664D01*
X268515042Y-91639855D02*
X268781709Y-92439855D01*
X268781709Y-92439855D02*
X269048375Y-91639855D01*
X269238851Y-91639855D02*
X269734089Y-91639855D01*
X269734089Y-91639855D02*
X269467423Y-91944617D01*
X269467423Y-91944617D02*
X269581708Y-91944617D01*
X269581708Y-91944617D02*
X269657899Y-91982712D01*
X269657899Y-91982712D02*
X269695994Y-92020807D01*
X269695994Y-92020807D02*
X269734089Y-92096998D01*
X269734089Y-92096998D02*
X269734089Y-92287474D01*
X269734089Y-92287474D02*
X269695994Y-92363664D01*
X269695994Y-92363664D02*
X269657899Y-92401760D01*
X269657899Y-92401760D02*
X269581708Y-92439855D01*
X269581708Y-92439855D02*
X269353137Y-92439855D01*
X269353137Y-92439855D02*
X269276946Y-92401760D01*
X269276946Y-92401760D02*
X269238851Y-92363664D01*
D10*
X100006666Y-105987200D02*
X100149523Y-106034819D01*
X100149523Y-106034819D02*
X100387618Y-106034819D01*
X100387618Y-106034819D02*
X100482856Y-105987200D01*
X100482856Y-105987200D02*
X100530475Y-105939580D01*
X100530475Y-105939580D02*
X100578094Y-105844342D01*
X100578094Y-105844342D02*
X100578094Y-105749104D01*
X100578094Y-105749104D02*
X100530475Y-105653866D01*
X100530475Y-105653866D02*
X100482856Y-105606247D01*
X100482856Y-105606247D02*
X100387618Y-105558628D01*
X100387618Y-105558628D02*
X100197142Y-105511009D01*
X100197142Y-105511009D02*
X100101904Y-105463390D01*
X100101904Y-105463390D02*
X100054285Y-105415771D01*
X100054285Y-105415771D02*
X100006666Y-105320533D01*
X100006666Y-105320533D02*
X100006666Y-105225295D01*
X100006666Y-105225295D02*
X100054285Y-105130057D01*
X100054285Y-105130057D02*
X100101904Y-105082438D01*
X100101904Y-105082438D02*
X100197142Y-105034819D01*
X100197142Y-105034819D02*
X100435237Y-105034819D01*
X100435237Y-105034819D02*
X100578094Y-105082438D01*
X100911428Y-105034819D02*
X101149523Y-106034819D01*
X101149523Y-106034819D02*
X101339999Y-105320533D01*
X101339999Y-105320533D02*
X101530475Y-106034819D01*
X101530475Y-106034819D02*
X101768571Y-105034819D01*
X102578094Y-105368152D02*
X102578094Y-106034819D01*
X102339999Y-104987200D02*
X102101904Y-105701485D01*
X102101904Y-105701485D02*
X102720951Y-105701485D01*
%TO.C,RV13*%
D11*
X77330000Y-68520000D02*
X87250000Y-68520000D01*
X77330000Y-72265000D02*
X77330000Y-68520000D01*
X77330000Y-80740000D02*
X77330000Y-76995000D01*
X79094000Y-80740000D02*
X77330000Y-80740000D01*
X81594000Y-80740000D02*
X80486000Y-80740000D01*
X84094000Y-80740000D02*
X82986000Y-80740000D01*
X87250000Y-68520000D02*
X87250000Y-72265000D01*
X87250000Y-76995000D02*
X87250000Y-80740000D01*
X87250000Y-80740000D02*
X85486000Y-80740000D01*
%TO.C,SW6*%
X131750000Y-106980000D02*
X131750000Y-122180000D01*
X131750000Y-122180000D02*
X146950000Y-122180000D01*
X146950000Y-106980000D02*
X131750000Y-106980000D01*
X146950000Y-122180000D02*
X146950000Y-106980000D01*
%TO.C,SW12*%
X55640000Y-86480000D02*
X55640000Y-101680000D01*
X55640000Y-101680000D02*
X70840000Y-101680000D01*
X70840000Y-86480000D02*
X55640000Y-86480000D01*
X70840000Y-101680000D02*
X70840000Y-86480000D01*
%TO.C,SW21*%
X78850000Y-42980000D02*
X81250000Y-42980000D01*
X78850000Y-47080000D02*
X78850000Y-42980000D01*
X78850000Y-51080000D02*
X78850000Y-55180000D01*
X78850000Y-55180000D02*
X90650000Y-55180000D01*
X80650000Y-56280000D02*
X80950000Y-56580000D01*
X80650000Y-56880000D02*
X80650000Y-56280000D01*
X80950000Y-56580000D02*
X80650000Y-56880000D01*
X83450000Y-42980000D02*
X86050000Y-42980000D01*
X84250000Y-49080000D02*
X85250000Y-49080000D01*
X84750000Y-49580000D02*
X84750000Y-48580000D01*
X88250000Y-42980000D02*
X90650000Y-42980000D01*
X90650000Y-42980000D02*
X90650000Y-47080000D01*
X90650000Y-51080000D02*
X90650000Y-55180000D01*
X87750000Y-49080000D02*
G75*
G02*
X81750000Y-49080000I-3000000J0D01*
G01*
X81750000Y-49080000D02*
G75*
G02*
X87750000Y-49080000I3000000J0D01*
G01*
%TO.C,SW11*%
X36550000Y-86480000D02*
X36550000Y-101680000D01*
X36550000Y-101680000D02*
X51750000Y-101680000D01*
X51750000Y-86480000D02*
X36550000Y-86480000D01*
X51750000Y-101680000D02*
X51750000Y-86480000D01*
%TO.C,RV19*%
X191500000Y-68520000D02*
X201420000Y-68520000D01*
X191500000Y-72265000D02*
X191500000Y-68520000D01*
X191500000Y-80740000D02*
X191500000Y-76995000D01*
X193264000Y-80740000D02*
X191500000Y-80740000D01*
X195764000Y-80740000D02*
X194656000Y-80740000D01*
X198264000Y-80740000D02*
X197156000Y-80740000D01*
X201420000Y-68520000D02*
X201420000Y-72265000D01*
X201420000Y-76995000D02*
X201420000Y-80740000D01*
X201420000Y-80740000D02*
X199656000Y-80740000D01*
%TO.C,SW19*%
X188860000Y-86480000D02*
X188860000Y-101680000D01*
X188860000Y-101680000D02*
X204060000Y-101680000D01*
X204060000Y-86480000D02*
X188860000Y-86480000D01*
X204060000Y-101680000D02*
X204060000Y-86480000D01*
%TO.C,RV8*%
X172980000Y-140960000D02*
X172980000Y-139580000D01*
X174360000Y-140960000D02*
X172980000Y-140960000D01*
X175630000Y-138200000D02*
X180820000Y-138200000D01*
X175630000Y-140960000D02*
X175630000Y-138200000D01*
X175630000Y-140960000D02*
X180820000Y-140960000D01*
X180820000Y-140960000D02*
X180820000Y-138200000D01*
%TO.C,U3*%
X234670000Y-126256000D02*
X234670000Y-131716000D01*
X234670000Y-133716000D02*
X234670000Y-139176000D01*
X234670000Y-139176000D02*
X265270000Y-139176000D01*
X265270000Y-126256000D02*
X234670000Y-126256000D01*
X265270000Y-139176000D02*
X265270000Y-126256000D01*
X234670000Y-131716000D02*
G75*
G02*
X234670000Y-133716000I0J-1000000D01*
G01*
%TO.C,RV2*%
X58860000Y-140960000D02*
X58860000Y-139580000D01*
X60240000Y-140960000D02*
X58860000Y-140960000D01*
X61510000Y-138200000D02*
X66700000Y-138200000D01*
X61510000Y-140960000D02*
X61510000Y-138200000D01*
X61510000Y-140960000D02*
X66700000Y-140960000D01*
X66700000Y-140960000D02*
X66700000Y-138200000D01*
%TO.C,SW13*%
X74689999Y-86480000D02*
X74689999Y-101680000D01*
X74689999Y-101680000D02*
X89889999Y-101680000D01*
X89889999Y-86480000D02*
X74689999Y-86480000D01*
X89889999Y-101680000D02*
X89889999Y-86480000D01*
%TO.C,RV15*%
X115340000Y-68520000D02*
X125260000Y-68520000D01*
X115340000Y-72265000D02*
X115340000Y-68520000D01*
X115340000Y-80740000D02*
X115340000Y-76995000D01*
X117104000Y-80740000D02*
X115340000Y-80740000D01*
X119604000Y-80740000D02*
X118496000Y-80740000D01*
X122104000Y-80740000D02*
X120996000Y-80740000D01*
X125260000Y-68520000D02*
X125260000Y-72265000D01*
X125260000Y-76995000D02*
X125260000Y-80740000D01*
X125260000Y-80740000D02*
X123496000Y-80740000D01*
%TO.C,RV17*%
X153390000Y-68520000D02*
X163310000Y-68520000D01*
X153390000Y-72265000D02*
X153390000Y-68520000D01*
X153390000Y-80740000D02*
X153390000Y-76995000D01*
X155154000Y-80740000D02*
X153390000Y-80740000D01*
X157654000Y-80740000D02*
X156546000Y-80740000D01*
X160154000Y-80740000D02*
X159046000Y-80740000D01*
X163310000Y-68520000D02*
X163310000Y-72265000D01*
X163310000Y-76995000D02*
X163310000Y-80740000D01*
X163310000Y-80740000D02*
X161546000Y-80740000D01*
%TO.C,SW2*%
X55640000Y-106980000D02*
X55640000Y-122180000D01*
X55640000Y-122180000D02*
X70840000Y-122180000D01*
X70840000Y-106980000D02*
X55640000Y-106980000D01*
X70840000Y-122180000D02*
X70840000Y-106980000D01*
%TO.C,SW22*%
X127350000Y-42980000D02*
X129750000Y-42980000D01*
X127350000Y-47080000D02*
X127350000Y-42980000D01*
X127350000Y-51080000D02*
X127350000Y-55180000D01*
X127350000Y-55180000D02*
X139150000Y-55180000D01*
X129150000Y-56280000D02*
X129450000Y-56580000D01*
X129150000Y-56880000D02*
X129150000Y-56280000D01*
X129450000Y-56580000D02*
X129150000Y-56880000D01*
X131950000Y-42980000D02*
X134550000Y-42980000D01*
X132750000Y-49080000D02*
X133750000Y-49080000D01*
X133250000Y-49580000D02*
X133250000Y-48580000D01*
X136750000Y-42980000D02*
X139150000Y-42980000D01*
X139150000Y-42980000D02*
X139150000Y-47080000D01*
X139150000Y-51080000D02*
X139150000Y-55180000D01*
X136250000Y-49080000D02*
G75*
G02*
X130250000Y-49080000I-3000000J0D01*
G01*
X130250000Y-49080000D02*
G75*
G02*
X136250000Y-49080000I3000000J0D01*
G01*
%TO.C,RV4*%
X96960000Y-140960000D02*
X96960000Y-139580000D01*
X98340000Y-140960000D02*
X96960000Y-140960000D01*
X99610000Y-138200000D02*
X104800000Y-138200000D01*
X99610000Y-140960000D02*
X99610000Y-138200000D01*
X99610000Y-140960000D02*
X104800000Y-140960000D01*
X104800000Y-140960000D02*
X104800000Y-138200000D01*
%TO.C,RV5*%
X115920000Y-140960000D02*
X115920000Y-139580000D01*
X117300000Y-140960000D02*
X115920000Y-140960000D01*
X118570000Y-138200000D02*
X123760000Y-138200000D01*
X118570000Y-140960000D02*
X118570000Y-138200000D01*
X118570000Y-140960000D02*
X123760000Y-140960000D01*
X123760000Y-140960000D02*
X123760000Y-138200000D01*
%TO.C,SW20*%
X215750000Y-86480000D02*
X215750000Y-101680000D01*
X215750000Y-101680000D02*
X230950000Y-101680000D01*
X230950000Y-86480000D02*
X215750000Y-86480000D01*
X230950000Y-101680000D02*
X230950000Y-86480000D01*
%TO.C,RV14*%
X96380000Y-68520000D02*
X106300000Y-68520000D01*
X96380000Y-72265000D02*
X96380000Y-68520000D01*
X96380000Y-80740000D02*
X96380000Y-76995000D01*
X98144000Y-80740000D02*
X96380000Y-80740000D01*
X100644000Y-80740000D02*
X99536000Y-80740000D01*
X103144000Y-80740000D02*
X102036000Y-80740000D01*
X106300000Y-68520000D02*
X106300000Y-72265000D01*
X106300000Y-76995000D02*
X106300000Y-80740000D01*
X106300000Y-80740000D02*
X104536000Y-80740000D01*
%TO.C,RV6*%
X134970000Y-140960000D02*
X134970000Y-139580000D01*
X136350000Y-140960000D02*
X134970000Y-140960000D01*
X137620000Y-138200000D02*
X142810000Y-138200000D01*
X137620000Y-140960000D02*
X137620000Y-138200000D01*
X137620000Y-140960000D02*
X142810000Y-140960000D01*
X142810000Y-140960000D02*
X142810000Y-138200000D01*
%TO.C,RV18*%
X172400000Y-68520000D02*
X182320000Y-68520000D01*
X172400000Y-72265000D02*
X172400000Y-68520000D01*
X172400000Y-80740000D02*
X172400000Y-76995000D01*
X174164000Y-80740000D02*
X172400000Y-80740000D01*
X176664000Y-80740000D02*
X175556000Y-80740000D01*
X179164000Y-80740000D02*
X178056000Y-80740000D01*
X182320000Y-68520000D02*
X182320000Y-72265000D01*
X182320000Y-76995000D02*
X182320000Y-80740000D01*
X182320000Y-80740000D02*
X180556000Y-80740000D01*
%TO.C,RV9*%
X192080000Y-140960000D02*
X192080000Y-139580000D01*
X193460000Y-140960000D02*
X192080000Y-140960000D01*
X194730000Y-138200000D02*
X199920000Y-138200000D01*
X194730000Y-140960000D02*
X194730000Y-138200000D01*
X194730000Y-140960000D02*
X199920000Y-140960000D01*
X199920000Y-140960000D02*
X199920000Y-138200000D01*
%TO.C,SW7*%
X150750000Y-106980000D02*
X150750000Y-122180000D01*
X150750000Y-122180000D02*
X165950000Y-122180000D01*
X165950000Y-106980000D02*
X150750000Y-106980000D01*
X165950000Y-122180000D02*
X165950000Y-106980000D01*
%TO.C,SW9*%
X188860000Y-106980000D02*
X188860000Y-122180000D01*
X188860000Y-122180000D02*
X204060000Y-122180000D01*
X204060000Y-106980000D02*
X188860000Y-106980000D01*
X204060000Y-122180000D02*
X204060000Y-106980000D01*
%TO.C,RV3*%
X77910000Y-140960000D02*
X77910000Y-139580000D01*
X79290000Y-140960000D02*
X77910000Y-140960000D01*
X80560000Y-138200000D02*
X85750000Y-138200000D01*
X80560000Y-140960000D02*
X80560000Y-138200000D01*
X80560000Y-140960000D02*
X85750000Y-140960000D01*
X85750000Y-140960000D02*
X85750000Y-138200000D01*
%TO.C,SW18*%
X169760000Y-86480000D02*
X169760000Y-101680000D01*
X169760000Y-101680000D02*
X184960000Y-101680000D01*
X184960000Y-86480000D02*
X169760000Y-86480000D01*
X184960000Y-101680000D02*
X184960000Y-86480000D01*
%TO.C,SW15*%
X112700000Y-86480000D02*
X112700000Y-101680000D01*
X112700000Y-101680000D02*
X127900000Y-101680000D01*
X127900000Y-86480000D02*
X112700000Y-86480000D01*
X127900000Y-101680000D02*
X127900000Y-86480000D01*
%TO.C,RV16*%
X134390000Y-68520000D02*
X144310000Y-68520000D01*
X134390000Y-72265000D02*
X134390000Y-68520000D01*
X134390000Y-80740000D02*
X134390000Y-76995000D01*
X136154000Y-80740000D02*
X134390000Y-80740000D01*
X138654000Y-80740000D02*
X137546000Y-80740000D01*
X141154000Y-80740000D02*
X140046000Y-80740000D01*
X144310000Y-68520000D02*
X144310000Y-72265000D01*
X144310000Y-76995000D02*
X144310000Y-80740000D01*
X144310000Y-80740000D02*
X142546000Y-80740000D01*
%TO.C,RV1*%
X39770000Y-140960000D02*
X39770000Y-139580000D01*
X41150000Y-140960000D02*
X39770000Y-140960000D01*
X42420000Y-138200000D02*
X47610000Y-138200000D01*
X42420000Y-140960000D02*
X42420000Y-138200000D01*
X42420000Y-140960000D02*
X47610000Y-140960000D01*
X47610000Y-140960000D02*
X47610000Y-138200000D01*
%TO.C,RV11*%
X39190000Y-68520000D02*
X49110000Y-68520000D01*
X39190000Y-72265000D02*
X39190000Y-68520000D01*
X39190000Y-80740000D02*
X39190000Y-76995000D01*
X40954000Y-80740000D02*
X39190000Y-80740000D01*
X43454000Y-80740000D02*
X42346000Y-80740000D01*
X45954000Y-80740000D02*
X44846000Y-80740000D01*
X49110000Y-68520000D02*
X49110000Y-72265000D01*
X49110000Y-76995000D02*
X49110000Y-80740000D01*
X49110000Y-80740000D02*
X47346000Y-80740000D01*
%TO.C,U2*%
X234670000Y-104920000D02*
X234670000Y-110380000D01*
X234670000Y-112380000D02*
X234670000Y-117840000D01*
X234670000Y-117840000D02*
X265270000Y-117840000D01*
X265270000Y-104920000D02*
X234670000Y-104920000D01*
X265270000Y-117840000D02*
X265270000Y-104920000D01*
X234670000Y-110380000D02*
G75*
G02*
X234670000Y-112380000I0J-1000000D01*
G01*
%TO.C,SW23*%
X177850000Y-42980000D02*
X180250000Y-42980000D01*
X177850000Y-47080000D02*
X177850000Y-42980000D01*
X177850000Y-51080000D02*
X177850000Y-55180000D01*
X177850000Y-55180000D02*
X189650000Y-55180000D01*
X179650000Y-56280000D02*
X179950000Y-56580000D01*
X179650000Y-56880000D02*
X179650000Y-56280000D01*
X179950000Y-56580000D02*
X179650000Y-56880000D01*
X182450000Y-42980000D02*
X185050000Y-42980000D01*
X183250000Y-49080000D02*
X184250000Y-49080000D01*
X183750000Y-49580000D02*
X183750000Y-48580000D01*
X187250000Y-42980000D02*
X189650000Y-42980000D01*
X189650000Y-42980000D02*
X189650000Y-47080000D01*
X189650000Y-51080000D02*
X189650000Y-55180000D01*
X186750000Y-49080000D02*
G75*
G02*
X180750000Y-49080000I-3000000J0D01*
G01*
X180750000Y-49080000D02*
G75*
G02*
X186750000Y-49080000I3000000J0D01*
G01*
%TO.C,SW10*%
X215750000Y-106980000D02*
X215750000Y-122180000D01*
X215750000Y-122180000D02*
X230950000Y-122180000D01*
X230950000Y-106980000D02*
X215750000Y-106980000D01*
X230950000Y-122180000D02*
X230950000Y-106980000D01*
%TO.C,SW3*%
X74689999Y-106980000D02*
X74689999Y-122180000D01*
X74689999Y-122180000D02*
X89889999Y-122180000D01*
X89889999Y-106980000D02*
X74689999Y-106980000D01*
X89889999Y-122180000D02*
X89889999Y-106980000D01*
%TO.C,RV20*%
X218390000Y-68520000D02*
X228310000Y-68520000D01*
X218390000Y-72265000D02*
X218390000Y-68520000D01*
X218390000Y-80740000D02*
X218390000Y-76995000D01*
X220154000Y-80740000D02*
X218390000Y-80740000D01*
X222654000Y-80740000D02*
X221546000Y-80740000D01*
X225154000Y-80740000D02*
X224046000Y-80740000D01*
X228310000Y-68520000D02*
X228310000Y-72265000D01*
X228310000Y-76995000D02*
X228310000Y-80740000D01*
X228310000Y-80740000D02*
X226546000Y-80740000D01*
%TO.C,SW17*%
X150750000Y-86480000D02*
X150750000Y-101680000D01*
X150750000Y-101680000D02*
X165950000Y-101680000D01*
X165950000Y-86480000D02*
X150750000Y-86480000D01*
X165950000Y-101680000D02*
X165950000Y-86480000D01*
%TO.C,RV7*%
X153970000Y-140960000D02*
X153970000Y-139580000D01*
X155350000Y-140960000D02*
X153970000Y-140960000D01*
X156620000Y-138200000D02*
X161810000Y-138200000D01*
X156620000Y-140960000D02*
X156620000Y-138200000D01*
X156620000Y-140960000D02*
X161810000Y-140960000D01*
X161810000Y-140960000D02*
X161810000Y-138200000D01*
%TO.C,SW14*%
X93739999Y-86480000D02*
X93739999Y-101680000D01*
X93739999Y-101680000D02*
X108939999Y-101680000D01*
X108939999Y-86480000D02*
X93739999Y-86480000D01*
X108939999Y-101680000D02*
X108939999Y-86480000D01*
%TO.C,RV12*%
X58280000Y-68520000D02*
X68200000Y-68520000D01*
X58280000Y-72265000D02*
X58280000Y-68520000D01*
X58280000Y-80740000D02*
X58280000Y-76995000D01*
X60044000Y-80740000D02*
X58280000Y-80740000D01*
X62544000Y-80740000D02*
X61436000Y-80740000D01*
X65044000Y-80740000D02*
X63936000Y-80740000D01*
X68200000Y-68520000D02*
X68200000Y-72265000D01*
X68200000Y-76995000D02*
X68200000Y-80740000D01*
X68200000Y-80740000D02*
X66436000Y-80740000D01*
%TO.C,SW5*%
X112700000Y-106980000D02*
X112700000Y-122180000D01*
X112700000Y-122180000D02*
X127900000Y-122180000D01*
X127900000Y-106980000D02*
X112700000Y-106980000D01*
X127900000Y-122180000D02*
X127900000Y-106980000D01*
%TO.C,RV10*%
X218970000Y-140960000D02*
X218970000Y-139580000D01*
X220350000Y-140960000D02*
X218970000Y-140960000D01*
X221620000Y-138200000D02*
X226810000Y-138200000D01*
X221620000Y-140960000D02*
X221620000Y-138200000D01*
X221620000Y-140960000D02*
X226810000Y-140960000D01*
X226810000Y-140960000D02*
X226810000Y-138200000D01*
%TO.C,SW8*%
X169760000Y-106980000D02*
X169760000Y-122180000D01*
X169760000Y-122180000D02*
X184960000Y-122180000D01*
X184960000Y-106980000D02*
X169760000Y-106980000D01*
X184960000Y-122180000D02*
X184960000Y-106980000D01*
%TO.C,SW1*%
X36550000Y-106980000D02*
X36550000Y-122180000D01*
X36550000Y-122180000D02*
X51750000Y-122180000D01*
X51750000Y-106980000D02*
X36550000Y-106980000D01*
X51750000Y-122180000D02*
X51750000Y-106980000D01*
%TO.C,SW16*%
X131750000Y-86480000D02*
X131750000Y-101680000D01*
X131750000Y-101680000D02*
X146950000Y-101680000D01*
X146950000Y-86480000D02*
X131750000Y-86480000D01*
X146950000Y-101680000D02*
X146950000Y-86480000D01*
%TO.C,U1*%
X244248000Y-93676000D02*
X244248000Y-37076000D01*
X249098000Y-93676000D02*
X244248000Y-93676000D01*
X249098000Y-93676000D02*
X249098000Y-100076000D01*
X267098000Y-93676000D02*
X267098000Y-100076000D01*
X267098000Y-100076000D02*
X249098000Y-100076000D01*
X271948000Y-37076000D02*
X244248000Y-37076000D01*
X271948000Y-93676000D02*
X267098000Y-93676000D01*
X271948000Y-93676000D02*
X271948000Y-37076000D01*
D12*
X273198000Y-92876000D02*
X273198000Y-91276000D01*
%TO.C,SW4*%
D11*
X93739999Y-106980000D02*
X93739999Y-122180000D01*
X93739999Y-122180000D02*
X108939999Y-122180000D01*
X108939999Y-106980000D02*
X93739999Y-106980000D01*
X108939999Y-122180000D02*
X108939999Y-106980000D01*
%TD*%
%LPC*%
D13*
%TO.C,RV13*%
X84790000Y-81630000D03*
X82290000Y-81630000D03*
X79790000Y-81630000D03*
D14*
X77890000Y-74630000D03*
X86690000Y-74630000D03*
%TD*%
D15*
%TO.C,H4*%
X268900000Y-139400000D03*
%TD*%
%TO.C,H3*%
X238500000Y-39500000D03*
%TD*%
D16*
%TO.C,SW6*%
X133850000Y-114580000D03*
D17*
X139350000Y-114580000D03*
D16*
X144850000Y-114580000D03*
D18*
X139350000Y-108680000D03*
X144350000Y-110780000D03*
%TD*%
D16*
%TO.C,SW12*%
X57740000Y-94080000D03*
D17*
X63240000Y-94080000D03*
D16*
X68740000Y-94080000D03*
D18*
X63240000Y-88180000D03*
X68240000Y-90280000D03*
%TD*%
D19*
%TO.C,SW21*%
X82250000Y-56580000D03*
D20*
X87250000Y-56580000D03*
X84750000Y-56580000D03*
D21*
X79150000Y-49080000D03*
X90350000Y-49080000D03*
D20*
X87250000Y-42080000D03*
X82250000Y-42080000D03*
%TD*%
D16*
%TO.C,SW11*%
X38650000Y-94080000D03*
D17*
X44150000Y-94080000D03*
D16*
X49650000Y-94080000D03*
D18*
X44150000Y-88180000D03*
X49150000Y-90280000D03*
%TD*%
D13*
%TO.C,RV19*%
X198960000Y-81630000D03*
X196460000Y-81630000D03*
X193960000Y-81630000D03*
D14*
X192060000Y-74630000D03*
X200860000Y-74630000D03*
%TD*%
D16*
%TO.C,SW19*%
X190960000Y-94080000D03*
D17*
X196460000Y-94080000D03*
D16*
X201960000Y-94080000D03*
D18*
X196460000Y-88180000D03*
X201460000Y-90280000D03*
%TD*%
D22*
%TO.C,RV8*%
X174360000Y-139580000D03*
D23*
X176900000Y-139580000D03*
X179440000Y-139580000D03*
%TD*%
D24*
%TO.C,U3*%
X236000000Y-140336000D03*
D25*
X238540000Y-140336000D03*
X241080000Y-140336000D03*
X243620000Y-140336000D03*
X246160000Y-140336000D03*
X248700000Y-140336000D03*
X251240000Y-140336000D03*
X253780000Y-140336000D03*
X256320000Y-140336000D03*
X258860000Y-140336000D03*
X261400000Y-140336000D03*
X263940000Y-140336000D03*
X263940000Y-125096000D03*
X261400000Y-125096000D03*
X258860000Y-125096000D03*
X256320000Y-125096000D03*
X253780000Y-125096000D03*
X251240000Y-125096000D03*
X248700000Y-125096000D03*
X246160000Y-125096000D03*
X243620000Y-125096000D03*
X241080000Y-125096000D03*
X238540000Y-125096000D03*
X236000000Y-125096000D03*
%TD*%
D15*
%TO.C,H1*%
X35600000Y-39400000D03*
%TD*%
D22*
%TO.C,RV2*%
X60240000Y-139580000D03*
D23*
X62780000Y-139580000D03*
X65320000Y-139580000D03*
%TD*%
D16*
%TO.C,SW13*%
X76789999Y-94080000D03*
D17*
X82289999Y-94080000D03*
D16*
X87789999Y-94080000D03*
D18*
X82289999Y-88180000D03*
X87289999Y-90280000D03*
%TD*%
D13*
%TO.C,RV15*%
X122800000Y-81630000D03*
X120300000Y-81630000D03*
X117800000Y-81630000D03*
D14*
X115900000Y-74630000D03*
X124700000Y-74630000D03*
%TD*%
D13*
%TO.C,RV17*%
X160850000Y-81630000D03*
X158350000Y-81630000D03*
X155850000Y-81630000D03*
D14*
X153950000Y-74630000D03*
X162750000Y-74630000D03*
%TD*%
D16*
%TO.C,SW2*%
X57740000Y-114580000D03*
D17*
X63240000Y-114580000D03*
D16*
X68740000Y-114580000D03*
D18*
X63240000Y-108680000D03*
X68240000Y-110780000D03*
%TD*%
D19*
%TO.C,SW22*%
X130750000Y-56580000D03*
D20*
X135750000Y-56580000D03*
X133250000Y-56580000D03*
D21*
X127650000Y-49080000D03*
X138850000Y-49080000D03*
D20*
X135750000Y-42080000D03*
X130750000Y-42080000D03*
%TD*%
D22*
%TO.C,RV4*%
X98340000Y-139580000D03*
D23*
X100880000Y-139580000D03*
X103420000Y-139580000D03*
%TD*%
D22*
%TO.C,RV5*%
X117300000Y-139580000D03*
D23*
X119840000Y-139580000D03*
X122380000Y-139580000D03*
%TD*%
D16*
%TO.C,SW20*%
X217850000Y-94080000D03*
D17*
X223350000Y-94080000D03*
D16*
X228850000Y-94080000D03*
D18*
X223350000Y-88180000D03*
X228350000Y-90280000D03*
%TD*%
D13*
%TO.C,RV14*%
X103840000Y-81630000D03*
X101340000Y-81630000D03*
X98840000Y-81630000D03*
D14*
X96940000Y-74630000D03*
X105740000Y-74630000D03*
%TD*%
D22*
%TO.C,RV6*%
X136350000Y-139580000D03*
D23*
X138890000Y-139580000D03*
X141430000Y-139580000D03*
%TD*%
D13*
%TO.C,RV18*%
X179860000Y-81630000D03*
X177360000Y-81630000D03*
X174860000Y-81630000D03*
D14*
X172960000Y-74630000D03*
X181760000Y-74630000D03*
%TD*%
D22*
%TO.C,RV9*%
X193460000Y-139580000D03*
D23*
X196000000Y-139580000D03*
X198540000Y-139580000D03*
%TD*%
D16*
%TO.C,SW7*%
X152850000Y-114580000D03*
D17*
X158350000Y-114580000D03*
D16*
X163850000Y-114580000D03*
D18*
X158350000Y-108680000D03*
X163350000Y-110780000D03*
%TD*%
D15*
%TO.C,H5*%
X106500000Y-42500000D03*
%TD*%
D16*
%TO.C,SW9*%
X190960000Y-114580000D03*
D17*
X196460000Y-114580000D03*
D16*
X201960000Y-114580000D03*
D18*
X196460000Y-108680000D03*
X201460000Y-110780000D03*
%TD*%
D22*
%TO.C,RV3*%
X79290000Y-139580000D03*
D23*
X81830000Y-139580000D03*
X84370000Y-139580000D03*
%TD*%
D16*
%TO.C,SW18*%
X171860000Y-94080000D03*
D17*
X177360000Y-94080000D03*
D16*
X182860000Y-94080000D03*
D18*
X177360000Y-88180000D03*
X182360000Y-90280000D03*
%TD*%
D15*
%TO.C,H6*%
X156000000Y-43750000D03*
%TD*%
D16*
%TO.C,SW15*%
X114800000Y-94080000D03*
D17*
X120300000Y-94080000D03*
D16*
X125800000Y-94080000D03*
D18*
X120300000Y-88180000D03*
X125300000Y-90280000D03*
%TD*%
D13*
%TO.C,RV16*%
X141850000Y-81630000D03*
X139350000Y-81630000D03*
X136850000Y-81630000D03*
D14*
X134950000Y-74630000D03*
X143750000Y-74630000D03*
%TD*%
D22*
%TO.C,RV1*%
X41150000Y-139580000D03*
D23*
X43690000Y-139580000D03*
X46230000Y-139580000D03*
%TD*%
D13*
%TO.C,RV11*%
X46650000Y-81630000D03*
X44150000Y-81630000D03*
X41650000Y-81630000D03*
D14*
X39750000Y-74630000D03*
X48550000Y-74630000D03*
%TD*%
D24*
%TO.C,U2*%
X236000000Y-119000000D03*
D25*
X238540000Y-119000000D03*
X241080000Y-119000000D03*
X243620000Y-119000000D03*
X246160000Y-119000000D03*
X248700000Y-119000000D03*
X251240000Y-119000000D03*
X253780000Y-119000000D03*
X256320000Y-119000000D03*
X258860000Y-119000000D03*
X261400000Y-119000000D03*
X263940000Y-119000000D03*
X263940000Y-103760000D03*
X261400000Y-103760000D03*
X258860000Y-103760000D03*
X256320000Y-103760000D03*
X253780000Y-103760000D03*
X251240000Y-103760000D03*
X248700000Y-103760000D03*
X246160000Y-103760000D03*
X243620000Y-103760000D03*
X241080000Y-103760000D03*
X238540000Y-103760000D03*
X236000000Y-103760000D03*
%TD*%
D19*
%TO.C,SW23*%
X181250000Y-56580000D03*
D20*
X186250000Y-56580000D03*
X183750000Y-56580000D03*
D21*
X178150000Y-49080000D03*
X189350000Y-49080000D03*
D20*
X186250000Y-42080000D03*
X181250000Y-42080000D03*
%TD*%
D16*
%TO.C,SW10*%
X217850000Y-114580000D03*
D17*
X223350000Y-114580000D03*
D16*
X228850000Y-114580000D03*
D18*
X223350000Y-108680000D03*
X228350000Y-110780000D03*
%TD*%
D15*
%TO.C,H7*%
X129400000Y-130650000D03*
%TD*%
D16*
%TO.C,SW3*%
X76789999Y-114580000D03*
D17*
X82289999Y-114580000D03*
D16*
X87789999Y-114580000D03*
D18*
X82289999Y-108680000D03*
X87289999Y-110780000D03*
%TD*%
D13*
%TO.C,RV20*%
X225850000Y-81630000D03*
X223350000Y-81630000D03*
X220850000Y-81630000D03*
D14*
X218950000Y-74630000D03*
X227750000Y-74630000D03*
%TD*%
D16*
%TO.C,SW17*%
X152850000Y-94080000D03*
D17*
X158350000Y-94080000D03*
D16*
X163850000Y-94080000D03*
D18*
X158350000Y-88180000D03*
X163350000Y-90280000D03*
%TD*%
D22*
%TO.C,RV7*%
X155350000Y-139580000D03*
D23*
X157890000Y-139580000D03*
X160430000Y-139580000D03*
%TD*%
D16*
%TO.C,SW14*%
X95839999Y-94080000D03*
D17*
X101339999Y-94080000D03*
D16*
X106839999Y-94080000D03*
D18*
X101339999Y-88180000D03*
X106339999Y-90280000D03*
%TD*%
D13*
%TO.C,RV12*%
X65740000Y-81630000D03*
X63240000Y-81630000D03*
X60740000Y-81630000D03*
D14*
X58840000Y-74630000D03*
X67640000Y-74630000D03*
%TD*%
D16*
%TO.C,SW5*%
X114800000Y-114580000D03*
D17*
X120300000Y-114580000D03*
D16*
X125800000Y-114580000D03*
D18*
X120300000Y-108680000D03*
X125300000Y-110780000D03*
%TD*%
D22*
%TO.C,RV10*%
X220350000Y-139580000D03*
D23*
X222890000Y-139580000D03*
X225430000Y-139580000D03*
%TD*%
D16*
%TO.C,SW8*%
X171860000Y-114580000D03*
D17*
X177360000Y-114580000D03*
D16*
X182860000Y-114580000D03*
D18*
X177360000Y-108680000D03*
X182360000Y-110780000D03*
%TD*%
D16*
%TO.C,SW1*%
X38650000Y-114580000D03*
D17*
X44150000Y-114580000D03*
D16*
X49650000Y-114580000D03*
D18*
X44150000Y-108680000D03*
X49150000Y-110780000D03*
%TD*%
D15*
%TO.C,H2*%
X35400000Y-139400000D03*
%TD*%
D16*
%TO.C,SW16*%
X133850000Y-94080000D03*
D17*
X139350000Y-94080000D03*
D16*
X144850000Y-94080000D03*
D18*
X139350000Y-88180000D03*
X144350000Y-90280000D03*
%TD*%
D22*
%TO.C,U1*%
X270798000Y-92076000D03*
D26*
X270798000Y-89536000D03*
X270798000Y-86996000D03*
X270798000Y-84456000D03*
X270798000Y-81916000D03*
X270798000Y-79376000D03*
X270798000Y-76836000D03*
X270798000Y-74296000D03*
X270798000Y-71756000D03*
X270798000Y-69216000D03*
X270798000Y-66676000D03*
X270798000Y-64136000D03*
X270798000Y-61596000D03*
X270798000Y-59056000D03*
X270798000Y-56516000D03*
X270798000Y-53976000D03*
X270798000Y-51436000D03*
X270798000Y-48896000D03*
X270798000Y-46356000D03*
X270798000Y-43816000D03*
X270798000Y-41276000D03*
X270798000Y-38736000D03*
X245398000Y-92076000D03*
X245398000Y-89536000D03*
X245398000Y-86996000D03*
X245398000Y-84456000D03*
X245398000Y-81916000D03*
X245398000Y-79376000D03*
X245398000Y-76836000D03*
X245398000Y-74296000D03*
X245398000Y-71756000D03*
X245398000Y-69216000D03*
X245398000Y-66676000D03*
X245398000Y-64136000D03*
X245398000Y-61596000D03*
X245398000Y-59056000D03*
X245398000Y-56516000D03*
X245398000Y-53976000D03*
X245398000Y-51436000D03*
X245398000Y-48896000D03*
X245398000Y-46356000D03*
X245398000Y-43816000D03*
X245398000Y-41276000D03*
X245398000Y-38736000D03*
%TD*%
D16*
%TO.C,SW4*%
X95839999Y-114580000D03*
D17*
X101339999Y-114580000D03*
D16*
X106839999Y-114580000D03*
D18*
X101339999Y-108680000D03*
X106339999Y-110780000D03*
%TD*%
D27*
%TO.C,D18*%
X174050000Y-104580000D03*
D25*
X181670000Y-104580000D03*
%TD*%
D27*
%TO.C,D3*%
X78650000Y-125580000D03*
D25*
X86270000Y-125580000D03*
%TD*%
D27*
%TO.C,D17*%
X155040000Y-104580000D03*
D25*
X162660000Y-104580000D03*
%TD*%
D27*
%TO.C,D4*%
X97650000Y-125580000D03*
D25*
X105270000Y-125580000D03*
%TD*%
D27*
%TO.C,D2*%
X59650000Y-125580000D03*
D25*
X67270000Y-125580000D03*
%TD*%
D27*
%TO.C,D13*%
X78480000Y-104580000D03*
D25*
X86100000Y-104580000D03*
%TD*%
D27*
%TO.C,D16*%
X136040000Y-104580000D03*
D25*
X143660000Y-104580000D03*
%TD*%
D27*
%TO.C,D8*%
X173650000Y-125580000D03*
D25*
X181270000Y-125580000D03*
%TD*%
D27*
%TO.C,D20*%
X219650000Y-104080000D03*
D25*
X227270000Y-104080000D03*
%TD*%
D27*
%TO.C,D7*%
X154650000Y-125580000D03*
D25*
X162270000Y-125580000D03*
%TD*%
D27*
%TO.C,D19*%
X193150000Y-104580000D03*
D25*
X200770000Y-104580000D03*
%TD*%
D27*
%TO.C,D10*%
X219650000Y-126080000D03*
D25*
X227270000Y-126080000D03*
%TD*%
D27*
%TO.C,D15*%
X116990000Y-104580000D03*
D25*
X124610000Y-104580000D03*
%TD*%
D27*
%TO.C,D11*%
X40840000Y-104580000D03*
D25*
X48460000Y-104580000D03*
%TD*%
D27*
%TO.C,D1*%
X40650000Y-125580000D03*
D25*
X48270000Y-125580000D03*
%TD*%
D27*
%TO.C,D12*%
X59430000Y-104580000D03*
D25*
X67050000Y-104580000D03*
%TD*%
D27*
%TO.C,D14*%
X97530000Y-104580000D03*
D25*
X105150000Y-104580000D03*
%TD*%
D27*
%TO.C,D6*%
X135650000Y-125580000D03*
D25*
X143270000Y-125580000D03*
%TD*%
D27*
%TO.C,D5*%
X116650000Y-125580000D03*
D25*
X124270000Y-125580000D03*
%TD*%
D27*
%TO.C,D9*%
X193650000Y-125580000D03*
D25*
X201270000Y-125580000D03*
%TD*%
%LPD*%
M02*
