%TF.GenerationSoftware,KiCad,Pcbnew,10.0.6*%
%TF.CreationDate,2026-10-04T15:24:10+02:00*%
%TF.ProjectId,KiCad - MIDI-controller,4b694361-6420-42d2-904d-4944492d636f,rev?*%
%TF.SameCoordinates,Original*%
%TF.FileFunction,Paste,Top*%
%TF.FilePolarity,Positive*%
%FSLAX46Y46*%
G04 Gerber Fmt 4.6, Leading zero omitted, Abs format (unit mm)*
G04 Created by KiCad (PCBNEW 10.0.6) date 2026-10-04 15:24:10*
%MOMM*%
%LPD*%
G01*
G04 APERTURE LIST*
G04 Aperture macros list*
%AMRoundRect*
0 Rectangle with rounded corners*
0 $1 Rounding radius*
0 $2 $3 $4 $5 $6 $7 $8 $9 X,Y pos of 4 corners*
0 Add a 4 corners polygon primitive as box body*
4,1,4,$2,$3,$4,$5,$6,$7,$8,$9,$2,$3,0*
0 Add four circle primitives for the rounded corners*
1,1,$1+$1,$2,$3*
1,1,$1+$1,$4,$5*
1,1,$1+$1,$6,$7*
1,1,$1+$1,$8,$9*
0 Add four rect primitives between the rounded corners*
20,1,$1+$1,$2,$3,$4,$5,0*
20,1,$1+$1,$4,$5,$6,$7,0*
20,1,$1+$1,$6,$7,$8,$9,0*
20,1,$1+$1,$8,$9,$2,$3,0*%
G04 Aperture macros list end*
%ADD10RoundRect,0.150000X0.150000X-0.875000X0.150000X0.875000X-0.150000X0.875000X-0.150000X-0.875000X0*%
%ADD11R,0.900000X0.900000*%
%ADD12R,1.500000X0.900000*%
%ADD13R,0.900000X1.500000*%
%ADD14RoundRect,0.150000X0.875000X0.150000X-0.875000X0.150000X-0.875000X-0.150000X0.875000X-0.150000X0*%
G04 APERTURE END LIST*
D10*
%TO.C,U2*%
X238475000Y-107930000D03*
X239745000Y-107930000D03*
X241015000Y-107930000D03*
X242285000Y-107930000D03*
X243555000Y-107930000D03*
X244825000Y-107930000D03*
X246095000Y-107930000D03*
X247365000Y-107930000D03*
X248635000Y-107930000D03*
X249905000Y-107930000D03*
X251175000Y-107930000D03*
X252445000Y-107930000D03*
X252445000Y-117230000D03*
X251175000Y-117230000D03*
X249905000Y-117230000D03*
X248635000Y-117230000D03*
X247365000Y-117230000D03*
X246095000Y-117230000D03*
X244825000Y-117230000D03*
X243555000Y-117230000D03*
X242285000Y-117230000D03*
X241015000Y-117230000D03*
X239745000Y-117230000D03*
X238475000Y-117230000D03*
%TD*%
D11*
%TO.C,U1*%
X252315000Y-49880000D03*
X252315000Y-51280000D03*
X252315000Y-52680000D03*
X253715000Y-49880000D03*
X253715000Y-51280000D03*
X253715000Y-52680000D03*
X255115000Y-49880000D03*
X255115000Y-51280000D03*
X255115000Y-52680000D03*
D12*
X246465000Y-43560000D03*
X246465000Y-44830000D03*
X246465000Y-46100000D03*
X246465000Y-47370000D03*
X246465000Y-48640000D03*
X246465000Y-49910000D03*
X246465000Y-51180000D03*
X246465000Y-52450000D03*
X246465000Y-53720000D03*
X246465000Y-54990000D03*
X246465000Y-56260000D03*
X246465000Y-57530000D03*
X246465000Y-58800000D03*
X246465000Y-60070000D03*
D13*
X248230000Y-61320000D03*
X249500000Y-61320000D03*
X250770000Y-61320000D03*
X252040000Y-61320000D03*
X253310000Y-61320000D03*
X254580000Y-61320000D03*
X255850000Y-61320000D03*
X257120000Y-61320000D03*
X258390000Y-61320000D03*
X259660000Y-61320000D03*
X260930000Y-61320000D03*
X262200000Y-61320000D03*
D12*
X263965000Y-60070000D03*
X263965000Y-58800000D03*
X263965000Y-57530000D03*
X263965000Y-56260000D03*
X263965000Y-54990000D03*
X263965000Y-53720000D03*
X263965000Y-52450000D03*
X263965000Y-51180000D03*
X263965000Y-49910000D03*
X263965000Y-48640000D03*
X263965000Y-47370000D03*
X263965000Y-46100000D03*
X263965000Y-44830000D03*
X263965000Y-43560000D03*
%TD*%
D14*
%TO.C,U3*%
X259920000Y-87292500D03*
X259920000Y-86022500D03*
X259920000Y-84752500D03*
X259920000Y-83482500D03*
X259920000Y-82212500D03*
X259920000Y-80942500D03*
X259920000Y-79672500D03*
X259920000Y-78402500D03*
X259920000Y-77132500D03*
X259920000Y-75862500D03*
X259920000Y-74592500D03*
X259920000Y-73322500D03*
X250620000Y-73322500D03*
X250620000Y-74592500D03*
X250620000Y-75862500D03*
X250620000Y-77132500D03*
X250620000Y-78402500D03*
X250620000Y-79672500D03*
X250620000Y-80942500D03*
X250620000Y-82212500D03*
X250620000Y-83482500D03*
X250620000Y-84752500D03*
X250620000Y-86022500D03*
X250620000Y-87292500D03*
%TD*%
M02*
