M48
; DRILL file KiCad 10.0.6 date 2026-10-06T15:00:39
; FORMAT={-:-/ absolute / metric / decimal}
; #@! TF.CreationDate,2026-10-06T15:00:39+02:00
; #@! TF.GenerationSoftware,Kicad,Pcbnew,10.0.6
; #@! TF.FileFunction,Plated,1,2,PTH
FMAT,2
METRIC
; #@! TA.AperFunction,Plated,PTH,ViaDrill
T1C0.300
; #@! TA.AperFunction,Plated,PTH,ComponentDrill
T2C0.800
; #@! TA.AperFunction,Plated,PTH,ComponentDrill
T3C1.000
; #@! TA.AperFunction,Plated,PTH,ComponentDrill
T4C1.200
; #@! TA.AperFunction,Plated,PTH,ComponentDrill
T5C1.500
; #@! TA.AperFunction,Plated,PTH,ComponentDrill
T6C2.200
%
G90
G05
T1
X33.285Y-100.62
X34.72Y-64.43
X35.763Y-64.023
X39.71Y-102.93
X47.32Y-139.62
X62.698Y-103.555
X63.28Y-83.125
X65.309Y-84.375
X65.312Y-105.792
X69.14Y-103.555
X81.8Y-104.48
X82.28Y-58.45
X82.29Y-83.4
X85.378Y-101.093
X85.475Y-97.635
X86.648Y-96.267
X86.79Y-97.53
X87.0Y-139.0
X87.92Y-138.97
X88.43Y-58.47
X88.81Y-138.95
X88.82Y-103.555
X90.77Y-87.38
X92.109Y-85.599
X93.125Y-86.615
X93.16Y-85.495
X96.905Y-96.431
X98.155Y-96.0
X101.29Y-83.755
X101.708Y-104.652
X102.247Y-96.447
X104.025Y-95.05
X104.047Y-94.235
X104.525Y-97.555
X105.571Y-95.759
X105.93Y-97.463
X115.01Y-103.555
X115.865Y-95.48
X115.865Y-96.38
X117.57Y-96.475
X118.651Y-96.025
X120.281Y-106.48
X120.37Y-83.685
X120.973Y-105.237
X122.821Y-96.066
X125.107Y-96.066
X126.76Y-103.555
X128.79Y-96.955
X130.88Y-103.64
X131.63Y-58.46
X132.625Y-59.24
X134.49Y-58.49
X134.915Y-96.56
X135.8Y-59.115
X137.32Y-96.555
X137.79Y-103.555
X138.188Y-91.875
X139.275Y-83.638
X139.638Y-104.832
X141.9Y-104.17
X143.035Y-97.805
X143.035Y-99.24
X143.395Y-86.668
X144.03Y-96.32
X145.173Y-91.875
X145.97Y-136.235
X146.41Y-103.555
X146.592Y-92.33
X151.69Y-132.315
X153.915Y-96.513
X156.38Y-96.475
X158.254Y-104.702
X161.048Y-95.812
X162.035Y-97.725
X162.953Y-95.812
X163.42Y-101.76
X166.912Y-82.932
X167.293Y-83.694
X167.78Y-136.235
X167.97Y-86.565
X168.55Y-82.255
X169.32Y-79.445
X172.87Y-131.65
X172.925Y-96.47
X175.1Y-96.555
X176.437Y-79.63
X176.695Y-104.79
X176.705Y-66.22
X177.992Y-66.205
X179.03Y-41.625
X179.463Y-96.574
X179.81Y-101.71
X179.84Y-41.175
X180.479Y-107.496
X180.56Y-105.625
X181.99Y-39.025
X182.384Y-98.479
X182.511Y-100.003
X182.638Y-96.574
X182.73Y-58.51
X183.04Y-101.54
X183.125Y-59.206
X184.38Y-136.235
X184.56Y-58.57
X184.58Y-103.555
X185.03Y-38.4
X185.383Y-60.277
X186.24Y-102.205
X187.27Y-90.525
X187.337Y-100.003
X187.95Y-86.565
X188.375Y-79.63
X188.44Y-103.63
X188.515Y-61.53
X189.17Y-82.255
X189.3Y-78.2
X189.34Y-86.565
X189.92Y-61.765
X190.013Y-82.977
X190.11Y-79.4
X190.788Y-77.852
X191.2Y-62.39
X191.82Y-103.955
X192.025Y-96.32
X193.33Y-59.535
X194.72Y-131.2
X194.85Y-96.385
X194.957Y-87.303
X194.957Y-91.113
X196.735Y-104.956
X197.21Y-101.58
X197.243Y-91.113
X198.259Y-90.097
X199.021Y-94.923
X199.656Y-98.479
X202.03Y-101.8
X202.13Y-86.565
X203.068Y-40.742
X203.234Y-77.852
X203.744Y-41.418
X204.02Y-82.255
X205.192Y-41.098
X205.223Y-61.765
X205.503Y-43.177
X205.609Y-86.565
X205.78Y-82.255
X205.978Y-61.238
X206.409Y-86.565
X206.479Y-41.501
X206.62Y-79.445
X206.655Y-58.605
X206.79Y-103.555
X206.91Y-61.235
X206.962Y-87.142
X206.98Y-82.255
X207.02Y-89.625
X207.245Y-77.28
X207.82Y-89.625
X208.14Y-59.535
X208.16Y-74.14
X208.34Y-82.255
X208.37Y-86.565
X208.495Y-78.85
X208.99Y-61.235
X209.016Y-43.154
X209.19Y-103.555
X209.23Y-82.255
X209.725Y-76.96
X209.731Y-62.261
X209.838Y-82.932
X210.42Y-61.235
X210.56Y-59.085
X212.52Y-104.24
X214.405Y-56.655
X214.586Y-53.533
X215.152Y-54.098
X215.812Y-54.758
X217.105Y-58.635
X217.331Y-56.278
X217.458Y-49.023
X217.897Y-56.843
X218.462Y-57.409
X219.317Y-57.627
X219.875Y-58.2
X219.875Y-60.27
X219.875Y-61.07
X222.89Y-138.42
X223.86Y-54.768
X225.094Y-57.0
X225.18Y-61.405
X225.218Y-56.21
X225.777Y-54.483
X226.094Y-102.236
X226.515Y-106.74
X226.741Y-54.564
X227.28Y-60.955
X227.65Y-86.115
X227.85Y-105.337
X229.65Y-85.98
X229.777Y-82.932
X229.95Y-69.15
X230.535Y-70.5
X230.535Y-81.61
X231.33Y-60.505
X231.49Y-65.93
X231.936Y-67.438
X231.936Y-70.486
X231.936Y-82.17
X231.936Y-116.714
X231.936Y-80.9
X232.19Y-83.186
X232.317Y-80.138
X232.698Y-75.058
X232.698Y-117.476
X234.603Y-89.028
X234.73Y-52.198
X234.73Y-63.882
X234.73Y-67.438
X234.73Y-123.064
X234.73Y-141.606
X235.238Y-84.202
X235.238Y-101.474
X235.492Y-61.596
X235.492Y-63.12
X235.492Y-73.534
X236.0Y-102.236
X236.254Y-62.358
X236.254Y-76.074
X236.508Y-82.17
X237.27Y-67.946
X237.778Y-136.78
X238.032Y-80.9
X238.032Y-89.028
X238.286Y-116.714
X238.54Y-130.684
X239.81Y-86.742
X239.81Y-116.714
X240.064Y-137.542
X240.572Y-106.808
X240.826Y-80.138
X240.826Y-131.446
X241.588Y-65.406
X241.588Y-71.502
X241.588Y-84.202
X241.588Y-102.236
X242.35Y-64.644
X242.35Y-79.122
X242.35Y-84.71
X242.35Y-108.332
X243.112Y-58.548
X243.112Y-78.106
X243.112Y-105.284
X243.112Y-132.208
X243.874Y-59.31
X243.874Y-80.646
X243.874Y-87.504
X244.89Y-101.474
X245.906Y-136.018
X247.684Y-106.046
X248.446Y-135.256
X250.732Y-134.494
X250.986Y-116.714
X253.272Y-133.732
X254.034Y-83.186
X255.812Y-132.97
X256.574Y-51.944
X256.574Y-70.486
X257.59Y-70.232
X257.59Y-139.066
X260.13Y-47.118
X261.273Y-117.349
X261.273Y-120.651
X262.67Y-44.324
X264.448Y-49.404
X264.448Y-88.266
X265.21Y-72.264
X265.972Y-74.55
X265.972Y-123.826
X266.734Y-59.31
X266.734Y-62.866
X267.496Y-61.85
X267.496Y-85.726
X268.258Y-57.786
X268.258Y-63.882
X268.512Y-123.064
X269.02Y-60.326
T2
X40.65Y-125.58
X40.84Y-104.58
X48.27Y-125.58
X48.46Y-104.58
X59.43Y-104.58
X59.65Y-125.58
X67.05Y-104.58
X67.27Y-125.58
X78.48Y-104.58
X78.65Y-125.58
X86.1Y-104.58
X86.27Y-125.58
X97.53Y-104.58
X97.65Y-125.58
X105.15Y-104.58
X105.27Y-125.58
X116.65Y-125.58
X116.99Y-104.58
X124.27Y-125.58
X124.61Y-104.58
X135.65Y-125.58
X136.04Y-104.58
X143.27Y-125.58
X143.66Y-104.58
X154.65Y-125.58
X155.04Y-104.58
X162.27Y-125.58
X162.66Y-104.58
X173.65Y-125.58
X174.05Y-104.58
X181.27Y-125.58
X181.67Y-104.58
X193.15Y-104.58
X193.65Y-125.58
X200.77Y-104.58
X201.27Y-125.58
X219.65Y-104.08
X219.65Y-126.08
X227.27Y-104.08
X227.27Y-126.08
X236.0Y-103.76
X236.0Y-119.0
X236.0Y-125.096
X236.0Y-140.336
X238.54Y-103.76
X238.54Y-119.0
X238.54Y-125.096
X238.54Y-140.336
X241.08Y-103.76
X241.08Y-119.0
X241.08Y-125.096
X241.08Y-140.336
X243.62Y-103.76
X243.62Y-119.0
X243.62Y-125.096
X243.62Y-140.336
X246.16Y-103.76
X246.16Y-119.0
X246.16Y-125.096
X246.16Y-140.336
X248.7Y-103.76
X248.7Y-119.0
X248.7Y-125.096
X248.7Y-140.336
X251.24Y-103.76
X251.24Y-119.0
X251.24Y-125.096
X251.24Y-140.336
X253.78Y-103.76
X253.78Y-119.0
X253.78Y-125.096
X253.78Y-140.336
X256.32Y-103.76
X256.32Y-119.0
X256.32Y-125.096
X256.32Y-140.336
X258.86Y-103.76
X258.86Y-119.0
X258.86Y-125.096
X258.86Y-140.336
X261.4Y-103.76
X261.4Y-119.0
X261.4Y-125.096
X261.4Y-140.336
X263.94Y-103.76
X263.94Y-119.0
X263.94Y-125.096
X263.94Y-140.336
T3
X41.15Y-139.58
X41.65Y-81.63
X43.69Y-139.58
X44.15Y-81.63
X46.23Y-139.58
X46.65Y-81.63
X60.24Y-139.58
X60.74Y-81.63
X62.78Y-139.58
X63.24Y-81.63
X65.32Y-139.58
X65.74Y-81.63
X79.29Y-139.58
X79.79Y-81.63
X81.83Y-139.58
X82.25Y-42.08
X82.25Y-56.58
X82.29Y-81.63
X84.37Y-139.58
X84.75Y-56.58
X84.79Y-81.63
X87.25Y-42.08
X87.25Y-56.58
X98.34Y-139.58
X98.84Y-81.63
X100.88Y-139.58
X101.34Y-81.63
X103.42Y-139.58
X103.84Y-81.63
X117.3Y-139.58
X117.8Y-81.63
X119.84Y-139.58
X120.3Y-81.63
X122.38Y-139.58
X122.8Y-81.63
X130.75Y-42.08
X130.75Y-56.58
X133.25Y-56.58
X135.75Y-42.08
X135.75Y-56.58
X136.35Y-139.58
X136.85Y-81.63
X138.89Y-139.58
X139.35Y-81.63
X141.43Y-139.58
X141.85Y-81.63
X155.35Y-139.58
X155.85Y-81.63
X157.89Y-139.58
X158.35Y-81.63
X160.43Y-139.58
X160.85Y-81.63
X174.36Y-139.58
X174.86Y-81.63
X176.9Y-139.58
X177.36Y-81.63
X179.44Y-139.58
X179.86Y-81.63
X181.25Y-42.08
X181.25Y-56.58
X183.75Y-56.58
X186.25Y-42.08
X186.25Y-56.58
X193.46Y-139.58
X193.96Y-81.63
X196.0Y-139.58
X196.46Y-81.63
X198.54Y-139.58
X198.96Y-81.63
X220.35Y-139.58
X220.85Y-81.63
X222.89Y-139.58
X223.35Y-81.63
X225.43Y-139.58
X225.85Y-81.63
X245.398Y-38.736
X245.398Y-41.276
X245.398Y-43.816
X245.398Y-46.356
X245.398Y-48.896
X245.398Y-51.436
X245.398Y-53.976
X245.398Y-56.516
X245.398Y-59.056
X245.398Y-61.596
X245.398Y-64.136
X245.398Y-66.676
X245.398Y-69.216
X245.398Y-71.756
X245.398Y-74.296
X245.398Y-76.836
X245.398Y-79.376
X245.398Y-81.916
X245.398Y-84.456
X245.398Y-86.996
X245.398Y-89.536
X245.398Y-92.076
X270.798Y-38.736
X270.798Y-41.276
X270.798Y-43.816
X270.798Y-46.356
X270.798Y-48.896
X270.798Y-51.436
X270.798Y-53.976
X270.798Y-56.516
X270.798Y-59.056
X270.798Y-61.596
X270.798Y-64.136
X270.798Y-66.676
X270.798Y-69.216
X270.798Y-71.756
X270.798Y-74.296
X270.798Y-76.836
X270.798Y-79.376
X270.798Y-81.916
X270.798Y-84.456
X270.798Y-86.996
X270.798Y-89.536
X270.798Y-92.076
T4
X44.15Y-88.18
X44.15Y-108.68
X49.15Y-90.28
X49.15Y-110.78
X63.24Y-88.18
X63.24Y-108.68
X68.24Y-90.28
X68.24Y-110.78
X82.29Y-88.18
X82.29Y-108.68
X87.29Y-90.28
X87.29Y-110.78
X101.34Y-88.18
X101.34Y-108.68
X106.34Y-90.28
X106.34Y-110.78
X120.3Y-88.18
X120.3Y-108.68
X125.3Y-90.28
X125.3Y-110.78
X139.35Y-88.18
X139.35Y-108.68
X144.35Y-90.28
X144.35Y-110.78
X158.35Y-88.18
X158.35Y-108.68
X163.35Y-90.28
X163.35Y-110.78
X177.36Y-88.18
X177.36Y-108.68
X182.36Y-90.28
X182.36Y-110.78
X196.46Y-88.18
X196.46Y-108.68
X201.46Y-90.28
X201.46Y-110.78
X223.35Y-88.18
X223.35Y-108.68
X228.35Y-90.28
X228.35Y-110.78
T6
X39.75Y-74.63
X48.55Y-74.63
X58.84Y-74.63
X67.64Y-74.63
X77.89Y-74.63
X86.69Y-74.63
X96.94Y-74.63
X105.74Y-74.63
X115.9Y-74.63
X124.7Y-74.63
X134.95Y-74.63
X143.75Y-74.63
X153.95Y-74.63
X162.75Y-74.63
X172.96Y-74.63
X181.76Y-74.63
X192.06Y-74.63
X200.86Y-74.63
X218.95Y-74.63
X227.75Y-74.63
T5
X79.15Y-49.73G85X79.15Y-48.43
G05
X90.35Y-49.73G85X90.35Y-48.43
G05
X127.65Y-49.73G85X127.65Y-48.43
G05
X138.85Y-49.73G85X138.85Y-48.43
G05
X178.15Y-49.73G85X178.15Y-48.43
G05
X189.35Y-49.73G85X189.35Y-48.43
G05
M30
