M48
; DRILL file KiCad 10.0.6 date 2026-10-06T15:00:39
; FORMAT={-:-/ absolute / metric / decimal}
; #@! TF.CreationDate,2026-10-06T15:00:39+02:00
; #@! TF.GenerationSoftware,Kicad,Pcbnew,10.0.6
; #@! TF.FileFunction,NonPlated,1,2,NPTH
FMAT,2
METRIC
; #@! TA.AperFunction,NonPlated,NPTH,ComponentDrill
T1C1.900
; #@! TA.AperFunction,NonPlated,NPTH,ComponentDrill
T2C3.200
; #@! TA.AperFunction,NonPlated,NPTH,ComponentDrill
T3C3.450
%
G90
G05
T1
X38.65Y-94.08
X38.65Y-114.58
X49.65Y-94.08
X49.65Y-114.58
X57.74Y-94.08
X57.74Y-114.58
X68.74Y-94.08
X68.74Y-114.58
X76.79Y-94.08
X76.79Y-114.58
X87.79Y-94.08
X87.79Y-114.58
X95.84Y-94.08
X95.84Y-114.58
X106.84Y-94.08
X106.84Y-114.58
X114.8Y-94.08
X114.8Y-114.58
X125.8Y-94.08
X125.8Y-114.58
X133.85Y-94.08
X133.85Y-114.58
X144.85Y-94.08
X144.85Y-114.58
X152.85Y-94.08
X152.85Y-114.58
X163.85Y-94.08
X163.85Y-114.58
X171.86Y-94.08
X171.86Y-114.58
X182.86Y-94.08
X182.86Y-114.58
X190.96Y-94.08
X190.96Y-114.58
X201.96Y-94.08
X201.96Y-114.58
X217.85Y-94.08
X217.85Y-114.58
X228.85Y-94.08
X228.85Y-114.58
T2
X35.4Y-139.4
X35.6Y-39.4
X106.5Y-42.5
X129.4Y-130.65
X156.0Y-43.75
X238.5Y-39.5
X268.9Y-139.4
T3
X44.15Y-94.08
X44.15Y-114.58
X63.24Y-94.08
X63.24Y-114.58
X82.29Y-94.08
X82.29Y-114.58
X101.34Y-94.08
X101.34Y-114.58
X120.3Y-94.08
X120.3Y-114.58
X139.35Y-94.08
X139.35Y-114.58
X158.35Y-94.08
X158.35Y-114.58
X177.36Y-94.08
X177.36Y-114.58
X196.46Y-94.08
X196.46Y-114.58
X223.35Y-94.08
X223.35Y-114.58
M30
