%TF.GenerationSoftware,KiCad,Pcbnew,10.0.6*%
%TF.CreationDate,2026-10-04T15:24:10+02:00*%
%TF.ProjectId,KiCad - MIDI-controller,4b694361-6420-42d2-904d-4944492d636f,rev?*%
%TF.SameCoordinates,Original*%
%TF.FileFunction,Legend,Top*%
%TF.FilePolarity,Positive*%
%FSLAX46Y46*%
G04 Gerber Fmt 4.6, Leading zero omitted, Abs format (unit mm)*
G04 Created by KiCad (PCBNEW 10.0.6) date 2026-10-04 15:24:10*
%MOMM*%
%LPD*%
G01*
G04 APERTURE LIST*
%ADD10C,0.150000*%
%ADD11C,0.120000*%
G04 APERTURE END LIST*
D10*
X236264819Y-113341904D02*
X237074342Y-113341904D01*
X237074342Y-113341904D02*
X237169580Y-113294285D01*
X237169580Y-113294285D02*
X237217200Y-113246666D01*
X237217200Y-113246666D02*
X237264819Y-113151428D01*
X237264819Y-113151428D02*
X237264819Y-112960952D01*
X237264819Y-112960952D02*
X237217200Y-112865714D01*
X237217200Y-112865714D02*
X237169580Y-112818095D01*
X237169580Y-112818095D02*
X237074342Y-112770476D01*
X237074342Y-112770476D02*
X236264819Y-112770476D01*
X236360057Y-112341904D02*
X236312438Y-112294285D01*
X236312438Y-112294285D02*
X236264819Y-112199047D01*
X236264819Y-112199047D02*
X236264819Y-111960952D01*
X236264819Y-111960952D02*
X236312438Y-111865714D01*
X236312438Y-111865714D02*
X236360057Y-111818095D01*
X236360057Y-111818095D02*
X236455295Y-111770476D01*
X236455295Y-111770476D02*
X236550533Y-111770476D01*
X236550533Y-111770476D02*
X236693390Y-111818095D01*
X236693390Y-111818095D02*
X237264819Y-112389523D01*
X237264819Y-112389523D02*
X237264819Y-111770476D01*
X74894819Y-76651428D02*
X74418628Y-76984761D01*
X74894819Y-77222856D02*
X73894819Y-77222856D01*
X73894819Y-77222856D02*
X73894819Y-76841904D01*
X73894819Y-76841904D02*
X73942438Y-76746666D01*
X73942438Y-76746666D02*
X73990057Y-76699047D01*
X73990057Y-76699047D02*
X74085295Y-76651428D01*
X74085295Y-76651428D02*
X74228152Y-76651428D01*
X74228152Y-76651428D02*
X74323390Y-76699047D01*
X74323390Y-76699047D02*
X74371009Y-76746666D01*
X74371009Y-76746666D02*
X74418628Y-76841904D01*
X74418628Y-76841904D02*
X74418628Y-77222856D01*
X73894819Y-76365713D02*
X74894819Y-76032380D01*
X74894819Y-76032380D02*
X73894819Y-75699047D01*
X74894819Y-74841904D02*
X74894819Y-75413332D01*
X74894819Y-75127618D02*
X73894819Y-75127618D01*
X73894819Y-75127618D02*
X74037676Y-75222856D01*
X74037676Y-75222856D02*
X74132914Y-75318094D01*
X74132914Y-75318094D02*
X74180533Y-75413332D01*
X73894819Y-74508570D02*
X73894819Y-73889523D01*
X73894819Y-73889523D02*
X74275771Y-74222856D01*
X74275771Y-74222856D02*
X74275771Y-74079999D01*
X74275771Y-74079999D02*
X74323390Y-73984761D01*
X74323390Y-73984761D02*
X74371009Y-73937142D01*
X74371009Y-73937142D02*
X74466247Y-73889523D01*
X74466247Y-73889523D02*
X74704342Y-73889523D01*
X74704342Y-73889523D02*
X74799580Y-73937142D01*
X74799580Y-73937142D02*
X74847200Y-73984761D01*
X74847200Y-73984761D02*
X74894819Y-74079999D01*
X74894819Y-74079999D02*
X74894819Y-74365713D01*
X74894819Y-74365713D02*
X74847200Y-74460951D01*
X74847200Y-74460951D02*
X74799580Y-74508570D01*
X42340476Y-86613200D02*
X42483333Y-86660819D01*
X42483333Y-86660819D02*
X42721428Y-86660819D01*
X42721428Y-86660819D02*
X42816666Y-86613200D01*
X42816666Y-86613200D02*
X42864285Y-86565580D01*
X42864285Y-86565580D02*
X42911904Y-86470342D01*
X42911904Y-86470342D02*
X42911904Y-86375104D01*
X42911904Y-86375104D02*
X42864285Y-86279866D01*
X42864285Y-86279866D02*
X42816666Y-86232247D01*
X42816666Y-86232247D02*
X42721428Y-86184628D01*
X42721428Y-86184628D02*
X42530952Y-86137009D01*
X42530952Y-86137009D02*
X42435714Y-86089390D01*
X42435714Y-86089390D02*
X42388095Y-86041771D01*
X42388095Y-86041771D02*
X42340476Y-85946533D01*
X42340476Y-85946533D02*
X42340476Y-85851295D01*
X42340476Y-85851295D02*
X42388095Y-85756057D01*
X42388095Y-85756057D02*
X42435714Y-85708438D01*
X42435714Y-85708438D02*
X42530952Y-85660819D01*
X42530952Y-85660819D02*
X42769047Y-85660819D01*
X42769047Y-85660819D02*
X42911904Y-85708438D01*
X43245238Y-85660819D02*
X43483333Y-86660819D01*
X43483333Y-86660819D02*
X43673809Y-85946533D01*
X43673809Y-85946533D02*
X43864285Y-86660819D01*
X43864285Y-86660819D02*
X44102381Y-85660819D01*
X45007142Y-86660819D02*
X44435714Y-86660819D01*
X44721428Y-86660819D02*
X44721428Y-85660819D01*
X44721428Y-85660819D02*
X44626190Y-85803676D01*
X44626190Y-85803676D02*
X44530952Y-85898914D01*
X44530952Y-85898914D02*
X44435714Y-85946533D01*
X45959523Y-86660819D02*
X45388095Y-86660819D01*
X45673809Y-86660819D02*
X45673809Y-85660819D01*
X45673809Y-85660819D02*
X45578571Y-85803676D01*
X45578571Y-85803676D02*
X45483333Y-85898914D01*
X45483333Y-85898914D02*
X45388095Y-85946533D01*
X244169819Y-60981904D02*
X244979342Y-60981904D01*
X244979342Y-60981904D02*
X245074580Y-60934285D01*
X245074580Y-60934285D02*
X245122200Y-60886666D01*
X245122200Y-60886666D02*
X245169819Y-60791428D01*
X245169819Y-60791428D02*
X245169819Y-60600952D01*
X245169819Y-60600952D02*
X245122200Y-60505714D01*
X245122200Y-60505714D02*
X245074580Y-60458095D01*
X245074580Y-60458095D02*
X244979342Y-60410476D01*
X244979342Y-60410476D02*
X244169819Y-60410476D01*
X245169819Y-59410476D02*
X245169819Y-59981904D01*
X245169819Y-59696190D02*
X244169819Y-59696190D01*
X244169819Y-59696190D02*
X244312676Y-59791428D01*
X244312676Y-59791428D02*
X244407914Y-59886666D01*
X244407914Y-59886666D02*
X244455533Y-59981904D01*
X118490476Y-86613200D02*
X118633333Y-86660819D01*
X118633333Y-86660819D02*
X118871428Y-86660819D01*
X118871428Y-86660819D02*
X118966666Y-86613200D01*
X118966666Y-86613200D02*
X119014285Y-86565580D01*
X119014285Y-86565580D02*
X119061904Y-86470342D01*
X119061904Y-86470342D02*
X119061904Y-86375104D01*
X119061904Y-86375104D02*
X119014285Y-86279866D01*
X119014285Y-86279866D02*
X118966666Y-86232247D01*
X118966666Y-86232247D02*
X118871428Y-86184628D01*
X118871428Y-86184628D02*
X118680952Y-86137009D01*
X118680952Y-86137009D02*
X118585714Y-86089390D01*
X118585714Y-86089390D02*
X118538095Y-86041771D01*
X118538095Y-86041771D02*
X118490476Y-85946533D01*
X118490476Y-85946533D02*
X118490476Y-85851295D01*
X118490476Y-85851295D02*
X118538095Y-85756057D01*
X118538095Y-85756057D02*
X118585714Y-85708438D01*
X118585714Y-85708438D02*
X118680952Y-85660819D01*
X118680952Y-85660819D02*
X118919047Y-85660819D01*
X118919047Y-85660819D02*
X119061904Y-85708438D01*
X119395238Y-85660819D02*
X119633333Y-86660819D01*
X119633333Y-86660819D02*
X119823809Y-85946533D01*
X119823809Y-85946533D02*
X120014285Y-86660819D01*
X120014285Y-86660819D02*
X120252381Y-85660819D01*
X121157142Y-86660819D02*
X120585714Y-86660819D01*
X120871428Y-86660819D02*
X120871428Y-85660819D01*
X120871428Y-85660819D02*
X120776190Y-85803676D01*
X120776190Y-85803676D02*
X120680952Y-85898914D01*
X120680952Y-85898914D02*
X120585714Y-85946533D01*
X122061904Y-85660819D02*
X121585714Y-85660819D01*
X121585714Y-85660819D02*
X121538095Y-86137009D01*
X121538095Y-86137009D02*
X121585714Y-86089390D01*
X121585714Y-86089390D02*
X121680952Y-86041771D01*
X121680952Y-86041771D02*
X121919047Y-86041771D01*
X121919047Y-86041771D02*
X122014285Y-86089390D01*
X122014285Y-86089390D02*
X122061904Y-86137009D01*
X122061904Y-86137009D02*
X122109523Y-86232247D01*
X122109523Y-86232247D02*
X122109523Y-86470342D01*
X122109523Y-86470342D02*
X122061904Y-86565580D01*
X122061904Y-86565580D02*
X122014285Y-86613200D01*
X122014285Y-86613200D02*
X121919047Y-86660819D01*
X121919047Y-86660819D02*
X121680952Y-86660819D01*
X121680952Y-86660819D02*
X121585714Y-86613200D01*
X121585714Y-86613200D02*
X121538095Y-86565580D01*
X77957200Y-55589523D02*
X78004819Y-55446666D01*
X78004819Y-55446666D02*
X78004819Y-55208571D01*
X78004819Y-55208571D02*
X77957200Y-55113333D01*
X77957200Y-55113333D02*
X77909580Y-55065714D01*
X77909580Y-55065714D02*
X77814342Y-55018095D01*
X77814342Y-55018095D02*
X77719104Y-55018095D01*
X77719104Y-55018095D02*
X77623866Y-55065714D01*
X77623866Y-55065714D02*
X77576247Y-55113333D01*
X77576247Y-55113333D02*
X77528628Y-55208571D01*
X77528628Y-55208571D02*
X77481009Y-55399047D01*
X77481009Y-55399047D02*
X77433390Y-55494285D01*
X77433390Y-55494285D02*
X77385771Y-55541904D01*
X77385771Y-55541904D02*
X77290533Y-55589523D01*
X77290533Y-55589523D02*
X77195295Y-55589523D01*
X77195295Y-55589523D02*
X77100057Y-55541904D01*
X77100057Y-55541904D02*
X77052438Y-55494285D01*
X77052438Y-55494285D02*
X77004819Y-55399047D01*
X77004819Y-55399047D02*
X77004819Y-55160952D01*
X77004819Y-55160952D02*
X77052438Y-55018095D01*
X77004819Y-54684761D02*
X78004819Y-54446666D01*
X78004819Y-54446666D02*
X77290533Y-54256190D01*
X77290533Y-54256190D02*
X78004819Y-54065714D01*
X78004819Y-54065714D02*
X77004819Y-53827619D01*
X77100057Y-53494285D02*
X77052438Y-53446666D01*
X77052438Y-53446666D02*
X77004819Y-53351428D01*
X77004819Y-53351428D02*
X77004819Y-53113333D01*
X77004819Y-53113333D02*
X77052438Y-53018095D01*
X77052438Y-53018095D02*
X77100057Y-52970476D01*
X77100057Y-52970476D02*
X77195295Y-52922857D01*
X77195295Y-52922857D02*
X77290533Y-52922857D01*
X77290533Y-52922857D02*
X77433390Y-52970476D01*
X77433390Y-52970476D02*
X78004819Y-53541904D01*
X78004819Y-53541904D02*
X78004819Y-52922857D01*
X78004819Y-51970476D02*
X78004819Y-52541904D01*
X78004819Y-52256190D02*
X77004819Y-52256190D01*
X77004819Y-52256190D02*
X77147676Y-52351428D01*
X77147676Y-52351428D02*
X77242914Y-52446666D01*
X77242914Y-52446666D02*
X77290533Y-52541904D01*
X99530476Y-86487200D02*
X99673333Y-86534819D01*
X99673333Y-86534819D02*
X99911428Y-86534819D01*
X99911428Y-86534819D02*
X100006666Y-86487200D01*
X100006666Y-86487200D02*
X100054285Y-86439580D01*
X100054285Y-86439580D02*
X100101904Y-86344342D01*
X100101904Y-86344342D02*
X100101904Y-86249104D01*
X100101904Y-86249104D02*
X100054285Y-86153866D01*
X100054285Y-86153866D02*
X100006666Y-86106247D01*
X100006666Y-86106247D02*
X99911428Y-86058628D01*
X99911428Y-86058628D02*
X99720952Y-86011009D01*
X99720952Y-86011009D02*
X99625714Y-85963390D01*
X99625714Y-85963390D02*
X99578095Y-85915771D01*
X99578095Y-85915771D02*
X99530476Y-85820533D01*
X99530476Y-85820533D02*
X99530476Y-85725295D01*
X99530476Y-85725295D02*
X99578095Y-85630057D01*
X99578095Y-85630057D02*
X99625714Y-85582438D01*
X99625714Y-85582438D02*
X99720952Y-85534819D01*
X99720952Y-85534819D02*
X99959047Y-85534819D01*
X99959047Y-85534819D02*
X100101904Y-85582438D01*
X100435238Y-85534819D02*
X100673333Y-86534819D01*
X100673333Y-86534819D02*
X100863809Y-85820533D01*
X100863809Y-85820533D02*
X101054285Y-86534819D01*
X101054285Y-86534819D02*
X101292381Y-85534819D01*
X102197142Y-86534819D02*
X101625714Y-86534819D01*
X101911428Y-86534819D02*
X101911428Y-85534819D01*
X101911428Y-85534819D02*
X101816190Y-85677676D01*
X101816190Y-85677676D02*
X101720952Y-85772914D01*
X101720952Y-85772914D02*
X101625714Y-85820533D01*
X103054285Y-85868152D02*
X103054285Y-86534819D01*
X102816190Y-85487200D02*
X102578095Y-86201485D01*
X102578095Y-86201485D02*
X103197142Y-86201485D01*
X221540476Y-107113200D02*
X221683333Y-107160819D01*
X221683333Y-107160819D02*
X221921428Y-107160819D01*
X221921428Y-107160819D02*
X222016666Y-107113200D01*
X222016666Y-107113200D02*
X222064285Y-107065580D01*
X222064285Y-107065580D02*
X222111904Y-106970342D01*
X222111904Y-106970342D02*
X222111904Y-106875104D01*
X222111904Y-106875104D02*
X222064285Y-106779866D01*
X222064285Y-106779866D02*
X222016666Y-106732247D01*
X222016666Y-106732247D02*
X221921428Y-106684628D01*
X221921428Y-106684628D02*
X221730952Y-106637009D01*
X221730952Y-106637009D02*
X221635714Y-106589390D01*
X221635714Y-106589390D02*
X221588095Y-106541771D01*
X221588095Y-106541771D02*
X221540476Y-106446533D01*
X221540476Y-106446533D02*
X221540476Y-106351295D01*
X221540476Y-106351295D02*
X221588095Y-106256057D01*
X221588095Y-106256057D02*
X221635714Y-106208438D01*
X221635714Y-106208438D02*
X221730952Y-106160819D01*
X221730952Y-106160819D02*
X221969047Y-106160819D01*
X221969047Y-106160819D02*
X222111904Y-106208438D01*
X222445238Y-106160819D02*
X222683333Y-107160819D01*
X222683333Y-107160819D02*
X222873809Y-106446533D01*
X222873809Y-106446533D02*
X223064285Y-107160819D01*
X223064285Y-107160819D02*
X223302381Y-106160819D01*
X224207142Y-107160819D02*
X223635714Y-107160819D01*
X223921428Y-107160819D02*
X223921428Y-106160819D01*
X223921428Y-106160819D02*
X223826190Y-106303676D01*
X223826190Y-106303676D02*
X223730952Y-106398914D01*
X223730952Y-106398914D02*
X223635714Y-106446533D01*
X224826190Y-106160819D02*
X224921428Y-106160819D01*
X224921428Y-106160819D02*
X225016666Y-106208438D01*
X225016666Y-106208438D02*
X225064285Y-106256057D01*
X225064285Y-106256057D02*
X225111904Y-106351295D01*
X225111904Y-106351295D02*
X225159523Y-106541771D01*
X225159523Y-106541771D02*
X225159523Y-106779866D01*
X225159523Y-106779866D02*
X225111904Y-106970342D01*
X225111904Y-106970342D02*
X225064285Y-107065580D01*
X225064285Y-107065580D02*
X225016666Y-107113200D01*
X225016666Y-107113200D02*
X224921428Y-107160819D01*
X224921428Y-107160819D02*
X224826190Y-107160819D01*
X224826190Y-107160819D02*
X224730952Y-107113200D01*
X224730952Y-107113200D02*
X224683333Y-107065580D01*
X224683333Y-107065580D02*
X224635714Y-106970342D01*
X224635714Y-106970342D02*
X224588095Y-106779866D01*
X224588095Y-106779866D02*
X224588095Y-106541771D01*
X224588095Y-106541771D02*
X224635714Y-106351295D01*
X224635714Y-106351295D02*
X224683333Y-106256057D01*
X224683333Y-106256057D02*
X224730952Y-106208438D01*
X224730952Y-106208438D02*
X224826190Y-106160819D01*
X178514819Y-76651428D02*
X178038628Y-76984761D01*
X178514819Y-77222856D02*
X177514819Y-77222856D01*
X177514819Y-77222856D02*
X177514819Y-76841904D01*
X177514819Y-76841904D02*
X177562438Y-76746666D01*
X177562438Y-76746666D02*
X177610057Y-76699047D01*
X177610057Y-76699047D02*
X177705295Y-76651428D01*
X177705295Y-76651428D02*
X177848152Y-76651428D01*
X177848152Y-76651428D02*
X177943390Y-76699047D01*
X177943390Y-76699047D02*
X177991009Y-76746666D01*
X177991009Y-76746666D02*
X178038628Y-76841904D01*
X178038628Y-76841904D02*
X178038628Y-77222856D01*
X177514819Y-76365713D02*
X178514819Y-76032380D01*
X178514819Y-76032380D02*
X177514819Y-75699047D01*
X178514819Y-74841904D02*
X178514819Y-75413332D01*
X178514819Y-75127618D02*
X177514819Y-75127618D01*
X177514819Y-75127618D02*
X177657676Y-75222856D01*
X177657676Y-75222856D02*
X177752914Y-75318094D01*
X177752914Y-75318094D02*
X177800533Y-75413332D01*
X178514819Y-74365713D02*
X178514819Y-74175237D01*
X178514819Y-74175237D02*
X178467200Y-74079999D01*
X178467200Y-74079999D02*
X178419580Y-74032380D01*
X178419580Y-74032380D02*
X178276723Y-73937142D01*
X178276723Y-73937142D02*
X178086247Y-73889523D01*
X178086247Y-73889523D02*
X177705295Y-73889523D01*
X177705295Y-73889523D02*
X177610057Y-73937142D01*
X177610057Y-73937142D02*
X177562438Y-73984761D01*
X177562438Y-73984761D02*
X177514819Y-74079999D01*
X177514819Y-74079999D02*
X177514819Y-74270475D01*
X177514819Y-74270475D02*
X177562438Y-74365713D01*
X177562438Y-74365713D02*
X177610057Y-74413332D01*
X177610057Y-74413332D02*
X177705295Y-74460951D01*
X177705295Y-74460951D02*
X177943390Y-74460951D01*
X177943390Y-74460951D02*
X178038628Y-74413332D01*
X178038628Y-74413332D02*
X178086247Y-74365713D01*
X178086247Y-74365713D02*
X178133866Y-74270475D01*
X178133866Y-74270475D02*
X178133866Y-74079999D01*
X178133866Y-74079999D02*
X178086247Y-73984761D01*
X178086247Y-73984761D02*
X178038628Y-73937142D01*
X178038628Y-73937142D02*
X177943390Y-73889523D01*
X172434819Y-140175238D02*
X171958628Y-140508571D01*
X172434819Y-140746666D02*
X171434819Y-140746666D01*
X171434819Y-140746666D02*
X171434819Y-140365714D01*
X171434819Y-140365714D02*
X171482438Y-140270476D01*
X171482438Y-140270476D02*
X171530057Y-140222857D01*
X171530057Y-140222857D02*
X171625295Y-140175238D01*
X171625295Y-140175238D02*
X171768152Y-140175238D01*
X171768152Y-140175238D02*
X171863390Y-140222857D01*
X171863390Y-140222857D02*
X171911009Y-140270476D01*
X171911009Y-140270476D02*
X171958628Y-140365714D01*
X171958628Y-140365714D02*
X171958628Y-140746666D01*
X171434819Y-139889523D02*
X172434819Y-139556190D01*
X172434819Y-139556190D02*
X171434819Y-139222857D01*
X171863390Y-138746666D02*
X171815771Y-138841904D01*
X171815771Y-138841904D02*
X171768152Y-138889523D01*
X171768152Y-138889523D02*
X171672914Y-138937142D01*
X171672914Y-138937142D02*
X171625295Y-138937142D01*
X171625295Y-138937142D02*
X171530057Y-138889523D01*
X171530057Y-138889523D02*
X171482438Y-138841904D01*
X171482438Y-138841904D02*
X171434819Y-138746666D01*
X171434819Y-138746666D02*
X171434819Y-138556190D01*
X171434819Y-138556190D02*
X171482438Y-138460952D01*
X171482438Y-138460952D02*
X171530057Y-138413333D01*
X171530057Y-138413333D02*
X171625295Y-138365714D01*
X171625295Y-138365714D02*
X171672914Y-138365714D01*
X171672914Y-138365714D02*
X171768152Y-138413333D01*
X171768152Y-138413333D02*
X171815771Y-138460952D01*
X171815771Y-138460952D02*
X171863390Y-138556190D01*
X171863390Y-138556190D02*
X171863390Y-138746666D01*
X171863390Y-138746666D02*
X171911009Y-138841904D01*
X171911009Y-138841904D02*
X171958628Y-138889523D01*
X171958628Y-138889523D02*
X172053866Y-138937142D01*
X172053866Y-138937142D02*
X172244342Y-138937142D01*
X172244342Y-138937142D02*
X172339580Y-138889523D01*
X172339580Y-138889523D02*
X172387200Y-138841904D01*
X172387200Y-138841904D02*
X172434819Y-138746666D01*
X172434819Y-138746666D02*
X172434819Y-138556190D01*
X172434819Y-138556190D02*
X172387200Y-138460952D01*
X172387200Y-138460952D02*
X172339580Y-138413333D01*
X172339580Y-138413333D02*
X172244342Y-138365714D01*
X172244342Y-138365714D02*
X172053866Y-138365714D01*
X172053866Y-138365714D02*
X171958628Y-138413333D01*
X171958628Y-138413333D02*
X171911009Y-138460952D01*
X171911009Y-138460952D02*
X171863390Y-138556190D01*
X194650476Y-86613200D02*
X194793333Y-86660819D01*
X194793333Y-86660819D02*
X195031428Y-86660819D01*
X195031428Y-86660819D02*
X195126666Y-86613200D01*
X195126666Y-86613200D02*
X195174285Y-86565580D01*
X195174285Y-86565580D02*
X195221904Y-86470342D01*
X195221904Y-86470342D02*
X195221904Y-86375104D01*
X195221904Y-86375104D02*
X195174285Y-86279866D01*
X195174285Y-86279866D02*
X195126666Y-86232247D01*
X195126666Y-86232247D02*
X195031428Y-86184628D01*
X195031428Y-86184628D02*
X194840952Y-86137009D01*
X194840952Y-86137009D02*
X194745714Y-86089390D01*
X194745714Y-86089390D02*
X194698095Y-86041771D01*
X194698095Y-86041771D02*
X194650476Y-85946533D01*
X194650476Y-85946533D02*
X194650476Y-85851295D01*
X194650476Y-85851295D02*
X194698095Y-85756057D01*
X194698095Y-85756057D02*
X194745714Y-85708438D01*
X194745714Y-85708438D02*
X194840952Y-85660819D01*
X194840952Y-85660819D02*
X195079047Y-85660819D01*
X195079047Y-85660819D02*
X195221904Y-85708438D01*
X195555238Y-85660819D02*
X195793333Y-86660819D01*
X195793333Y-86660819D02*
X195983809Y-85946533D01*
X195983809Y-85946533D02*
X196174285Y-86660819D01*
X196174285Y-86660819D02*
X196412381Y-85660819D01*
X197317142Y-86660819D02*
X196745714Y-86660819D01*
X197031428Y-86660819D02*
X197031428Y-85660819D01*
X197031428Y-85660819D02*
X196936190Y-85803676D01*
X196936190Y-85803676D02*
X196840952Y-85898914D01*
X196840952Y-85898914D02*
X196745714Y-85946533D01*
X197793333Y-86660819D02*
X197983809Y-86660819D01*
X197983809Y-86660819D02*
X198079047Y-86613200D01*
X198079047Y-86613200D02*
X198126666Y-86565580D01*
X198126666Y-86565580D02*
X198221904Y-86422723D01*
X198221904Y-86422723D02*
X198269523Y-86232247D01*
X198269523Y-86232247D02*
X198269523Y-85851295D01*
X198269523Y-85851295D02*
X198221904Y-85756057D01*
X198221904Y-85756057D02*
X198174285Y-85708438D01*
X198174285Y-85708438D02*
X198079047Y-85660819D01*
X198079047Y-85660819D02*
X197888571Y-85660819D01*
X197888571Y-85660819D02*
X197793333Y-85708438D01*
X197793333Y-85708438D02*
X197745714Y-85756057D01*
X197745714Y-85756057D02*
X197698095Y-85851295D01*
X197698095Y-85851295D02*
X197698095Y-86089390D01*
X197698095Y-86089390D02*
X197745714Y-86184628D01*
X197745714Y-86184628D02*
X197793333Y-86232247D01*
X197793333Y-86232247D02*
X197888571Y-86279866D01*
X197888571Y-86279866D02*
X198079047Y-86279866D01*
X198079047Y-86279866D02*
X198174285Y-86232247D01*
X198174285Y-86232247D02*
X198221904Y-86184628D01*
X198221904Y-86184628D02*
X198269523Y-86089390D01*
X221540476Y-86613200D02*
X221683333Y-86660819D01*
X221683333Y-86660819D02*
X221921428Y-86660819D01*
X221921428Y-86660819D02*
X222016666Y-86613200D01*
X222016666Y-86613200D02*
X222064285Y-86565580D01*
X222064285Y-86565580D02*
X222111904Y-86470342D01*
X222111904Y-86470342D02*
X222111904Y-86375104D01*
X222111904Y-86375104D02*
X222064285Y-86279866D01*
X222064285Y-86279866D02*
X222016666Y-86232247D01*
X222016666Y-86232247D02*
X221921428Y-86184628D01*
X221921428Y-86184628D02*
X221730952Y-86137009D01*
X221730952Y-86137009D02*
X221635714Y-86089390D01*
X221635714Y-86089390D02*
X221588095Y-86041771D01*
X221588095Y-86041771D02*
X221540476Y-85946533D01*
X221540476Y-85946533D02*
X221540476Y-85851295D01*
X221540476Y-85851295D02*
X221588095Y-85756057D01*
X221588095Y-85756057D02*
X221635714Y-85708438D01*
X221635714Y-85708438D02*
X221730952Y-85660819D01*
X221730952Y-85660819D02*
X221969047Y-85660819D01*
X221969047Y-85660819D02*
X222111904Y-85708438D01*
X222445238Y-85660819D02*
X222683333Y-86660819D01*
X222683333Y-86660819D02*
X222873809Y-85946533D01*
X222873809Y-85946533D02*
X223064285Y-86660819D01*
X223064285Y-86660819D02*
X223302381Y-85660819D01*
X223635714Y-85756057D02*
X223683333Y-85708438D01*
X223683333Y-85708438D02*
X223778571Y-85660819D01*
X223778571Y-85660819D02*
X224016666Y-85660819D01*
X224016666Y-85660819D02*
X224111904Y-85708438D01*
X224111904Y-85708438D02*
X224159523Y-85756057D01*
X224159523Y-85756057D02*
X224207142Y-85851295D01*
X224207142Y-85851295D02*
X224207142Y-85946533D01*
X224207142Y-85946533D02*
X224159523Y-86089390D01*
X224159523Y-86089390D02*
X223588095Y-86660819D01*
X223588095Y-86660819D02*
X224207142Y-86660819D01*
X224826190Y-85660819D02*
X224921428Y-85660819D01*
X224921428Y-85660819D02*
X225016666Y-85708438D01*
X225016666Y-85708438D02*
X225064285Y-85756057D01*
X225064285Y-85756057D02*
X225111904Y-85851295D01*
X225111904Y-85851295D02*
X225159523Y-86041771D01*
X225159523Y-86041771D02*
X225159523Y-86279866D01*
X225159523Y-86279866D02*
X225111904Y-86470342D01*
X225111904Y-86470342D02*
X225064285Y-86565580D01*
X225064285Y-86565580D02*
X225016666Y-86613200D01*
X225016666Y-86613200D02*
X224921428Y-86660819D01*
X224921428Y-86660819D02*
X224826190Y-86660819D01*
X224826190Y-86660819D02*
X224730952Y-86613200D01*
X224730952Y-86613200D02*
X224683333Y-86565580D01*
X224683333Y-86565580D02*
X224635714Y-86470342D01*
X224635714Y-86470342D02*
X224588095Y-86279866D01*
X224588095Y-86279866D02*
X224588095Y-86041771D01*
X224588095Y-86041771D02*
X224635714Y-85851295D01*
X224635714Y-85851295D02*
X224683333Y-85756057D01*
X224683333Y-85756057D02*
X224730952Y-85708438D01*
X224730952Y-85708438D02*
X224826190Y-85660819D01*
X175550476Y-86613200D02*
X175693333Y-86660819D01*
X175693333Y-86660819D02*
X175931428Y-86660819D01*
X175931428Y-86660819D02*
X176026666Y-86613200D01*
X176026666Y-86613200D02*
X176074285Y-86565580D01*
X176074285Y-86565580D02*
X176121904Y-86470342D01*
X176121904Y-86470342D02*
X176121904Y-86375104D01*
X176121904Y-86375104D02*
X176074285Y-86279866D01*
X176074285Y-86279866D02*
X176026666Y-86232247D01*
X176026666Y-86232247D02*
X175931428Y-86184628D01*
X175931428Y-86184628D02*
X175740952Y-86137009D01*
X175740952Y-86137009D02*
X175645714Y-86089390D01*
X175645714Y-86089390D02*
X175598095Y-86041771D01*
X175598095Y-86041771D02*
X175550476Y-85946533D01*
X175550476Y-85946533D02*
X175550476Y-85851295D01*
X175550476Y-85851295D02*
X175598095Y-85756057D01*
X175598095Y-85756057D02*
X175645714Y-85708438D01*
X175645714Y-85708438D02*
X175740952Y-85660819D01*
X175740952Y-85660819D02*
X175979047Y-85660819D01*
X175979047Y-85660819D02*
X176121904Y-85708438D01*
X176455238Y-85660819D02*
X176693333Y-86660819D01*
X176693333Y-86660819D02*
X176883809Y-85946533D01*
X176883809Y-85946533D02*
X177074285Y-86660819D01*
X177074285Y-86660819D02*
X177312381Y-85660819D01*
X178217142Y-86660819D02*
X177645714Y-86660819D01*
X177931428Y-86660819D02*
X177931428Y-85660819D01*
X177931428Y-85660819D02*
X177836190Y-85803676D01*
X177836190Y-85803676D02*
X177740952Y-85898914D01*
X177740952Y-85898914D02*
X177645714Y-85946533D01*
X178788571Y-86089390D02*
X178693333Y-86041771D01*
X178693333Y-86041771D02*
X178645714Y-85994152D01*
X178645714Y-85994152D02*
X178598095Y-85898914D01*
X178598095Y-85898914D02*
X178598095Y-85851295D01*
X178598095Y-85851295D02*
X178645714Y-85756057D01*
X178645714Y-85756057D02*
X178693333Y-85708438D01*
X178693333Y-85708438D02*
X178788571Y-85660819D01*
X178788571Y-85660819D02*
X178979047Y-85660819D01*
X178979047Y-85660819D02*
X179074285Y-85708438D01*
X179074285Y-85708438D02*
X179121904Y-85756057D01*
X179121904Y-85756057D02*
X179169523Y-85851295D01*
X179169523Y-85851295D02*
X179169523Y-85898914D01*
X179169523Y-85898914D02*
X179121904Y-85994152D01*
X179121904Y-85994152D02*
X179074285Y-86041771D01*
X179074285Y-86041771D02*
X178979047Y-86089390D01*
X178979047Y-86089390D02*
X178788571Y-86089390D01*
X178788571Y-86089390D02*
X178693333Y-86137009D01*
X178693333Y-86137009D02*
X178645714Y-86184628D01*
X178645714Y-86184628D02*
X178598095Y-86279866D01*
X178598095Y-86279866D02*
X178598095Y-86470342D01*
X178598095Y-86470342D02*
X178645714Y-86565580D01*
X178645714Y-86565580D02*
X178693333Y-86613200D01*
X178693333Y-86613200D02*
X178788571Y-86660819D01*
X178788571Y-86660819D02*
X178979047Y-86660819D01*
X178979047Y-86660819D02*
X179074285Y-86613200D01*
X179074285Y-86613200D02*
X179121904Y-86565580D01*
X179121904Y-86565580D02*
X179169523Y-86470342D01*
X179169523Y-86470342D02*
X179169523Y-86279866D01*
X179169523Y-86279866D02*
X179121904Y-86184628D01*
X179121904Y-86184628D02*
X179074285Y-86137009D01*
X179074285Y-86137009D02*
X178979047Y-86089390D01*
X58314819Y-140175238D02*
X57838628Y-140508571D01*
X58314819Y-140746666D02*
X57314819Y-140746666D01*
X57314819Y-140746666D02*
X57314819Y-140365714D01*
X57314819Y-140365714D02*
X57362438Y-140270476D01*
X57362438Y-140270476D02*
X57410057Y-140222857D01*
X57410057Y-140222857D02*
X57505295Y-140175238D01*
X57505295Y-140175238D02*
X57648152Y-140175238D01*
X57648152Y-140175238D02*
X57743390Y-140222857D01*
X57743390Y-140222857D02*
X57791009Y-140270476D01*
X57791009Y-140270476D02*
X57838628Y-140365714D01*
X57838628Y-140365714D02*
X57838628Y-140746666D01*
X57314819Y-139889523D02*
X58314819Y-139556190D01*
X58314819Y-139556190D02*
X57314819Y-139222857D01*
X57410057Y-138937142D02*
X57362438Y-138889523D01*
X57362438Y-138889523D02*
X57314819Y-138794285D01*
X57314819Y-138794285D02*
X57314819Y-138556190D01*
X57314819Y-138556190D02*
X57362438Y-138460952D01*
X57362438Y-138460952D02*
X57410057Y-138413333D01*
X57410057Y-138413333D02*
X57505295Y-138365714D01*
X57505295Y-138365714D02*
X57600533Y-138365714D01*
X57600533Y-138365714D02*
X57743390Y-138413333D01*
X57743390Y-138413333D02*
X58314819Y-138984761D01*
X58314819Y-138984761D02*
X58314819Y-138365714D01*
X156540476Y-86613200D02*
X156683333Y-86660819D01*
X156683333Y-86660819D02*
X156921428Y-86660819D01*
X156921428Y-86660819D02*
X157016666Y-86613200D01*
X157016666Y-86613200D02*
X157064285Y-86565580D01*
X157064285Y-86565580D02*
X157111904Y-86470342D01*
X157111904Y-86470342D02*
X157111904Y-86375104D01*
X157111904Y-86375104D02*
X157064285Y-86279866D01*
X157064285Y-86279866D02*
X157016666Y-86232247D01*
X157016666Y-86232247D02*
X156921428Y-86184628D01*
X156921428Y-86184628D02*
X156730952Y-86137009D01*
X156730952Y-86137009D02*
X156635714Y-86089390D01*
X156635714Y-86089390D02*
X156588095Y-86041771D01*
X156588095Y-86041771D02*
X156540476Y-85946533D01*
X156540476Y-85946533D02*
X156540476Y-85851295D01*
X156540476Y-85851295D02*
X156588095Y-85756057D01*
X156588095Y-85756057D02*
X156635714Y-85708438D01*
X156635714Y-85708438D02*
X156730952Y-85660819D01*
X156730952Y-85660819D02*
X156969047Y-85660819D01*
X156969047Y-85660819D02*
X157111904Y-85708438D01*
X157445238Y-85660819D02*
X157683333Y-86660819D01*
X157683333Y-86660819D02*
X157873809Y-85946533D01*
X157873809Y-85946533D02*
X158064285Y-86660819D01*
X158064285Y-86660819D02*
X158302381Y-85660819D01*
X159207142Y-86660819D02*
X158635714Y-86660819D01*
X158921428Y-86660819D02*
X158921428Y-85660819D01*
X158921428Y-85660819D02*
X158826190Y-85803676D01*
X158826190Y-85803676D02*
X158730952Y-85898914D01*
X158730952Y-85898914D02*
X158635714Y-85946533D01*
X159540476Y-85660819D02*
X160207142Y-85660819D01*
X160207142Y-85660819D02*
X159778571Y-86660819D01*
X111904819Y-76651428D02*
X111428628Y-76984761D01*
X111904819Y-77222856D02*
X110904819Y-77222856D01*
X110904819Y-77222856D02*
X110904819Y-76841904D01*
X110904819Y-76841904D02*
X110952438Y-76746666D01*
X110952438Y-76746666D02*
X111000057Y-76699047D01*
X111000057Y-76699047D02*
X111095295Y-76651428D01*
X111095295Y-76651428D02*
X111238152Y-76651428D01*
X111238152Y-76651428D02*
X111333390Y-76699047D01*
X111333390Y-76699047D02*
X111381009Y-76746666D01*
X111381009Y-76746666D02*
X111428628Y-76841904D01*
X111428628Y-76841904D02*
X111428628Y-77222856D01*
X110904819Y-76365713D02*
X111904819Y-76032380D01*
X111904819Y-76032380D02*
X110904819Y-75699047D01*
X111904819Y-74841904D02*
X111904819Y-75413332D01*
X111904819Y-75127618D02*
X110904819Y-75127618D01*
X110904819Y-75127618D02*
X111047676Y-75222856D01*
X111047676Y-75222856D02*
X111142914Y-75318094D01*
X111142914Y-75318094D02*
X111190533Y-75413332D01*
X110904819Y-73937142D02*
X110904819Y-74413332D01*
X110904819Y-74413332D02*
X111381009Y-74460951D01*
X111381009Y-74460951D02*
X111333390Y-74413332D01*
X111333390Y-74413332D02*
X111285771Y-74318094D01*
X111285771Y-74318094D02*
X111285771Y-74079999D01*
X111285771Y-74079999D02*
X111333390Y-73984761D01*
X111333390Y-73984761D02*
X111381009Y-73937142D01*
X111381009Y-73937142D02*
X111476247Y-73889523D01*
X111476247Y-73889523D02*
X111714342Y-73889523D01*
X111714342Y-73889523D02*
X111809580Y-73937142D01*
X111809580Y-73937142D02*
X111857200Y-73984761D01*
X111857200Y-73984761D02*
X111904819Y-74079999D01*
X111904819Y-74079999D02*
X111904819Y-74318094D01*
X111904819Y-74318094D02*
X111857200Y-74413332D01*
X111857200Y-74413332D02*
X111809580Y-74460951D01*
X150954819Y-76651428D02*
X150478628Y-76984761D01*
X150954819Y-77222856D02*
X149954819Y-77222856D01*
X149954819Y-77222856D02*
X149954819Y-76841904D01*
X149954819Y-76841904D02*
X150002438Y-76746666D01*
X150002438Y-76746666D02*
X150050057Y-76699047D01*
X150050057Y-76699047D02*
X150145295Y-76651428D01*
X150145295Y-76651428D02*
X150288152Y-76651428D01*
X150288152Y-76651428D02*
X150383390Y-76699047D01*
X150383390Y-76699047D02*
X150431009Y-76746666D01*
X150431009Y-76746666D02*
X150478628Y-76841904D01*
X150478628Y-76841904D02*
X150478628Y-77222856D01*
X149954819Y-76365713D02*
X150954819Y-76032380D01*
X150954819Y-76032380D02*
X149954819Y-75699047D01*
X150954819Y-74841904D02*
X150954819Y-75413332D01*
X150954819Y-75127618D02*
X149954819Y-75127618D01*
X149954819Y-75127618D02*
X150097676Y-75222856D01*
X150097676Y-75222856D02*
X150192914Y-75318094D01*
X150192914Y-75318094D02*
X150240533Y-75413332D01*
X149954819Y-74508570D02*
X149954819Y-73841904D01*
X149954819Y-73841904D02*
X150954819Y-74270475D01*
X128657200Y-55639523D02*
X128704819Y-55496666D01*
X128704819Y-55496666D02*
X128704819Y-55258571D01*
X128704819Y-55258571D02*
X128657200Y-55163333D01*
X128657200Y-55163333D02*
X128609580Y-55115714D01*
X128609580Y-55115714D02*
X128514342Y-55068095D01*
X128514342Y-55068095D02*
X128419104Y-55068095D01*
X128419104Y-55068095D02*
X128323866Y-55115714D01*
X128323866Y-55115714D02*
X128276247Y-55163333D01*
X128276247Y-55163333D02*
X128228628Y-55258571D01*
X128228628Y-55258571D02*
X128181009Y-55449047D01*
X128181009Y-55449047D02*
X128133390Y-55544285D01*
X128133390Y-55544285D02*
X128085771Y-55591904D01*
X128085771Y-55591904D02*
X127990533Y-55639523D01*
X127990533Y-55639523D02*
X127895295Y-55639523D01*
X127895295Y-55639523D02*
X127800057Y-55591904D01*
X127800057Y-55591904D02*
X127752438Y-55544285D01*
X127752438Y-55544285D02*
X127704819Y-55449047D01*
X127704819Y-55449047D02*
X127704819Y-55210952D01*
X127704819Y-55210952D02*
X127752438Y-55068095D01*
X127704819Y-54734761D02*
X128704819Y-54496666D01*
X128704819Y-54496666D02*
X127990533Y-54306190D01*
X127990533Y-54306190D02*
X128704819Y-54115714D01*
X128704819Y-54115714D02*
X127704819Y-53877619D01*
X127800057Y-53544285D02*
X127752438Y-53496666D01*
X127752438Y-53496666D02*
X127704819Y-53401428D01*
X127704819Y-53401428D02*
X127704819Y-53163333D01*
X127704819Y-53163333D02*
X127752438Y-53068095D01*
X127752438Y-53068095D02*
X127800057Y-53020476D01*
X127800057Y-53020476D02*
X127895295Y-52972857D01*
X127895295Y-52972857D02*
X127990533Y-52972857D01*
X127990533Y-52972857D02*
X128133390Y-53020476D01*
X128133390Y-53020476D02*
X128704819Y-53591904D01*
X128704819Y-53591904D02*
X128704819Y-52972857D01*
X127800057Y-52591904D02*
X127752438Y-52544285D01*
X127752438Y-52544285D02*
X127704819Y-52449047D01*
X127704819Y-52449047D02*
X127704819Y-52210952D01*
X127704819Y-52210952D02*
X127752438Y-52115714D01*
X127752438Y-52115714D02*
X127800057Y-52068095D01*
X127800057Y-52068095D02*
X127895295Y-52020476D01*
X127895295Y-52020476D02*
X127990533Y-52020476D01*
X127990533Y-52020476D02*
X128133390Y-52068095D01*
X128133390Y-52068095D02*
X128704819Y-52639523D01*
X128704819Y-52639523D02*
X128704819Y-52020476D01*
X96414819Y-140175238D02*
X95938628Y-140508571D01*
X96414819Y-140746666D02*
X95414819Y-140746666D01*
X95414819Y-140746666D02*
X95414819Y-140365714D01*
X95414819Y-140365714D02*
X95462438Y-140270476D01*
X95462438Y-140270476D02*
X95510057Y-140222857D01*
X95510057Y-140222857D02*
X95605295Y-140175238D01*
X95605295Y-140175238D02*
X95748152Y-140175238D01*
X95748152Y-140175238D02*
X95843390Y-140222857D01*
X95843390Y-140222857D02*
X95891009Y-140270476D01*
X95891009Y-140270476D02*
X95938628Y-140365714D01*
X95938628Y-140365714D02*
X95938628Y-140746666D01*
X95414819Y-139889523D02*
X96414819Y-139556190D01*
X96414819Y-139556190D02*
X95414819Y-139222857D01*
X95748152Y-138460952D02*
X96414819Y-138460952D01*
X95367200Y-138699047D02*
X96081485Y-138937142D01*
X96081485Y-138937142D02*
X96081485Y-138318095D01*
X115374819Y-140175238D02*
X114898628Y-140508571D01*
X115374819Y-140746666D02*
X114374819Y-140746666D01*
X114374819Y-140746666D02*
X114374819Y-140365714D01*
X114374819Y-140365714D02*
X114422438Y-140270476D01*
X114422438Y-140270476D02*
X114470057Y-140222857D01*
X114470057Y-140222857D02*
X114565295Y-140175238D01*
X114565295Y-140175238D02*
X114708152Y-140175238D01*
X114708152Y-140175238D02*
X114803390Y-140222857D01*
X114803390Y-140222857D02*
X114851009Y-140270476D01*
X114851009Y-140270476D02*
X114898628Y-140365714D01*
X114898628Y-140365714D02*
X114898628Y-140746666D01*
X114374819Y-139889523D02*
X115374819Y-139556190D01*
X115374819Y-139556190D02*
X114374819Y-139222857D01*
X114374819Y-138413333D02*
X114374819Y-138889523D01*
X114374819Y-138889523D02*
X114851009Y-138937142D01*
X114851009Y-138937142D02*
X114803390Y-138889523D01*
X114803390Y-138889523D02*
X114755771Y-138794285D01*
X114755771Y-138794285D02*
X114755771Y-138556190D01*
X114755771Y-138556190D02*
X114803390Y-138460952D01*
X114803390Y-138460952D02*
X114851009Y-138413333D01*
X114851009Y-138413333D02*
X114946247Y-138365714D01*
X114946247Y-138365714D02*
X115184342Y-138365714D01*
X115184342Y-138365714D02*
X115279580Y-138413333D01*
X115279580Y-138413333D02*
X115327200Y-138460952D01*
X115327200Y-138460952D02*
X115374819Y-138556190D01*
X115374819Y-138556190D02*
X115374819Y-138794285D01*
X115374819Y-138794285D02*
X115327200Y-138889523D01*
X115327200Y-138889523D02*
X115279580Y-138937142D01*
X82994819Y-76651428D02*
X82518628Y-76984761D01*
X82994819Y-77222856D02*
X81994819Y-77222856D01*
X81994819Y-77222856D02*
X81994819Y-76841904D01*
X81994819Y-76841904D02*
X82042438Y-76746666D01*
X82042438Y-76746666D02*
X82090057Y-76699047D01*
X82090057Y-76699047D02*
X82185295Y-76651428D01*
X82185295Y-76651428D02*
X82328152Y-76651428D01*
X82328152Y-76651428D02*
X82423390Y-76699047D01*
X82423390Y-76699047D02*
X82471009Y-76746666D01*
X82471009Y-76746666D02*
X82518628Y-76841904D01*
X82518628Y-76841904D02*
X82518628Y-77222856D01*
X81994819Y-76365713D02*
X82994819Y-76032380D01*
X82994819Y-76032380D02*
X81994819Y-75699047D01*
X82994819Y-74841904D02*
X82994819Y-75413332D01*
X82994819Y-75127618D02*
X81994819Y-75127618D01*
X81994819Y-75127618D02*
X82137676Y-75222856D01*
X82137676Y-75222856D02*
X82232914Y-75318094D01*
X82232914Y-75318094D02*
X82280533Y-75413332D01*
X82328152Y-73984761D02*
X82994819Y-73984761D01*
X81947200Y-74222856D02*
X82661485Y-74460951D01*
X82661485Y-74460951D02*
X82661485Y-73841904D01*
X134424819Y-140175238D02*
X133948628Y-140508571D01*
X134424819Y-140746666D02*
X133424819Y-140746666D01*
X133424819Y-140746666D02*
X133424819Y-140365714D01*
X133424819Y-140365714D02*
X133472438Y-140270476D01*
X133472438Y-140270476D02*
X133520057Y-140222857D01*
X133520057Y-140222857D02*
X133615295Y-140175238D01*
X133615295Y-140175238D02*
X133758152Y-140175238D01*
X133758152Y-140175238D02*
X133853390Y-140222857D01*
X133853390Y-140222857D02*
X133901009Y-140270476D01*
X133901009Y-140270476D02*
X133948628Y-140365714D01*
X133948628Y-140365714D02*
X133948628Y-140746666D01*
X133424819Y-139889523D02*
X134424819Y-139556190D01*
X134424819Y-139556190D02*
X133424819Y-139222857D01*
X133424819Y-138460952D02*
X133424819Y-138651428D01*
X133424819Y-138651428D02*
X133472438Y-138746666D01*
X133472438Y-138746666D02*
X133520057Y-138794285D01*
X133520057Y-138794285D02*
X133662914Y-138889523D01*
X133662914Y-138889523D02*
X133853390Y-138937142D01*
X133853390Y-138937142D02*
X134234342Y-138937142D01*
X134234342Y-138937142D02*
X134329580Y-138889523D01*
X134329580Y-138889523D02*
X134377200Y-138841904D01*
X134377200Y-138841904D02*
X134424819Y-138746666D01*
X134424819Y-138746666D02*
X134424819Y-138556190D01*
X134424819Y-138556190D02*
X134377200Y-138460952D01*
X134377200Y-138460952D02*
X134329580Y-138413333D01*
X134329580Y-138413333D02*
X134234342Y-138365714D01*
X134234342Y-138365714D02*
X133996247Y-138365714D01*
X133996247Y-138365714D02*
X133901009Y-138413333D01*
X133901009Y-138413333D02*
X133853390Y-138460952D01*
X133853390Y-138460952D02*
X133805771Y-138556190D01*
X133805771Y-138556190D02*
X133805771Y-138746666D01*
X133805771Y-138746666D02*
X133853390Y-138841904D01*
X133853390Y-138841904D02*
X133901009Y-138889523D01*
X133901009Y-138889523D02*
X133996247Y-138937142D01*
X137540476Y-86613200D02*
X137683333Y-86660819D01*
X137683333Y-86660819D02*
X137921428Y-86660819D01*
X137921428Y-86660819D02*
X138016666Y-86613200D01*
X138016666Y-86613200D02*
X138064285Y-86565580D01*
X138064285Y-86565580D02*
X138111904Y-86470342D01*
X138111904Y-86470342D02*
X138111904Y-86375104D01*
X138111904Y-86375104D02*
X138064285Y-86279866D01*
X138064285Y-86279866D02*
X138016666Y-86232247D01*
X138016666Y-86232247D02*
X137921428Y-86184628D01*
X137921428Y-86184628D02*
X137730952Y-86137009D01*
X137730952Y-86137009D02*
X137635714Y-86089390D01*
X137635714Y-86089390D02*
X137588095Y-86041771D01*
X137588095Y-86041771D02*
X137540476Y-85946533D01*
X137540476Y-85946533D02*
X137540476Y-85851295D01*
X137540476Y-85851295D02*
X137588095Y-85756057D01*
X137588095Y-85756057D02*
X137635714Y-85708438D01*
X137635714Y-85708438D02*
X137730952Y-85660819D01*
X137730952Y-85660819D02*
X137969047Y-85660819D01*
X137969047Y-85660819D02*
X138111904Y-85708438D01*
X138445238Y-85660819D02*
X138683333Y-86660819D01*
X138683333Y-86660819D02*
X138873809Y-85946533D01*
X138873809Y-85946533D02*
X139064285Y-86660819D01*
X139064285Y-86660819D02*
X139302381Y-85660819D01*
X140207142Y-86660819D02*
X139635714Y-86660819D01*
X139921428Y-86660819D02*
X139921428Y-85660819D01*
X139921428Y-85660819D02*
X139826190Y-85803676D01*
X139826190Y-85803676D02*
X139730952Y-85898914D01*
X139730952Y-85898914D02*
X139635714Y-85946533D01*
X141064285Y-85660819D02*
X140873809Y-85660819D01*
X140873809Y-85660819D02*
X140778571Y-85708438D01*
X140778571Y-85708438D02*
X140730952Y-85756057D01*
X140730952Y-85756057D02*
X140635714Y-85898914D01*
X140635714Y-85898914D02*
X140588095Y-86089390D01*
X140588095Y-86089390D02*
X140588095Y-86470342D01*
X140588095Y-86470342D02*
X140635714Y-86565580D01*
X140635714Y-86565580D02*
X140683333Y-86613200D01*
X140683333Y-86613200D02*
X140778571Y-86660819D01*
X140778571Y-86660819D02*
X140969047Y-86660819D01*
X140969047Y-86660819D02*
X141064285Y-86613200D01*
X141064285Y-86613200D02*
X141111904Y-86565580D01*
X141111904Y-86565580D02*
X141159523Y-86470342D01*
X141159523Y-86470342D02*
X141159523Y-86232247D01*
X141159523Y-86232247D02*
X141111904Y-86137009D01*
X141111904Y-86137009D02*
X141064285Y-86089390D01*
X141064285Y-86089390D02*
X140969047Y-86041771D01*
X140969047Y-86041771D02*
X140778571Y-86041771D01*
X140778571Y-86041771D02*
X140683333Y-86089390D01*
X140683333Y-86089390D02*
X140635714Y-86137009D01*
X140635714Y-86137009D02*
X140588095Y-86232247D01*
X169964819Y-76651428D02*
X169488628Y-76984761D01*
X169964819Y-77222856D02*
X168964819Y-77222856D01*
X168964819Y-77222856D02*
X168964819Y-76841904D01*
X168964819Y-76841904D02*
X169012438Y-76746666D01*
X169012438Y-76746666D02*
X169060057Y-76699047D01*
X169060057Y-76699047D02*
X169155295Y-76651428D01*
X169155295Y-76651428D02*
X169298152Y-76651428D01*
X169298152Y-76651428D02*
X169393390Y-76699047D01*
X169393390Y-76699047D02*
X169441009Y-76746666D01*
X169441009Y-76746666D02*
X169488628Y-76841904D01*
X169488628Y-76841904D02*
X169488628Y-77222856D01*
X168964819Y-76365713D02*
X169964819Y-76032380D01*
X169964819Y-76032380D02*
X168964819Y-75699047D01*
X169964819Y-74841904D02*
X169964819Y-75413332D01*
X169964819Y-75127618D02*
X168964819Y-75127618D01*
X168964819Y-75127618D02*
X169107676Y-75222856D01*
X169107676Y-75222856D02*
X169202914Y-75318094D01*
X169202914Y-75318094D02*
X169250533Y-75413332D01*
X169393390Y-74270475D02*
X169345771Y-74365713D01*
X169345771Y-74365713D02*
X169298152Y-74413332D01*
X169298152Y-74413332D02*
X169202914Y-74460951D01*
X169202914Y-74460951D02*
X169155295Y-74460951D01*
X169155295Y-74460951D02*
X169060057Y-74413332D01*
X169060057Y-74413332D02*
X169012438Y-74365713D01*
X169012438Y-74365713D02*
X168964819Y-74270475D01*
X168964819Y-74270475D02*
X168964819Y-74079999D01*
X168964819Y-74079999D02*
X169012438Y-73984761D01*
X169012438Y-73984761D02*
X169060057Y-73937142D01*
X169060057Y-73937142D02*
X169155295Y-73889523D01*
X169155295Y-73889523D02*
X169202914Y-73889523D01*
X169202914Y-73889523D02*
X169298152Y-73937142D01*
X169298152Y-73937142D02*
X169345771Y-73984761D01*
X169345771Y-73984761D02*
X169393390Y-74079999D01*
X169393390Y-74079999D02*
X169393390Y-74270475D01*
X169393390Y-74270475D02*
X169441009Y-74365713D01*
X169441009Y-74365713D02*
X169488628Y-74413332D01*
X169488628Y-74413332D02*
X169583866Y-74460951D01*
X169583866Y-74460951D02*
X169774342Y-74460951D01*
X169774342Y-74460951D02*
X169869580Y-74413332D01*
X169869580Y-74413332D02*
X169917200Y-74365713D01*
X169917200Y-74365713D02*
X169964819Y-74270475D01*
X169964819Y-74270475D02*
X169964819Y-74079999D01*
X169964819Y-74079999D02*
X169917200Y-73984761D01*
X169917200Y-73984761D02*
X169869580Y-73937142D01*
X169869580Y-73937142D02*
X169774342Y-73889523D01*
X169774342Y-73889523D02*
X169583866Y-73889523D01*
X169583866Y-73889523D02*
X169488628Y-73937142D01*
X169488628Y-73937142D02*
X169441009Y-73984761D01*
X169441009Y-73984761D02*
X169393390Y-74079999D01*
X191534819Y-140175238D02*
X191058628Y-140508571D01*
X191534819Y-140746666D02*
X190534819Y-140746666D01*
X190534819Y-140746666D02*
X190534819Y-140365714D01*
X190534819Y-140365714D02*
X190582438Y-140270476D01*
X190582438Y-140270476D02*
X190630057Y-140222857D01*
X190630057Y-140222857D02*
X190725295Y-140175238D01*
X190725295Y-140175238D02*
X190868152Y-140175238D01*
X190868152Y-140175238D02*
X190963390Y-140222857D01*
X190963390Y-140222857D02*
X191011009Y-140270476D01*
X191011009Y-140270476D02*
X191058628Y-140365714D01*
X191058628Y-140365714D02*
X191058628Y-140746666D01*
X190534819Y-139889523D02*
X191534819Y-139556190D01*
X191534819Y-139556190D02*
X190534819Y-139222857D01*
X191534819Y-138841904D02*
X191534819Y-138651428D01*
X191534819Y-138651428D02*
X191487200Y-138556190D01*
X191487200Y-138556190D02*
X191439580Y-138508571D01*
X191439580Y-138508571D02*
X191296723Y-138413333D01*
X191296723Y-138413333D02*
X191106247Y-138365714D01*
X191106247Y-138365714D02*
X190725295Y-138365714D01*
X190725295Y-138365714D02*
X190630057Y-138413333D01*
X190630057Y-138413333D02*
X190582438Y-138460952D01*
X190582438Y-138460952D02*
X190534819Y-138556190D01*
X190534819Y-138556190D02*
X190534819Y-138746666D01*
X190534819Y-138746666D02*
X190582438Y-138841904D01*
X190582438Y-138841904D02*
X190630057Y-138889523D01*
X190630057Y-138889523D02*
X190725295Y-138937142D01*
X190725295Y-138937142D02*
X190963390Y-138937142D01*
X190963390Y-138937142D02*
X191058628Y-138889523D01*
X191058628Y-138889523D02*
X191106247Y-138841904D01*
X191106247Y-138841904D02*
X191153866Y-138746666D01*
X191153866Y-138746666D02*
X191153866Y-138556190D01*
X191153866Y-138556190D02*
X191106247Y-138460952D01*
X191106247Y-138460952D02*
X191058628Y-138413333D01*
X191058628Y-138413333D02*
X190963390Y-138365714D01*
X61430476Y-86613200D02*
X61573333Y-86660819D01*
X61573333Y-86660819D02*
X61811428Y-86660819D01*
X61811428Y-86660819D02*
X61906666Y-86613200D01*
X61906666Y-86613200D02*
X61954285Y-86565580D01*
X61954285Y-86565580D02*
X62001904Y-86470342D01*
X62001904Y-86470342D02*
X62001904Y-86375104D01*
X62001904Y-86375104D02*
X61954285Y-86279866D01*
X61954285Y-86279866D02*
X61906666Y-86232247D01*
X61906666Y-86232247D02*
X61811428Y-86184628D01*
X61811428Y-86184628D02*
X61620952Y-86137009D01*
X61620952Y-86137009D02*
X61525714Y-86089390D01*
X61525714Y-86089390D02*
X61478095Y-86041771D01*
X61478095Y-86041771D02*
X61430476Y-85946533D01*
X61430476Y-85946533D02*
X61430476Y-85851295D01*
X61430476Y-85851295D02*
X61478095Y-85756057D01*
X61478095Y-85756057D02*
X61525714Y-85708438D01*
X61525714Y-85708438D02*
X61620952Y-85660819D01*
X61620952Y-85660819D02*
X61859047Y-85660819D01*
X61859047Y-85660819D02*
X62001904Y-85708438D01*
X62335238Y-85660819D02*
X62573333Y-86660819D01*
X62573333Y-86660819D02*
X62763809Y-85946533D01*
X62763809Y-85946533D02*
X62954285Y-86660819D01*
X62954285Y-86660819D02*
X63192381Y-85660819D01*
X64097142Y-86660819D02*
X63525714Y-86660819D01*
X63811428Y-86660819D02*
X63811428Y-85660819D01*
X63811428Y-85660819D02*
X63716190Y-85803676D01*
X63716190Y-85803676D02*
X63620952Y-85898914D01*
X63620952Y-85898914D02*
X63525714Y-85946533D01*
X64478095Y-85756057D02*
X64525714Y-85708438D01*
X64525714Y-85708438D02*
X64620952Y-85660819D01*
X64620952Y-85660819D02*
X64859047Y-85660819D01*
X64859047Y-85660819D02*
X64954285Y-85708438D01*
X64954285Y-85708438D02*
X65001904Y-85756057D01*
X65001904Y-85756057D02*
X65049523Y-85851295D01*
X65049523Y-85851295D02*
X65049523Y-85946533D01*
X65049523Y-85946533D02*
X65001904Y-86089390D01*
X65001904Y-86089390D02*
X64430476Y-86660819D01*
X64430476Y-86660819D02*
X65049523Y-86660819D01*
X77364819Y-140175238D02*
X76888628Y-140508571D01*
X77364819Y-140746666D02*
X76364819Y-140746666D01*
X76364819Y-140746666D02*
X76364819Y-140365714D01*
X76364819Y-140365714D02*
X76412438Y-140270476D01*
X76412438Y-140270476D02*
X76460057Y-140222857D01*
X76460057Y-140222857D02*
X76555295Y-140175238D01*
X76555295Y-140175238D02*
X76698152Y-140175238D01*
X76698152Y-140175238D02*
X76793390Y-140222857D01*
X76793390Y-140222857D02*
X76841009Y-140270476D01*
X76841009Y-140270476D02*
X76888628Y-140365714D01*
X76888628Y-140365714D02*
X76888628Y-140746666D01*
X76364819Y-139889523D02*
X77364819Y-139556190D01*
X77364819Y-139556190D02*
X76364819Y-139222857D01*
X76364819Y-138984761D02*
X76364819Y-138365714D01*
X76364819Y-138365714D02*
X76745771Y-138699047D01*
X76745771Y-138699047D02*
X76745771Y-138556190D01*
X76745771Y-138556190D02*
X76793390Y-138460952D01*
X76793390Y-138460952D02*
X76841009Y-138413333D01*
X76841009Y-138413333D02*
X76936247Y-138365714D01*
X76936247Y-138365714D02*
X77174342Y-138365714D01*
X77174342Y-138365714D02*
X77269580Y-138413333D01*
X77269580Y-138413333D02*
X77317200Y-138460952D01*
X77317200Y-138460952D02*
X77364819Y-138556190D01*
X77364819Y-138556190D02*
X77364819Y-138841904D01*
X77364819Y-138841904D02*
X77317200Y-138937142D01*
X77317200Y-138937142D02*
X77269580Y-138984761D01*
X131954819Y-76651428D02*
X131478628Y-76984761D01*
X131954819Y-77222856D02*
X130954819Y-77222856D01*
X130954819Y-77222856D02*
X130954819Y-76841904D01*
X130954819Y-76841904D02*
X131002438Y-76746666D01*
X131002438Y-76746666D02*
X131050057Y-76699047D01*
X131050057Y-76699047D02*
X131145295Y-76651428D01*
X131145295Y-76651428D02*
X131288152Y-76651428D01*
X131288152Y-76651428D02*
X131383390Y-76699047D01*
X131383390Y-76699047D02*
X131431009Y-76746666D01*
X131431009Y-76746666D02*
X131478628Y-76841904D01*
X131478628Y-76841904D02*
X131478628Y-77222856D01*
X130954819Y-76365713D02*
X131954819Y-76032380D01*
X131954819Y-76032380D02*
X130954819Y-75699047D01*
X131954819Y-74841904D02*
X131954819Y-75413332D01*
X131954819Y-75127618D02*
X130954819Y-75127618D01*
X130954819Y-75127618D02*
X131097676Y-75222856D01*
X131097676Y-75222856D02*
X131192914Y-75318094D01*
X131192914Y-75318094D02*
X131240533Y-75413332D01*
X130954819Y-73984761D02*
X130954819Y-74175237D01*
X130954819Y-74175237D02*
X131002438Y-74270475D01*
X131002438Y-74270475D02*
X131050057Y-74318094D01*
X131050057Y-74318094D02*
X131192914Y-74413332D01*
X131192914Y-74413332D02*
X131383390Y-74460951D01*
X131383390Y-74460951D02*
X131764342Y-74460951D01*
X131764342Y-74460951D02*
X131859580Y-74413332D01*
X131859580Y-74413332D02*
X131907200Y-74365713D01*
X131907200Y-74365713D02*
X131954819Y-74270475D01*
X131954819Y-74270475D02*
X131954819Y-74079999D01*
X131954819Y-74079999D02*
X131907200Y-73984761D01*
X131907200Y-73984761D02*
X131859580Y-73937142D01*
X131859580Y-73937142D02*
X131764342Y-73889523D01*
X131764342Y-73889523D02*
X131526247Y-73889523D01*
X131526247Y-73889523D02*
X131431009Y-73937142D01*
X131431009Y-73937142D02*
X131383390Y-73984761D01*
X131383390Y-73984761D02*
X131335771Y-74079999D01*
X131335771Y-74079999D02*
X131335771Y-74270475D01*
X131335771Y-74270475D02*
X131383390Y-74365713D01*
X131383390Y-74365713D02*
X131431009Y-74413332D01*
X131431009Y-74413332D02*
X131526247Y-74460951D01*
X39224819Y-140175238D02*
X38748628Y-140508571D01*
X39224819Y-140746666D02*
X38224819Y-140746666D01*
X38224819Y-140746666D02*
X38224819Y-140365714D01*
X38224819Y-140365714D02*
X38272438Y-140270476D01*
X38272438Y-140270476D02*
X38320057Y-140222857D01*
X38320057Y-140222857D02*
X38415295Y-140175238D01*
X38415295Y-140175238D02*
X38558152Y-140175238D01*
X38558152Y-140175238D02*
X38653390Y-140222857D01*
X38653390Y-140222857D02*
X38701009Y-140270476D01*
X38701009Y-140270476D02*
X38748628Y-140365714D01*
X38748628Y-140365714D02*
X38748628Y-140746666D01*
X38224819Y-139889523D02*
X39224819Y-139556190D01*
X39224819Y-139556190D02*
X38224819Y-139222857D01*
X39224819Y-138365714D02*
X39224819Y-138937142D01*
X39224819Y-138651428D02*
X38224819Y-138651428D01*
X38224819Y-138651428D02*
X38367676Y-138746666D01*
X38367676Y-138746666D02*
X38462914Y-138841904D01*
X38462914Y-138841904D02*
X38510533Y-138937142D01*
X254508095Y-88412319D02*
X254508095Y-89221842D01*
X254508095Y-89221842D02*
X254555714Y-89317080D01*
X254555714Y-89317080D02*
X254603333Y-89364700D01*
X254603333Y-89364700D02*
X254698571Y-89412319D01*
X254698571Y-89412319D02*
X254889047Y-89412319D01*
X254889047Y-89412319D02*
X254984285Y-89364700D01*
X254984285Y-89364700D02*
X255031904Y-89317080D01*
X255031904Y-89317080D02*
X255079523Y-89221842D01*
X255079523Y-89221842D02*
X255079523Y-88412319D01*
X255460476Y-88412319D02*
X256079523Y-88412319D01*
X256079523Y-88412319D02*
X255746190Y-88793271D01*
X255746190Y-88793271D02*
X255889047Y-88793271D01*
X255889047Y-88793271D02*
X255984285Y-88840890D01*
X255984285Y-88840890D02*
X256031904Y-88888509D01*
X256031904Y-88888509D02*
X256079523Y-88983747D01*
X256079523Y-88983747D02*
X256079523Y-89221842D01*
X256079523Y-89221842D02*
X256031904Y-89317080D01*
X256031904Y-89317080D02*
X255984285Y-89364700D01*
X255984285Y-89364700D02*
X255889047Y-89412319D01*
X255889047Y-89412319D02*
X255603333Y-89412319D01*
X255603333Y-89412319D02*
X255508095Y-89364700D01*
X255508095Y-89364700D02*
X255460476Y-89317080D01*
X50104819Y-80651428D02*
X49628628Y-80984761D01*
X50104819Y-81222856D02*
X49104819Y-81222856D01*
X49104819Y-81222856D02*
X49104819Y-80841904D01*
X49104819Y-80841904D02*
X49152438Y-80746666D01*
X49152438Y-80746666D02*
X49200057Y-80699047D01*
X49200057Y-80699047D02*
X49295295Y-80651428D01*
X49295295Y-80651428D02*
X49438152Y-80651428D01*
X49438152Y-80651428D02*
X49533390Y-80699047D01*
X49533390Y-80699047D02*
X49581009Y-80746666D01*
X49581009Y-80746666D02*
X49628628Y-80841904D01*
X49628628Y-80841904D02*
X49628628Y-81222856D01*
X49104819Y-80365713D02*
X50104819Y-80032380D01*
X50104819Y-80032380D02*
X49104819Y-79699047D01*
X50104819Y-78841904D02*
X50104819Y-79413332D01*
X50104819Y-79127618D02*
X49104819Y-79127618D01*
X49104819Y-79127618D02*
X49247676Y-79222856D01*
X49247676Y-79222856D02*
X49342914Y-79318094D01*
X49342914Y-79318094D02*
X49390533Y-79413332D01*
X50104819Y-77889523D02*
X50104819Y-78460951D01*
X50104819Y-78175237D02*
X49104819Y-78175237D01*
X49104819Y-78175237D02*
X49247676Y-78270475D01*
X49247676Y-78270475D02*
X49342914Y-78365713D01*
X49342914Y-78365713D02*
X49390533Y-78460951D01*
X176957200Y-55589523D02*
X177004819Y-55446666D01*
X177004819Y-55446666D02*
X177004819Y-55208571D01*
X177004819Y-55208571D02*
X176957200Y-55113333D01*
X176957200Y-55113333D02*
X176909580Y-55065714D01*
X176909580Y-55065714D02*
X176814342Y-55018095D01*
X176814342Y-55018095D02*
X176719104Y-55018095D01*
X176719104Y-55018095D02*
X176623866Y-55065714D01*
X176623866Y-55065714D02*
X176576247Y-55113333D01*
X176576247Y-55113333D02*
X176528628Y-55208571D01*
X176528628Y-55208571D02*
X176481009Y-55399047D01*
X176481009Y-55399047D02*
X176433390Y-55494285D01*
X176433390Y-55494285D02*
X176385771Y-55541904D01*
X176385771Y-55541904D02*
X176290533Y-55589523D01*
X176290533Y-55589523D02*
X176195295Y-55589523D01*
X176195295Y-55589523D02*
X176100057Y-55541904D01*
X176100057Y-55541904D02*
X176052438Y-55494285D01*
X176052438Y-55494285D02*
X176004819Y-55399047D01*
X176004819Y-55399047D02*
X176004819Y-55160952D01*
X176004819Y-55160952D02*
X176052438Y-55018095D01*
X176004819Y-54684761D02*
X177004819Y-54446666D01*
X177004819Y-54446666D02*
X176290533Y-54256190D01*
X176290533Y-54256190D02*
X177004819Y-54065714D01*
X177004819Y-54065714D02*
X176004819Y-53827619D01*
X176100057Y-53494285D02*
X176052438Y-53446666D01*
X176052438Y-53446666D02*
X176004819Y-53351428D01*
X176004819Y-53351428D02*
X176004819Y-53113333D01*
X176004819Y-53113333D02*
X176052438Y-53018095D01*
X176052438Y-53018095D02*
X176100057Y-52970476D01*
X176100057Y-52970476D02*
X176195295Y-52922857D01*
X176195295Y-52922857D02*
X176290533Y-52922857D01*
X176290533Y-52922857D02*
X176433390Y-52970476D01*
X176433390Y-52970476D02*
X177004819Y-53541904D01*
X177004819Y-53541904D02*
X177004819Y-52922857D01*
X176004819Y-52589523D02*
X176004819Y-51970476D01*
X176004819Y-51970476D02*
X176385771Y-52303809D01*
X176385771Y-52303809D02*
X176385771Y-52160952D01*
X176385771Y-52160952D02*
X176433390Y-52065714D01*
X176433390Y-52065714D02*
X176481009Y-52018095D01*
X176481009Y-52018095D02*
X176576247Y-51970476D01*
X176576247Y-51970476D02*
X176814342Y-51970476D01*
X176814342Y-51970476D02*
X176909580Y-52018095D01*
X176909580Y-52018095D02*
X176957200Y-52065714D01*
X176957200Y-52065714D02*
X177004819Y-52160952D01*
X177004819Y-52160952D02*
X177004819Y-52446666D01*
X177004819Y-52446666D02*
X176957200Y-52541904D01*
X176957200Y-52541904D02*
X176909580Y-52589523D01*
X215954819Y-76651428D02*
X215478628Y-76984761D01*
X215954819Y-77222856D02*
X214954819Y-77222856D01*
X214954819Y-77222856D02*
X214954819Y-76841904D01*
X214954819Y-76841904D02*
X215002438Y-76746666D01*
X215002438Y-76746666D02*
X215050057Y-76699047D01*
X215050057Y-76699047D02*
X215145295Y-76651428D01*
X215145295Y-76651428D02*
X215288152Y-76651428D01*
X215288152Y-76651428D02*
X215383390Y-76699047D01*
X215383390Y-76699047D02*
X215431009Y-76746666D01*
X215431009Y-76746666D02*
X215478628Y-76841904D01*
X215478628Y-76841904D02*
X215478628Y-77222856D01*
X214954819Y-76365713D02*
X215954819Y-76032380D01*
X215954819Y-76032380D02*
X214954819Y-75699047D01*
X215050057Y-75413332D02*
X215002438Y-75365713D01*
X215002438Y-75365713D02*
X214954819Y-75270475D01*
X214954819Y-75270475D02*
X214954819Y-75032380D01*
X214954819Y-75032380D02*
X215002438Y-74937142D01*
X215002438Y-74937142D02*
X215050057Y-74889523D01*
X215050057Y-74889523D02*
X215145295Y-74841904D01*
X215145295Y-74841904D02*
X215240533Y-74841904D01*
X215240533Y-74841904D02*
X215383390Y-74889523D01*
X215383390Y-74889523D02*
X215954819Y-75460951D01*
X215954819Y-75460951D02*
X215954819Y-74841904D01*
X214954819Y-74222856D02*
X214954819Y-74127618D01*
X214954819Y-74127618D02*
X215002438Y-74032380D01*
X215002438Y-74032380D02*
X215050057Y-73984761D01*
X215050057Y-73984761D02*
X215145295Y-73937142D01*
X215145295Y-73937142D02*
X215335771Y-73889523D01*
X215335771Y-73889523D02*
X215573866Y-73889523D01*
X215573866Y-73889523D02*
X215764342Y-73937142D01*
X215764342Y-73937142D02*
X215859580Y-73984761D01*
X215859580Y-73984761D02*
X215907200Y-74032380D01*
X215907200Y-74032380D02*
X215954819Y-74127618D01*
X215954819Y-74127618D02*
X215954819Y-74222856D01*
X215954819Y-74222856D02*
X215907200Y-74318094D01*
X215907200Y-74318094D02*
X215859580Y-74365713D01*
X215859580Y-74365713D02*
X215764342Y-74413332D01*
X215764342Y-74413332D02*
X215573866Y-74460951D01*
X215573866Y-74460951D02*
X215335771Y-74460951D01*
X215335771Y-74460951D02*
X215145295Y-74413332D01*
X215145295Y-74413332D02*
X215050057Y-74365713D01*
X215050057Y-74365713D02*
X215002438Y-74318094D01*
X215002438Y-74318094D02*
X214954819Y-74222856D01*
X153424819Y-140175238D02*
X152948628Y-140508571D01*
X153424819Y-140746666D02*
X152424819Y-140746666D01*
X152424819Y-140746666D02*
X152424819Y-140365714D01*
X152424819Y-140365714D02*
X152472438Y-140270476D01*
X152472438Y-140270476D02*
X152520057Y-140222857D01*
X152520057Y-140222857D02*
X152615295Y-140175238D01*
X152615295Y-140175238D02*
X152758152Y-140175238D01*
X152758152Y-140175238D02*
X152853390Y-140222857D01*
X152853390Y-140222857D02*
X152901009Y-140270476D01*
X152901009Y-140270476D02*
X152948628Y-140365714D01*
X152948628Y-140365714D02*
X152948628Y-140746666D01*
X152424819Y-139889523D02*
X153424819Y-139556190D01*
X153424819Y-139556190D02*
X152424819Y-139222857D01*
X152424819Y-138984761D02*
X152424819Y-138318095D01*
X152424819Y-138318095D02*
X153424819Y-138746666D01*
X55844819Y-76651428D02*
X55368628Y-76984761D01*
X55844819Y-77222856D02*
X54844819Y-77222856D01*
X54844819Y-77222856D02*
X54844819Y-76841904D01*
X54844819Y-76841904D02*
X54892438Y-76746666D01*
X54892438Y-76746666D02*
X54940057Y-76699047D01*
X54940057Y-76699047D02*
X55035295Y-76651428D01*
X55035295Y-76651428D02*
X55178152Y-76651428D01*
X55178152Y-76651428D02*
X55273390Y-76699047D01*
X55273390Y-76699047D02*
X55321009Y-76746666D01*
X55321009Y-76746666D02*
X55368628Y-76841904D01*
X55368628Y-76841904D02*
X55368628Y-77222856D01*
X54844819Y-76365713D02*
X55844819Y-76032380D01*
X55844819Y-76032380D02*
X54844819Y-75699047D01*
X55844819Y-74841904D02*
X55844819Y-75413332D01*
X55844819Y-75127618D02*
X54844819Y-75127618D01*
X54844819Y-75127618D02*
X54987676Y-75222856D01*
X54987676Y-75222856D02*
X55082914Y-75318094D01*
X55082914Y-75318094D02*
X55130533Y-75413332D01*
X54940057Y-74460951D02*
X54892438Y-74413332D01*
X54892438Y-74413332D02*
X54844819Y-74318094D01*
X54844819Y-74318094D02*
X54844819Y-74079999D01*
X54844819Y-74079999D02*
X54892438Y-73984761D01*
X54892438Y-73984761D02*
X54940057Y-73937142D01*
X54940057Y-73937142D02*
X55035295Y-73889523D01*
X55035295Y-73889523D02*
X55130533Y-73889523D01*
X55130533Y-73889523D02*
X55273390Y-73937142D01*
X55273390Y-73937142D02*
X55844819Y-74508570D01*
X55844819Y-74508570D02*
X55844819Y-73889523D01*
X218424819Y-140651428D02*
X217948628Y-140984761D01*
X218424819Y-141222856D02*
X217424819Y-141222856D01*
X217424819Y-141222856D02*
X217424819Y-140841904D01*
X217424819Y-140841904D02*
X217472438Y-140746666D01*
X217472438Y-140746666D02*
X217520057Y-140699047D01*
X217520057Y-140699047D02*
X217615295Y-140651428D01*
X217615295Y-140651428D02*
X217758152Y-140651428D01*
X217758152Y-140651428D02*
X217853390Y-140699047D01*
X217853390Y-140699047D02*
X217901009Y-140746666D01*
X217901009Y-140746666D02*
X217948628Y-140841904D01*
X217948628Y-140841904D02*
X217948628Y-141222856D01*
X217424819Y-140365713D02*
X218424819Y-140032380D01*
X218424819Y-140032380D02*
X217424819Y-139699047D01*
X218424819Y-138841904D02*
X218424819Y-139413332D01*
X218424819Y-139127618D02*
X217424819Y-139127618D01*
X217424819Y-139127618D02*
X217567676Y-139222856D01*
X217567676Y-139222856D02*
X217662914Y-139318094D01*
X217662914Y-139318094D02*
X217710533Y-139413332D01*
X217424819Y-138222856D02*
X217424819Y-138127618D01*
X217424819Y-138127618D02*
X217472438Y-138032380D01*
X217472438Y-138032380D02*
X217520057Y-137984761D01*
X217520057Y-137984761D02*
X217615295Y-137937142D01*
X217615295Y-137937142D02*
X217805771Y-137889523D01*
X217805771Y-137889523D02*
X218043866Y-137889523D01*
X218043866Y-137889523D02*
X218234342Y-137937142D01*
X218234342Y-137937142D02*
X218329580Y-137984761D01*
X218329580Y-137984761D02*
X218377200Y-138032380D01*
X218377200Y-138032380D02*
X218424819Y-138127618D01*
X218424819Y-138127618D02*
X218424819Y-138222856D01*
X218424819Y-138222856D02*
X218377200Y-138318094D01*
X218377200Y-138318094D02*
X218329580Y-138365713D01*
X218329580Y-138365713D02*
X218234342Y-138413332D01*
X218234342Y-138413332D02*
X218043866Y-138460951D01*
X218043866Y-138460951D02*
X217805771Y-138460951D01*
X217805771Y-138460951D02*
X217615295Y-138413332D01*
X217615295Y-138413332D02*
X217520057Y-138365713D01*
X217520057Y-138365713D02*
X217472438Y-138318094D01*
X217472438Y-138318094D02*
X217424819Y-138222856D01*
X80480476Y-86613200D02*
X80623333Y-86660819D01*
X80623333Y-86660819D02*
X80861428Y-86660819D01*
X80861428Y-86660819D02*
X80956666Y-86613200D01*
X80956666Y-86613200D02*
X81004285Y-86565580D01*
X81004285Y-86565580D02*
X81051904Y-86470342D01*
X81051904Y-86470342D02*
X81051904Y-86375104D01*
X81051904Y-86375104D02*
X81004285Y-86279866D01*
X81004285Y-86279866D02*
X80956666Y-86232247D01*
X80956666Y-86232247D02*
X80861428Y-86184628D01*
X80861428Y-86184628D02*
X80670952Y-86137009D01*
X80670952Y-86137009D02*
X80575714Y-86089390D01*
X80575714Y-86089390D02*
X80528095Y-86041771D01*
X80528095Y-86041771D02*
X80480476Y-85946533D01*
X80480476Y-85946533D02*
X80480476Y-85851295D01*
X80480476Y-85851295D02*
X80528095Y-85756057D01*
X80528095Y-85756057D02*
X80575714Y-85708438D01*
X80575714Y-85708438D02*
X80670952Y-85660819D01*
X80670952Y-85660819D02*
X80909047Y-85660819D01*
X80909047Y-85660819D02*
X81051904Y-85708438D01*
X81385238Y-85660819D02*
X81623333Y-86660819D01*
X81623333Y-86660819D02*
X81813809Y-85946533D01*
X81813809Y-85946533D02*
X82004285Y-86660819D01*
X82004285Y-86660819D02*
X82242381Y-85660819D01*
X83147142Y-86660819D02*
X82575714Y-86660819D01*
X82861428Y-86660819D02*
X82861428Y-85660819D01*
X82861428Y-85660819D02*
X82766190Y-85803676D01*
X82766190Y-85803676D02*
X82670952Y-85898914D01*
X82670952Y-85898914D02*
X82575714Y-85946533D01*
X83480476Y-85660819D02*
X84099523Y-85660819D01*
X84099523Y-85660819D02*
X83766190Y-86041771D01*
X83766190Y-86041771D02*
X83909047Y-86041771D01*
X83909047Y-86041771D02*
X84004285Y-86089390D01*
X84004285Y-86089390D02*
X84051904Y-86137009D01*
X84051904Y-86137009D02*
X84099523Y-86232247D01*
X84099523Y-86232247D02*
X84099523Y-86470342D01*
X84099523Y-86470342D02*
X84051904Y-86565580D01*
X84051904Y-86565580D02*
X84004285Y-86613200D01*
X84004285Y-86613200D02*
X83909047Y-86660819D01*
X83909047Y-86660819D02*
X83623333Y-86660819D01*
X83623333Y-86660819D02*
X83528095Y-86613200D01*
X83528095Y-86613200D02*
X83480476Y-86565580D01*
D11*
%TO.C,U2*%
X237910000Y-117230000D02*
X237440000Y-117570000D01*
X237440000Y-116890000D01*
X237910000Y-117230000D01*
G36*
X237910000Y-117230000D02*
G01*
X237440000Y-117570000D01*
X237440000Y-116890000D01*
X237910000Y-117230000D01*
G37*
X253270000Y-116440000D02*
X253005000Y-116440000D01*
X253270000Y-108720000D02*
X253270000Y-116440000D01*
X253005000Y-108720000D02*
X253270000Y-108720000D01*
X237915000Y-116440000D02*
X237650000Y-116440000D01*
X237650000Y-116440000D02*
X237650000Y-108720000D01*
X237650000Y-108720000D02*
X237915000Y-108720000D01*
%TO.C,RV13*%
X77330000Y-68520000D02*
X87250000Y-68520000D01*
X77330000Y-72265000D02*
X77330000Y-68520000D01*
X77330000Y-80740000D02*
X77330000Y-76995000D01*
X79094000Y-80740000D02*
X77330000Y-80740000D01*
X81594000Y-80740000D02*
X80486000Y-80740000D01*
X84094000Y-80740000D02*
X82986000Y-80740000D01*
X87250000Y-68520000D02*
X87250000Y-72265000D01*
X87250000Y-76995000D02*
X87250000Y-80740000D01*
X87250000Y-80740000D02*
X85486000Y-80740000D01*
%TO.C,SW11*%
X37165000Y-87095000D02*
X51135000Y-87095000D01*
X37165000Y-101065000D02*
X37165000Y-87095000D01*
X51135000Y-87095000D02*
X51135000Y-101065000D01*
X51135000Y-101065000D02*
X37165000Y-101065000D01*
%TO.C,U1*%
X246015000Y-35920000D02*
X246015000Y-42120000D01*
X246015000Y-35920000D02*
X264415000Y-35920000D01*
X246015000Y-60770000D02*
X246015000Y-61770000D01*
X246015000Y-61770000D02*
X247515000Y-61770000D01*
X264415000Y-35920000D02*
X264415000Y-42120000D01*
X264415000Y-61770000D02*
X262915000Y-61770000D01*
X264415000Y-61770000D02*
X264415000Y-60770000D01*
X246015000Y-42795000D02*
X245515000Y-42795000D01*
X246015000Y-42295000D01*
X246015000Y-42795000D01*
G36*
X246015000Y-42795000D02*
G01*
X245515000Y-42795000D01*
X246015000Y-42295000D01*
X246015000Y-42795000D01*
G37*
%TO.C,SW15*%
X113315000Y-87095000D02*
X127285000Y-87095000D01*
X113315000Y-101065000D02*
X113315000Y-87095000D01*
X127285000Y-87095000D02*
X127285000Y-101065000D01*
X127285000Y-101065000D02*
X113315000Y-101065000D01*
%TO.C,SW7*%
X151365000Y-107595000D02*
X165335000Y-107595000D01*
X151365000Y-121565000D02*
X151365000Y-107595000D01*
X165335000Y-107595000D02*
X165335000Y-121565000D01*
X165335000Y-121565000D02*
X151365000Y-121565000D01*
%TO.C,SW21*%
X78850000Y-42980000D02*
X81250000Y-42980000D01*
X78850000Y-47080000D02*
X78850000Y-42980000D01*
X78850000Y-51080000D02*
X78850000Y-55180000D01*
X78850000Y-55180000D02*
X90650000Y-55180000D01*
X80650000Y-56280000D02*
X80950000Y-56580000D01*
X80650000Y-56880000D02*
X80650000Y-56280000D01*
X80950000Y-56580000D02*
X80650000Y-56880000D01*
X83450000Y-42980000D02*
X86050000Y-42980000D01*
X84250000Y-49080000D02*
X85250000Y-49080000D01*
X84750000Y-49580000D02*
X84750000Y-48580000D01*
X88250000Y-42980000D02*
X90650000Y-42980000D01*
X90650000Y-42980000D02*
X90650000Y-47080000D01*
X90650000Y-51080000D02*
X90650000Y-55180000D01*
X87750000Y-49080000D02*
G75*
G02*
X81750000Y-49080000I-3000000J0D01*
G01*
X81750000Y-49080000D02*
G75*
G02*
X87750000Y-49080000I3000000J0D01*
G01*
%TO.C,SW14*%
X94355000Y-87095000D02*
X108325000Y-87095000D01*
X94355000Y-101065000D02*
X94355000Y-87095000D01*
X108325000Y-87095000D02*
X108325000Y-101065000D01*
X108325000Y-101065000D02*
X94355000Y-101065000D01*
%TO.C,SW10*%
X216365000Y-107595000D02*
X230335000Y-107595000D01*
X216365000Y-121565000D02*
X216365000Y-107595000D01*
X230335000Y-107595000D02*
X230335000Y-121565000D01*
X230335000Y-121565000D02*
X216365000Y-121565000D01*
%TO.C,RV19*%
X191500000Y-68520000D02*
X201420000Y-68520000D01*
X191500000Y-72265000D02*
X191500000Y-68520000D01*
X191500000Y-80740000D02*
X191500000Y-76995000D01*
X193264000Y-80740000D02*
X191500000Y-80740000D01*
X195764000Y-80740000D02*
X194656000Y-80740000D01*
X198264000Y-80740000D02*
X197156000Y-80740000D01*
X201420000Y-68520000D02*
X201420000Y-72265000D01*
X201420000Y-76995000D02*
X201420000Y-80740000D01*
X201420000Y-80740000D02*
X199656000Y-80740000D01*
%TO.C,RV8*%
X172980000Y-140960000D02*
X172980000Y-139580000D01*
X174360000Y-140960000D02*
X172980000Y-140960000D01*
X175630000Y-138200000D02*
X180820000Y-138200000D01*
X175630000Y-140960000D02*
X175630000Y-138200000D01*
X175630000Y-140960000D02*
X180820000Y-140960000D01*
X180820000Y-140960000D02*
X180820000Y-138200000D01*
%TO.C,SW3*%
X75305000Y-107595000D02*
X89275000Y-107595000D01*
X75305000Y-121565000D02*
X75305000Y-107595000D01*
X89275000Y-107595000D02*
X89275000Y-121565000D01*
X89275000Y-121565000D02*
X75305000Y-121565000D01*
%TO.C,SW19*%
X189475000Y-87095000D02*
X203445000Y-87095000D01*
X189475000Y-101065000D02*
X189475000Y-87095000D01*
X203445000Y-87095000D02*
X203445000Y-101065000D01*
X203445000Y-101065000D02*
X189475000Y-101065000D01*
%TO.C,SW20*%
X216365000Y-87095000D02*
X230335000Y-87095000D01*
X216365000Y-101065000D02*
X216365000Y-87095000D01*
X230335000Y-87095000D02*
X230335000Y-101065000D01*
X230335000Y-101065000D02*
X216365000Y-101065000D01*
%TO.C,SW18*%
X170375000Y-87095000D02*
X184345000Y-87095000D01*
X170375000Y-101065000D02*
X170375000Y-87095000D01*
X184345000Y-87095000D02*
X184345000Y-101065000D01*
X184345000Y-101065000D02*
X170375000Y-101065000D01*
%TO.C,RV2*%
X58860000Y-140960000D02*
X58860000Y-139580000D01*
X60240000Y-140960000D02*
X58860000Y-140960000D01*
X61510000Y-138200000D02*
X66700000Y-138200000D01*
X61510000Y-140960000D02*
X61510000Y-138200000D01*
X61510000Y-140960000D02*
X66700000Y-140960000D01*
X66700000Y-140960000D02*
X66700000Y-138200000D01*
%TO.C,SW17*%
X151365000Y-87095000D02*
X165335000Y-87095000D01*
X151365000Y-101065000D02*
X151365000Y-87095000D01*
X165335000Y-87095000D02*
X165335000Y-101065000D01*
X165335000Y-101065000D02*
X151365000Y-101065000D01*
%TO.C,RV15*%
X115340000Y-68520000D02*
X125260000Y-68520000D01*
X115340000Y-72265000D02*
X115340000Y-68520000D01*
X115340000Y-80740000D02*
X115340000Y-76995000D01*
X117104000Y-80740000D02*
X115340000Y-80740000D01*
X119604000Y-80740000D02*
X118496000Y-80740000D01*
X122104000Y-80740000D02*
X120996000Y-80740000D01*
X125260000Y-68520000D02*
X125260000Y-72265000D01*
X125260000Y-76995000D02*
X125260000Y-80740000D01*
X125260000Y-80740000D02*
X123496000Y-80740000D01*
%TO.C,RV17*%
X153390000Y-68520000D02*
X163310000Y-68520000D01*
X153390000Y-72265000D02*
X153390000Y-68520000D01*
X153390000Y-80740000D02*
X153390000Y-76995000D01*
X155154000Y-80740000D02*
X153390000Y-80740000D01*
X157654000Y-80740000D02*
X156546000Y-80740000D01*
X160154000Y-80740000D02*
X159046000Y-80740000D01*
X163310000Y-68520000D02*
X163310000Y-72265000D01*
X163310000Y-76995000D02*
X163310000Y-80740000D01*
X163310000Y-80740000D02*
X161546000Y-80740000D01*
%TO.C,SW22*%
X127350000Y-42980000D02*
X129750000Y-42980000D01*
X127350000Y-47080000D02*
X127350000Y-42980000D01*
X127350000Y-51080000D02*
X127350000Y-55180000D01*
X127350000Y-55180000D02*
X139150000Y-55180000D01*
X129150000Y-56280000D02*
X129450000Y-56580000D01*
X129150000Y-56880000D02*
X129150000Y-56280000D01*
X129450000Y-56580000D02*
X129150000Y-56880000D01*
X131950000Y-42980000D02*
X134550000Y-42980000D01*
X132750000Y-49080000D02*
X133750000Y-49080000D01*
X133250000Y-49580000D02*
X133250000Y-48580000D01*
X136750000Y-42980000D02*
X139150000Y-42980000D01*
X139150000Y-42980000D02*
X139150000Y-47080000D01*
X139150000Y-51080000D02*
X139150000Y-55180000D01*
X136250000Y-49080000D02*
G75*
G02*
X130250000Y-49080000I-3000000J0D01*
G01*
X130250000Y-49080000D02*
G75*
G02*
X136250000Y-49080000I3000000J0D01*
G01*
%TO.C,SW1*%
X37165000Y-107595000D02*
X51135000Y-107595000D01*
X37165000Y-121565000D02*
X37165000Y-107595000D01*
X51135000Y-107595000D02*
X51135000Y-121565000D01*
X51135000Y-121565000D02*
X37165000Y-121565000D01*
%TO.C,RV4*%
X96960000Y-140960000D02*
X96960000Y-139580000D01*
X98340000Y-140960000D02*
X96960000Y-140960000D01*
X99610000Y-138200000D02*
X104800000Y-138200000D01*
X99610000Y-140960000D02*
X99610000Y-138200000D01*
X99610000Y-140960000D02*
X104800000Y-140960000D01*
X104800000Y-140960000D02*
X104800000Y-138200000D01*
%TO.C,RV5*%
X115920000Y-140960000D02*
X115920000Y-139580000D01*
X117300000Y-140960000D02*
X115920000Y-140960000D01*
X118570000Y-138200000D02*
X123760000Y-138200000D01*
X118570000Y-140960000D02*
X118570000Y-138200000D01*
X118570000Y-140960000D02*
X123760000Y-140960000D01*
X123760000Y-140960000D02*
X123760000Y-138200000D01*
%TO.C,RV14*%
X96380000Y-68520000D02*
X106300000Y-68520000D01*
X96380000Y-72265000D02*
X96380000Y-68520000D01*
X96380000Y-80740000D02*
X96380000Y-76995000D01*
X98144000Y-80740000D02*
X96380000Y-80740000D01*
X100644000Y-80740000D02*
X99536000Y-80740000D01*
X103144000Y-80740000D02*
X102036000Y-80740000D01*
X106300000Y-68520000D02*
X106300000Y-72265000D01*
X106300000Y-76995000D02*
X106300000Y-80740000D01*
X106300000Y-80740000D02*
X104536000Y-80740000D01*
%TO.C,SW6*%
X132365000Y-107595000D02*
X146335000Y-107595000D01*
X132365000Y-121565000D02*
X132365000Y-107595000D01*
X146335000Y-107595000D02*
X146335000Y-121565000D01*
X146335000Y-121565000D02*
X132365000Y-121565000D01*
%TO.C,SW9*%
X189475000Y-107595000D02*
X203445000Y-107595000D01*
X189475000Y-121565000D02*
X189475000Y-107595000D01*
X203445000Y-107595000D02*
X203445000Y-121565000D01*
X203445000Y-121565000D02*
X189475000Y-121565000D01*
%TO.C,RV6*%
X134970000Y-140960000D02*
X134970000Y-139580000D01*
X136350000Y-140960000D02*
X134970000Y-140960000D01*
X137620000Y-138200000D02*
X142810000Y-138200000D01*
X137620000Y-140960000D02*
X137620000Y-138200000D01*
X137620000Y-140960000D02*
X142810000Y-140960000D01*
X142810000Y-140960000D02*
X142810000Y-138200000D01*
%TO.C,SW5*%
X113315000Y-107595000D02*
X127285000Y-107595000D01*
X113315000Y-121565000D02*
X113315000Y-107595000D01*
X127285000Y-107595000D02*
X127285000Y-121565000D01*
X127285000Y-121565000D02*
X113315000Y-121565000D01*
%TO.C,SW16*%
X132365000Y-87095000D02*
X146335000Y-87095000D01*
X132365000Y-101065000D02*
X132365000Y-87095000D01*
X146335000Y-87095000D02*
X146335000Y-101065000D01*
X146335000Y-101065000D02*
X132365000Y-101065000D01*
%TO.C,RV18*%
X172400000Y-68520000D02*
X182320000Y-68520000D01*
X172400000Y-72265000D02*
X172400000Y-68520000D01*
X172400000Y-80740000D02*
X172400000Y-76995000D01*
X174164000Y-80740000D02*
X172400000Y-80740000D01*
X176664000Y-80740000D02*
X175556000Y-80740000D01*
X179164000Y-80740000D02*
X178056000Y-80740000D01*
X182320000Y-68520000D02*
X182320000Y-72265000D01*
X182320000Y-76995000D02*
X182320000Y-80740000D01*
X182320000Y-80740000D02*
X180556000Y-80740000D01*
%TO.C,RV9*%
X192080000Y-140960000D02*
X192080000Y-139580000D01*
X193460000Y-140960000D02*
X192080000Y-140960000D01*
X194730000Y-138200000D02*
X199920000Y-138200000D01*
X194730000Y-140960000D02*
X194730000Y-138200000D01*
X194730000Y-140960000D02*
X199920000Y-140960000D01*
X199920000Y-140960000D02*
X199920000Y-138200000D01*
%TO.C,SW12*%
X56255000Y-87095000D02*
X70225000Y-87095000D01*
X56255000Y-101065000D02*
X56255000Y-87095000D01*
X70225000Y-87095000D02*
X70225000Y-101065000D01*
X70225000Y-101065000D02*
X56255000Y-101065000D01*
%TO.C,RV3*%
X77910000Y-140960000D02*
X77910000Y-139580000D01*
X79290000Y-140960000D02*
X77910000Y-140960000D01*
X80560000Y-138200000D02*
X85750000Y-138200000D01*
X80560000Y-140960000D02*
X80560000Y-138200000D01*
X80560000Y-140960000D02*
X85750000Y-140960000D01*
X85750000Y-140960000D02*
X85750000Y-138200000D01*
%TO.C,SW2*%
X56255000Y-107595000D02*
X70225000Y-107595000D01*
X56255000Y-121565000D02*
X56255000Y-107595000D01*
X70225000Y-107595000D02*
X70225000Y-121565000D01*
X70225000Y-121565000D02*
X56255000Y-121565000D01*
%TO.C,RV16*%
X134390000Y-68520000D02*
X144310000Y-68520000D01*
X134390000Y-72265000D02*
X134390000Y-68520000D01*
X134390000Y-80740000D02*
X134390000Y-76995000D01*
X136154000Y-80740000D02*
X134390000Y-80740000D01*
X138654000Y-80740000D02*
X137546000Y-80740000D01*
X141154000Y-80740000D02*
X140046000Y-80740000D01*
X144310000Y-68520000D02*
X144310000Y-72265000D01*
X144310000Y-76995000D02*
X144310000Y-80740000D01*
X144310000Y-80740000D02*
X142546000Y-80740000D01*
%TO.C,RV1*%
X39770000Y-140960000D02*
X39770000Y-139580000D01*
X41150000Y-140960000D02*
X39770000Y-140960000D01*
X42420000Y-138200000D02*
X47610000Y-138200000D01*
X42420000Y-140960000D02*
X42420000Y-138200000D01*
X42420000Y-140960000D02*
X47610000Y-140960000D01*
X47610000Y-140960000D02*
X47610000Y-138200000D01*
%TO.C,U3*%
X251410000Y-88117500D02*
X251410000Y-87852500D01*
X259130000Y-88117500D02*
X251410000Y-88117500D01*
X259130000Y-87852500D02*
X259130000Y-88117500D01*
X251410000Y-72762500D02*
X251410000Y-72497500D01*
X251410000Y-72497500D02*
X259130000Y-72497500D01*
X259130000Y-72497500D02*
X259130000Y-72762500D01*
X259920000Y-87857500D02*
X260260000Y-88327500D01*
X259580000Y-88327500D01*
X259920000Y-87857500D01*
G36*
X260260000Y-88327500D02*
G01*
X259580000Y-88327500D01*
X259920000Y-87857500D01*
X260260000Y-88327500D01*
G37*
%TO.C,RV11*%
X39190000Y-68520000D02*
X49110000Y-68520000D01*
X39190000Y-72265000D02*
X39190000Y-68520000D01*
X39190000Y-80740000D02*
X39190000Y-76995000D01*
X40954000Y-80740000D02*
X39190000Y-80740000D01*
X43454000Y-80740000D02*
X42346000Y-80740000D01*
X45954000Y-80740000D02*
X44846000Y-80740000D01*
X49110000Y-68520000D02*
X49110000Y-72265000D01*
X49110000Y-76995000D02*
X49110000Y-80740000D01*
X49110000Y-80740000D02*
X47346000Y-80740000D01*
%TO.C,SW4*%
X94355000Y-107595000D02*
X108325000Y-107595000D01*
X94355000Y-121565000D02*
X94355000Y-107595000D01*
X108325000Y-107595000D02*
X108325000Y-121565000D01*
X108325000Y-121565000D02*
X94355000Y-121565000D01*
%TO.C,SW23*%
X177850000Y-42980000D02*
X180250000Y-42980000D01*
X177850000Y-47080000D02*
X177850000Y-42980000D01*
X177850000Y-51080000D02*
X177850000Y-55180000D01*
X177850000Y-55180000D02*
X189650000Y-55180000D01*
X179650000Y-56280000D02*
X179950000Y-56580000D01*
X179650000Y-56880000D02*
X179650000Y-56280000D01*
X179950000Y-56580000D02*
X179650000Y-56880000D01*
X182450000Y-42980000D02*
X185050000Y-42980000D01*
X183250000Y-49080000D02*
X184250000Y-49080000D01*
X183750000Y-49580000D02*
X183750000Y-48580000D01*
X187250000Y-42980000D02*
X189650000Y-42980000D01*
X189650000Y-42980000D02*
X189650000Y-47080000D01*
X189650000Y-51080000D02*
X189650000Y-55180000D01*
X186750000Y-49080000D02*
G75*
G02*
X180750000Y-49080000I-3000000J0D01*
G01*
X180750000Y-49080000D02*
G75*
G02*
X186750000Y-49080000I3000000J0D01*
G01*
%TO.C,RV20*%
X218390000Y-68520000D02*
X228310000Y-68520000D01*
X218390000Y-72265000D02*
X218390000Y-68520000D01*
X218390000Y-80740000D02*
X218390000Y-76995000D01*
X220154000Y-80740000D02*
X218390000Y-80740000D01*
X222654000Y-80740000D02*
X221546000Y-80740000D01*
X225154000Y-80740000D02*
X224046000Y-80740000D01*
X228310000Y-68520000D02*
X228310000Y-72265000D01*
X228310000Y-76995000D02*
X228310000Y-80740000D01*
X228310000Y-80740000D02*
X226546000Y-80740000D01*
%TO.C,SW8*%
X170375000Y-107595000D02*
X184345000Y-107595000D01*
X170375000Y-121565000D02*
X170375000Y-107595000D01*
X184345000Y-107595000D02*
X184345000Y-121565000D01*
X184345000Y-121565000D02*
X170375000Y-121565000D01*
%TO.C,RV7*%
X153970000Y-140960000D02*
X153970000Y-139580000D01*
X155350000Y-140960000D02*
X153970000Y-140960000D01*
X156620000Y-138200000D02*
X161810000Y-138200000D01*
X156620000Y-140960000D02*
X156620000Y-138200000D01*
X156620000Y-140960000D02*
X161810000Y-140960000D01*
X161810000Y-140960000D02*
X161810000Y-138200000D01*
%TO.C,RV12*%
X58280000Y-68520000D02*
X68200000Y-68520000D01*
X58280000Y-72265000D02*
X58280000Y-68520000D01*
X58280000Y-80740000D02*
X58280000Y-76995000D01*
X60044000Y-80740000D02*
X58280000Y-80740000D01*
X62544000Y-80740000D02*
X61436000Y-80740000D01*
X65044000Y-80740000D02*
X63936000Y-80740000D01*
X68200000Y-68520000D02*
X68200000Y-72265000D01*
X68200000Y-76995000D02*
X68200000Y-80740000D01*
X68200000Y-80740000D02*
X66436000Y-80740000D01*
%TO.C,RV10*%
X218970000Y-140960000D02*
X218970000Y-139580000D01*
X220350000Y-140960000D02*
X218970000Y-140960000D01*
X221620000Y-138200000D02*
X226810000Y-138200000D01*
X221620000Y-140960000D02*
X221620000Y-138200000D01*
X221620000Y-140960000D02*
X226810000Y-140960000D01*
X226810000Y-140960000D02*
X226810000Y-138200000D01*
%TO.C,SW13*%
X75305000Y-87095000D02*
X89275000Y-87095000D01*
X75305000Y-101065000D02*
X75305000Y-87095000D01*
X89275000Y-87095000D02*
X89275000Y-101065000D01*
X89275000Y-101065000D02*
X75305000Y-101065000D01*
%TD*%
M02*
