M48
; DRILL file KiCad 10.0.6 date 2026-10-04T15:24:34
; FORMAT={-:-/ absolute / metric / decimal}
; #@! TF.CreationDate,2026-10-04T15:24:34+02:00
; #@! TF.GenerationSoftware,Kicad,Pcbnew,10.0.6
; #@! TF.FileFunction,NonPlated,1,2,NPTH
FMAT,2
METRIC
; #@! TA.AperFunction,NonPlated,NPTH,ComponentDrill
T1C4.000
%
G90
G05
T1
X44.15Y-94.08
X44.15Y-114.58
X63.24Y-94.08
X63.24Y-114.58
X82.29Y-94.08
X82.29Y-114.58
X101.34Y-94.08
X101.34Y-114.58
X120.3Y-94.08
X120.3Y-114.58
X139.35Y-94.08
X139.35Y-114.58
X158.35Y-94.08
X158.35Y-114.58
X177.36Y-94.08
X177.36Y-114.58
X196.46Y-94.08
X196.46Y-114.58
X223.35Y-94.08
X223.35Y-114.58
M30
